<?xml version="1.0" encoding="UTF-8" standalone="no"?>
<!DOCTYPE svg PUBLIC "-//W3C//DTD SVG 1.1//EN" "http://www.w3.org/Graphics/SVG/1.1/DTD/svg11.dtd">
<svg xmlns="http://www.w3.org/2000/svg" version="1.1" viewBox="0.00 0.00 1448.00 1448.00">
<g stroke-width="2.00" fill="none" stroke-linecap="butt">
<path stroke="#805219" vector-effect="non-scaling-stroke" d="
  M 707.91 364.76
  Q 711.05 362.77 713.82 360.33
  Q 714.30 359.91 713.82 359.49
  C 687.47 336.37 652.16 338.25 623.68 355.90
  A 0.43 0.43 0.0 0 0 623.58 356.55
  Q 629.84 363.78 632.91 371.95
  Q 633.37 373.17 634.61 373.64
  Q 640.26 375.82 645.71 376.25
  Q 675.55 378.64 704.00 366.82
  Q 705.92 366.02 707.91 364.76"
/>
<path stroke="#756f62" vector-effect="non-scaling-stroke" d="
  M 591.1102 424.7945
  A 31.65 26.46 87.7 0 0 616.2787 392.1081
  A 31.65 26.46 87.7 0 0 588.5698 361.5455
  A 31.65 26.46 87.7 0 0 563.4013 394.2319
  A 31.65 26.46 87.7 0 0 591.1102 424.7945"
/>
<path stroke="#363636" vector-effect="non-scaling-stroke" d="
  M 637.10 396.74
  C 636.90 399.58 636.66 402.37 635.98 405.17
  Q 635.63 406.62 637.11 406.80
  Q 644.74 407.70 652.34 407.49
  Q 682.78 406.63 712.91 395.87
  C 718.30 393.94 723.86 391.29 728.65 388.11
  Q 730.49 386.89 731.76 384.99
  A 1.80 1.80 0.0 0 0 731.83 383.11
  L 728.02 376.35
  A 0.31 0.30 -34.8 0 0 727.56 376.27
  Q 718.33 384.07 704.86 388.95
  C 684.37 396.39 659.80 399.78 637.73 396.24
  A 0.54 0.54 0.0 0 0 637.10 396.74"
/>
<path stroke="#673222" vector-effect="non-scaling-stroke" d="
  M 670.21 427.00
  L 659.54 427.93"
/>
<path stroke="#805219" vector-effect="non-scaling-stroke" d="
  M 659.54 427.93
  Q 647.55 428.67 635.62 427.37
  C 633.00 427.08 630.51 426.24 627.98 425.67
  Q 627.38 425.54 627.02 426.03
  Q 621.08 434.04 614.69 438.09
  Q 592.23 452.30 568.43 439.90
  Q 567.98 439.67 567.54 439.92
  Q 562.43 442.85 556.03 446.28
  C 551.93 448.48 546.60 452.85 544.79 457.53
  C 543.46 460.96 549.96 464.23 552.32 465.14
  Q 561.94 468.85 573.80 469.22
  Q 595.01 469.88 615.14 463.40
  C 623.13 460.82 631.48 457.12 638.03 451.87
  C 644.78 446.47 651.70 442.68 660.49 442.83
  C 664.73 442.90 668.88 443.33 673.13 443.12
  Q 698.08 441.89 721.38 432.46
  C 728.66 429.52 736.47 425.56 741.95 419.91
  Q 742.55 419.29 742.40 418.42
  L 740.25 406.27
  Q 740.13 405.56 739.53 405.95
  Q 734.60 409.18 727.88 412.03
  Q 700.20 423.75 670.21 427.00"
/>
<path stroke="#e7833b" vector-effect="non-scaling-stroke" d="
  M 659.54 427.93
  Q 665.57 428.71 670.21 427.00"
/>
<path stroke="#4f4d4c" vector-effect="non-scaling-stroke" d="
  M 355.47 448.02
  C 307.24 457.08 259.91 476.60 221.55 506.26
  A 0.60 0.59 -37.1 0 0 221.43 507.09
  L 242.33 535.11
  A 0.26 0.26 0.0 0 0 242.72 535.14
  Q 255.11 523.16 269.75 513.06
  Q 291.44 498.11 316.14 484.82
  Q 361.26 460.54 409.97 443.67
  Q 411.54 443.12 409.88 443.11
  Q 382.13 443.00 355.47 448.02"
/>
<path stroke="#808080" vector-effect="non-scaling-stroke" d="
  M 660.10 463.32
  A 0.43 0.42 82.4 0 0 659.67 463.89
  C 662.91 472.82 658.98 481.96 649.60 483.91
  Q 640.40 485.82 634.77 478.82
  Q 634.34 478.29 633.72 478.56
  Q 601.34 492.55 565.79 489.63
  A 0.55 0.55 0.0 0 0 565.22 490.00
  Q 561.29 501.08 560.78 516.60
  Q 560.70 519.00 562.20 520.92
  Q 565.22 524.82 570.72 523.39
  Q 577.64 521.59 582.09 517.47
  C 587.70 512.28 592.95 506.52 599.35 502.43
  C 609.43 495.99 619.49 506.78 615.35 517.00
  C 609.63 531.14 606.45 544.34 610.32 559.53
  C 611.15 562.80 612.60 566.29 614.73 568.74
  C 618.47 573.02 625.38 573.08 630.80 572.83
  C 633.12 572.72 636.41 572.08 638.24 571.01
  C 647.97 565.28 657.71 560.87 668.96 561.11
  Q 680.15 561.35 689.00 568.27
  C 704.45 580.34 708.58 603.31 709.17 621.85
  Q 709.80 641.46 706.73 661.62
  Q 706.64 662.19 707.21 662.29
  C 736.46 667.42 767.90 665.80 796.65 658.61
  C 808.05 655.76 820.11 651.63 829.37 645.17
  A 1.71 1.70 -19.4 0 0 830.09 643.67
  Q 825.45 566.66 785.55 502.83
  Q 765.66 471.00 738.58 448.63
  A 1.62 1.61 -37.9 0 0 736.86 448.42
  C 713.56 459.54 685.66 465.52 660.10 463.32"
/>
<path stroke="#363636" vector-effect="non-scaling-stroke" d="
  M 198.1032 512.1480
  A 0.57 0.57 0.0 0 0 197.3039 512.0442
  L 172.6161 531.0563
  A 0.57 0.57 0.0 0 0 172.5123 531.8557
  L 204.7768 573.7520
  A 0.57 0.57 0.0 0 0 205.5761 573.8558
  L 230.2639 554.8437
  A 0.57 0.57 0.0 0 0 230.3677 554.0443
  L 198.1032 512.1480"
/>
<path stroke="#805219" vector-effect="non-scaling-stroke" d="
  M 537.07 602.11
  Q 525.84 627.45 510.23 650.36
  C 505.60 657.15 500.33 663.02 494.46 668.68
  Q 490.40 672.60 491.65 677.99
  C 492.11 679.97 493.76 681.12 495.04 682.54
  C 496.52 684.19 498.73 684.54 500.78 684.19
  C 512.78 682.16 524.69 676.11 535.02 669.53
  Q 553.99 657.45 570.64 642.29
  C 580.82 633.02 589.33 621.99 598.68 611.80
  C 604.08 605.91 608.83 599.10 613.86 592.77
  A 0.41 0.41 0.0 0 0 613.66 592.12
  C 591.65 585.70 586.24 560.23 587.56 540.22
  Q 587.62 539.42 586.90 539.80
  Q 578.92 543.98 570.53 544.86
  Q 564.11 545.53 557.88 543.24
  A 0.67 0.66 18.4 0 0 557.01 543.67
  C 551.27 563.51 545.44 583.22 537.07 602.11"
/>
<path stroke="#4f4d4c" vector-effect="non-scaling-stroke" d="
  M 61.22 679.80
  Q 53.91 696.69 48.85 715.15
  Q 48.24 717.38 49.55 715.48
  Q 83.95 665.88 127.93 623.28
  C 144.79 606.95 162.56 591.63 182.57 579.93
  A 0.38 0.38 0.0 0 0 182.68 579.37
  L 161.49 551.75
  A 0.58 0.57 -36.8 0 0 160.69 551.64
  Q 141.39 565.84 124.79 583.41
  Q 84.45 626.09 61.22 679.80"
/>
<path stroke="#54633a" vector-effect="non-scaling-stroke" d="
  M 857.84 615.18
  Q 857.80 616.16 858.52 615.49
  Q 874.98 600.07 894.18 589.82
  Q 894.69 589.55 894.49 589.02
  Q 888.92 574.15 883.50 566.18
  Q 880.06 561.09 874.38 559.09
  Q 872.85 558.54 872.04 559.97
  C 862.51 576.81 858.56 595.55 857.84 615.18"
/>
<path stroke="#24180c" vector-effect="non-scaling-stroke" d="
  M 227.89 589.09
  C 289.33 669.99 351.46 751.87 413.35 833.57
  C 417.15 838.58 421.32 843.14 425.02 848.16
  A 0.35 0.34 -45.5 0 0 425.58 848.15
  Q 428.68 843.75 432.85 840.35
  A 0.56 0.56 0.0 0 0 432.94 839.58
  L 236.42 577.69
  A 0.76 0.76 0.0 0 0 235.36 577.54
  L 225.66 584.97
  A 0.89 0.89 0.0 0 0 225.54 586.27
  Q 226.81 587.66 227.89 589.09"
/>
<path stroke="#54633a" vector-effect="non-scaling-stroke" d="
  M 930.87 598.44
  C 903.65 604.46 880.53 621.28 861.69 641.86
  Q 861.25 642.34 861.90 642.41
  Q 883.59 644.64 904.68 641.50
  C 920.53 639.14 936.82 635.48 951.66 629.33
  A 0.53 0.52 68.7 0 0 951.95 628.66
  C 947.96 617.95 942.17 607.67 934.59 599.60
  C 933.62 598.56 932.27 598.13 930.87 598.44"
/>
<path stroke="#363636" vector-effect="non-scaling-stroke" d="
  M 672.22 798.76
  Q 672.83 806.03 673.71 813.23
  Q 673.95 815.14 673.90 817.28
  Q 673.86 819.34 673.90 821.32
  A 0.83 0.82 89.3 0 0 674.72 822.13
  Q 684.19 822.08 693.06 817.91"
/>
<path stroke="#54633a" vector-effect="non-scaling-stroke" d="
  M 693.06 817.91
  Q 694.31 817.76 695.50 817.00"
/>
<path stroke="#363636" vector-effect="non-scaling-stroke" d="
  M 695.50 817.00
  Q 696.76 816.87 698.27 816.07"
/>
<path stroke="#54633a" vector-effect="non-scaling-stroke" d="
  M 698.27 816.07
  Q 722.18 804.81 742.85 788.11
  Q 778.78 759.09 806.08 721.11
  C 817.92 704.66 828.55 686.36 834.37 667.35
  Q 834.57 666.68 833.94 667.00
  Q 816.00 676.24 793.14 680.93
  C 763.14 687.09 730.35 688.32 700.33 682.18
  Q 691.85 680.45 683.92 677.42
  C 682.19 676.77 680.46 677.11 679.01 678.22
  Q 670.31 684.89 666.49 696.41
  C 665.27 700.10 665.71 704.20 666.79 707.78
  C 670.03 718.53 674.62 731.38 667.74 741.87
  C 665.93 744.64 663.24 746.98 661.85 749.86
  Q 658.94 755.92 661.05 762.25
  C 665.04 774.24 669.27 785.17 672.22 798.76"
/>
<path stroke="#8a9870" vector-effect="non-scaling-stroke" d="
  M 698.27 816.07
  Q 696.07 815.91 695.50 817.00"
/>
<path stroke="#8a9870" vector-effect="non-scaling-stroke" d="
  M 693.06 817.91
  L 675.90 821.69
  A 1.14 1.13 -6.4 0 1 674.52 820.59
  Q 674.43 809.70 672.22 798.76"
/>
<path stroke="#1c1816" vector-effect="non-scaling-stroke" d="
  M 872.18 697.81
  C 893.15 733.95 910.70 775.09 925.08 815.96
  Q 934.15 841.75 940.76 871.16
  Q 941.67 875.21 941.65 884.23
  Q 941.64 885.51 942.93 885.52
  L 947.31 885.53
  Q 948.60 885.54 948.56 884.25
  Q 948.33 874.33 946.69 864.90
  Q 941.24 833.46 930.39 800.56
  C 917.71 762.08 901.30 724.09 878.80 691.76
  C 876.34 688.22 870.92 688.42 867.00 688.05
  A 0.44 0.43 76.1 0 0 866.60 688.72
  Q 869.55 693.28 872.18 697.81"
/>
<path stroke="#4f4d4c" vector-effect="non-scaling-stroke" d="
  M 875.89 895.44
  L 871.12 899.45"
/>
<path stroke="#363636" vector-effect="non-scaling-stroke" d="
  M 871.12 899.45
  L 867.42 902.43"
/>
<path stroke="#363636" vector-effect="non-scaling-stroke" d="
  M 867.42 902.43
  Q 864.97 904.06 859.13 908.50
  Q 857.85 909.47 857.51 910.42"
/>
<path stroke="#756f62" vector-effect="non-scaling-stroke" d="
  M 857.51 910.42
  Q 857.00 910.81 857.29 910.63"
/>
<path stroke="#363636" vector-effect="non-scaling-stroke" d="
  M 857.29 910.63
  Q 854.62 912.37 853.19 914.89
  Q 853.12 915.01 853.16 915.15
  Q 853.19 915.27 853.26 915.41"
/>
<path stroke="#756f62" vector-effect="non-scaling-stroke" d="
  M 853.26 915.41
  L 852.36 915.96"
/>
<path stroke="#363636" vector-effect="non-scaling-stroke" d="
  M 852.36 915.96
  L 846.18 921.49"
/>
<path stroke="#363636" vector-effect="non-scaling-stroke" d="
  M 846.18 921.49
  Q 844.86 921.99 843.66 922.87
  Q 841.55 924.42 841.50 924.45
  Q 833.48 929.54 824.38 931.95
  A 0.82 0.82 0.0 0 0 823.79 932.54
  Q 823.61 933.22 824.02 933.56
  Q 832.02 940.09 839.99 944.71
  Q 841.34 945.49 842.06 944.11
  L 844.82 938.92"
/>
<path stroke="#756f62" vector-effect="non-scaling-stroke" d="
  M 844.82 938.92
  Q 848.86 932.81 855.03 925.74
  Q 871.58 906.77 892.66 897.04
  Q 901.91 892.76 920.67 887.97
  Q 921.12 887.85 921.09 887.39
  Q 920.24 873.23 916.65 859.71
  Q 912.53 844.18 907.05 827.97
  Q 893.05 786.54 873.18 744.36
  Q 860.50 717.43 849.10 699.33
  C 847.07 696.12 844.17 697.31 842.83 700.32
  Q 839.96 706.82 835.42 714.24
  Q 798.27 774.96 740.04 816.26
  C 734.08 820.49 727.60 824.31 721.15 828.09
  Q 720.10 828.70 720.87 829.63
  L 739.24 851.77
  A 0.41 0.41 0.0 0 0 739.95 851.61
  C 751.15 806.26 805.21 787.12 842.89 813.74
  Q 864.79 829.20 870.16 856.31
  Q 871.05 860.84 871.47 869.60
  Q 871.51 870.39 872.02 869.79
  Q 878.01 862.84 883.07 855.67
  C 892.16 842.81 909.25 854.90 899.85 868.34
  Q 889.01 883.86 875.89 895.44"
/>
<path stroke="#aba497" vector-effect="non-scaling-stroke" d="
  M 844.82 938.92
  Q 843.02 940.91 842.18 943.08
  A 1.27 1.27 0.0 0 1 840.29 943.68
  L 827.83 935.38"
/>
<path stroke="#c4bcae" vector-effect="non-scaling-stroke" d="
  M 827.83 935.38
  Q 826.64 934.11 825.04 933.47"
/>
<path stroke="#aba497" vector-effect="non-scaling-stroke" d="
  M 825.04 933.47
  Q 825.02 933.08 825.09 932.84
  Q 825.16 932.60 825.54 932.49
  Q 835.62 929.50 844.88 922.87
  Q 845.97 922.08 846.18 921.49"
/>
<path stroke="#aba497" vector-effect="non-scaling-stroke" d="
  M 846.18 921.49
  Q 849.93 919.63 852.36 915.96"
/>
<path stroke="#aba497" vector-effect="non-scaling-stroke" d="
  M 853.26 915.41
  Q 855.71 913.46 857.29 910.63"
/>
<path stroke="#aba497" vector-effect="non-scaling-stroke" d="
  M 857.51 910.42
  Q 862.57 906.97 867.19 903.13
  Q 867.37 902.98 867.41 902.83
  Q 867.46 902.63 867.42 902.43"
/>
<path stroke="#aba497" vector-effect="non-scaling-stroke" d="
  M 867.42 902.43
  Q 868.04 902.68 868.75 901.96
  Q 869.27 901.43 871.18 899.96"
/>
<path stroke="#c4bcae" vector-effect="non-scaling-stroke" d="
  M 871.18 899.96
  Q 874.49 898.00 875.89 895.44"
/>
<path stroke="#858382" vector-effect="non-scaling-stroke" d="
  M 825.04 933.47
  Q 826.06 935.27 827.83 935.38"
/>
<path stroke="#858382" vector-effect="non-scaling-stroke" d="
  M 871.18 899.96
  Q 871.55 900.04 871.12 899.45"
/>
<path stroke="#756f62" vector-effect="non-scaling-stroke" d="
  M 1054.37 732.30
  Q 985.61 700.38 908.87 698.87
  Q 908.36 698.86 908.61 699.31
  C 931.51 739.44 948.81 783.93 960.36 829.05
  Q 966.19 851.81 969.51 876.47
  Q 969.84 878.93 970.28 887.47
  Q 970.31 887.99 970.81 888.11
  L 978.15 889.86
  A 0.78 0.78 0.0 0 0 978.95 889.58
  C 983.75 883.35 990.94 877.78 997.35 873.70
  C 1005.72 868.37 1015.94 870.28 1023.86 875.43
  Q 1032.64 881.13 1044.72 891.91
  C 1052.86 899.19 1056.91 905.60 1051.85 916.03
  Q 1048.98 921.97 1045.66 928.36
  Q 1044.36 930.87 1042.38 932.83
  Q 1041.99 933.22 1042.31 933.66
  C 1061.27 959.92 1067.48 992.75 1058.96 1023.58
  C 1047.39 1065.44 1012.89 1095.30 970.85 1104.26
  C 900.71 1119.22 828.92 1071.19 827.90 996.13
  Q 827.89 995.57 827.37 995.39
  Q 817.44 991.94 808.54 986.23
  Q 786.05 971.80 762.15 949.50
  C 761.45 948.85 760.85 948.85 759.95 949.03
  Q 708.25 958.84 656.06 952.80
  Q 655.47 952.73 655.68 953.29
  C 685.28 1029.07 757.29 1079.75 832.85 1103.40
  Q 900.65 1124.61 972.26 1119.08
  C 977.92 1118.65 985.06 1117.68 989.69 1115.87
  C 998.16 1112.55 1007.34 1109.20 1014.93 1105.69
  Q 1094.29 1068.95 1131.85 990.31
  C 1155.39 941.03 1161.50 884.03 1154.42 830.00
  Q 1152.72 817.00 1150.11 803.30
  A 3.28 3.27 -71.4 0 0 1149.33 801.72
  C 1122.97 772.14 1090.33 749.00 1054.37 732.30"
/>
<path stroke="#54633a" vector-effect="non-scaling-stroke" d="
  M 760.19 874.43
  L 772.73 886.93"
/>
<path stroke="#673222" vector-effect="non-scaling-stroke" d="
  M 772.73 886.93
  Q 779.07 893.02 786.75 900.49
  Q 794.67 908.19 800.54 913.20
  Q 802.59 914.95 804.32 914.26
  Q 814.78 910.07 824.51 905.39
  Q 827.65 903.88 830.32 902.24
  Q 833.28 900.42 836.00 898.82
  Q 836.21 898.69 836.46 898.67
  Q 836.78 898.64 837.02 898.42
  Q 838.49 897.05 840.20 895.94
  Q 842.41 894.52 844.13 891.42
  Q 852.99 875.46 849.15 858.06
  C 845.36 840.89 831.43 827.12 814.44 823.62
  Q 791.36 818.86 774.03 834.23
  Q 757.81 848.60 758.93 870.99
  Q 759.01 872.61 760.19 874.43"
/>
<path stroke="#bb945c" vector-effect="non-scaling-stroke" d="
  M 772.73 886.93
  Q 778.51 880.29 782.75 872.02
  Q 783.09 871.34 783.23 872.09
  Q 784.20 877.28 785.27 882.35
  C 786.32 887.35 789.20 892.26 794.69 892.77
  C 799.77 893.25 803.43 890.24 805.66 885.97
  Q 808.12 881.25 810.71 876.44
  Q 811.26 875.42 811.37 876.57
  Q 812.31 885.92 813.09 894.70
  C 813.67 901.19 818.66 906.84 825.72 903.83
  C 831.96 901.16 832.04 896.47 831.45 890.19
  Q 829.76 872.03 827.96 855.98
  C 827.38 850.83 826.07 845.97 821.37 843.38
  C 816.47 840.68 810.97 842.95 807.78 847.19
  Q 803.59 852.76 799.77 859.04
  Q 799.29 859.83 799.05 858.93
  C 796.70 849.96 790.52 840.30 780.06 845.31
  C 775.13 847.67 771.18 855.12 768.18 859.93
  Q 762.89 868.39 760.19 874.43"
/>
<path stroke="#756f62" vector-effect="non-scaling-stroke" d="
  M 672.00 843.65
  A 1.30 1.30 0.0 0 0 670.94 842.99
  C 664.86 842.63 658.22 841.50 654.38 836.78
  Q 653.82 836.10 653.67 836.96
  Q 652.24 844.80 650.13 852.44
  C 643.16 877.60 643.03 904.50 648.77 930.06
  Q 648.90 930.66 649.52 930.75
  Q 696.26 937.27 742.11 930.77
  A 0.25 0.25 0.0 0 0 742.25 930.35
  Q 710.34 898.29 683.91 862.22
  Q 677.30 853.19 672.00 843.65"
/>
<path stroke="#1c1816" vector-effect="non-scaling-stroke" d="
  M 731.33 874.32
  C 730.82 873.80 730.45 872.90 729.89 872.29
  Q 713.06 854.23 701.28 838.15
  Q 700.78 837.47 699.99 837.74
  L 694.97 839.45
  A 0.77 0.77 0.0 0 0 694.58 840.61
  Q 704.91 855.90 712.52 865.49
  Q 737.43 896.87 766.75 925.04
  Q 767.62 925.88 768.80 925.58
  L 779.17 922.89
  A 0.34 0.34 0.0 0 0 779.31 922.31
  Q 764.48 909.03 750.37 894.20
  Q 740.79 884.13 731.33 874.32"
/>
<path stroke="#808080" vector-effect="non-scaling-stroke" d="
  M 1176.67 841.07
  C 1185.52 936.61 1153.62 1031.18 1077.56 1091.83
  Q 1076.51 1092.67 1077.76 1092.18
  Q 1080.31 1091.16 1082.78 1089.96
  C 1121.91 1070.90 1156.11 1043.37 1177.46 1006.57
  Q 1206.08 957.26 1197.87 901.13
  C 1194.79 880.12 1187.41 859.53 1177.08 840.94
  Q 1176.57 840.01 1176.67 841.07"
/>
<path stroke="#808080" vector-effect="non-scaling-stroke" d="
  M 482.45 849.29
  Q 479.38 847.59 474.47 847.12
  Q 467.36 846.43 460.88 846.35
  Q 451.85 846.23 446.75 851.81
  C 436.50 863.03 443.99 874.48 456.93 876.81
  C 465.06 878.28 476.02 877.06 482.85 872.59
  C 491.98 866.60 492.17 854.67 482.45 849.29"
/>
<path stroke="#4f4d4c" vector-effect="non-scaling-stroke" d="
  M 1031.26 909.24
  A 0.35 0.35 0.0 0 0 1031.18 908.82
  Q 1022.66 900.79 1013.50 894.26
  Q 1011.78 893.04 1009.79 892.36
  Q 1008.38 891.87 1007.19 892.78
  L 1001.25 897.34
  Q 1000.10 898.22 1001.40 898.87
  Q 1015.19 905.72 1027.23 916.74
  A 0.16 0.16 0.0 0 0 1027.48 916.69
  L 1031.26 909.24"
/>
<path stroke="#24180c" vector-effect="non-scaling-stroke" d="
  M 460.76 893.07
  Q 460.20 893.02 459.65 893.07
  A 0.29 0.29 0.0 0 0 459.44 893.54
  Q 491.83 936.24 526.65 981.84
  C 528.95 984.86 530.71 988.26 533.01 991.31
  Q 552.56 1017.17 572.26 1043.09
  A 0.69 0.68 53.1 0 0 573.21 1043.23
  Q 576.99 1040.45 581.49 1038.40
  Q 582.03 1038.15 581.67 1037.68
  Q 565.65 1016.43 549.48 994.92
  C 548.15 993.15 546.24 991.25 545.07 989.67
  Q 509.14 941.37 473.10 893.18
  A 1.67 1.66 66.4 0 0 471.46 892.53
  Q 465.92 893.54 460.76 893.07"
/>
<path stroke="#4f4d4c" vector-effect="non-scaling-stroke" d="
  M 869.57 941.28
  C 868.61 941.89 868.29 943.00 867.58 943.94
  Q 865.25 947.05 862.06 952.95
  Q 857.36 961.66 853.82 969.93
  Q 850.50 977.69 849.57 985.92
  Q 847.00 1008.62 855.19 1028.55
  C 870.00 1064.55 907.02 1086.44 945.32 1086.09
  Q 981.95 1085.76 1009.20 1063.43
  C 1027.46 1048.46 1039.91 1026.45 1041.59 1002.70
  C 1044.02 968.44 1026.55 937.76 997.37 920.49
  Q 969.92 904.26 937.52 906.72
  Q 913.87 908.51 893.32 920.80
  Q 882.95 927.01 873.67 936.76
  Q 872.74 937.75 871.99 938.84
  Q 871.71 939.26 871.25 939.49
  Q 870.47 939.87 870.10 940.68
  A 1.37 1.33 -4.2 0 1 869.57 941.28"
/>
<path stroke="#1c1816" vector-effect="non-scaling-stroke" d="
  M 817.66 954.08
  Q 808.18 947.20 798.71 939.58
  Q 798.10 939.09 797.35 939.32
  L 786.74 942.61
  Q 786.02 942.84 786.58 943.34
  Q 801.17 956.38 817.44 967.30
  Q 823.63 971.46 829.82 974.11
  A 0.51 0.50 18.9 0 0 830.50 973.78
  L 832.93 964.88
  A 0.92 0.91 -67.6 0 0 832.51 963.85
  Q 824.96 959.37 817.66 954.08"
/>
<path stroke="#808080" vector-effect="non-scaling-stroke" d="
  M 569.35 1073.38
  C 566.62 1079.00 566.12 1085.87 570.72 1090.66
  C 578.54 1098.80 590.09 1092.88 596.38 1086.39
  C 602.87 1079.70 608.35 1070.69 608.85 1061.31
  C 609.45 1050.02 598.02 1046.30 589.48 1051.77
  Q 575.50 1060.74 569.35 1073.38"
/>
<path stroke="#24180c" vector-effect="non-scaling-stroke" d="
  M 616.98 1084.79
  A 0.34 0.34 0.0 0 0 616.45 1084.78
  L 610.07 1092.62
  A 0.34 0.34 0.0 0 0 610.06 1093.04
  L 715.16 1231.67
  A 0.34 0.34 0.0 0 0 715.64 1231.73
  L 722.61 1226.22
  A 0.34 0.34 0.0 0 0 722.67 1225.75
  L 616.98 1084.79"
/>
<path stroke="#805219" vector-effect="non-scaling-stroke" d="
  M 787.96 1180.93
  Q 761.81 1192.94 733.33 1198.77
  Q 732.68 1198.91 733.19 1199.34
  C 743.13 1207.78 748.49 1218.52 751.10 1230.61
  A 0.52 0.52 0.0 0 0 751.78 1230.99
  Q 762.23 1227.27 771.80 1224.83
  Q 792.52 1219.55 811.65 1223.82
  C 820.57 1225.81 828.96 1229.34 837.25 1232.59
  A 0.29 0.29 0.0 0 0 837.65 1232.27
  C 832.94 1206.92 835.00 1181.50 839.28 1156.16
  Q 841.60 1142.49 846.19 1129.61
  Q 846.31 1129.27 845.96 1129.18
  L 839.00 1127.33
  Q 838.74 1127.26 838.65 1127.52
  Q 836.04 1134.69 831.39 1141.14
  C 819.85 1157.13 805.85 1172.71 787.96 1180.93"
/>
<path stroke="#805219" vector-effect="non-scaling-stroke" d="
  M 982.34 1215.18
  Q 977.49 1225.47 975.17 1228.72
  Q 970.21 1235.66 965.08 1242.59
  Q 962.19 1246.50 958.43 1249.89
  C 950.96 1256.63 943.43 1264.04 934.57 1268.85
  Q 922.11 1275.61 907.97 1281.60
  C 894.68 1287.22 880.61 1290.57 866.66 1292.55
  A 0.46 0.45 74.1 0 0 866.31 1293.19
  Q 873.18 1308.48 872.74 1326.22
  Q 872.72 1326.95 873.37 1326.63
  C 884.42 1321.18 895.65 1317.89 908.08 1319.85
  Q 934.94 1324.07 950.69 1345.06
  A 1.73 1.71 -21.2 0 0 952.24 1345.73
  C 955.81 1345.35 958.20 1344.24 962.44 1342.52
  Q 978.71 1335.96 988.09 1320.52
  Q 989.38 1318.40 988.74 1316.20
  Q 984.58 1302.02 984.22 1284.98
  Q 983.57 1254.65 989.01 1226.83
  Q 994.82 1197.16 1003.40 1173.56
  Q 1010.74 1153.36 1019.65 1133.78
  Q 1019.78 1133.49 1019.47 1133.55
  L 988.70 1139.36
  Q 988.09 1139.47 988.25 1140.06
  C 989.67 1145.31 991.46 1150.48 992.42 1155.94
  Q 995.94 1176.01 989.17 1197.20
  Q 985.70 1208.04 982.34 1215.18"
/>
<path stroke="#54633a" vector-effect="non-scaling-stroke" d="
  M 693.48 748.95
  C 716.85 745.55 741.30 736.14 760.34 722.21
  Q 764.18 719.40 766.30 715.91
  C 768.71 711.94 768.03 706.46 764.52 703.37
  C 758.90 698.42 753.02 700.95 747.92 705.21
  Q 742.77 709.50 736.88 712.69
  C 720.58 721.51 701.72 727.85 683.32 728.93
  Q 677.34 729.29 674.30 733.74
  C 669.82 740.30 674.31 748.54 681.79 749.39
  Q 686.61 749.94 693.48 748.95"
/>
</g>
<path fill="#000000" d="
  M 841.41 579.47
  A 0.25 0.25 0.0 0 0 841.89 579.47
  Q 845.94 562.98 854.45 548.68
  C 858.87 541.25 864.60 536.89 873.83 537.82
  C 887.76 539.23 897.65 547.80 904.27 559.97
  Q 909.96 570.43 913.35 580.16
  A 1.47 1.46 71.1 0 0 915.19 581.07
  Q 923.15 578.44 931.13 577.33
  C 950.62 574.61 966.79 608.16 972.05 622.56
  Q 972.91 624.91 973.98 627.04
  C 978.47 635.99 972.70 642.29 965.11 646.06
  C 952.52 652.33 938.81 656.08 924.90 659.11
  C 902.20 664.06 880.83 665.48 857.36 663.03
  A 0.63 0.63 0.0 0 0 856.68 663.52
  L 855.48 668.74
  A 0.29 0.28 88.5 0 0 855.84 669.09
  Q 864.61 666.45 873.60 667.04
  Q 882.34 667.61 890.39 673.63
  C 891.92 674.78 893.51 677.60 895.43 677.57
  Q 980.04 676.59 1056.29 709.83
  C 1135.14 744.19 1206.52 811.69 1219.31 900.20
  C 1223.88 931.81 1219.50 964.46 1207.48 993.41
  C 1183.58 1051.01 1133.07 1093.36 1075.46 1116.36
  Q 1065.80 1120.22 1056.74 1123.76
  C 1053.59 1124.99 1047.27 1125.87 1045.65 1129.08
  Q 1029.51 1161.10 1019.76 1191.26
  Q 1015.52 1204.35 1011.46 1222.75
  Q 1004.48 1254.37 1005.48 1286.00
  Q 1005.93 1300.31 1010.39 1314.89
  Q 1011.19 1317.51 1010.30 1322.02
  Q 1009.39 1326.63 1005.31 1332.82
  Q 997.33 1344.94 988.61 1351.61
  C 978.47 1359.36 952.08 1374.03 939.78 1362.90
  C 937.79 1361.10 935.59 1359.65 933.77 1357.68
  C 931.02 1354.71 928.49 1351.60 925.25 1349.19
  C 916.57 1342.76 902.97 1338.08 892.23 1341.80
  Q 878.82 1346.43 865.43 1354.61
  C 858.70 1358.73 851.39 1357.08 848.41 1349.66
  C 846.41 1344.69 846.21 1340.98 848.43 1336.06
  C 849.79 1333.04 851.08 1329.77 851.35 1326.46
  Q 852.26 1315.19 847.34 1302.82
  C 845.43 1298.03 842.66 1295.00 838.77 1292.01
  C 832.33 1287.07 832.12 1278.27 839.38 1273.99
  Q 843.34 1271.67 846.83 1271.21
  C 850.43 1270.74 853.84 1272.40 857.52 1272.15
  Q 870.28 1271.25 885.98 1266.96
  C 898.05 1263.67 910.60 1257.48 921.83 1251.69
  C 929.93 1247.52 935.97 1241.44 942.72 1235.45
  Q 946.86 1231.77 950.22 1226.93
  C 953.64 1222.02 957.41 1217.62 960.12 1212.24
  C 971.48 1189.74 979.22 1164.07 963.83 1141.66
  Q 963.29 1140.87 962.33 1140.92
  Q 914.23 1143.49 867.19 1134.04
  A 0.76 0.75 16.2 0 0 866.34 1134.50
  Q 863.25 1142.25 861.45 1150.16
  Q 856.43 1172.32 855.53 1196.07
  C 854.94 1211.83 856.82 1226.73 861.04 1241.43
  C 862.42 1246.25 861.93 1250.23 859.38 1254.45
  C 854.62 1262.32 846.48 1260.61 839.63 1256.65
  Q 830.41 1251.33 815.00 1245.99
  Q 795.64 1239.27 774.74 1245.15
  Q 764.73 1247.97 754.17 1251.57
  Q 751.21 1252.59 748.69 1253.85
  C 746.48 1254.96 744.36 1256.55 741.83 1256.76
  Q 734.05 1257.43 730.96 1250.34
  C 730.60 1249.52 730.72 1248.50 730.41 1247.67
  Q 730.19 1247.06 729.67 1247.44
  C 726.54 1249.69 723.15 1252.71 719.80 1254.13
  Q 709.41 1258.56 702.30 1249.20
  Q 648.33 1178.14 593.21 1105.27
  A 1.22 1.22 0.0 0 0 591.74 1104.90
  C 577.98 1111.26 559.80 1109.06 552.71 1094.28
  C 547.49 1083.41 550.34 1069.28 557.39 1059.54
  A 1.20 1.19 -45.7 0 0 557.38 1058.12
  Q 384.36 830.01 211.37 601.67
  Q 210.37 600.35 209.49 598.86
  A 1.31 1.29 -25.9 0 0 207.88 598.31
  Q 202.27 600.58 197.04 597.08
  A 1.19 1.18 48.6 0 0 195.86 597.00
  Q 185.45 602.04 176.98 608.41
  Q 159.92 621.23 142.51 638.08
  Q 117.19 662.58 90.26 695.78
  Q 69.63 721.22 54.22 747.26
  Q 46.21 760.79 42.74 772.21
  Q 41.67 775.71 39.54 777.79
  C 33.94 783.25 24.25 780.59 22.38 772.96
  Q 21.46 769.20 21.43 764.52
  Q 21.39 755.98 22.02 747.57
  C 24.35 716.66 35.08 684.22 49.23 655.68
  C 72.39 608.92 106.06 565.97 148.11 534.93
  A 1.19 1.19 0.0 0 0 148.51 533.52
  C 145.86 527.10 149.46 522.23 154.50 518.36
  Q 172.68 504.44 192.76 489.19
  C 197.30 485.74 202.86 486.10 207.48 489.53
  A 1.25 1.25 0.0 0 0 208.97 489.52
  C 259.34 451.16 322.39 428.12 384.35 423.09
  Q 410.25 420.99 434.92 424.06
  Q 454.53 426.50 469.75 432.21
  C 476.82 434.86 480.01 443.26 474.59 449.19
  Q 471.60 452.46 467.35 452.62
  Q 454.96 453.07 441.63 456.36
  Q 425.88 460.25 412.76 464.88
  Q 351.49 486.51 296.82 520.07
  C 282.40 528.93 267.46 539.27 256.05 551.95
  A 1.60 1.59 57.4 0 0 255.71 553.51
  Q 257.35 558.79 253.34 563.77
  Q 252.68 564.59 253.31 565.43
  L 452.00 830.24
  A 1.38 1.37 65.0 0 0 453.41 830.76
  C 468.46 827.29 487.00 829.28 498.98 839.49
  Q 510.20 849.04 508.84 862.76
  C 508.76 863.57 509.03 864.23 509.58 864.82
  C 539.65 897.43 582.95 916.90 625.56 926.28
  Q 626.40 926.46 626.24 925.62
  Q 622.76 907.25 623.50 888.05
  C 623.65 884.22 622.74 880.37 623.06 876.62
  Q 624.37 861.46 627.92 846.91
  Q 635.71 814.97 645.75 785.59
  C 646.17 784.35 646.12 782.90 645.63 781.67
  Q 642.08 772.77 640.70 767.14
  Q 635.61 746.52 649.71 731.22
  C 651.41 729.37 649.64 723.28 648.96 721.15
  C 645.32 709.67 642.88 700.03 647.17 688.20
  Q 652.61 673.18 663.97 663.37
  C 669.66 658.46 678.07 654.82 685.34 656.26
  Q 686.02 656.40 686.12 655.71
  Q 689.31 633.75 687.30 613.51
  C 686.36 604.04 683.30 590.38 675.42 584.56
  C 664.60 576.58 646.09 590.41 638.03 597.69
  Q 632.15 602.99 627.40 609.62
  C 623.24 615.44 618.73 621.15 613.80 626.63
  Q 604.72 636.72 595.43 647.53
  Q 591.61 651.98 585.84 657.23
  Q 565.87 675.40 544.17 688.86
  C 538.36 692.47 532.17 695.51 526.13 699.08
  C 519.07 703.25 510.01 706.77 501.53 705.76
  Q 496.48 705.16 491.97 704.99
  Q 488.93 704.88 485.33 703.29
  Q 482.72 702.15 480.18 699.48
  Q 466.88 685.54 473.01 666.06
  C 474.55 661.17 478.64 655.20 482.39 651.18
  C 492.01 640.89 499.44 628.47 506.58 615.80
  Q 519.91 592.15 528.59 564.45
  Q 534.63 545.14 539.32 528.62
  A 9.49 9.37 -38.2 0 0 539.68 525.77
  C 539.28 512.05 540.30 498.73 544.46 485.42
  A 0.94 0.93 19.4 0 0 543.91 484.28
  Q 538.71 482.18 534.40 478.91
  C 521.69 469.26 520.11 453.42 530.21 441.19
  C 536.01 434.15 543.27 429.24 551.48 424.94
  A 0.71 0.71 0.0 0 0 551.75 423.93
  C 534.91 397.94 541.56 360.24 569.71 345.26
  Q 585.33 336.96 603.80 342.98
  Q 604.89 343.34 605.85 342.66
  C 647.22 313.54 699.29 312.85 734.60 350.80
  C 750.91 368.34 759.65 391.51 763.05 416.30
  Q 763.62 420.48 763.44 423.48
  C 763.18 427.73 759.65 432.20 756.62 435.11
  A 0.70 0.70 0.0 0 0 756.64 436.14
  C 799.15 473.51 826.63 524.53 841.41 579.47
  Z
  M 707.91 364.76
  Q 711.05 362.77 713.82 360.33
  Q 714.30 359.91 713.82 359.49
  C 687.47 336.37 652.16 338.25 623.68 355.90
  A 0.43 0.43 0.0 0 0 623.58 356.55
  Q 629.84 363.78 632.91 371.95
  Q 633.37 373.17 634.61 373.64
  Q 640.26 375.82 645.71 376.25
  Q 675.55 378.64 704.00 366.82
  Q 705.92 366.02 707.91 364.76
  Z
  M 591.1102 424.7945
  A 31.65 26.46 87.7 0 0 616.2787 392.1081
  A 31.65 26.46 87.7 0 0 588.5698 361.5455
  A 31.65 26.46 87.7 0 0 563.4013 394.2319
  A 31.65 26.46 87.7 0 0 591.1102 424.7945
  Z
  M 637.10 396.74
  C 636.90 399.58 636.66 402.37 635.98 405.17
  Q 635.63 406.62 637.11 406.80
  Q 644.74 407.70 652.34 407.49
  Q 682.78 406.63 712.91 395.87
  C 718.30 393.94 723.86 391.29 728.65 388.11
  Q 730.49 386.89 731.76 384.99
  A 1.80 1.80 0.0 0 0 731.83 383.11
  L 728.02 376.35
  A 0.31 0.30 -34.8 0 0 727.56 376.27
  Q 718.33 384.07 704.86 388.95
  C 684.37 396.39 659.80 399.78 637.73 396.24
  A 0.54 0.54 0.0 0 0 637.10 396.74
  Z
  M 670.21 427.00
  L 659.54 427.93
  Q 647.55 428.67 635.62 427.37
  C 633.00 427.08 630.51 426.24 627.98 425.67
  Q 627.38 425.54 627.02 426.03
  Q 621.08 434.04 614.69 438.09
  Q 592.23 452.30 568.43 439.90
  Q 567.98 439.67 567.54 439.92
  Q 562.43 442.85 556.03 446.28
  C 551.93 448.48 546.60 452.85 544.79 457.53
  C 543.46 460.96 549.96 464.23 552.32 465.14
  Q 561.94 468.85 573.80 469.22
  Q 595.01 469.88 615.14 463.40
  C 623.13 460.82 631.48 457.12 638.03 451.87
  C 644.78 446.47 651.70 442.68 660.49 442.83
  C 664.73 442.90 668.88 443.33 673.13 443.12
  Q 698.08 441.89 721.38 432.46
  C 728.66 429.52 736.47 425.56 741.95 419.91
  Q 742.55 419.29 742.40 418.42
  L 740.25 406.27
  Q 740.13 405.56 739.53 405.95
  Q 734.60 409.18 727.88 412.03
  Q 700.20 423.75 670.21 427.00
  Z
  M 355.47 448.02
  C 307.24 457.08 259.91 476.60 221.55 506.26
  A 0.60 0.59 -37.1 0 0 221.43 507.09
  L 242.33 535.11
  A 0.26 0.26 0.0 0 0 242.72 535.14
  Q 255.11 523.16 269.75 513.06
  Q 291.44 498.11 316.14 484.82
  Q 361.26 460.54 409.97 443.67
  Q 411.54 443.12 409.88 443.11
  Q 382.13 443.00 355.47 448.02
  Z
  M 660.10 463.32
  A 0.43 0.42 82.4 0 0 659.67 463.89
  C 662.91 472.82 658.98 481.96 649.60 483.91
  Q 640.40 485.82 634.77 478.82
  Q 634.34 478.29 633.72 478.56
  Q 601.34 492.55 565.79 489.63
  A 0.55 0.55 0.0 0 0 565.22 490.00
  Q 561.29 501.08 560.78 516.60
  Q 560.70 519.00 562.20 520.92
  Q 565.22 524.82 570.72 523.39
  Q 577.64 521.59 582.09 517.47
  C 587.70 512.28 592.95 506.52 599.35 502.43
  C 609.43 495.99 619.49 506.78 615.35 517.00
  C 609.63 531.14 606.45 544.34 610.32 559.53
  C 611.15 562.80 612.60 566.29 614.73 568.74
  C 618.47 573.02 625.38 573.08 630.80 572.83
  C 633.12 572.72 636.41 572.08 638.24 571.01
  C 647.97 565.28 657.71 560.87 668.96 561.11
  Q 680.15 561.35 689.00 568.27
  C 704.45 580.34 708.58 603.31 709.17 621.85
  Q 709.80 641.46 706.73 661.62
  Q 706.64 662.19 707.21 662.29
  C 736.46 667.42 767.90 665.80 796.65 658.61
  C 808.05 655.76 820.11 651.63 829.37 645.17
  A 1.71 1.70 -19.4 0 0 830.09 643.67
  Q 825.45 566.66 785.55 502.83
  Q 765.66 471.00 738.58 448.63
  A 1.62 1.61 -37.9 0 0 736.86 448.42
  C 713.56 459.54 685.66 465.52 660.10 463.32
  Z
  M 198.1032 512.1480
  A 0.57 0.57 0.0 0 0 197.3039 512.0442
  L 172.6161 531.0563
  A 0.57 0.57 0.0 0 0 172.5123 531.8557
  L 204.7768 573.7520
  A 0.57 0.57 0.0 0 0 205.5761 573.8558
  L 230.2639 554.8437
  A 0.57 0.57 0.0 0 0 230.3677 554.0443
  L 198.1032 512.1480
  Z
  M 537.07 602.11
  Q 525.84 627.45 510.23 650.36
  C 505.60 657.15 500.33 663.02 494.46 668.68
  Q 490.40 672.60 491.65 677.99
  C 492.11 679.97 493.76 681.12 495.04 682.54
  C 496.52 684.19 498.73 684.54 500.78 684.19
  C 512.78 682.16 524.69 676.11 535.02 669.53
  Q 553.99 657.45 570.64 642.29
  C 580.82 633.02 589.33 621.99 598.68 611.80
  C 604.08 605.91 608.83 599.10 613.86 592.77
  A 0.41 0.41 0.0 0 0 613.66 592.12
  C 591.65 585.70 586.24 560.23 587.56 540.22
  Q 587.62 539.42 586.90 539.80
  Q 578.92 543.98 570.53 544.86
  Q 564.11 545.53 557.88 543.24
  A 0.67 0.66 18.4 0 0 557.01 543.67
  C 551.27 563.51 545.44 583.22 537.07 602.11
  Z
  M 61.22 679.80
  Q 53.91 696.69 48.85 715.15
  Q 48.24 717.38 49.55 715.48
  Q 83.95 665.88 127.93 623.28
  C 144.79 606.95 162.56 591.63 182.57 579.93
  A 0.38 0.38 0.0 0 0 182.68 579.37
  L 161.49 551.75
  A 0.58 0.57 -36.8 0 0 160.69 551.64
  Q 141.39 565.84 124.79 583.41
  Q 84.45 626.09 61.22 679.80
  Z
  M 857.84 615.18
  Q 857.80 616.16 858.52 615.49
  Q 874.98 600.07 894.18 589.82
  Q 894.69 589.55 894.49 589.02
  Q 888.92 574.15 883.50 566.18
  Q 880.06 561.09 874.38 559.09
  Q 872.85 558.54 872.04 559.97
  C 862.51 576.81 858.56 595.55 857.84 615.18
  Z
  M 227.89 589.09
  C 289.33 669.99 351.46 751.87 413.35 833.57
  C 417.15 838.58 421.32 843.14 425.02 848.16
  A 0.35 0.34 -45.5 0 0 425.58 848.15
  Q 428.68 843.75 432.85 840.35
  A 0.56 0.56 0.0 0 0 432.94 839.58
  L 236.42 577.69
  A 0.76 0.76 0.0 0 0 235.36 577.54
  L 225.66 584.97
  A 0.89 0.89 0.0 0 0 225.54 586.27
  Q 226.81 587.66 227.89 589.09
  Z
  M 930.87 598.44
  C 903.65 604.46 880.53 621.28 861.69 641.86
  Q 861.25 642.34 861.90 642.41
  Q 883.59 644.64 904.68 641.50
  C 920.53 639.14 936.82 635.48 951.66 629.33
  A 0.53 0.52 68.7 0 0 951.95 628.66
  C 947.96 617.95 942.17 607.67 934.59 599.60
  C 933.62 598.56 932.27 598.13 930.87 598.44
  Z
  M 672.22 798.76
  Q 672.83 806.03 673.71 813.23
  Q 673.95 815.14 673.90 817.28
  Q 673.86 819.34 673.90 821.32
  A 0.83 0.82 89.3 0 0 674.72 822.13
  Q 684.19 822.08 693.06 817.91
  Q 694.31 817.76 695.50 817.00
  Q 696.76 816.87 698.27 816.07
  Q 722.18 804.81 742.85 788.11
  Q 778.78 759.09 806.08 721.11
  C 817.92 704.66 828.55 686.36 834.37 667.35
  Q 834.57 666.68 833.94 667.00
  Q 816.00 676.24 793.14 680.93
  C 763.14 687.09 730.35 688.32 700.33 682.18
  Q 691.85 680.45 683.92 677.42
  C 682.19 676.77 680.46 677.11 679.01 678.22
  Q 670.31 684.89 666.49 696.41
  C 665.27 700.10 665.71 704.20 666.79 707.78
  C 670.03 718.53 674.62 731.38 667.74 741.87
  C 665.93 744.64 663.24 746.98 661.85 749.86
  Q 658.94 755.92 661.05 762.25
  C 665.04 774.24 669.27 785.17 672.22 798.76
  Z
  M 872.18 697.81
  C 893.15 733.95 910.70 775.09 925.08 815.96
  Q 934.15 841.75 940.76 871.16
  Q 941.67 875.21 941.65 884.23
  Q 941.64 885.51 942.93 885.52
  L 947.31 885.53
  Q 948.60 885.54 948.56 884.25
  Q 948.33 874.33 946.69 864.90
  Q 941.24 833.46 930.39 800.56
  C 917.71 762.08 901.30 724.09 878.80 691.76
  C 876.34 688.22 870.92 688.42 867.00 688.05
  A 0.44 0.43 76.1 0 0 866.60 688.72
  Q 869.55 693.28 872.18 697.81
  Z
  M 875.89 895.44
  L 871.12 899.45
  L 867.42 902.43
  Q 864.97 904.06 859.13 908.50
  Q 857.85 909.47 857.51 910.42
  Q 857.00 910.81 857.29 910.63
  Q 854.62 912.37 853.19 914.89
  Q 853.12 915.01 853.16 915.15
  Q 853.19 915.27 853.26 915.41
  L 852.36 915.96
  L 846.18 921.49
  Q 844.86 921.99 843.66 922.87
  Q 841.55 924.42 841.50 924.45
  Q 833.48 929.54 824.38 931.95
  A 0.82 0.82 0.0 0 0 823.79 932.54
  Q 823.61 933.22 824.02 933.56
  Q 832.02 940.09 839.99 944.71
  Q 841.34 945.49 842.06 944.11
  L 844.82 938.92
  Q 848.86 932.81 855.03 925.74
  Q 871.58 906.77 892.66 897.04
  Q 901.91 892.76 920.67 887.97
  Q 921.12 887.85 921.09 887.39
  Q 920.24 873.23 916.65 859.71
  Q 912.53 844.18 907.05 827.97
  Q 893.05 786.54 873.18 744.36
  Q 860.50 717.43 849.10 699.33
  C 847.07 696.12 844.17 697.31 842.83 700.32
  Q 839.96 706.82 835.42 714.24
  Q 798.27 774.96 740.04 816.26
  C 734.08 820.49 727.60 824.31 721.15 828.09
  Q 720.10 828.70 720.87 829.63
  L 739.24 851.77
  A 0.41 0.41 0.0 0 0 739.95 851.61
  C 751.15 806.26 805.21 787.12 842.89 813.74
  Q 864.79 829.20 870.16 856.31
  Q 871.05 860.84 871.47 869.60
  Q 871.51 870.39 872.02 869.79
  Q 878.01 862.84 883.07 855.67
  C 892.16 842.81 909.25 854.90 899.85 868.34
  Q 889.01 883.86 875.89 895.44
  Z
  M 1054.37 732.30
  Q 985.61 700.38 908.87 698.87
  Q 908.36 698.86 908.61 699.31
  C 931.51 739.44 948.81 783.93 960.36 829.05
  Q 966.19 851.81 969.51 876.47
  Q 969.84 878.93 970.28 887.47
  Q 970.31 887.99 970.81 888.11
  L 978.15 889.86
  A 0.78 0.78 0.0 0 0 978.95 889.58
  C 983.75 883.35 990.94 877.78 997.35 873.70
  C 1005.72 868.37 1015.94 870.28 1023.86 875.43
  Q 1032.64 881.13 1044.72 891.91
  C 1052.86 899.19 1056.91 905.60 1051.85 916.03
  Q 1048.98 921.97 1045.66 928.36
  Q 1044.36 930.87 1042.38 932.83
  Q 1041.99 933.22 1042.31 933.66
  C 1061.27 959.92 1067.48 992.75 1058.96 1023.58
  C 1047.39 1065.44 1012.89 1095.30 970.85 1104.26
  C 900.71 1119.22 828.92 1071.19 827.90 996.13
  Q 827.89 995.57 827.37 995.39
  Q 817.44 991.94 808.54 986.23
  Q 786.05 971.80 762.15 949.50
  C 761.45 948.85 760.85 948.85 759.95 949.03
  Q 708.25 958.84 656.06 952.80
  Q 655.47 952.73 655.68 953.29
  C 685.28 1029.07 757.29 1079.75 832.85 1103.40
  Q 900.65 1124.61 972.26 1119.08
  C 977.92 1118.65 985.06 1117.68 989.69 1115.87
  C 998.16 1112.55 1007.34 1109.20 1014.93 1105.69
  Q 1094.29 1068.95 1131.85 990.31
  C 1155.39 941.03 1161.50 884.03 1154.42 830.00
  Q 1152.72 817.00 1150.11 803.30
  A 3.28 3.27 -71.4 0 0 1149.33 801.72
  C 1122.97 772.14 1090.33 749.00 1054.37 732.30
  Z
  M 760.19 874.43
  L 772.73 886.93
  Q 779.07 893.02 786.75 900.49
  Q 794.67 908.19 800.54 913.20
  Q 802.59 914.95 804.32 914.26
  Q 814.78 910.07 824.51 905.39
  Q 827.65 903.88 830.32 902.24
  Q 833.28 900.42 836.00 898.82
  Q 836.21 898.69 836.46 898.67
  Q 836.78 898.64 837.02 898.42
  Q 838.49 897.05 840.20 895.94
  Q 842.41 894.52 844.13 891.42
  Q 852.99 875.46 849.15 858.06
  C 845.36 840.89 831.43 827.12 814.44 823.62
  Q 791.36 818.86 774.03 834.23
  Q 757.81 848.60 758.93 870.99
  Q 759.01 872.61 760.19 874.43
  Z
  M 672.00 843.65
  A 1.30 1.30 0.0 0 0 670.94 842.99
  C 664.86 842.63 658.22 841.50 654.38 836.78
  Q 653.82 836.10 653.67 836.96
  Q 652.24 844.80 650.13 852.44
  C 643.16 877.60 643.03 904.50 648.77 930.06
  Q 648.90 930.66 649.52 930.75
  Q 696.26 937.27 742.11 930.77
  A 0.25 0.25 0.0 0 0 742.25 930.35
  Q 710.34 898.29 683.91 862.22
  Q 677.30 853.19 672.00 843.65
  Z
  M 731.33 874.32
  C 730.82 873.80 730.45 872.90 729.89 872.29
  Q 713.06 854.23 701.28 838.15
  Q 700.78 837.47 699.99 837.74
  L 694.97 839.45
  A 0.77 0.77 0.0 0 0 694.58 840.61
  Q 704.91 855.90 712.52 865.49
  Q 737.43 896.87 766.75 925.04
  Q 767.62 925.88 768.80 925.58
  L 779.17 922.89
  A 0.34 0.34 0.0 0 0 779.31 922.31
  Q 764.48 909.03 750.37 894.20
  Q 740.79 884.13 731.33 874.32
  Z
  M 1176.67 841.07
  C 1185.52 936.61 1153.62 1031.18 1077.56 1091.83
  Q 1076.51 1092.67 1077.76 1092.18
  Q 1080.31 1091.16 1082.78 1089.96
  C 1121.91 1070.90 1156.11 1043.37 1177.46 1006.57
  Q 1206.08 957.26 1197.87 901.13
  C 1194.79 880.12 1187.41 859.53 1177.08 840.94
  Q 1176.57 840.01 1176.67 841.07
  Z
  M 482.45 849.29
  Q 479.38 847.59 474.47 847.12
  Q 467.36 846.43 460.88 846.35
  Q 451.85 846.23 446.75 851.81
  C 436.50 863.03 443.99 874.48 456.93 876.81
  C 465.06 878.28 476.02 877.06 482.85 872.59
  C 491.98 866.60 492.17 854.67 482.45 849.29
  Z
  M 610.34 1036.97
  Q 611.68 1037.63 612.89 1037.97
  A 1.12 1.11 37.8 0 0 613.78 1037.86
  C 617.69 1035.51 620.95 1033.97 624.02 1030.05
  Q 639.16 1010.75 642.66 986.72
  Q 643.03 984.17 644.53 981.74
  A 1.46 1.44 -43.1 0 0 644.59 980.32
  Q 637.42 966.17 632.36 950.31
  C 632.09 949.47 631.50 949.06 630.65 948.90
  C 581.32 939.51 533.03 918.75 497.94 883.24
  Q 497.13 882.43 496.17 883.03
  L 494.06 884.35
  Q 493.14 884.91 493.79 885.78
  Q 526.87 930.20 561.72 976.49
  Q 582.37 1003.93 603.70 1032.51
  C 606.01 1035.59 607.47 1035.56 610.34 1036.97
  Z
  M 1031.26 909.24
  A 0.35 0.35 0.0 0 0 1031.18 908.82
  Q 1022.66 900.79 1013.50 894.26
  Q 1011.78 893.04 1009.79 892.36
  Q 1008.38 891.87 1007.19 892.78
  L 1001.25 897.34
  Q 1000.10 898.22 1001.40 898.87
  Q 1015.19 905.72 1027.23 916.74
  A 0.16 0.16 0.0 0 0 1027.48 916.69
  L 1031.26 909.24
  Z
  M 460.76 893.07
  Q 460.20 893.02 459.65 893.07
  A 0.29 0.29 0.0 0 0 459.44 893.54
  Q 491.83 936.24 526.65 981.84
  C 528.95 984.86 530.71 988.26 533.01 991.31
  Q 552.56 1017.17 572.26 1043.09
  A 0.69 0.68 53.1 0 0 573.21 1043.23
  Q 576.99 1040.45 581.49 1038.40
  Q 582.03 1038.15 581.67 1037.68
  Q 565.65 1016.43 549.48 994.92
  C 548.15 993.15 546.24 991.25 545.07 989.67
  Q 509.14 941.37 473.10 893.18
  A 1.67 1.66 66.4 0 0 471.46 892.53
  Q 465.92 893.54 460.76 893.07
  Z
  M 869.57 941.28
  C 868.61 941.89 868.29 943.00 867.58 943.94
  Q 865.25 947.05 862.06 952.95
  Q 857.36 961.66 853.82 969.93
  Q 850.50 977.69 849.57 985.92
  Q 847.00 1008.62 855.19 1028.55
  C 870.00 1064.55 907.02 1086.44 945.32 1086.09
  Q 981.95 1085.76 1009.20 1063.43
  C 1027.46 1048.46 1039.91 1026.45 1041.59 1002.70
  C 1044.02 968.44 1026.55 937.76 997.37 920.49
  Q 969.92 904.26 937.52 906.72
  Q 913.87 908.51 893.32 920.80
  Q 882.95 927.01 873.67 936.76
  Q 872.74 937.75 871.99 938.84
  Q 871.71 939.26 871.25 939.49
  Q 870.47 939.87 870.10 940.68
  A 1.37 1.33 -4.2 0 1 869.57 941.28
  Z
  M 817.66 954.08
  Q 808.18 947.20 798.71 939.58
  Q 798.10 939.09 797.35 939.32
  L 786.74 942.61
  Q 786.02 942.84 786.58 943.34
  Q 801.17 956.38 817.44 967.30
  Q 823.63 971.46 829.82 974.11
  A 0.51 0.50 18.9 0 0 830.50 973.78
  L 832.93 964.88
  A 0.92 0.91 -67.6 0 0 832.51 963.85
  Q 824.96 959.37 817.66 954.08
  Z
  M 818.09 1122.29
  Q 818.02 1121.54 817.35 1121.23
  Q 809.63 1117.66 802.63 1115.20
  C 794.50 1112.34 786.61 1108.59 778.71 1104.84
  C 731.51 1082.48 689.63 1049.79 660.16 1006.83
  A 0.27 0.26 -53.1 0 0 659.69 1006.90
  Q 654.66 1022.87 645.19 1037.07
  C 640.18 1044.60 633.35 1052.40 625.05 1055.36
  A 0.87 0.84 84.6 0 0 624.49 1056.06
  Q 624.14 1058.95 625.26 1060.51
  Q 636.07 1075.55 648.81 1092.47
  Q 682.20 1136.84 713.44 1178.65
  A 2.02 2.01 71.2 0 0 715.10 1179.47
  C 722.38 1179.36 729.49 1178.90 736.95 1177.06
  Q 755.92 1172.38 774.40 1164.55
  Q 782.25 1161.22 787.18 1157.90
  C 796.77 1151.45 804.51 1142.47 811.70 1133.35
  C 813.76 1130.74 818.33 1125.10 818.09 1122.29
  Z
  M 569.35 1073.38
  C 566.62 1079.00 566.12 1085.87 570.72 1090.66
  C 578.54 1098.80 590.09 1092.88 596.38 1086.39
  C 602.87 1079.70 608.35 1070.69 608.85 1061.31
  C 609.45 1050.02 598.02 1046.30 589.48 1051.77
  Q 575.50 1060.74 569.35 1073.38
  Z
  M 616.98 1084.79
  A 0.34 0.34 0.0 0 0 616.45 1084.78
  L 610.07 1092.62
  A 0.34 0.34 0.0 0 0 610.06 1093.04
  L 715.16 1231.67
  A 0.34 0.34 0.0 0 0 715.64 1231.73
  L 722.61 1226.22
  A 0.34 0.34 0.0 0 0 722.67 1225.75
  L 616.98 1084.79
  Z
  M 787.96 1180.93
  Q 761.81 1192.94 733.33 1198.77
  Q 732.68 1198.91 733.19 1199.34
  C 743.13 1207.78 748.49 1218.52 751.10 1230.61
  A 0.52 0.52 0.0 0 0 751.78 1230.99
  Q 762.23 1227.27 771.80 1224.83
  Q 792.52 1219.55 811.65 1223.82
  C 820.57 1225.81 828.96 1229.34 837.25 1232.59
  A 0.29 0.29 0.0 0 0 837.65 1232.27
  C 832.94 1206.92 835.00 1181.50 839.28 1156.16
  Q 841.60 1142.49 846.19 1129.61
  Q 846.31 1129.27 845.96 1129.18
  L 839.00 1127.33
  Q 838.74 1127.26 838.65 1127.52
  Q 836.04 1134.69 831.39 1141.14
  C 819.85 1157.13 805.85 1172.71 787.96 1180.93
  Z
  M 982.34 1215.18
  Q 977.49 1225.47 975.17 1228.72
  Q 970.21 1235.66 965.08 1242.59
  Q 962.19 1246.50 958.43 1249.89
  C 950.96 1256.63 943.43 1264.04 934.57 1268.85
  Q 922.11 1275.61 907.97 1281.60
  C 894.68 1287.22 880.61 1290.57 866.66 1292.55
  A 0.46 0.45 74.1 0 0 866.31 1293.19
  Q 873.18 1308.48 872.74 1326.22
  Q 872.72 1326.95 873.37 1326.63
  C 884.42 1321.18 895.65 1317.89 908.08 1319.85
  Q 934.94 1324.07 950.69 1345.06
  A 1.73 1.71 -21.2 0 0 952.24 1345.73
  C 955.81 1345.35 958.20 1344.24 962.44 1342.52
  Q 978.71 1335.96 988.09 1320.52
  Q 989.38 1318.40 988.74 1316.20
  Q 984.58 1302.02 984.22 1284.98
  Q 983.57 1254.65 989.01 1226.83
  Q 994.82 1197.16 1003.40 1173.56
  Q 1010.74 1153.36 1019.65 1133.78
  Q 1019.78 1133.49 1019.47 1133.55
  L 988.70 1139.36
  Q 988.09 1139.47 988.25 1140.06
  C 989.67 1145.31 991.46 1150.48 992.42 1155.94
  Q 995.94 1176.01 989.17 1197.20
  Q 985.70 1208.04 982.34 1215.18
  Z"
/>
<path fill="#ffa332" d="
  M 707.91 364.76
  Q 705.92 366.02 704.00 366.82
  Q 675.55 378.64 645.71 376.25
  Q 640.26 375.82 634.61 373.64
  Q 633.37 373.17 632.91 371.95
  Q 629.84 363.78 623.58 356.55
  A 0.43 0.43 0.0 0 1 623.68 355.90
  C 652.16 338.25 687.47 336.37 713.82 359.49
  Q 714.30 359.91 713.82 360.33
  Q 711.05 362.77 707.91 364.76
  Z"
/>
<ellipse fill="#eaddc3" cx="0.00" cy="0.00" transform="translate(589.84,393.17) rotate(87.7)" rx="31.65" ry="26.46"/>
<path fill="#6b6b6b" d="
  M 635.98 405.17
  C 636.66 402.37 636.90 399.58 637.10 396.74
  A 0.54 0.54 0.0 0 1 637.73 396.24
  C 659.80 399.78 684.37 396.39 704.86 388.95
  Q 718.33 384.07 727.56 376.27
  A 0.31 0.30 -34.8 0 1 728.02 376.35
  L 731.83 383.11
  A 1.80 1.80 0.0 0 1 731.76 384.99
  Q 730.49 386.89 728.65 388.11
  C 723.86 391.29 718.30 393.94 712.91 395.87
  Q 682.78 406.63 652.34 407.49
  Q 644.74 407.70 637.11 406.80
  Q 635.63 406.62 635.98 405.17
  Z"
/>
<path fill="#ffa332" d="
  M 659.54 427.93
  Q 665.57 428.71 670.21 427.00
  Q 700.20 423.75 727.88 412.03
  Q 734.60 409.18 739.53 405.95
  Q 740.13 405.56 740.25 406.27
  L 742.40 418.42
  Q 742.55 419.29 741.95 419.91
  C 736.47 425.56 728.66 429.52 721.38 432.46
  Q 698.08 441.89 673.13 443.12
  C 668.88 443.33 664.73 442.90 660.49 442.83
  C 651.70 442.68 644.78 446.47 638.03 451.87
  C 631.48 457.12 623.13 460.82 615.14 463.40
  Q 595.01 469.88 573.80 469.22
  Q 561.94 468.85 552.32 465.14
  C 549.96 464.23 543.46 460.96 544.79 457.53
  C 546.60 452.85 551.93 448.48 556.03 446.28
  Q 562.43 442.85 567.54 439.92
  Q 567.98 439.67 568.43 439.90
  Q 592.23 452.30 614.69 438.09
  Q 621.08 434.04 627.02 426.03
  Q 627.38 425.54 627.98 425.67
  C 630.51 426.24 633.00 427.08 635.62 427.37
  Q 647.55 428.67 659.54 427.93
  Z"
/>
<path fill="#ce6343" d="
  M 670.21 427.00
  Q 665.57 428.71 659.54 427.93
  L 670.21 427.00
  Z"
/>
<path fill="#9e9a98" d="
  M 221.55 506.26
  C 259.91 476.60 307.24 457.08 355.47 448.02
  Q 382.13 443.00 409.88 443.11
  Q 411.54 443.12 409.97 443.67
  Q 361.26 460.54 316.14 484.82
  Q 291.44 498.11 269.75 513.06
  Q 255.11 523.16 242.72 535.14
  A 0.26 0.26 0.0 0 1 242.33 535.11
  L 221.43 507.09
  A 0.60 0.59 -37.1 0 1 221.55 506.26
  Z"
/>
<path fill="#ffffff" d="
  M 660.10 463.32
  C 685.66 465.52 713.56 459.54 736.86 448.42
  A 1.62 1.61 -37.9 0 1 738.58 448.63
  Q 765.66 471.00 785.55 502.83
  Q 825.45 566.66 830.09 643.67
  A 1.71 1.70 -19.4 0 1 829.37 645.17
  C 820.11 651.63 808.05 655.76 796.65 658.61
  C 767.90 665.80 736.46 667.42 707.21 662.29
  Q 706.64 662.19 706.73 661.62
  Q 709.80 641.46 709.17 621.85
  C 708.58 603.31 704.45 580.34 689.00 568.27
  Q 680.15 561.35 668.96 561.11
  C 657.71 560.87 647.97 565.28 638.24 571.01
  C 636.41 572.08 633.12 572.72 630.80 572.83
  C 625.38 573.08 618.47 573.02 614.73 568.74
  C 612.60 566.29 611.15 562.80 610.32 559.53
  C 606.45 544.34 609.63 531.14 615.35 517.00
  C 619.49 506.78 609.43 495.99 599.35 502.43
  C 592.95 506.52 587.70 512.28 582.09 517.47
  Q 577.64 521.59 570.72 523.39
  Q 565.22 524.82 562.20 520.92
  Q 560.70 519.00 560.78 516.60
  Q 561.29 501.08 565.22 490.00
  A 0.55 0.55 0.0 0 1 565.79 489.63
  Q 601.34 492.55 633.72 478.56
  Q 634.34 478.29 634.77 478.82
  Q 640.40 485.82 649.60 483.91
  C 658.98 481.96 662.91 472.82 659.67 463.89
  A 0.43 0.42 82.4 0 1 660.10 463.32
  Z"
/>
<rect fill="#6b6b6b" x="-16.15" y="-27.01" transform="translate(201.44,542.95) rotate(-37.6)" width="32.30" height="54.02" rx="0.57"/>
<path fill="#ffa332" d="
  M 537.07 602.11
  C 545.44 583.22 551.27 563.51 557.01 543.67
  A 0.67 0.66 18.4 0 1 557.88 543.24
  Q 564.11 545.53 570.53 544.86
  Q 578.92 543.98 586.90 539.80
  Q 587.62 539.42 587.56 540.22
  C 586.24 560.23 591.65 585.70 613.66 592.12
  A 0.41 0.41 0.0 0 1 613.86 592.77
  C 608.83 599.10 604.08 605.91 598.68 611.80
  C 589.33 621.99 580.82 633.02 570.64 642.29
  Q 553.99 657.45 535.02 669.53
  C 524.69 676.11 512.78 682.16 500.78 684.19
  C 498.73 684.54 496.52 684.19 495.04 682.54
  C 493.76 681.12 492.11 679.97 491.65 677.99
  Q 490.40 672.60 494.46 668.68
  C 500.33 663.02 505.60 657.15 510.23 650.36
  Q 525.84 627.45 537.07 602.11
  Z"
/>
<path fill="#9e9a98" d="
  M 61.22 679.80
  Q 84.45 626.09 124.79 583.41
  Q 141.39 565.84 160.69 551.64
  A 0.58 0.57 -36.8 0 1 161.49 551.75
  L 182.68 579.37
  A 0.38 0.38 0.0 0 1 182.57 579.93
  C 162.56 591.63 144.79 606.95 127.93 623.28
  Q 83.95 665.88 49.55 715.48
  Q 48.24 717.38 48.85 715.15
  Q 53.91 696.69 61.22 679.80
  Z"
/>
<path fill="#a8c574" d="
  M 857.84 615.18
  C 858.56 595.55 862.51 576.81 872.04 559.97
  Q 872.85 558.54 874.38 559.09
  Q 880.06 561.09 883.50 566.18
  Q 888.92 574.15 894.49 589.02
  Q 894.69 589.55 894.18 589.82
  Q 874.98 600.07 858.52 615.49
  Q 857.80 616.16 857.84 615.18
  Z"
/>
<path fill="#482f18" d="
  M 413.35 833.57
  C 351.46 751.87 289.33 669.99 227.89 589.09
  Q 226.81 587.66 225.54 586.27
  A 0.89 0.89 0.0 0 1 225.66 584.97
  L 235.36 577.54
  A 0.76 0.76 0.0 0 1 236.42 577.69
  L 432.94 839.58
  A 0.56 0.56 0.0 0 1 432.85 840.35
  Q 428.68 843.75 425.58 848.15
  A 0.35 0.34 -45.5 0 1 425.02 848.16
  C 421.32 843.14 417.15 838.58 413.35 833.57
  Z"
/>
<path fill="#a8c574" d="
  M 861.69 641.86
  C 880.53 621.28 903.65 604.46 930.87 598.44
  C 932.27 598.13 933.62 598.56 934.59 599.60
  C 942.17 607.67 947.96 617.95 951.95 628.66
  A 0.53 0.52 68.7 0 1 951.66 629.33
  C 936.82 635.48 920.53 639.14 904.68 641.50
  Q 883.59 644.64 861.90 642.41
  Q 861.25 642.34 861.69 641.86
  Z"
/>
<path fill="#a8c574" d="
  M 698.27 816.07
  Q 696.07 815.91 695.50 817.00
  Q 694.31 817.76 693.06 817.91
  L 675.90 821.69
  A 1.14 1.13 -6.4 0 1 674.52 820.59
  Q 674.43 809.70 672.22 798.76
  C 669.27 785.17 665.04 774.24 661.05 762.25
  Q 658.94 755.92 661.85 749.86
  C 663.24 746.98 665.93 744.64 667.74 741.87
  C 674.62 731.38 670.03 718.53 666.79 707.78
  C 665.71 704.20 665.27 700.10 666.49 696.41
  Q 670.31 684.89 679.01 678.22
  C 680.46 677.11 682.19 676.77 683.92 677.42
  Q 691.85 680.45 700.33 682.18
  C 730.35 688.32 763.14 687.09 793.14 680.93
  Q 816.00 676.24 833.94 667.00
  Q 834.57 666.68 834.37 667.35
  C 828.55 686.36 817.92 704.66 806.08 721.11
  Q 778.78 759.09 742.85 788.11
  Q 722.18 804.81 698.27 816.07
  Z
  M 693.48 748.95
  C 716.85 745.55 741.30 736.14 760.34 722.21
  Q 764.18 719.40 766.30 715.91
  C 768.71 711.94 768.03 706.46 764.52 703.37
  C 758.90 698.42 753.02 700.95 747.92 705.21
  Q 742.77 709.50 736.88 712.69
  C 720.58 721.51 701.72 727.85 683.32 728.93
  Q 677.34 729.29 674.30 733.74
  C 669.82 740.30 674.31 748.54 681.79 749.39
  Q 686.61 749.94 693.48 748.95
  Z"
/>
<path fill="#372f2b" d="
  M 872.18 697.81
  Q 869.55 693.28 866.60 688.72
  A 0.44 0.43 76.1 0 1 867.00 688.05
  C 870.92 688.42 876.34 688.22 878.80 691.76
  C 901.30 724.09 917.71 762.08 930.39 800.56
  Q 941.24 833.46 946.69 864.90
  Q 948.33 874.33 948.56 884.25
  Q 948.60 885.54 947.31 885.53
  L 942.93 885.52
  Q 941.64 885.51 941.65 884.23
  Q 941.67 875.21 940.76 871.16
  Q 934.15 841.75 925.08 815.96
  C 910.70 775.09 893.15 733.95 872.18 697.81
  Z"
/>
<path fill="#eaddc3" d="
  M 844.82 938.92
  Q 843.02 940.91 842.18 943.08
  A 1.27 1.27 0.0 0 1 840.29 943.68
  L 827.83 935.38
  Q 826.64 934.11 825.04 933.47
  Q 825.02 933.08 825.09 932.84
  Q 825.16 932.60 825.54 932.49
  Q 835.62 929.50 844.88 922.87
  Q 845.97 922.08 846.18 921.49
  Q 849.93 919.63 852.36 915.96
  L 853.26 915.41
  Q 855.71 913.46 857.29 910.63
  Q 857.00 910.81 857.51 910.42
  Q 862.57 906.97 867.19 903.13
  Q 867.37 902.98 867.41 902.83
  Q 867.46 902.63 867.42 902.43
  Q 868.04 902.68 868.75 901.96
  Q 869.27 901.43 871.18 899.96
  Q 874.49 898.00 875.89 895.44
  Q 889.01 883.86 899.85 868.34
  C 909.25 854.90 892.16 842.81 883.07 855.67
  Q 878.01 862.84 872.02 869.79
  Q 871.51 870.39 871.47 869.60
  Q 871.05 860.84 870.16 856.31
  Q 864.79 829.20 842.89 813.74
  C 805.21 787.12 751.15 806.26 739.95 851.61
  A 0.41 0.41 0.0 0 1 739.24 851.77
  L 720.87 829.63
  Q 720.10 828.70 721.15 828.09
  C 727.60 824.31 734.08 820.49 740.04 816.26
  Q 798.27 774.96 835.42 714.24
  Q 839.96 706.82 842.83 700.32
  C 844.17 697.31 847.07 696.12 849.10 699.33
  Q 860.50 717.43 873.18 744.36
  Q 893.05 786.54 907.05 827.97
  Q 912.53 844.18 916.65 859.71
  Q 920.24 873.23 921.09 887.39
  Q 921.12 887.85 920.67 887.97
  Q 901.91 892.76 892.66 897.04
  Q 871.58 906.77 855.03 925.74
  Q 848.86 932.81 844.82 938.92
  Z"
/>
<path fill="#eaddc3" d="
  M 1054.37 732.30
  C 1090.33 749.00 1122.97 772.14 1149.33 801.72
  A 3.28 3.27 -71.4 0 1 1150.11 803.30
  Q 1152.72 817.00 1154.42 830.00
  C 1161.50 884.03 1155.39 941.03 1131.85 990.31
  Q 1094.29 1068.95 1014.93 1105.69
  C 1007.34 1109.20 998.16 1112.55 989.69 1115.87
  C 985.06 1117.68 977.92 1118.65 972.26 1119.08
  Q 900.65 1124.61 832.85 1103.40
  C 757.29 1079.75 685.28 1029.07 655.68 953.29
  Q 655.47 952.73 656.06 952.80
  Q 708.25 958.84 759.95 949.03
  C 760.85 948.85 761.45 948.85 762.15 949.50
  Q 786.05 971.80 808.54 986.23
  Q 817.44 991.94 827.37 995.39
  Q 827.89 995.57 827.90 996.13
  C 828.92 1071.19 900.71 1119.22 970.85 1104.26
  C 1012.89 1095.30 1047.39 1065.44 1058.96 1023.58
  C 1067.48 992.75 1061.27 959.92 1042.31 933.66
  Q 1041.99 933.22 1042.38 932.83
  Q 1044.36 930.87 1045.66 928.36
  Q 1048.98 921.97 1051.85 916.03
  C 1056.91 905.60 1052.86 899.19 1044.72 891.91
  Q 1032.64 881.13 1023.86 875.43
  C 1015.94 870.28 1005.72 868.37 997.35 873.70
  C 990.94 877.78 983.75 883.35 978.95 889.58
  A 0.78 0.78 0.0 0 1 978.15 889.86
  L 970.81 888.11
  Q 970.31 887.99 970.28 887.47
  Q 969.84 878.93 969.51 876.47
  Q 966.19 851.81 960.36 829.05
  C 948.81 783.93 931.51 739.44 908.61 699.31
  Q 908.36 698.86 908.87 698.87
  Q 985.61 700.38 1054.37 732.30
  Z"
/>
<path fill="#000000" d="
  M 760.34 722.21
  C 741.30 736.14 716.85 745.55 693.48 748.95
  Q 686.61 749.94 681.79 749.39
  C 674.31 748.54 669.82 740.30 674.30 733.74
  Q 677.34 729.29 683.32 728.93
  C 701.72 727.85 720.58 721.51 736.88 712.69
  Q 742.77 709.50 747.92 705.21
  C 753.02 700.95 758.90 698.42 764.52 703.37
  C 768.03 706.46 768.71 711.94 766.30 715.91
  Q 764.18 719.40 760.34 722.21
  Z"
/>
<path fill="#6b6b6b" d="
  M 672.22 798.76
  Q 674.43 809.70 674.52 820.59
  A 1.14 1.13 -6.4 0 0 675.90 821.69
  L 693.06 817.91
  Q 684.19 822.08 674.72 822.13
  A 0.83 0.82 89.3 0 1 673.90 821.32
  Q 673.86 819.34 673.90 817.28
  Q 673.95 815.14 673.71 813.23
  Q 672.83 806.03 672.22 798.76
  Z"
/>
<path fill="#6b6b6b" d="
  M 698.27 816.07
  Q 696.76 816.87 695.50 817.00
  Q 696.07 815.91 698.27 816.07
  Z"
/>
<path fill="#ce6343" d="
  M 772.73 886.93
  Q 778.51 880.29 782.75 872.02
  Q 783.09 871.34 783.23 872.09
  Q 784.20 877.28 785.27 882.35
  C 786.32 887.35 789.20 892.26 794.69 892.77
  C 799.77 893.25 803.43 890.24 805.66 885.97
  Q 808.12 881.25 810.71 876.44
  Q 811.26 875.42 811.37 876.57
  Q 812.31 885.92 813.09 894.70
  C 813.67 901.19 818.66 906.84 825.72 903.83
  C 831.96 901.16 832.04 896.47 831.45 890.19
  Q 829.76 872.03 827.96 855.98
  C 827.38 850.83 826.07 845.97 821.37 843.38
  C 816.47 840.68 810.97 842.95 807.78 847.19
  Q 803.59 852.76 799.77 859.04
  Q 799.29 859.83 799.05 858.93
  C 796.70 849.96 790.52 840.30 780.06 845.31
  C 775.13 847.67 771.18 855.12 768.18 859.93
  Q 762.89 868.39 760.19 874.43
  Q 759.01 872.61 758.93 870.99
  Q 757.81 848.60 774.03 834.23
  Q 791.36 818.86 814.44 823.62
  C 831.43 827.12 845.36 840.89 849.15 858.06
  Q 852.99 875.46 844.13 891.42
  Q 842.41 894.52 840.20 895.94
  Q 838.49 897.05 837.02 898.42
  Q 836.78 898.64 836.46 898.67
  Q 836.21 898.69 836.00 898.82
  Q 833.28 900.42 830.32 902.24
  Q 827.65 903.88 824.51 905.39
  Q 814.78 910.07 804.32 914.26
  Q 802.59 914.95 800.54 913.20
  Q 794.67 908.19 786.75 900.49
  Q 779.07 893.02 772.73 886.93
  Z"
/>
<path fill="#eaddc3" d="
  M 672.00 843.65
  Q 677.30 853.19 683.91 862.22
  Q 710.34 898.29 742.25 930.35
  A 0.25 0.25 0.0 0 1 742.11 930.77
  Q 696.26 937.27 649.52 930.75
  Q 648.90 930.66 648.77 930.06
  C 643.03 904.50 643.16 877.60 650.13 852.44
  Q 652.24 844.80 653.67 836.96
  Q 653.82 836.10 654.38 836.78
  C 658.22 841.50 664.86 842.63 670.94 842.99
  A 1.30 1.30 0.0 0 1 672.00 843.65
  Z"
/>
<path fill="#372f2b" d="
  M 731.33 874.32
  Q 740.79 884.13 750.37 894.20
  Q 764.48 909.03 779.31 922.31
  A 0.34 0.34 0.0 0 1 779.17 922.89
  L 768.80 925.58
  Q 767.62 925.88 766.75 925.04
  Q 737.43 896.87 712.52 865.49
  Q 704.91 855.90 694.58 840.61
  A 0.77 0.77 0.0 0 1 694.97 839.45
  L 699.99 837.74
  Q 700.78 837.47 701.28 838.15
  Q 713.06 854.23 729.89 872.29
  C 730.45 872.90 730.82 873.80 731.33 874.32
  Z"
/>
<path fill="#ffffff" d="
  M 1077.56 1091.83
  C 1153.62 1031.18 1185.52 936.61 1176.67 841.07
  Q 1176.57 840.01 1177.08 840.94
  C 1187.41 859.53 1194.79 880.12 1197.87 901.13
  Q 1206.08 957.26 1177.46 1006.57
  C 1156.11 1043.37 1121.91 1070.90 1082.78 1089.96
  Q 1080.31 1091.16 1077.76 1092.18
  Q 1076.51 1092.67 1077.56 1091.83
  Z"
/>
<path fill="#a8c574" d="
  M 772.73 886.93
  L 760.19 874.43
  Q 762.89 868.39 768.18 859.93
  C 771.18 855.12 775.13 847.67 780.06 845.31
  C 790.52 840.30 796.70 849.96 799.05 858.93
  Q 799.29 859.83 799.77 859.04
  Q 803.59 852.76 807.78 847.19
  C 810.97 842.95 816.47 840.68 821.37 843.38
  C 826.07 845.97 827.38 850.83 827.96 855.98
  Q 829.76 872.03 831.45 890.19
  C 832.04 896.47 831.96 901.16 825.72 903.83
  C 818.66 906.84 813.67 901.19 813.09 894.70
  Q 812.31 885.92 811.37 876.57
  Q 811.26 875.42 810.71 876.44
  Q 808.12 881.25 805.66 885.97
  C 803.43 890.24 799.77 893.25 794.69 892.77
  C 789.20 892.26 786.32 887.35 785.27 882.35
  Q 784.20 877.28 783.23 872.09
  Q 783.09 871.34 782.75 872.02
  Q 778.51 880.29 772.73 886.93
  Z"
/>
<path fill="#ffffff" d="
  M 482.45 849.29
  C 492.17 854.67 491.98 866.60 482.85 872.59
  C 476.02 877.06 465.06 878.28 456.93 876.81
  C 443.99 874.48 436.50 863.03 446.75 851.81
  Q 451.85 846.23 460.88 846.35
  Q 467.36 846.43 474.47 847.12
  Q 479.38 847.59 482.45 849.29
  Z"
/>
<path fill="#9e9a98" d="
  M 1031.26 909.24
  L 1027.48 916.69
  A 0.16 0.16 0.0 0 1 1027.23 916.74
  Q 1015.19 905.72 1001.40 898.87
  Q 1000.10 898.22 1001.25 897.34
  L 1007.19 892.78
  Q 1008.38 891.87 1009.79 892.36
  Q 1011.78 893.04 1013.50 894.26
  Q 1022.66 900.79 1031.18 908.82
  A 0.35 0.35 0.0 0 1 1031.26 909.24
  Z"
/>
<path fill="#482f18" d="
  M 460.76 893.07
  Q 465.92 893.54 471.46 892.53
  A 1.67 1.66 66.4 0 1 473.10 893.18
  Q 509.14 941.37 545.07 989.67
  C 546.24 991.25 548.15 993.15 549.48 994.92
  Q 565.65 1016.43 581.67 1037.68
  Q 582.03 1038.15 581.49 1038.40
  Q 576.99 1040.45 573.21 1043.23
  A 0.69 0.68 53.1 0 1 572.26 1043.09
  Q 552.56 1017.17 533.01 991.31
  C 530.71 988.26 528.95 984.86 526.65 981.84
  Q 491.83 936.24 459.44 893.54
  A 0.29 0.29 0.0 0 1 459.65 893.07
  Q 460.20 893.02 460.76 893.07
  Z"
/>
<path fill="#9e9a98" d="
  M 875.89 895.44
  Q 874.49 898.00 871.18 899.96
  Q 871.55 900.04 871.12 899.45
  L 875.89 895.44
  Z"
/>
<path fill="#6b6b6b" d="
  M 871.12 899.45
  Q 871.55 900.04 871.18 899.96
  Q 869.27 901.43 868.75 901.96
  Q 868.04 902.68 867.42 902.43
  L 871.12 899.45
  Z"
/>
<path fill="#6b6b6b" d="
  M 867.42 902.43
  Q 867.46 902.63 867.41 902.83
  Q 867.37 902.98 867.19 903.13
  Q 862.57 906.97 857.51 910.42
  Q 857.85 909.47 859.13 908.50
  Q 864.97 904.06 867.42 902.43
  Z"
/>
<path fill="#9e9a98" d="
  M 870.10 940.68
  Q 870.47 939.87 871.25 939.49
  Q 871.71 939.26 871.99 938.84
  Q 872.74 937.75 873.67 936.76
  Q 882.95 927.01 893.32 920.80
  Q 913.87 908.51 937.52 906.72
  Q 969.92 904.26 997.37 920.49
  C 1026.55 937.76 1044.02 968.44 1041.59 1002.70
  C 1039.91 1026.45 1027.46 1048.46 1009.20 1063.43
  Q 981.95 1085.76 945.32 1086.09
  C 907.02 1086.44 870.00 1064.55 855.19 1028.55
  Q 847.00 1008.62 849.57 985.92
  Q 850.50 977.69 853.82 969.93
  Q 857.36 961.66 862.06 952.95
  Q 865.25 947.05 867.58 943.94
  C 868.29 943.00 868.61 941.89 869.57 941.28
  A 1.37 1.33 -4.2 0 0 870.10 940.68
  Z"
/>
<path fill="#6b6b6b" d="
  M 857.29 910.63
  Q 855.71 913.46 853.26 915.41
  Q 853.19 915.27 853.16 915.15
  Q 853.12 915.01 853.19 914.89
  Q 854.62 912.37 857.29 910.63
  Z"
/>
<path fill="#6b6b6b" d="
  M 852.36 915.96
  Q 849.93 919.63 846.18 921.49
  L 852.36 915.96
  Z"
/>
<path fill="#6b6b6b" d="
  M 846.18 921.49
  Q 845.97 922.08 844.88 922.87
  Q 835.62 929.50 825.54 932.49
  Q 825.16 932.60 825.09 932.84
  Q 825.02 933.08 825.04 933.47
  Q 826.06 935.27 827.83 935.38
  L 840.29 943.68
  A 1.27 1.27 0.0 0 0 842.18 943.08
  Q 843.02 940.91 844.82 938.92
  L 842.06 944.11
  Q 841.34 945.49 839.99 944.71
  Q 832.02 940.09 824.02 933.56
  Q 823.61 933.22 823.79 932.54
  A 0.82 0.82 0.0 0 1 824.38 931.95
  Q 833.48 929.54 841.50 924.45
  Q 841.55 924.42 843.66 922.87
  Q 844.86 921.99 846.18 921.49
  Z"
/>
<path fill="#9e9a98" d="
  M 825.04 933.47
  Q 826.64 934.11 827.83 935.38
  Q 826.06 935.27 825.04 933.47
  Z"
/>
<path fill="#372f2b" d="
  M 817.66 954.08
  Q 824.96 959.37 832.51 963.85
  A 0.92 0.91 -67.6 0 1 832.93 964.88
  L 830.50 973.78
  A 0.51 0.50 18.9 0 1 829.82 974.11
  Q 823.63 971.46 817.44 967.30
  Q 801.17 956.38 786.58 943.34
  Q 786.02 942.84 786.74 942.61
  L 797.35 939.32
  Q 798.10 939.09 798.71 939.58
  Q 808.18 947.20 817.66 954.08
  Z"
/>
<path fill="#ffffff" d="
  M 569.35 1073.38
  Q 575.50 1060.74 589.48 1051.77
  C 598.02 1046.30 609.45 1050.02 608.85 1061.31
  C 608.35 1070.69 602.87 1079.70 596.38 1086.39
  C 590.09 1092.88 578.54 1098.80 570.72 1090.66
  C 566.12 1085.87 566.62 1079.00 569.35 1073.38
  Z"
/>
<path fill="#482f18" d="
  M 616.98 1084.79
  L 722.67 1225.75
  A 0.34 0.34 0.0 0 1 722.61 1226.22
  L 715.64 1231.73
  A 0.34 0.34 0.0 0 1 715.16 1231.67
  L 610.06 1093.04
  A 0.34 0.34 0.0 0 1 610.07 1092.62
  L 616.45 1084.78
  A 0.34 0.34 0.0 0 1 616.98 1084.79
  Z"
/>
<path fill="#ffa332" d="
  M 787.96 1180.93
  C 805.85 1172.71 819.85 1157.13 831.39 1141.14
  Q 836.04 1134.69 838.65 1127.52
  Q 838.74 1127.26 839.00 1127.33
  L 845.96 1129.18
  Q 846.31 1129.27 846.19 1129.61
  Q 841.60 1142.49 839.28 1156.16
  C 835.00 1181.50 832.94 1206.92 837.65 1232.27
  A 0.29 0.29 0.0 0 1 837.25 1232.59
  C 828.96 1229.34 820.57 1225.81 811.65 1223.82
  Q 792.52 1219.55 771.80 1224.83
  Q 762.23 1227.27 751.78 1230.99
  A 0.52 0.52 0.0 0 1 751.10 1230.61
  C 748.49 1218.52 743.13 1207.78 733.19 1199.34
  Q 732.68 1198.91 733.33 1198.77
  Q 761.81 1192.94 787.96 1180.93
  Z"
/>
<path fill="#ffa332" d="
  M 982.34 1215.18
  Q 985.70 1208.04 989.17 1197.20
  Q 995.94 1176.01 992.42 1155.94
  C 991.46 1150.48 989.67 1145.31 988.25 1140.06
  Q 988.09 1139.47 988.70 1139.36
  L 1019.47 1133.55
  Q 1019.78 1133.49 1019.65 1133.78
  Q 1010.74 1153.36 1003.40 1173.56
  Q 994.82 1197.16 989.01 1226.83
  Q 983.57 1254.65 984.22 1284.98
  Q 984.58 1302.02 988.74 1316.20
  Q 989.38 1318.40 988.09 1320.52
  Q 978.71 1335.96 962.44 1342.52
  C 958.20 1344.24 955.81 1345.35 952.24 1345.73
  A 1.73 1.71 -21.2 0 1 950.69 1345.06
  Q 934.94 1324.07 908.08 1319.85
  C 895.65 1317.89 884.42 1321.18 873.37 1326.63
  Q 872.72 1326.95 872.74 1326.22
  Q 873.18 1308.48 866.31 1293.19
  A 0.46 0.45 74.1 0 1 866.66 1292.55
  C 880.61 1290.57 894.68 1287.22 907.97 1281.60
  Q 922.11 1275.61 934.57 1268.85
  C 943.43 1264.04 950.96 1256.63 958.43 1249.89
  Q 962.19 1246.50 965.08 1242.59
  Q 970.21 1235.66 975.17 1228.72
  Q 977.49 1225.47 982.34 1215.18
  Z"
/>
</svg>
