<svg xmlns="http://www.w3.org/2000/svg" version="1.1" viewBox="0.00 0.00 300.00 366.00" width="300.00" height="366.00">
<g stroke-width="2.00" fill="none" stroke-linecap="butt">
<path stroke="#616161" stroke-opacity="0.651" d="&#10;  M 44.06 91.87&#10;  Q 43.90 91.71 43.63 91.64&#10;  Q 43.31 91.55 43.44 91.24&#10;  Q 44.25 89.47 44.13 87.53&#10;  A 0.70 0.70 0.0 0 0 43.55 86.89&#10;  Q 42.96 86.79 42.79 86.30&#10;  Q 42.51 85.53 42.38 86.34&#10;  Q 42.28 86.93 42.63 87.08&#10;  Q 43.15 87.30 43.28 87.85&#10;  Q 43.75 89.71 42.62 91.11&#10;  Q 41.67 92.30 42.25 90.89&#10;  Q 43.46 87.88 41.29 85.74&#10;  Q 41.24 85.70 41.12 85.25&#10;  Q 41.08 85.10 41.20 85.02&#10;  Q 41.41 84.89 41.22 84.72&#10;  Q 41.05 84.57 40.87 84.66&#10;  Q 40.74 84.72 40.69 84.92&#10;  Q 40.45 85.80 41.06 86.33&#10;  Q 41.36 86.59 41.37 86.99&#10;  L 41.40 91.52&#10;  Q 41.41 91.79 41.18 91.93&#10;  Q 40.98 92.05 40.80 92.45&#10;  A 0.38 0.37 38.4 0 0 40.85 92.86&#10;  Q 41.13 93.22 42.02 93.15"/>
<path stroke="#808080" d="&#10;  M 151.10 62.14&#10;  L 138.28 76.25&#10;  A 0.42 0.42 0.0 0 0 138.62 76.95&#10;  Q 147.16 76.35 155.89 75.57&#10;  C 157.53 75.43 158.24 77.03 159.11 77.82&#10;  C 169.59 87.32 185.89 89.68 198.76 84.99&#10;  C 213.35 79.69 227.96 61.26 221.53 45.16&#10;  C 217.58 35.29 207.16 28.97 196.75 27.29&#10;  C 175.36 23.84 150.01 36.79 151.31 61.54&#10;  A 0.83 0.80 65.5 0 1 151.10 62.14"/>
<path stroke="#808080" d="&#10;  M 198.24 60.40&#10;  L 193.77 43.51&#10;  Q 193.55 42.71 194.38 42.78&#10;  Q 196.77 42.96 196.47 40.65&#10;  A 1.30 1.29 -9.2 0 0 194.94 39.55&#10;  L 187.48 40.99&#10;  A 1.33 1.32 79.0 0 0 186.43 42.55&#10;  Q 186.68 43.81 187.74 44.20&#10;  Q 188.21 44.37 188.66 44.17&#10;  L 189.86 43.65&#10;  A 0.58 0.58 0.0 0 1 190.66 44.03&#10;  L 195.33 61.72&#10;  Q 195.49 62.32 194.91 62.53&#10;  Q 193.98 62.88 193.26 63.57&#10;  A 1.11 1.10 -26.9 0 0 192.93 64.56&#10;  C 193.16 65.95 194.31 66.15 195.50 65.69&#10;  Q 198.50 64.53 202.12 62.62&#10;  A 1.18 1.18 0.0 0 0 202.65 61.11&#10;  L 202.48 60.72&#10;  Q 201.93 59.45 200.65 59.99&#10;  L 198.92 60.74&#10;  Q 198.39 60.96 198.24 60.40"/>
<path stroke="#808080" d="&#10;  M 178.8908 45.4132&#10;  A 1.40 1.40 0.0 0 0 177.1592 44.4533&#10;  L 176.8131 44.5525&#10;  A 1.40 1.40 0.0 0 0 175.8532 46.2842&#10;  L 181.6692 66.5668&#10;  A 1.40 1.40 0.0 0 0 183.4008 67.5267&#10;  L 183.7469 67.4275&#10;  A 1.40 1.40 0.0 0 0 184.7068 65.6958&#10;  L 178.8908 45.4132"/>
<path stroke="#808080" d="&#10;  M 204.04 47.21&#10;  L 203.79 46.99&#10;  Q 203.37 46.62 202.84 46.80&#10;  Q 201.36 47.29 201.74 48.50&#10;  Q 203.45 53.95 204.86 59.66&#10;  Q 205.25 61.23 206.81 60.78&#10;  L 207.20 60.67&#10;  A 1.17 1.17 0.0 0 0 207.99 59.22&#10;  Q 206.61 54.66 207.02 49.94&#10;  A 1.54 1.54 0.0 0 1 208.11 48.60&#10;  C 211.84 47.51 214.48 55.92 215.02 58.78&#10;  Q 215.31 60.28 216.82 60.07&#10;  L 217.17 60.02&#10;  A 1.20 1.19 81.5 0 0 218.18 58.65&#10;  C 217.49 54.26 215.51 48.49 211.57 46.14&#10;  Q 207.67 43.83 204.68 47.17&#10;  Q 204.38 47.50 204.04 47.21"/>
<path stroke="#808080" d="&#10;  M 172.0200 47.7597&#10;  A 1.35 1.35 0.0 0 0 170.3438 46.8458&#10;  L 169.8833 46.9813&#10;  A 1.35 1.35 0.0 0 0 168.9694 48.6576&#10;  L 174.7800 68.4003&#10;  A 1.35 1.35 0.0 0 0 176.4562 69.3142&#10;  L 176.9167 69.1787&#10;  A 1.35 1.35 0.0 0 0 177.8306 67.5024&#10;  L 172.0200 47.7597"/>
<path stroke="#808080" d="&#10;  M 166.45 61.52&#10;  L 168.78 69.45&#10;  Q 169.11 70.55 170.22 70.24&#10;  L 170.71 70.11&#10;  A 1.22 1.22 0.0 0 0 171.59 68.74&#10;  C 170.84 64.08 166.43 48.49 160.21 49.86&#10;  C 154.38 51.14 153.40 65.17 153.39 69.99&#10;  Q 153.39 71.51 154.84 71.98&#10;  L 155.36 72.15&#10;  A 0.96 0.95 7.9 0 0 156.61 71.21&#10;  L 156.48 66.76&#10;  Q 156.46 66.25 156.77 65.84&#10;  C 158.50 63.55 162.70 62.09 165.60 61.09&#10;  Q 166.25 60.86 166.45 61.52"/>
<path stroke="#808080" d="&#10;  M 159.28 54.32&#10;  A 0.33 0.33 0.0 0 0 159.20 54.46&#10;  L 157.37 60.51&#10;  A 0.33 0.33 0.0 0 0 157.82 60.91&#10;  L 164.79 57.90&#10;  A 0.33 0.33 0.0 0 0 164.92 57.39&#10;  L 161.39 52.77&#10;  A 0.33 0.33 0.0 0 0 160.89 52.73&#10;  L 159.28 54.32"/>
<path stroke="#808080" d="&#10;  M 142.93 110.73&#10;  L 149.99 120.80"/>
<path stroke="#804f01" d="&#10;  M 210.14 366.00&#10;  C 211.43 363.64 212.31 360.47 213.05 358.68&#10;  Q 218.04 346.58 224.91 335.42&#10;  A 0.38 0.38 0.0 0 0 224.52 334.85&#10;  L 211.76 337.35&#10;  Q 211.29 337.45 211.40 337.92&#10;  Q 215.08 353.28 206.23 366.00"/>
<path stroke="#804f01" d="&#10;  M 165.61 366.00&#10;  Q 159.21 350.76 160.25 334.72&#10;  Q 160.33 333.53 159.22 333.07&#10;  L 158.49 332.76&#10;  Q 157.18 332.21 157.13 333.64&#10;  C 156.62 349.47 144.02 359.52 130.61 366.00"/>
<path stroke="#676767" d="&#10;  M 110.38 168.98&#10;  Q 110.74 166.83 110.15 164.91"/>
<path stroke="#807564" d="&#10;  M 71.3363 102.1733&#10;  A 11.07 7.53 88.0 0 0 78.4754 90.8472&#10;  A 11.07 7.53 88.0 0 0 70.5637 80.0467&#10;  A 11.07 7.53 88.0 0 0 63.4246 91.3728&#10;  A 11.07 7.53 88.0 0 0 71.3363 102.1733"/>
<path stroke="#7f6800" d="&#10;  M 83.79 85.34&#10;  C 85.55 91.57 84.54 98.38 80.66 103.66&#10;  A 0.23 0.23 0.0 0 0 80.86 104.02&#10;  C 92.68 103.07 104.00 101.91 114.38 95.61&#10;  A 0.99 0.99 0.0 0 0 114.82 94.50&#10;  C 111.11 81.25 94.85 80.54 84.21 84.51&#10;  A 0.69 0.69 0.0 0 0 83.79 85.34"/>
<path stroke="#808080" d="&#10;  M 157.93 178.76&#10;  C 158.62 150.76 146.74 114.32 120.41 100.00&#10;  A 1.94 1.94 0.0 0 0 118.38 100.11&#10;  Q 110.06 105.91 100.10 107.83&#10;  A 0.39 0.38 61.4 0 0 99.91 108.49&#10;  C 102.99 111.46 102.68 115.66 98.87 117.65&#10;  Q 97.36 118.44 96.30 118.19&#10;  Q 89.36 116.60 92.08 109.81&#10;  A 0.51 0.51 0.0 0 0 91.53 109.12&#10;  Q 83.56 110.25 75.52 109.90&#10;  Q 75.01 109.88 74.70 110.28&#10;  C 71.50 114.40 66.76 121.93 67.52 127.26&#10;  Q 68.27 132.44 73.51 130.50&#10;  C 76.58 129.36 81.05 122.11 84.27 124.17&#10;  Q 86.02 125.29 85.57 127.01&#10;  C 83.71 134.13 81.21 144.54 89.90 148.67&#10;  A 1.05 1.05 0.0 0 0 90.89 148.62&#10;  C 93.83 146.87 97.14 144.78 100.27 143.97&#10;  C 111.38 141.07 117.04 150.37 117.48 160.00&#10;  Q 118.06 172.83 114.65 185.98&#10;  A 0.38 0.38 0.0 0 0 115.00 186.45&#10;  Q 120.64 186.79 125.16 190.12&#10;  Q 125.63 190.46 126.21 190.44&#10;  L 131.48 190.22&#10;  Q 131.94 190.20 132.33 189.94&#10;  C 139.94 185.03 150.10 186.40 156.48 182.09"/>
<path stroke="#676767" d="&#10;  M 239.81 148.96&#10;  L 254.37 135.90&#10;  A 0.72 0.72 0.0 0 0 254.30 134.77&#10;  C 240.22 125.01 225.98 116.53 209.23 112.85&#10;  Q 202.74 111.42 196.22 110.13"/>
<path stroke="#404040" d="&#10;  M 196.22 110.13&#10;  L 190.19 109.65&#10;  Q 188.46 109.51 189.94 110.43&#10;  C 196.91 114.76 204.36 119.25 210.46 124.20&#10;  Q 225.15 136.11 236.55 151.31&#10;  Q 236.88 151.75 237.27 151.37&#10;  L 239.81 148.96"/>
<path stroke="#a7a7a7" d="&#10;  M 196.22 110.13&#10;  Q 195.71 110.30 195.61 110.85&#10;  Q 195.53 111.31 195.96 111.51&#10;  Q 212.09 118.93 224.73 132.26&#10;  Q 233.85 141.87 239.81 148.96"/>
<path stroke="#804f01" d="&#10;  M 84.58 153.26&#10;  C 79.42 149.39 76.58 143.38 77.01 136.91&#10;  A 0.60 0.60 0.0 0 0 76.17 136.32&#10;  Q 71.73 138.28 67.02 137.13&#10;  Q 66.42 136.98 66.30 137.58&#10;  C 63.10 153.19 56.46 166.90 45.59 178.60&#10;  C 43.44 180.91 43.97 185.79 48.26 185.00&#10;  C 56.22 183.53 65.56 176.36 71.26 170.01&#10;  Q 77.88 162.63 84.74 154.76&#10;  A 1.03 1.02 39.1 0 0 84.58 153.26"/>
<path stroke="#343434" d="&#10;  M 247.00 167.27&#10;  L 267.42 147.11&#10;  Q 267.86 146.68 267.44 146.23&#10;  L 260.62 138.86&#10;  A 0.50 0.50 0.0 0 0 259.86 138.90&#10;  Q 258.34 140.97 256.31 142.80&#10;  Q 247.67 150.65 238.64 157.98&#10;  A 0.77 0.77 0.0 0 0 238.57 159.11&#10;  L 246.49 167.26&#10;  A 0.35 0.35 0.0 0 0 247.00 167.27"/>
<path stroke="#808080" d="&#10;  M 191.29 151.31&#10;  Q 190.29 151.65 189.98 151.47"/>
<path stroke="#243626" d="&#10;  M 189.98 151.47&#10;  Q 186.14 152.04 182.84 154.16"/>
<path stroke="#808080" d="&#10;  M 182.84 154.16&#10;  Q 181.78 154.31 180.95 155.02"/>
<path stroke="#243626" d="&#10;  M 180.95 155.02&#10;  L 177.03 157.08"/>
<path stroke="#808080" d="&#10;  M 177.03 157.08&#10;  Q 175.63 157.17 174.67 158.24"/>
<path stroke="#243626" d="&#10;  M 174.67 158.24&#10;  Q 173.49 158.81 172.70 159.62"/>
<path stroke="#808080" d="&#10;  M 172.70 159.62&#10;  Q 170.93 160.32 169.47 161.76"/>
<path stroke="#243626" d="&#10;  M 169.47 161.76&#10;  Q 168.98 162.24 168.08 162.40"/>
<path stroke="#808080" d="&#10;  M 168.08 162.40&#10;  Q 167.06 162.67 166.46 163.60"/>
<path stroke="#243626" d="&#10;  M 166.46 163.60&#10;  C 165.10 164.39 164.30 165.17 164.38 166.88&#10;  Q 164.70 173.46 164.89 180.00&#10;  Q 164.93 181.31 165.99 181.72"/>
<path stroke="#676767" d="&#10;  M 165.99 181.72&#10;  Q 167.23 182.67 168.69 183.10&#10;  Q 169.17 183.24 169.64 183.05&#10;  Q 172.02 182.09 174.74 182.15"/>
<path stroke="#808080" d="&#10;  M 174.74 182.15&#10;  L 177.53 181.59"/>
<path stroke="#243626" d="&#10;  M 177.53 181.59&#10;  L 195.12 182.16"/>
<path stroke="#808080" d="&#10;  M 195.12 182.16&#10;  L 197.82 182.78"/>
<path stroke="#404040" d="&#10;  M 197.82 182.78&#10;  Q 198.33 183.40 199.67 183.15"/>
<path stroke="#808080" d="&#10;  M 199.67 183.15&#10;  L 201.96 183.22"/>
<path stroke="#404040" d="&#10;  M 201.96 183.22&#10;  L 204.73 183.73"/>
<path stroke="#808080" d="&#10;  M 204.73 183.73&#10;  Q 205.43 184.47 207.05 182.76"/>
<path stroke="#243626" d="&#10;  M 207.05 182.76&#10;  L 215.78 175.09"/>
<path stroke="#808080" d="&#10;  M 215.78 175.09&#10;  L 218.23 172.66"/>
<path stroke="#243626" d="&#10;  M 218.23 172.66&#10;  L 227.56 164.91&#10;  Q 228.00 164.55 227.61 164.13&#10;  Q 223.83 160.02 218.75 157.44"/>
<path stroke="#404040" d="&#10;  M 218.75 157.44&#10;  L 213.91 154.76"/>
<path stroke="#676767" d="&#10;  M 213.91 154.76&#10;  Q 213.51 154.46 213.25 154.47"/>
<path stroke="#404040" d="&#10;  M 213.25 154.47&#10;  Q 212.39 153.79 211.09 153.41"/>
<path stroke="#243626" d="&#10;  M 211.09 153.41&#10;  Q 201.46 148.97 191.29 151.31"/>
<path stroke="#647665" d="&#10;  M 211.09 153.41&#10;  Q 210.60 153.77 208.98 152.83"/>
<path stroke="#a4b5a5" d="&#10;  M 208.98 152.83&#10;  Q 208.13 152.93 207.83 153.86&#10;  Q 207.63 154.48 207.92 155.25&#10;  Q 210.18 161.30 218.13 159.43&#10;  A 1.17 1.16 -19.8 0 0 218.91 157.78&#10;  L 218.75 157.44"/>
<path stroke="#a4b5a5" d="&#10;  M 218.23 172.66&#10;  C 219.52 168.31 220.69 163.00 214.24 162.57&#10;  Q 209.18 162.23 207.11 165.67&#10;  C 204.39 170.21 209.55 175.65 213.73 172.24&#10;  Q 216.75 169.77 214.92 166.72&#10;  Q 214.67 166.31 214.22 166.13&#10;  Q 211.29 165.01 209.99 167.49&#10;  Q 209.28 168.85 210.68 169.44&#10;  Q 211.11 169.62 211.44 169.29&#10;  C 211.86 168.88 212.11 168.36 212.62 168.10&#10;  Q 213.81 167.49 213.58 169.39&#10;  A 1.21 1.20 78.9 0 1 212.97 170.31&#10;  Q 210.62 171.62 209.27 170.46&#10;  C 204.10 166.02 217.51 161.61 217.06 167.50&#10;  Q 216.83 170.44 215.05 172.65&#10;  A 1.09 1.03 -19.2 0 0 214.84 173.05&#10;  Q 214.18 175.29 215.78 175.09"/>
<path stroke="#a4b5a5" d="&#10;  M 207.05 182.76&#10;  C 206.69 180.10 208.90 177.24 206.23 174.97&#10;  C 201.15 170.66 192.90 174.79 195.12 182.16"/>
<path stroke="#a4b5a5" d="&#10;  M 177.53 181.59&#10;  C 178.58 177.77 177.53 173.73 174.12 171.64&#10;  C 169.29 168.68 163.56 174.73 167.50 178.99&#10;  Q 169.28 180.93 172.39 180.33&#10;  A 2.42 2.42 0.0 0 0 174.21 177.14&#10;  Q 173.61 175.46 172.17 174.38&#10;  Q 171.69 174.03 171.17 174.32&#10;  Q 170.47 174.71 170.10 175.44&#10;  Q 169.85 175.95 170.25 176.36&#10;  Q 170.78 176.89 171.51 177.02&#10;  A 0.75 0.75 0.0 0 1 171.98 178.22&#10;  Q 171.24 179.16 170.18 178.40&#10;  Q 168.91 177.49 168.45 176.11&#10;  A 1.30 1.30 0.0 0 1 168.48 175.24&#10;  C 170.99 169.16 179.23 177.22 174.12 181.48"/>
<path stroke="#8b9d8d" d="&#10;  M 174.12 181.48&#10;  Q 170.87 181.21 167.50 180.81&#10;  Q 166.02 180.63 165.99 181.72"/>
<path stroke="#a4b5a5" d="&#10;  M 166.46 163.60&#10;  C 169.12 172.82 181.81 162.66 172.70 159.62"/>
<path stroke="#a4b5a5" d="&#10;  M 174.67 158.24&#10;  Q 174.51 158.62 174.96 158.79&#10;  C 179.28 160.45 176.50 164.94 174.78 167.34&#10;  A 1.10 1.09 36.6 0 0 175.01 168.85&#10;  L 175.26 169.04&#10;  A 0.73 0.73 0.0 0 0 176.27 168.93&#10;  C 178.93 165.69 181.20 160.22 177.03 157.08"/>
<path stroke="#a4b5a5" d="&#10;  M 180.95 155.02&#10;  Q 180.89 155.46 181.49 155.78&#10;  Q 183.76 156.97 186.64 156.69&#10;  Q 192.19 156.14 191.29 151.31"/>
<path stroke="#a4b5a5" d="&#10;  M 168.08 162.40&#10;  Q 168.58 163.00 168.98 163.71&#10;  C 170.20 165.92 172.45 165.62 173.69 163.50&#10;  A 0.82 0.82 0.0 0 0 173.47 162.43&#10;  L 173.25 162.26&#10;  A 0.55 0.54 32.0 0 0 172.44 162.44&#10;  Q 172.11 163.07 171.54 163.48&#10;  Q 171.07 163.83 170.57 163.51&#10;  Q 169.67 162.94 169.47 161.76"/>
<path stroke="#bfc0bf" d="&#10;  M 208.98 152.83&#10;  C 209.69 153.97 209.85 155.31 210.66 156.16&#10;  C 213.25 158.91 215.62 157.54 218.75 157.44"/>
<path stroke="#a7a7a7" d="&#10;  M 213.25 154.47&#10;  L 212.45 154.61&#10;  Q 212.05 154.68 212.18 155.06&#10;  Q 212.52 156.01 213.43 156.35&#10;  Q 214.39 156.71 214.15 155.72&#10;  L 213.91 154.76"/>
<path stroke="#bfc0bf" d="&#10;  M 204.73 183.73&#10;  Q 203.73 182.95 204.15 182.24&#10;  C 209.10 173.86 198.20 173.46 196.47 179.26&#10;  A 0.93 0.93 0.0 0 0 196.64 180.11&#10;  Q 197.72 181.41 197.82 182.78"/>
<path stroke="#e7e7e7" d="&#10;  M 174.74 182.15&#10;  Q 174.21 181.92 174.12 181.48"/>
<path stroke="#a4b5a5" d="&#10;  M 189.98 151.47&#10;  C 188.80 154.95 186.08 154.37 182.84 154.16"/>
<path stroke="#bfc0bf" d="&#10;  M 201.96 183.22&#10;  C 205.74 181.22 203.71 174.89 199.25 177.50&#10;  Q 197.92 178.28 198.42 179.70&#10;  A 0.76 0.75 -25.8 0 0 199.55 180.09&#10;  L 201.23 179.00&#10;  A 0.59 0.59 0.0 0 1 202.13 179.37&#10;  L 202.20 179.72&#10;  A 1.29 1.28 -20.4 0 1 201.56 181.10&#10;  Q 199.87 182.02 199.67 183.15"/>
<path stroke="#404040" d="&#10;  M 255.94 166.98&#10;  Q 254.72 167.76 254.10 168.95&#10;  Q 253.85 169.44 254.26 169.81&#10;  C 262.19 176.81 268.52 186.14 273.80 195.24&#10;  Q 278.43 203.22 287.40 221.80"/>
<path stroke="#404040" d="&#10;  M 288.96 224.00&#10;  Q 288.34 224.15 288.84 225.07&#10;  Q 289.46 226.23 289.82 224.96&#10;  Q 289.93 224.55 289.53 223.94"/>
<path stroke="#676767" d="&#10;  M 289.14 213.69&#10;  Q 286.22 181.54 270.72 153.21&#10;  A 0.50 0.50 0.0 0 0 269.93 153.10&#10;  L 255.94 166.98"/>
<path stroke="#a7a7a7" d="&#10;  M 285.88 210.13&#10;  Q 284.82 211.08 284.22 209.76&#10;  Q 278.45 196.94 276.32 193.16&#10;  Q 268.11 178.61 255.94 166.98"/>
<path stroke="#2b1603" d="&#10;  M 235.60 165.79&#10;  L 154.39 238.67&#10;  Q 153.83 239.18 154.58 239.20&#10;  C 156.83 239.28 158.60 239.01 160.39 237.40&#10;  Q 198.62 203.00 237.56 168.16&#10;  Q 238.44 167.38 237.73 166.45&#10;  L 237.37 165.96&#10;  A 1.21 1.20 -39.4 0 0 235.60 165.79"/>
<path stroke="#676767" d="&#10;  M 231.86 181.62&#10;  Q 228.81 183.49 226.64 186.25"/>
<path stroke="#243626" d="&#10;  M 226.64 186.25&#10;  Q 225.60 186.71 224.69 188.08&#10;  Q 224.35 188.58 224.92 188.82&#10;  L 234.38 192.69&#10;  A 0.54 0.54 0.0 0 0 235.11 192.29&#10;  C 235.75 188.87 236.45 183.13 234.63 179.98&#10;  Q 234.35 179.51 233.88 179.78&#10;  Q 232.49 180.57 231.86 181.62"/>
<path stroke="#8b9d8d" d="&#10;  M 226.64 186.25&#10;  Q 230.17 186.74 231.86 181.62"/>
<path stroke="#243626" d="&#10;  M 159.49 188.34&#10;  Q 158.80 188.08 158.13 188.38&#10;  C 155.58 189.56 153.08 190.64 150.18 191.19&#10;  C 145.91 192.01 139.96 192.42 136.28 194.81&#10;  Q 135.48 195.33 135.86 196.05&#10;  A 0.68 0.68 0.0 0 0 136.53 196.40&#10;  C 145.77 195.37 154.77 195.32 162.82 190.17&#10;  Q 163.35 189.83 162.76 189.60&#10;  L 159.49 188.34"/>
<path stroke="#808080" d="&#10;  M 95.56 251.37&#10;  C 94.79 256.25 95.77 261.88 96.23 266.77"/>
<path stroke="#111111" stroke-opacity="0.651" d="&#10;  M 96.23 266.77&#10;  Q 95.66 267.34 96.38 268.37&#10;  Q 96.92 269.14 97.51 268.74"/>
<path stroke="#808080" d="&#10;  M 97.51 268.74&#10;  Q 98.82 269.65 100.35 270.10&#10;  A 0.83 0.83 0.0 0 0 101.18 269.88&#10;  C 105.30 265.58 106.43 265.50 111.85 267.98&#10;  Q 112.32 268.19 112.69 267.85&#10;  L 123.57 258.00"/>
<path stroke="#802c00" d="&#10;  M 123.57 258.00&#10;  L 134.35 248.47&#10;  A 1.12 1.10 -25.8 0 0 134.71 247.46&#10;  Q 133.50 240.35 138.20 234.97&#10;  C 140.73 232.07 145.15 230.96 147.65 234.53&#10;  Q 147.97 234.98 148.40 235.24&#10;  Q 148.83 235.49 149.21 235.16&#10;  L 199.37 190.09&#10;  A 0.43 0.43 0.0 0 0 199.13 189.34&#10;  Q 186.64 188.07 174.75 188.58&#10;  C 173.07 188.65 172.60 188.36 171.45 189.80&#10;  C 164.28 198.78 155.43 200.80 144.38 201.72&#10;  Q 142.97 201.84 144.09 202.71&#10;  Q 148.19 205.87 151.09 210.61&#10;  C 158.70 223.07 141.62 221.65 138.90 216.06&#10;  Q 136.22 210.57 130.06 210.45&#10;  A 0.74 0.73 10.5 0 0 129.35 210.93&#10;  C 127.23 216.43 122.35 218.22 118.10 221.77&#10;  C 115.20 224.19 112.06 226.35 108.80 224.72&#10;  Q 105.28 222.95 105.67 220.00&#10;  C 106.48 213.75 111.34 208.34 116.21 203.93&#10;  A 0.52 0.52 0.0 0 0 115.96 203.03&#10;  L 111.32 202.20&#10;  A 0.85 0.85 0.0 0 0 110.38 202.73&#10;  Q 102.74 222.32 96.55 242.49&#10;  Q 95.45 246.10 95.56 251.37"/>
<path stroke="#ffab80" d="&#10;  M 123.57 258.00&#10;  Q 109.19 255.37 95.56 251.37"/>
<path stroke="#d5d5d5" stroke-opacity="0.651" d="&#10;  M 97.51 268.74&#10;  L 96.23 266.77"/>
<path stroke="#243626" d="&#10;  M 117.39 197.35&#10;  A 0.85 0.85 0.0 0 0 118.25 197.04&#10;  L 119.90 194.93&#10;  A 0.85 0.85 0.0 0 0 119.43 193.59&#10;  L 114.17 192.28&#10;  A 0.85 0.85 0.0 0 0 113.19 192.76&#10;  L 112.15 195.12&#10;  A 0.85 0.85 0.0 0 0 112.74 196.29&#10;  L 117.39 197.35"/>
<path stroke="#808080" d="&#10;  M 196.06 263.57&#10;  C 191.70 270.89 181.96 270.64 175.53 267.69&#10;  Q 170.05 265.17 165.30 262.97"/>
<path stroke="#802c00" d="&#10;  M 165.30 262.97&#10;  L 156.64 256.18&#10;  Q 156.26 255.88 155.77 255.95&#10;  L 147.78 257.09&#10;  A 0.62 0.58 17.6 0 0 147.47 257.24&#10;  L 143.48 260.86"/>
<path stroke="#808080" d="&#10;  M 143.48 260.86&#10;  L 129.03 273.91&#10;  Q 128.65 274.25 128.76 274.74&#10;  Q 128.94 275.54 129.58 276.34"/>
<path stroke="#802c00" d="&#10;  M 129.58 276.34&#10;  Q 129.80 282.66 126.49 287.91"/>
<path stroke="#808080" d="&#10;  M 126.49 287.91&#10;  Q 120.11 295.21 110.62 291.41&#10;  Q 109.20 290.84 108.67 291.81&#10;  A 0.82 0.80 -48.9 0 0 108.72 292.65&#10;  Q 112.86 298.45 118.24 303.05"/>
<path stroke="#802c00" d="&#10;  M 118.24 303.05&#10;  Q 119.53 304.60 121.10 305.90&#10;  C 129.98 313.22 139.53 319.11 150.36 323.25&#10;  C 176.61 333.27 204.80 334.55 231.78 325.80&#10;  Q 255.34 318.16 270.64 299.42"/>
<path stroke="#808080" d="&#10;  M 270.64 299.42&#10;  Q 277.33 290.76 280.86 279.18"/>
<path stroke="#802c00" d="&#10;  M 280.86 279.18&#10;  L 282.57 267.91"/>
<path stroke="#808080" d="&#10;  M 282.57 267.91&#10;  Q 282.81 259.43 280.99 250.63"/>
<path stroke="#802c00" d="&#10;  M 280.99 250.63&#10;  C 272.24 221.52 246.97 202.21 218.64 193.89&#10;  Q 218.17 193.75 217.80 194.08&#10;  Q 190.90 218.22 163.97 242.34&#10;  C 163.15 243.08 163.19 243.56 163.21 244.59&#10;  C 163.26 247.18 162.65 249.16 161.06 251.21&#10;  A 0.86 0.85 -51.1 0 0 161.18 252.40&#10;  C 166.65 257.02 176.55 263.06 183.90 263.48&#10;  C 197.84 264.29 187.45 249.69 184.32 245.37&#10;  A 2.35 2.35 0.0 0 1 184.52 242.37&#10;  L 184.89 241.98&#10;  Q 186.82 239.95 188.79 241.93&#10;  C 194.54 247.71 198.30 255.37 196.06 263.57"/>
<path stroke="#ffab80" d="&#10;  M 280.99 250.63&#10;  Q 239.50 263.03 196.06 263.57"/>
<path stroke="#ffab80" d="&#10;  M 282.57 267.91&#10;  C 240.65 279.91 199.15 282.50 155.59 279.40&#10;  C 146.98 278.78 138.28 277.48 129.58 276.34"/>
<path stroke="#ffab80" d="&#10;  M 143.48 260.86&#10;  Q 154.13 262.67 165.30 262.97"/>
<path stroke="#ffab80" d="&#10;  M 280.86 279.18&#10;  C 231.55 294.61 177.20 296.62 126.49 287.91"/>
<path stroke="#ffab80" d="&#10;  M 270.64 299.42&#10;  C 219.84 310.93 169.66 312.89 118.24 303.05"/>
<path stroke="#243626" d="&#10;  M 129.7780 196.3165&#10;  A 4.33 1.61 -41.4 0 0 125.4653 197.9723&#10;  A 4.33 1.61 -41.4 0 0 123.2820 202.0435&#10;  A 4.33 1.61 -41.4 0 0 127.5947 200.3877&#10;  A 4.33 1.61 -41.4 0 0 129.7780 196.3165"/>
<path stroke="#243626" d="&#10;  M 132.68 204.94&#10;  C 137.21 206.22 140.98 207.70 143.18 212.05&#10;  Q 143.47 212.62 143.78 212.97&#10;  Q 144.38 213.66 144.61 213.71&#10;  Q 146.60 214.14 145.43 212.47&#10;  Q 141.02 206.18 133.77 203.54&#10;  A 1.07 1.06 30.4 0 0 132.59 203.84&#10;  L 132.41 204.05&#10;  Q 131.84 204.70 132.68 204.94"/>
<path stroke="#243626" d="&#10;  M 112.59 218.39&#10;  L 112.82 218.56&#10;  A 0.46 0.46 0.0 0 0 113.45 218.47&#10;  Q 116.40 214.72 120.71 212.18&#10;  Q 122.53 211.11 123.45 209.51&#10;  A 0.97 0.96 19.3 0 0 122.75 208.07&#10;  C 119.14 207.54 113.94 214.66 112.37 217.38&#10;  A 0.77 0.76 33.0 0 0 112.59 218.39"/>
<path stroke="#808080" d="&#10;  M 156.18 244.59&#10;  C 149.14 246.96 146.20 244.47 143.64 238.62&#10;  A 0.67 0.67 0.0 0 0 142.50 238.48&#10;  C 135.12 248.13 146.51 253.42 153.57 250.35&#10;  Q 155.74 249.40 156.80 247.28&#10;  L 157.43 246.03&#10;  Q 158.56 243.79 156.18 244.59"/>
<path stroke="#2b1603" d="&#10;  M 125.42 268.78&#10;  C 130.41 264.51 135.25 259.87 140.09 255.55&#10;  Q 140.87 254.86 140.03 254.25&#10;  L 139.31 253.72&#10;  A 1.35 1.35 0.0 0 0 137.62 253.80&#10;  L 117.69 271.57&#10;  Q 115.66 273.39 118.25 272.55&#10;  C 120.62 271.79 123.36 270.54 125.42 268.78"/>
<path stroke="#808080" d="&#10;  M 122.58 277.26&#10;  C 116.47 280.29 111.89 279.86 108.35 273.33&#10;  A 1.14 1.14 0.0 0 0 106.27 273.51&#10;  L 105.90 274.62&#10;  A 6.20 6.16 43.1 0 0 106.06 278.95&#10;  C 109.38 286.85 123.13 291.26 123.57 277.89&#10;  A 0.69 0.68 -12.3 0 0 122.58 277.26"/>
<path stroke="#2b1603" d="&#10;  M 103.5945 286.0591&#10;  A 1.50 1.50 0.0 0 0 101.4763 285.9444&#10;  L 56.3264 326.4551&#10;  A 1.50 1.50 0.0 0 0 56.2116 328.5734&#10;  L 56.5055 328.9009&#10;  A 1.50 1.50 0.0 0 0 58.6237 329.0156&#10;  L 103.7736 288.5049&#10;  A 1.50 1.50 0.0 0 0 103.8884 286.3866&#10;  L 103.5945 286.0591"/>
<path stroke="#a4b5a5" d="&#10;  M 199.61 159.36&#10;  L 200.52 160.34&#10;  A 0.78 0.77 -45.3 0 0 201.66 160.33&#10;  L 201.96 160.01&#10;  A 0.92 0.91 48.3 0 0 202.02 158.85&#10;  Q 200.02 156.11 197.71 157.33&#10;  C 193.32 159.66 198.98 167.16 204.20 163.06&#10;  Q 206.72 161.08 205.39 157.58&#10;  Q 203.56 152.79 197.47 153.56&#10;  C 190.32 154.47 192.73 162.09 195.73 165.68&#10;  Q 196.31 166.38 197.06 165.86&#10;  L 197.36 165.65&#10;  A 0.68 0.68 0.0 0 0 197.51 164.67&#10;  Q 195.16 161.62 194.97 157.80&#10;  A 1.57 1.56 -10.4 0 1 196.06 156.23&#10;  C 204.63 153.47 205.40 163.61 200.04 162.01&#10;  Q 198.88 161.67 198.37 160.89&#10;  Q 197.73 159.91 198.78 159.26&#10;  Q 199.24 158.97 199.61 159.36"/>
<path stroke="#a4b5a5" d="&#10;  M 190.88 170.12&#10;  C 191.69 176.99 181.01 174.32 182.19 169.51&#10;  C 182.72 167.33 186.32 167.27 187.27 168.84&#10;  Q 188.79 171.34 186.10 170.18&#10;  Q 186.05 170.16 185.47 169.63&#10;  Q 185.07 169.26 184.56 169.43&#10;  Q 183.60 169.74 183.82 171.13&#10;  A 1.61 1.58 10.2 0 0 184.63 172.28&#10;  C 190.16 175.32 191.20 166.96 186.25 165.66&#10;  Q 181.41 164.39 180.25 169.62&#10;  C 178.07 179.45 202.11 178.76 189.71 163.82&#10;  A 0.52 0.52 0.0 0 0 189.02 163.72&#10;  L 188.79 163.86&#10;  A 1.01 1.01 0.0 0 0 188.48 165.23&#10;  Q 190.73 168.90 190.88 170.12"/>
</g>
<path fill="#000000" d="&#10;  M 219.71 37.65&#10;  C 231.06 52.55 223.30 69.76 210.77 80.57&#10;  C 195.67 93.60 170.32 92.01 156.34 78.11&#10;  Q 156.01 77.78 155.55 77.82&#10;  L 135.70 79.27&#10;  A 1.28 1.28 0.0 0 1 134.66 77.14&#10;  L 148.86 61.51&#10;  Q 149.12 61.23 149.11 60.84&#10;  Q 148.58 46.20 158.97 36.45&#10;  C 173.37 22.94 194.65 20.73 211.65 30.69&#10;  C 214.19 32.18 217.86 35.23 219.71 37.65&#10;  Z&#10;  M 151.10 62.14&#10;  L 138.28 76.25&#10;  A 0.42 0.42 0.0 0 0 138.62 76.95&#10;  Q 147.16 76.35 155.89 75.57&#10;  C 157.53 75.43 158.24 77.03 159.11 77.82&#10;  C 169.59 87.32 185.89 89.68 198.76 84.99&#10;  C 213.35 79.69 227.96 61.26 221.53 45.16&#10;  C 217.58 35.29 207.16 28.97 196.75 27.29&#10;  C 175.36 23.84 150.01 36.79 151.31 61.54&#10;  A 0.83 0.80 65.5 0 1 151.10 62.14&#10;  Z"/>
<path fill="#ffffff" d="&#10;  M 151.31 61.54&#10;  C 150.01 36.79 175.36 23.84 196.75 27.29&#10;  C 207.16 28.97 217.58 35.29 221.53 45.16&#10;  C 227.96 61.26 213.35 79.69 198.76 84.99&#10;  C 185.89 89.68 169.59 87.32 159.11 77.82&#10;  C 158.24 77.03 157.53 75.43 155.89 75.57&#10;  Q 147.16 76.35 138.62 76.95&#10;  A 0.42 0.42 0.0 0 1 138.28 76.25&#10;  L 151.10 62.14&#10;  A 0.83 0.80 65.5 0 0 151.31 61.54&#10;  Z&#10;  M 198.24 60.40&#10;  L 193.77 43.51&#10;  Q 193.55 42.71 194.38 42.78&#10;  Q 196.77 42.96 196.47 40.65&#10;  A 1.30 1.29 -9.2 0 0 194.94 39.55&#10;  L 187.48 40.99&#10;  A 1.33 1.32 79.0 0 0 186.43 42.55&#10;  Q 186.68 43.81 187.74 44.20&#10;  Q 188.21 44.37 188.66 44.17&#10;  L 189.86 43.65&#10;  A 0.58 0.58 0.0 0 1 190.66 44.03&#10;  L 195.33 61.72&#10;  Q 195.49 62.32 194.91 62.53&#10;  Q 193.98 62.88 193.26 63.57&#10;  A 1.11 1.10 -26.9 0 0 192.93 64.56&#10;  C 193.16 65.95 194.31 66.15 195.50 65.69&#10;  Q 198.50 64.53 202.12 62.62&#10;  A 1.18 1.18 0.0 0 0 202.65 61.11&#10;  L 202.48 60.72&#10;  Q 201.93 59.45 200.65 59.99&#10;  L 198.92 60.74&#10;  Q 198.39 60.96 198.24 60.40&#10;  Z&#10;  M 178.8908 45.4132&#10;  A 1.40 1.40 0.0 0 0 177.1592 44.4533&#10;  L 176.8131 44.5525&#10;  A 1.40 1.40 0.0 0 0 175.8532 46.2842&#10;  L 181.6692 66.5668&#10;  A 1.40 1.40 0.0 0 0 183.4008 67.5267&#10;  L 183.7469 67.4275&#10;  A 1.40 1.40 0.0 0 0 184.7068 65.6958&#10;  L 178.8908 45.4132&#10;  Z&#10;  M 204.04 47.21&#10;  L 203.79 46.99&#10;  Q 203.37 46.62 202.84 46.80&#10;  Q 201.36 47.29 201.74 48.50&#10;  Q 203.45 53.95 204.86 59.66&#10;  Q 205.25 61.23 206.81 60.78&#10;  L 207.20 60.67&#10;  A 1.17 1.17 0.0 0 0 207.99 59.22&#10;  Q 206.61 54.66 207.02 49.94&#10;  A 1.54 1.54 0.0 0 1 208.11 48.60&#10;  C 211.84 47.51 214.48 55.92 215.02 58.78&#10;  Q 215.31 60.28 216.82 60.07&#10;  L 217.17 60.02&#10;  A 1.20 1.19 81.5 0 0 218.18 58.65&#10;  C 217.49 54.26 215.51 48.49 211.57 46.14&#10;  Q 207.67 43.83 204.68 47.17&#10;  Q 204.38 47.50 204.04 47.21&#10;  Z&#10;  M 172.0200 47.7597&#10;  A 1.35 1.35 0.0 0 0 170.3438 46.8458&#10;  L 169.8833 46.9813&#10;  A 1.35 1.35 0.0 0 0 168.9694 48.6576&#10;  L 174.7800 68.4003&#10;  A 1.35 1.35 0.0 0 0 176.4562 69.3142&#10;  L 176.9167 69.1787&#10;  A 1.35 1.35 0.0 0 0 177.8306 67.5024&#10;  L 172.0200 47.7597&#10;  Z&#10;  M 166.45 61.52&#10;  L 168.78 69.45&#10;  Q 169.11 70.55 170.22 70.24&#10;  L 170.71 70.11&#10;  A 1.22 1.22 0.0 0 0 171.59 68.74&#10;  C 170.84 64.08 166.43 48.49 160.21 49.86&#10;  C 154.38 51.14 153.40 65.17 153.39 69.99&#10;  Q 153.39 71.51 154.84 71.98&#10;  L 155.36 72.15&#10;  A 0.96 0.95 7.9 0 0 156.61 71.21&#10;  L 156.48 66.76&#10;  Q 156.46 66.25 156.77 65.84&#10;  C 158.50 63.55 162.70 62.09 165.60 61.09&#10;  Q 166.25 60.86 166.45 61.52&#10;  Z"/>
<path fill="#000000" d="&#10;  M 198.92 60.74&#10;  L 200.65 59.99&#10;  Q 201.93 59.45 202.48 60.72&#10;  L 202.65 61.11&#10;  A 1.18 1.18 0.0 0 1 202.12 62.62&#10;  Q 198.50 64.53 195.50 65.69&#10;  C 194.31 66.15 193.16 65.95 192.93 64.56&#10;  A 1.11 1.10 -26.9 0 1 193.26 63.57&#10;  Q 193.98 62.88 194.91 62.53&#10;  Q 195.49 62.32 195.33 61.72&#10;  L 190.66 44.03&#10;  A 0.58 0.58 0.0 0 0 189.86 43.65&#10;  L 188.66 44.17&#10;  Q 188.21 44.37 187.74 44.20&#10;  Q 186.68 43.81 186.43 42.55&#10;  A 1.33 1.32 79.0 0 1 187.48 40.99&#10;  L 194.94 39.55&#10;  A 1.30 1.29 -9.2 0 1 196.47 40.65&#10;  Q 196.77 42.96 194.38 42.78&#10;  Q 193.55 42.71 193.77 43.51&#10;  L 198.24 60.40&#10;  Q 198.39 60.96 198.92 60.74&#10;  Z"/>
<rect fill="#000000" x="-1.58" y="-11.95" transform="translate(180.28,55.99) rotate(-16.0)" width="3.16" height="23.90" rx="1.40"/>
<path fill="#000000" d="&#10;  M 204.68 47.17&#10;  Q 207.67 43.83 211.57 46.14&#10;  C 215.51 48.49 217.49 54.26 218.18 58.65&#10;  A 1.20 1.19 81.5 0 1 217.17 60.02&#10;  L 216.82 60.07&#10;  Q 215.31 60.28 215.02 58.78&#10;  C 214.48 55.92 211.84 47.51 208.11 48.60&#10;  A 1.54 1.54 0.0 0 0 207.02 49.94&#10;  Q 206.61 54.66 207.99 59.22&#10;  A 1.17 1.17 0.0 0 1 207.20 60.67&#10;  L 206.81 60.78&#10;  Q 205.25 61.23 204.86 59.66&#10;  Q 203.45 53.95 201.74 48.50&#10;  Q 201.36 47.29 202.84 46.80&#10;  Q 203.37 46.62 203.79 46.99&#10;  L 204.04 47.21&#10;  Q 204.38 47.50 204.68 47.17&#10;  Z"/>
<rect fill="#000000" x="-1.59" y="-11.64" transform="translate(173.40,58.08) rotate(-16.4)" width="3.18" height="23.28" rx="1.35"/>
<path fill="#000000" d="&#10;  M 165.60 61.09&#10;  C 162.70 62.09 158.50 63.55 156.77 65.84&#10;  Q 156.46 66.25 156.48 66.76&#10;  L 156.61 71.21&#10;  A 0.96 0.95 7.9 0 1 155.36 72.15&#10;  L 154.84 71.98&#10;  Q 153.39 71.51 153.39 69.99&#10;  C 153.40 65.17 154.38 51.14 160.21 49.86&#10;  C 166.43 48.49 170.84 64.08 171.59 68.74&#10;  A 1.22 1.22 0.0 0 1 170.71 70.11&#10;  L 170.22 70.24&#10;  Q 169.11 70.55 168.78 69.45&#10;  L 166.45 61.52&#10;  Q 166.25 60.86 165.60 61.09&#10;  Z&#10;  M 159.28 54.32&#10;  A 0.33 0.33 0.0 0 0 159.20 54.46&#10;  L 157.37 60.51&#10;  A 0.33 0.33 0.0 0 0 157.82 60.91&#10;  L 164.79 57.90&#10;  A 0.33 0.33 0.0 0 0 164.92 57.39&#10;  L 161.39 52.77&#10;  A 0.33 0.33 0.0 0 0 160.89 52.73&#10;  L 159.28 54.32&#10;  Z"/>
<path fill="#ffffff" d="&#10;  M 159.28 54.32&#10;  L 160.89 52.73&#10;  A 0.33 0.33 0.0 0 1 161.39 52.77&#10;  L 164.92 57.39&#10;  A 0.33 0.33 0.0 0 1 164.79 57.90&#10;  L 157.82 60.91&#10;  A 0.33 0.33 0.0 0 1 157.37 60.51&#10;  L 159.20 54.46&#10;  A 0.33 0.33 0.0 0 1 159.28 54.32&#10;  Z"/>
<path fill="#494949" fill-opacity="0.302" d="&#10;  M 44.06 91.87&#10;  Q 43.90 91.71 43.63 91.64&#10;  Q 43.31 91.55 43.44 91.24&#10;  Q 44.25 89.47 44.13 87.53&#10;  A 0.70 0.70 0.0 0 0 43.55 86.89&#10;  Q 42.96 86.79 42.79 86.30&#10;  Q 42.51 85.53 42.38 86.34&#10;  Q 42.28 86.93 42.63 87.08&#10;  Q 43.15 87.30 43.28 87.85&#10;  Q 43.75 89.71 42.62 91.11&#10;  Q 41.67 92.30 42.25 90.89&#10;  Q 43.46 87.88 41.29 85.74&#10;  Q 41.24 85.70 41.12 85.25&#10;  Q 41.08 85.10 41.20 85.02&#10;  Q 41.41 84.89 41.22 84.72&#10;  Q 41.05 84.57 40.87 84.66&#10;  Q 40.74 84.72 40.69 84.92&#10;  Q 40.45 85.80 41.06 86.33&#10;  Q 41.36 86.59 41.37 86.99&#10;  L 41.40 91.52&#10;  Q 41.41 91.79 41.18 91.93&#10;  Q 40.98 92.05 40.80 92.45&#10;  A 0.38 0.37 38.4 0 0 40.85 92.86&#10;  Q 41.13 93.22 42.02 93.15&#10;  L 12.43 111.17&#10;  A 0.53 0.53 0.0 0 1 11.62 110.72&#10;  L 11.62 67.83&#10;  Q 11.62 67.12 12.24 67.47&#10;  L 49.02 88.64&#10;  A 0.20 0.20 0.0 0 1 49.02 88.98&#10;  L 44.06 91.87&#10;  Z"/>
<path fill="#000000" d="&#10;  M 142.93 110.73&#10;  L 149.99 120.80&#10;  C 155.85 132.68 161.73 144.58 162.40 156.58&#10;  A 1.27 1.27 0.0 0 0 164.40 157.55&#10;  C 170.86 152.93 178.83 148.35 186.63 146.19&#10;  Q 187.93 145.83 189.21 145.38&#10;  C 192.02 144.40 195.21 144.66 198.23 143.99&#10;  A 2.12 1.99 -42.0 0 1 199.21 144.01&#10;  C 201.46 144.58 204.05 144.67 206.86 145.45&#10;  Q 208.48 145.91 210.10 146.62&#10;  C 216.61 149.49 223.99 152.83 229.42 157.51&#10;  A 1.44 1.43 22.6 0 0 231.79 156.54&#10;  Q 231.94 154.62 230.91 153.31&#10;  C 218.29 137.33 202.95 123.43 184.51 114.49&#10;  Q 177.61 111.15 174.26 110.51&#10;  Q 171.86 110.05 170.51 109.46&#10;  A 1.33 1.33 0.0 0 1 169.80 108.75&#10;  C 168.57 105.80 170.48 104.48 173.09 104.00&#10;  C 174.34 103.78 175.41 103.28 176.67 103.27&#10;  C 181.09 103.22 185.33 103.07 189.81 103.72&#10;  C 191.92 104.03 194.05 103.94 196.04 104.32&#10;  Q 199.96 105.06 203.91 105.65&#10;  C 205.33 105.86 206.52 106.69 208.26 106.49&#10;  A 1.60 1.58 57.6 0 1 209.23 106.71&#10;  C 210.25 107.35 211.37 107.31 212.23 107.52&#10;  C 228.29 111.51 241.75 119.39 255.25 128.66&#10;  C 257.57 130.25 260.80 131.16 262.67 133.05&#10;  Q 267.61 138.04 272.11 143.42&#10;  C 274.36 146.10 274.89 149.18 276.45 152.21&#10;  Q 288.16 174.95 293.01 199.99&#10;  C 294.49 207.63 294.85 215.38 295.08 223.26&#10;  Q 295.34 231.93 293.94 240.50&#10;  Q 293.65 242.28 292.41 243.53&#10;  A 1.17 1.14 -65.8 0 1 291.52 243.88&#10;  Q 289.52 243.77 288.97 241.48&#10;  Q 287.25 234.23 283.99 227.48&#10;  C 274.95 208.78 266.31 189.23 251.27 174.43&#10;  A 2.68 2.67 -30.7 0 0 248.66 173.77&#10;  Q 245.68 174.62 243.41 172.61&#10;  Q 243.01 172.25 242.47 172.33&#10;  C 239.50 172.79 238.88 174.82 240.03 177.44&#10;  C 241.82 181.52 242.35 184.70 241.53 189.39&#10;  C 241.20 191.23 240.15 195.76 242.23 196.84&#10;  C 274.29 213.49 299.42 250.07 284.50 287.14&#10;  C 276.04 308.14 256.81 322.86 235.97 330.68&#10;  Q 234.29 331.31 232.93 333.61&#10;  C 225.43 346.35 221.65 353.43 216.58 366.00&#10;  L 210.14 366.00&#10;  C 211.43 363.64 212.31 360.47 213.05 358.68&#10;  Q 218.04 346.58 224.91 335.42&#10;  A 0.38 0.38 0.0 0 0 224.52 334.85&#10;  L 211.76 337.35&#10;  Q 211.29 337.45 211.40 337.92&#10;  Q 215.08 353.28 206.23 366.00&#10;  L 198.75 366.00&#10;  Q 209.03 353.79 205.26 339.00&#10;  A 1.95 1.95 0.0 0 0 203.33 337.53&#10;  C 195.57 337.69 187.85 337.87 180.25 336.83&#10;  Q 174.36 336.03 168.51 334.93&#10;  Q 166.37 334.53 166.34 336.71&#10;  C 166.28 340.98 166.29 345.17 167.15 349.36&#10;  Q 168.77 357.21 171.66 364.70&#10;  Q 171.79 365.04 171.97 365.36&#10;  Q 172.11 365.61 171.88 365.78&#10;  Q 171.74 365.88 171.65 366.00&#10;  L 165.61 366.00&#10;  Q 159.21 350.76 160.25 334.72&#10;  Q 160.33 333.53 159.22 333.07&#10;  L 158.49 332.76&#10;  Q 157.18 332.21 157.13 333.64&#10;  C 156.62 349.47 144.02 359.52 130.61 366.00&#10;  L 119.17 366.00&#10;  Q 113.89 365.75 120.68 364.55&#10;  Q 121.65 364.38 122.53 363.97&#10;  C 126.67 362.01 130.85 360.20 134.54 357.51&#10;  C 143.20 351.23 152.26 343.36 150.79 331.25&#10;  Q 150.64 330.03 149.21 329.37&#10;  C 140.61 325.41 131.49 320.94 124.15 315.67&#10;  Q 113.21 307.84 104.65 297.49&#10;  A 1.84 1.83 -40.6 0 0 102.01 297.29&#10;  L 62.38 332.74&#10;  A 3.33 3.32 46.8 0 1 57.79 332.59&#10;  L 52.16 326.85&#10;  A 2.81 2.81 0.0 0 1 52.28 322.79&#10;  L 94.72 284.58&#10;  A 2.04 2.03 58.7 0 0 95.26 282.34&#10;  L 91.83 273.47&#10;  A 3.92 3.91 3.0 0 0 89.96 271.40&#10;  C 85.65 269.22 78.35 264.52 77.07 259.88&#10;  C 75.58 254.49 84.69 248.42 88.66 246.43&#10;  Q 89.73 245.90 90.22 243.98&#10;  Q 92.55 234.81 95.93 225.96&#10;  Q 104.64 203.15 109.27 181.26&#10;  Q 110.41 175.83 110.38 168.98&#10;  Q 110.74 166.83 110.15 164.91&#10;  Q 110.52 162.04 110.35 158.74&#10;  C 110.22 156.03 108.49 154.22 107.56 151.65&#10;  Q 106.89 149.81 105.93 149.27&#10;  C 102.84 147.54 101.46 150.58 98.98 151.77&#10;  C 89.21 156.45 84.47 166.96 76.87 174.34&#10;  C 70.50 180.53 49.49 198.55 40.43 188.82&#10;  C 36.15 184.23 38.51 178.02 42.10 173.77&#10;  Q 57.38 155.71 60.83 132.22&#10;  C 61.58 127.08 61.71 119.78 64.31 115.05&#10;  Q 65.89 112.19 67.45 109.14&#10;  A 1.54 1.54 0.0 0 0 66.83 107.10&#10;  C 46.88 95.92 62.87 61.65 79.85 78.63&#10;  Q 80.90 79.68 83.06 78.83&#10;  Q 98.82 72.67 112.84 81.38&#10;  C 116.37 83.56 118.47 88.02 120.33 91.68&#10;  C 120.69 92.40 121.55 93.19 122.34 93.65&#10;  C 131.38 98.91 136.17 104.37 142.93 110.73&#10;  Z&#10;  M 71.3363 102.1733&#10;  A 11.07 7.53 88.0 0 0 78.4754 90.8472&#10;  A 11.07 7.53 88.0 0 0 70.5637 80.0467&#10;  A 11.07 7.53 88.0 0 0 63.4246 91.3728&#10;  A 11.07 7.53 88.0 0 0 71.3363 102.1733&#10;  Z&#10;  M 83.79 85.34&#10;  C 85.55 91.57 84.54 98.38 80.66 103.66&#10;  A 0.23 0.23 0.0 0 0 80.86 104.02&#10;  C 92.68 103.07 104.00 101.91 114.38 95.61&#10;  A 0.99 0.99 0.0 0 0 114.82 94.50&#10;  C 111.11 81.25 94.85 80.54 84.21 84.51&#10;  A 0.69 0.69 0.0 0 0 83.79 85.34&#10;  Z&#10;  M 156.48 182.09&#10;  Q 159.40 181.39 157.93 178.76&#10;  C 158.62 150.76 146.74 114.32 120.41 100.00&#10;  A 1.94 1.94 0.0 0 0 118.38 100.11&#10;  Q 110.06 105.91 100.10 107.83&#10;  A 0.39 0.38 61.4 0 0 99.91 108.49&#10;  C 102.99 111.46 102.68 115.66 98.87 117.65&#10;  Q 97.36 118.44 96.30 118.19&#10;  Q 89.36 116.60 92.08 109.81&#10;  A 0.51 0.51 0.0 0 0 91.53 109.12&#10;  Q 83.56 110.25 75.52 109.90&#10;  Q 75.01 109.88 74.70 110.28&#10;  C 71.50 114.40 66.76 121.93 67.52 127.26&#10;  Q 68.27 132.44 73.51 130.50&#10;  C 76.58 129.36 81.05 122.11 84.27 124.17&#10;  Q 86.02 125.29 85.57 127.01&#10;  C 83.71 134.13 81.21 144.54 89.90 148.67&#10;  A 1.05 1.05 0.0 0 0 90.89 148.62&#10;  C 93.83 146.87 97.14 144.78 100.27 143.97&#10;  C 111.38 141.07 117.04 150.37 117.48 160.00&#10;  Q 118.06 172.83 114.65 185.98&#10;  A 0.38 0.38 0.0 0 0 115.00 186.45&#10;  Q 120.64 186.79 125.16 190.12&#10;  Q 125.63 190.46 126.21 190.44&#10;  L 131.48 190.22&#10;  Q 131.94 190.20 132.33 189.94&#10;  C 139.94 185.03 150.10 186.40 156.48 182.09&#10;  Z&#10;  M 239.81 148.96&#10;  L 254.37 135.90&#10;  A 0.72 0.72 0.0 0 0 254.30 134.77&#10;  C 240.22 125.01 225.98 116.53 209.23 112.85&#10;  Q 202.74 111.42 196.22 110.13&#10;  L 190.19 109.65&#10;  Q 188.46 109.51 189.94 110.43&#10;  C 196.91 114.76 204.36 119.25 210.46 124.20&#10;  Q 225.15 136.11 236.55 151.31&#10;  Q 236.88 151.75 237.27 151.37&#10;  L 239.81 148.96&#10;  Z&#10;  M 84.58 153.26&#10;  C 79.42 149.39 76.58 143.38 77.01 136.91&#10;  A 0.60 0.60 0.0 0 0 76.17 136.32&#10;  Q 71.73 138.28 67.02 137.13&#10;  Q 66.42 136.98 66.30 137.58&#10;  C 63.10 153.19 56.46 166.90 45.59 178.60&#10;  C 43.44 180.91 43.97 185.79 48.26 185.00&#10;  C 56.22 183.53 65.56 176.36 71.26 170.01&#10;  Q 77.88 162.63 84.74 154.76&#10;  A 1.03 1.02 39.1 0 0 84.58 153.26&#10;  Z&#10;  M 247.00 167.27&#10;  L 267.42 147.11&#10;  Q 267.86 146.68 267.44 146.23&#10;  L 260.62 138.86&#10;  A 0.50 0.50 0.0 0 0 259.86 138.90&#10;  Q 258.34 140.97 256.31 142.80&#10;  Q 247.67 150.65 238.64 157.98&#10;  A 0.77 0.77 0.0 0 0 238.57 159.11&#10;  L 246.49 167.26&#10;  A 0.35 0.35 0.0 0 0 247.00 167.27&#10;  Z&#10;  M 191.29 151.31&#10;  Q 190.29 151.65 189.98 151.47&#10;  Q 186.14 152.04 182.84 154.16&#10;  Q 181.78 154.31 180.95 155.02&#10;  L 177.03 157.08&#10;  Q 175.63 157.17 174.67 158.24&#10;  Q 173.49 158.81 172.70 159.62&#10;  Q 170.93 160.32 169.47 161.76&#10;  Q 168.98 162.24 168.08 162.40&#10;  Q 167.06 162.67 166.46 163.60&#10;  C 165.10 164.39 164.30 165.17 164.38 166.88&#10;  Q 164.70 173.46 164.89 180.00&#10;  Q 164.93 181.31 165.99 181.72&#10;  Q 167.23 182.67 168.69 183.10&#10;  Q 169.17 183.24 169.64 183.05&#10;  Q 172.02 182.09 174.74 182.15&#10;  L 177.53 181.59&#10;  L 195.12 182.16&#10;  L 197.82 182.78&#10;  Q 198.33 183.40 199.67 183.15&#10;  L 201.96 183.22&#10;  L 204.73 183.73&#10;  Q 205.43 184.47 207.05 182.76&#10;  L 215.78 175.09&#10;  L 218.23 172.66&#10;  L 227.56 164.91&#10;  Q 228.00 164.55 227.61 164.13&#10;  Q 223.83 160.02 218.75 157.44&#10;  L 213.91 154.76&#10;  Q 213.51 154.46 213.25 154.47&#10;  Q 212.39 153.79 211.09 153.41&#10;  Q 201.46 148.97 191.29 151.31&#10;  Z&#10;  M 255.94 166.98&#10;  Q 254.72 167.76 254.10 168.95&#10;  Q 253.85 169.44 254.26 169.81&#10;  C 262.19 176.81 268.52 186.14 273.80 195.24&#10;  Q 278.43 203.22 287.40 221.80&#10;  L 288.96 224.00&#10;  Q 288.34 224.15 288.84 225.07&#10;  Q 289.46 226.23 289.82 224.96&#10;  Q 289.93 224.55 289.53 223.94&#10;  L 289.14 213.69&#10;  Q 286.22 181.54 270.72 153.21&#10;  A 0.50 0.50 0.0 0 0 269.93 153.10&#10;  L 255.94 166.98&#10;  Z&#10;  M 235.60 165.79&#10;  L 154.39 238.67&#10;  Q 153.83 239.18 154.58 239.20&#10;  C 156.83 239.28 158.60 239.01 160.39 237.40&#10;  Q 198.62 203.00 237.56 168.16&#10;  Q 238.44 167.38 237.73 166.45&#10;  L 237.37 165.96&#10;  A 1.21 1.20 -39.4 0 0 235.60 165.79&#10;  Z&#10;  M 231.86 181.62&#10;  Q 228.81 183.49 226.64 186.25&#10;  Q 225.60 186.71 224.69 188.08&#10;  Q 224.35 188.58 224.92 188.82&#10;  L 234.38 192.69&#10;  A 0.54 0.54 0.0 0 0 235.11 192.29&#10;  C 235.75 188.87 236.45 183.13 234.63 179.98&#10;  Q 234.35 179.51 233.88 179.78&#10;  Q 232.49 180.57 231.86 181.62&#10;  Z&#10;  M 159.49 188.34&#10;  Q 158.80 188.08 158.13 188.38&#10;  C 155.58 189.56 153.08 190.64 150.18 191.19&#10;  C 145.91 192.01 139.96 192.42 136.28 194.81&#10;  Q 135.48 195.33 135.86 196.05&#10;  A 0.68 0.68 0.0 0 0 136.53 196.40&#10;  C 145.77 195.37 154.77 195.32 162.82 190.17&#10;  Q 163.35 189.83 162.76 189.60&#10;  L 159.49 188.34&#10;  Z&#10;  M 95.56 251.37&#10;  C 94.79 256.25 95.77 261.88 96.23 266.77&#10;  Q 95.66 267.34 96.38 268.37&#10;  Q 96.92 269.14 97.51 268.74&#10;  Q 98.82 269.65 100.35 270.10&#10;  A 0.83 0.83 0.0 0 0 101.18 269.88&#10;  C 105.30 265.58 106.43 265.50 111.85 267.98&#10;  Q 112.32 268.19 112.69 267.85&#10;  L 123.57 258.00&#10;  L 134.35 248.47&#10;  A 1.12 1.10 -25.8 0 0 134.71 247.46&#10;  Q 133.50 240.35 138.20 234.97&#10;  C 140.73 232.07 145.15 230.96 147.65 234.53&#10;  Q 147.97 234.98 148.40 235.24&#10;  Q 148.83 235.49 149.21 235.16&#10;  L 199.37 190.09&#10;  A 0.43 0.43 0.0 0 0 199.13 189.34&#10;  Q 186.64 188.07 174.75 188.58&#10;  C 173.07 188.65 172.60 188.36 171.45 189.80&#10;  C 164.28 198.78 155.43 200.80 144.38 201.72&#10;  Q 142.97 201.84 144.09 202.71&#10;  Q 148.19 205.87 151.09 210.61&#10;  C 158.70 223.07 141.62 221.65 138.90 216.06&#10;  Q 136.22 210.57 130.06 210.45&#10;  A 0.74 0.73 10.5 0 0 129.35 210.93&#10;  C 127.23 216.43 122.35 218.22 118.10 221.77&#10;  C 115.20 224.19 112.06 226.35 108.80 224.72&#10;  Q 105.28 222.95 105.67 220.00&#10;  C 106.48 213.75 111.34 208.34 116.21 203.93&#10;  A 0.52 0.52 0.0 0 0 115.96 203.03&#10;  L 111.32 202.20&#10;  A 0.85 0.85 0.0 0 0 110.38 202.73&#10;  Q 102.74 222.32 96.55 242.49&#10;  Q 95.45 246.10 95.56 251.37&#10;  Z&#10;  M 117.39 197.35&#10;  A 0.85 0.85 0.0 0 0 118.25 197.04&#10;  L 119.90 194.93&#10;  A 0.85 0.85 0.0 0 0 119.43 193.59&#10;  L 114.17 192.28&#10;  A 0.85 0.85 0.0 0 0 113.19 192.76&#10;  L 112.15 195.12&#10;  A 0.85 0.85 0.0 0 0 112.74 196.29&#10;  L 117.39 197.35&#10;  Z&#10;  M 196.06 263.57&#10;  C 191.70 270.89 181.96 270.64 175.53 267.69&#10;  Q 170.05 265.17 165.30 262.97&#10;  L 156.64 256.18&#10;  Q 156.26 255.88 155.77 255.95&#10;  L 147.78 257.09&#10;  A 0.62 0.58 17.6 0 0 147.47 257.24&#10;  L 143.48 260.86&#10;  L 129.03 273.91&#10;  Q 128.65 274.25 128.76 274.74&#10;  Q 128.94 275.54 129.58 276.34&#10;  Q 129.80 282.66 126.49 287.91&#10;  Q 120.11 295.21 110.62 291.41&#10;  Q 109.20 290.84 108.67 291.81&#10;  A 0.82 0.80 -48.9 0 0 108.72 292.65&#10;  Q 112.86 298.45 118.24 303.05&#10;  Q 119.53 304.60 121.10 305.90&#10;  C 129.98 313.22 139.53 319.11 150.36 323.25&#10;  C 176.61 333.27 204.80 334.55 231.78 325.80&#10;  Q 255.34 318.16 270.64 299.42&#10;  Q 277.33 290.76 280.86 279.18&#10;  L 282.57 267.91&#10;  Q 282.81 259.43 280.99 250.63&#10;  C 272.24 221.52 246.97 202.21 218.64 193.89&#10;  Q 218.17 193.75 217.80 194.08&#10;  Q 190.90 218.22 163.97 242.34&#10;  C 163.15 243.08 163.19 243.56 163.21 244.59&#10;  C 163.26 247.18 162.65 249.16 161.06 251.21&#10;  A 0.86 0.85 -51.1 0 0 161.18 252.40&#10;  C 166.65 257.02 176.55 263.06 183.90 263.48&#10;  C 197.84 264.29 187.45 249.69 184.32 245.37&#10;  A 2.35 2.35 0.0 0 1 184.52 242.37&#10;  L 184.89 241.98&#10;  Q 186.82 239.95 188.79 241.93&#10;  C 194.54 247.71 198.30 255.37 196.06 263.57&#10;  Z&#10;  M 129.7780 196.3165&#10;  A 4.33 1.61 -41.4 0 0 125.4653 197.9723&#10;  A 4.33 1.61 -41.4 0 0 123.2820 202.0435&#10;  A 4.33 1.61 -41.4 0 0 127.5947 200.3877&#10;  A 4.33 1.61 -41.4 0 0 129.7780 196.3165&#10;  Z&#10;  M 132.68 204.94&#10;  C 137.21 206.22 140.98 207.70 143.18 212.05&#10;  Q 143.47 212.62 143.78 212.97&#10;  Q 144.38 213.66 144.61 213.71&#10;  Q 146.60 214.14 145.43 212.47&#10;  Q 141.02 206.18 133.77 203.54&#10;  A 1.07 1.06 30.4 0 0 132.59 203.84&#10;  L 132.41 204.05&#10;  Q 131.84 204.70 132.68 204.94&#10;  Z&#10;  M 112.59 218.39&#10;  L 112.82 218.56&#10;  A 0.46 0.46 0.0 0 0 113.45 218.47&#10;  Q 116.40 214.72 120.71 212.18&#10;  Q 122.53 211.11 123.45 209.51&#10;  A 0.97 0.96 19.3 0 0 122.75 208.07&#10;  C 119.14 207.54 113.94 214.66 112.37 217.38&#10;  A 0.77 0.76 33.0 0 0 112.59 218.39&#10;  Z&#10;  M 156.18 244.59&#10;  C 149.14 246.96 146.20 244.47 143.64 238.62&#10;  A 0.67 0.67 0.0 0 0 142.50 238.48&#10;  C 135.12 248.13 146.51 253.42 153.57 250.35&#10;  Q 155.74 249.40 156.80 247.28&#10;  L 157.43 246.03&#10;  Q 158.56 243.79 156.18 244.59&#10;  Z&#10;  M 87.09 263.98&#10;  A 1.28 1.28 0.0 0 0 89.23 263.00&#10;  L 89.08 254.33&#10;  A 1.28 1.28 0.0 0 0 86.91 253.43&#10;  L 82.35 257.85&#10;  A 1.28 1.28 0.0 0 0 82.39 259.72&#10;  L 87.09 263.98&#10;  Z&#10;  M 125.42 268.78&#10;  C 130.41 264.51 135.25 259.87 140.09 255.55&#10;  Q 140.87 254.86 140.03 254.25&#10;  L 139.31 253.72&#10;  A 1.35 1.35 0.0 0 0 137.62 253.80&#10;  L 117.69 271.57&#10;  Q 115.66 273.39 118.25 272.55&#10;  C 120.62 271.79 123.36 270.54 125.42 268.78&#10;  Z&#10;  M 122.58 277.26&#10;  C 116.47 280.29 111.89 279.86 108.35 273.33&#10;  A 1.14 1.14 0.0 0 0 106.27 273.51&#10;  L 105.90 274.62&#10;  A 6.20 6.16 43.1 0 0 106.06 278.95&#10;  C 109.38 286.85 123.13 291.26 123.57 277.89&#10;  A 0.69 0.68 -12.3 0 0 122.58 277.26&#10;  Z&#10;  M 103.5945 286.0591&#10;  A 1.50 1.50 0.0 0 0 101.4763 285.9444&#10;  L 56.3264 326.4551&#10;  A 1.50 1.50 0.0 0 0 56.2116 328.5734&#10;  L 56.5055 328.9009&#10;  A 1.50 1.50 0.0 0 0 58.6237 329.0156&#10;  L 103.7736 288.5049&#10;  A 1.50 1.50 0.0 0 0 103.8884 286.3866&#10;  L 103.5945 286.0591&#10;  Z"/>
<ellipse fill="#ffeac7" cx="0.00" cy="0.00" transform="translate(70.95,91.11) rotate(88.0)" rx="11.07" ry="7.53"/>
<path fill="#fed000" d="&#10;  M 80.66 103.66&#10;  C 84.54 98.38 85.55 91.57 83.79 85.34&#10;  A 0.69 0.69 0.0 0 1 84.21 84.51&#10;  C 94.85 80.54 111.11 81.25 114.82 94.50&#10;  A 0.99 0.99 0.0 0 1 114.38 95.61&#10;  C 104.00 101.91 92.68 103.07 80.86 104.02&#10;  A 0.23 0.23 0.0 0 1 80.66 103.66&#10;  Z"/>
<path fill="#686868" d="&#10;  M 44.06 91.87&#10;  L 42.02 93.15&#10;  Q 41.13 93.22 40.85 92.86&#10;  A 0.38 0.37 38.4 0 1 40.80 92.45&#10;  Q 40.98 92.05 41.18 91.93&#10;  Q 41.41 91.79 41.40 91.52&#10;  L 41.37 86.99&#10;  Q 41.36 86.59 41.06 86.33&#10;  Q 40.45 85.80 40.69 84.92&#10;  Q 40.74 84.72 40.87 84.66&#10;  Q 41.05 84.57 41.22 84.72&#10;  Q 41.41 84.89 41.20 85.02&#10;  Q 41.08 85.10 41.12 85.25&#10;  Q 41.24 85.70 41.29 85.74&#10;  Q 43.46 87.88 42.25 90.89&#10;  Q 41.67 92.30 42.62 91.11&#10;  Q 43.75 89.71 43.28 87.85&#10;  Q 43.15 87.30 42.63 87.08&#10;  Q 42.28 86.93 42.38 86.34&#10;  Q 42.51 85.53 42.79 86.30&#10;  Q 42.96 86.79 43.55 86.89&#10;  A 0.70 0.70 0.0 0 1 44.13 87.53&#10;  Q 44.25 89.47 43.44 91.24&#10;  Q 43.31 91.55 43.63 91.64&#10;  Q 43.90 91.71 44.06 91.87&#10;  Z"/>
<path fill="#ffffff" d="&#10;  M 157.93 178.76&#10;  Q 157.63 180.34 156.48 182.09&#10;  C 150.10 186.40 139.94 185.03 132.33 189.94&#10;  Q 131.94 190.20 131.48 190.22&#10;  L 126.21 190.44&#10;  Q 125.63 190.46 125.16 190.12&#10;  Q 120.64 186.79 115.00 186.45&#10;  A 0.38 0.38 0.0 0 1 114.65 185.98&#10;  Q 118.06 172.83 117.48 160.00&#10;  C 117.04 150.37 111.38 141.07 100.27 143.97&#10;  C 97.14 144.78 93.83 146.87 90.89 148.62&#10;  A 1.05 1.05 0.0 0 1 89.90 148.67&#10;  C 81.21 144.54 83.71 134.13 85.57 127.01&#10;  Q 86.02 125.29 84.27 124.17&#10;  C 81.05 122.11 76.58 129.36 73.51 130.50&#10;  Q 68.27 132.44 67.52 127.26&#10;  C 66.76 121.93 71.50 114.40 74.70 110.28&#10;  Q 75.01 109.88 75.52 109.90&#10;  Q 83.56 110.25 91.53 109.12&#10;  A 0.51 0.51 0.0 0 1 92.08 109.81&#10;  Q 89.36 116.60 96.30 118.19&#10;  Q 97.36 118.44 98.87 117.65&#10;  C 102.68 115.66 102.99 111.46 99.91 108.49&#10;  A 0.39 0.38 61.4 0 1 100.10 107.83&#10;  Q 110.06 105.91 118.38 100.11&#10;  A 1.94 1.94 0.0 0 1 120.41 100.00&#10;  C 146.74 114.32 158.62 150.76 157.93 178.76&#10;  Z"/>
<path fill="#7f807f" d="&#10;  M 196.22 110.13&#10;  Q 195.71 110.30 195.61 110.85&#10;  Q 195.53 111.31 195.96 111.51&#10;  Q 212.09 118.93 224.73 132.26&#10;  Q 233.85 141.87 239.81 148.96&#10;  L 237.27 151.37&#10;  Q 236.88 151.75 236.55 151.31&#10;  Q 225.15 136.11 210.46 124.20&#10;  C 204.36 119.25 196.91 114.76 189.94 110.43&#10;  Q 188.46 109.51 190.19 109.65&#10;  L 196.22 110.13&#10;  Z"/>
<path fill="#cecece" d="&#10;  M 196.22 110.13&#10;  Q 202.74 111.42 209.23 112.85&#10;  C 225.98 116.53 240.22 125.01 254.30 134.77&#10;  A 0.72 0.72 0.0 0 1 254.37 135.90&#10;  L 239.81 148.96&#10;  Q 233.85 141.87 224.73 132.26&#10;  Q 212.09 118.93 195.96 111.51&#10;  Q 195.53 111.31 195.61 110.85&#10;  Q 195.71 110.30 196.22 110.13&#10;  Z"/>
<path fill="#ffffff" d="&#10;  M 142.93 110.73&#10;  Q 148.21 114.54 149.99 120.80&#10;  L 142.93 110.73&#10;  Z"/>
<path fill="#ff9e02" d="&#10;  M 77.01 136.91&#10;  C 76.58 143.38 79.42 149.39 84.58 153.26&#10;  A 1.03 1.02 39.1 0 1 84.74 154.76&#10;  Q 77.88 162.63 71.26 170.01&#10;  C 65.56 176.36 56.22 183.53 48.26 185.00&#10;  C 43.97 185.79 43.44 180.91 45.59 178.60&#10;  C 56.46 166.90 63.10 153.19 66.30 137.58&#10;  Q 66.42 136.98 67.02 137.13&#10;  Q 71.73 138.28 76.17 136.32&#10;  A 0.60 0.60 0.0 0 1 77.01 136.91&#10;  Z"/>
<path fill="#686868" d="&#10;  M 267.42 147.11&#10;  L 247.00 167.27&#10;  A 0.35 0.35 0.0 0 1 246.49 167.26&#10;  L 238.57 159.11&#10;  A 0.77 0.77 0.0 0 1 238.64 157.98&#10;  Q 247.67 150.65 256.31 142.80&#10;  Q 258.34 140.97 259.86 138.90&#10;  A 0.50 0.50 0.0 0 1 260.62 138.86&#10;  L 267.44 146.23&#10;  Q 267.86 146.68 267.42 147.11&#10;  Z"/>
<path fill="#486b4b" d="&#10;  M 211.09 153.41&#10;  Q 210.60 153.77 208.98 152.83&#10;  Q 208.13 152.93 207.83 153.86&#10;  Q 207.63 154.48 207.92 155.25&#10;  Q 210.18 161.30 218.13 159.43&#10;  A 1.17 1.16 -19.8 0 0 218.91 157.78&#10;  L 218.75 157.44&#10;  Q 223.83 160.02 227.61 164.13&#10;  Q 228.00 164.55 227.56 164.91&#10;  L 218.23 172.66&#10;  C 219.52 168.31 220.69 163.00 214.24 162.57&#10;  Q 209.18 162.23 207.11 165.67&#10;  C 204.39 170.21 209.55 175.65 213.73 172.24&#10;  Q 216.75 169.77 214.92 166.72&#10;  Q 214.67 166.31 214.22 166.13&#10;  Q 211.29 165.01 209.99 167.49&#10;  Q 209.28 168.85 210.68 169.44&#10;  Q 211.11 169.62 211.44 169.29&#10;  C 211.86 168.88 212.11 168.36 212.62 168.10&#10;  Q 213.81 167.49 213.58 169.39&#10;  A 1.21 1.20 78.9 0 1 212.97 170.31&#10;  Q 210.62 171.62 209.27 170.46&#10;  C 204.10 166.02 217.51 161.61 217.06 167.50&#10;  Q 216.83 170.44 215.05 172.65&#10;  A 1.09 1.03 -19.2 0 0 214.84 173.05&#10;  Q 214.18 175.29 215.78 175.09&#10;  L 207.05 182.76&#10;  C 206.69 180.10 208.90 177.24 206.23 174.97&#10;  C 201.15 170.66 192.90 174.79 195.12 182.16&#10;  L 177.53 181.59&#10;  C 178.58 177.77 177.53 173.73 174.12 171.64&#10;  C 169.29 168.68 163.56 174.73 167.50 178.99&#10;  Q 169.28 180.93 172.39 180.33&#10;  A 2.42 2.42 0.0 0 0 174.21 177.14&#10;  Q 173.61 175.46 172.17 174.38&#10;  Q 171.69 174.03 171.17 174.32&#10;  Q 170.47 174.71 170.10 175.44&#10;  Q 169.85 175.95 170.25 176.36&#10;  Q 170.78 176.89 171.51 177.02&#10;  A 0.75 0.75 0.0 0 1 171.98 178.22&#10;  Q 171.24 179.16 170.18 178.40&#10;  Q 168.91 177.49 168.45 176.11&#10;  A 1.30 1.30 0.0 0 1 168.48 175.24&#10;  C 170.99 169.16 179.23 177.22 174.12 181.48&#10;  Q 170.87 181.21 167.50 180.81&#10;  Q 166.02 180.63 165.99 181.72&#10;  Q 164.93 181.31 164.89 180.00&#10;  Q 164.70 173.46 164.38 166.88&#10;  C 164.30 165.17 165.10 164.39 166.46 163.60&#10;  C 169.12 172.82 181.81 162.66 172.70 159.62&#10;  Q 173.49 158.81 174.67 158.24&#10;  Q 174.51 158.62 174.96 158.79&#10;  C 179.28 160.45 176.50 164.94 174.78 167.34&#10;  A 1.10 1.09 36.6 0 0 175.01 168.85&#10;  L 175.26 169.04&#10;  A 0.73 0.73 0.0 0 0 176.27 168.93&#10;  C 178.93 165.69 181.20 160.22 177.03 157.08&#10;  L 180.95 155.02&#10;  Q 180.89 155.46 181.49 155.78&#10;  Q 183.76 156.97 186.64 156.69&#10;  Q 192.19 156.14 191.29 151.31&#10;  Q 201.46 148.97 211.09 153.41&#10;  Z&#10;  M 199.61 159.36&#10;  L 200.52 160.34&#10;  A 0.78 0.77 -45.3 0 0 201.66 160.33&#10;  L 201.96 160.01&#10;  A 0.92 0.91 48.3 0 0 202.02 158.85&#10;  Q 200.02 156.11 197.71 157.33&#10;  C 193.32 159.66 198.98 167.16 204.20 163.06&#10;  Q 206.72 161.08 205.39 157.58&#10;  Q 203.56 152.79 197.47 153.56&#10;  C 190.32 154.47 192.73 162.09 195.73 165.68&#10;  Q 196.31 166.38 197.06 165.86&#10;  L 197.36 165.65&#10;  A 0.68 0.68 0.0 0 0 197.51 164.67&#10;  Q 195.16 161.62 194.97 157.80&#10;  A 1.57 1.56 -10.4 0 1 196.06 156.23&#10;  C 204.63 153.47 205.40 163.61 200.04 162.01&#10;  Q 198.88 161.67 198.37 160.89&#10;  Q 197.73 159.91 198.78 159.26&#10;  Q 199.24 158.97 199.61 159.36&#10;  Z&#10;  M 190.88 170.12&#10;  C 191.69 176.99 181.01 174.32 182.19 169.51&#10;  C 182.72 167.33 186.32 167.27 187.27 168.84&#10;  Q 188.79 171.34 186.10 170.18&#10;  Q 186.05 170.16 185.47 169.63&#10;  Q 185.07 169.26 184.56 169.43&#10;  Q 183.60 169.74 183.82 171.13&#10;  A 1.61 1.58 10.2 0 0 184.63 172.28&#10;  C 190.16 175.32 191.20 166.96 186.25 165.66&#10;  Q 181.41 164.39 180.25 169.62&#10;  C 178.07 179.45 202.11 178.76 189.71 163.82&#10;  A 0.52 0.52 0.0 0 0 189.02 163.72&#10;  L 188.79 163.86&#10;  A 1.01 1.01 0.0 0 0 188.48 165.23&#10;  Q 190.73 168.90 190.88 170.12&#10;  Z"/>
<path fill="#486b4b" d="&#10;  M 189.98 151.47&#10;  C 188.80 154.95 186.08 154.37 182.84 154.16&#10;  Q 186.14 152.04 189.98 151.47&#10;  Z"/>
<path fill="#ffffff" d="&#10;  M 189.98 151.47&#10;  Q 190.29 151.65 191.29 151.31&#10;  Q 192.19 156.14 186.64 156.69&#10;  Q 183.76 156.97 181.49 155.78&#10;  Q 180.89 155.46 180.95 155.02&#10;  Q 181.78 154.31 182.84 154.16&#10;  C 186.08 154.37 188.80 154.95 189.98 151.47&#10;  Z"/>
<path fill="#ffffff" d="&#10;  M 208.98 152.83&#10;  C 209.69 153.97 209.85 155.31 210.66 156.16&#10;  C 213.25 158.91 215.62 157.54 218.75 157.44&#10;  L 218.91 157.78&#10;  A 1.17 1.16 -19.8 0 1 218.13 159.43&#10;  Q 210.18 161.30 207.92 155.25&#10;  Q 207.63 154.48 207.83 153.86&#10;  Q 208.13 152.93 208.98 152.83&#10;  Z"/>
<path fill="#7f807f" d="&#10;  M 208.98 152.83&#10;  Q 210.60 153.77 211.09 153.41&#10;  Q 212.39 153.79 213.25 154.47&#10;  L 212.45 154.61&#10;  Q 212.05 154.68 212.18 155.06&#10;  Q 212.52 156.01 213.43 156.35&#10;  Q 214.39 156.71 214.15 155.72&#10;  L 213.91 154.76&#10;  L 218.75 157.44&#10;  C 215.62 157.54 213.25 158.91 210.66 156.16&#10;  C 209.85 155.31 209.69 153.97 208.98 152.83&#10;  Z"/>
<path fill="#cecece" d="&#10;  M 289.14 213.69&#10;  Q 287.44 211.11 285.88 210.13&#10;  Q 284.82 211.08 284.22 209.76&#10;  Q 278.45 196.94 276.32 193.16&#10;  Q 268.11 178.61 255.94 166.98&#10;  L 269.93 153.10&#10;  A 0.50 0.50 0.0 0 1 270.72 153.21&#10;  Q 286.22 181.54 289.14 213.69&#10;  Z"/>
<path fill="#ffffff" d="&#10;  M 198.78 159.26&#10;  Q 197.73 159.91 198.37 160.89&#10;  Q 198.88 161.67 200.04 162.01&#10;  C 205.40 163.61 204.63 153.47 196.06 156.23&#10;  A 1.57 1.56 -10.4 0 0 194.97 157.80&#10;  Q 195.16 161.62 197.51 164.67&#10;  A 0.68 0.68 0.0 0 1 197.36 165.65&#10;  L 197.06 165.86&#10;  Q 196.31 166.38 195.73 165.68&#10;  C 192.73 162.09 190.32 154.47 197.47 153.56&#10;  Q 203.56 152.79 205.39 157.58&#10;  Q 206.72 161.08 204.20 163.06&#10;  C 198.98 167.16 193.32 159.66 197.71 157.33&#10;  Q 200.02 156.11 202.02 158.85&#10;  A 0.92 0.91 48.3 0 1 201.96 160.01&#10;  L 201.66 160.33&#10;  A 0.78 0.77 -45.3 0 1 200.52 160.34&#10;  L 199.61 159.36&#10;  Q 199.24 158.97 198.78 159.26&#10;  Z"/>
<path fill="#cecece" d="&#10;  M 213.25 154.47&#10;  Q 213.51 154.46 213.91 154.76&#10;  L 214.15 155.72&#10;  Q 214.39 156.71 213.43 156.35&#10;  Q 212.52 156.01 212.18 155.06&#10;  Q 212.05 154.68 212.45 154.61&#10;  L 213.25 154.47&#10;  Z"/>
<path fill="#ffffff" d="&#10;  M 177.03 157.08&#10;  C 181.20 160.22 178.93 165.69 176.27 168.93&#10;  A 0.73 0.73 0.0 0 1 175.26 169.04&#10;  L 175.01 168.85&#10;  A 1.10 1.09 36.6 0 1 174.78 167.34&#10;  C 176.50 164.94 179.28 160.45 174.96 158.79&#10;  Q 174.51 158.62 174.67 158.24&#10;  Q 175.63 157.17 177.03 157.08&#10;  Z"/>
<path fill="#ffffff" d="&#10;  M 172.70 159.62&#10;  C 181.81 162.66 169.12 172.82 166.46 163.60&#10;  Q 167.06 162.67 168.08 162.40&#10;  Q 168.58 163.00 168.98 163.71&#10;  C 170.20 165.92 172.45 165.62 173.69 163.50&#10;  A 0.82 0.82 0.0 0 0 173.47 162.43&#10;  L 173.25 162.26&#10;  A 0.55 0.54 32.0 0 0 172.44 162.44&#10;  Q 172.11 163.07 171.54 163.48&#10;  Q 171.07 163.83 170.57 163.51&#10;  Q 169.67 162.94 169.47 161.76&#10;  Q 170.93 160.32 172.70 159.62&#10;  Z"/>
<path fill="#486b4b" d="&#10;  M 169.47 161.76&#10;  Q 169.67 162.94 170.57 163.51&#10;  Q 171.07 163.83 171.54 163.48&#10;  Q 172.11 163.07 172.44 162.44&#10;  A 0.55 0.54 32.0 0 1 173.25 162.26&#10;  L 173.47 162.43&#10;  A 0.82 0.82 0.0 0 1 173.69 163.50&#10;  C 172.45 165.62 170.20 165.92 168.98 163.71&#10;  Q 168.58 163.00 168.08 162.40&#10;  Q 168.98 162.24 169.47 161.76&#10;  Z"/>
<path fill="#ffffff" d="&#10;  M 218.23 172.66&#10;  L 215.78 175.09&#10;  Q 214.18 175.29 214.84 173.05&#10;  A 1.09 1.03 -19.2 0 1 215.05 172.65&#10;  Q 216.83 170.44 217.06 167.50&#10;  C 217.51 161.61 204.10 166.02 209.27 170.46&#10;  Q 210.62 171.62 212.97 170.31&#10;  A 1.21 1.20 78.9 0 0 213.58 169.39&#10;  Q 213.81 167.49 212.62 168.10&#10;  C 212.11 168.36 211.86 168.88 211.44 169.29&#10;  Q 211.11 169.62 210.68 169.44&#10;  Q 209.28 168.85 209.99 167.49&#10;  Q 211.29 165.01 214.22 166.13&#10;  Q 214.67 166.31 214.92 166.72&#10;  Q 216.75 169.77 213.73 172.24&#10;  C 209.55 175.65 204.39 170.21 207.11 165.67&#10;  Q 209.18 162.23 214.24 162.57&#10;  C 220.69 163.00 219.52 168.31 218.23 172.66&#10;  Z"/>
<path fill="#ffffff" d="&#10;  M 190.88 170.12&#10;  Q 190.73 168.90 188.48 165.23&#10;  A 1.01 1.01 0.0 0 1 188.79 163.86&#10;  L 189.02 163.72&#10;  A 0.52 0.52 0.0 0 1 189.71 163.82&#10;  C 202.11 178.76 178.07 179.45 180.25 169.62&#10;  Q 181.41 164.39 186.25 165.66&#10;  C 191.20 166.96 190.16 175.32 184.63 172.28&#10;  A 1.61 1.58 10.2 0 1 183.82 171.13&#10;  Q 183.60 169.74 184.56 169.43&#10;  Q 185.07 169.26 185.47 169.63&#10;  Q 186.05 170.16 186.10 170.18&#10;  Q 188.79 171.34 187.27 168.84&#10;  C 186.32 167.27 182.72 167.33 182.19 169.51&#10;  C 181.01 174.32 191.69 176.99 190.88 170.12&#10;  Z"/>
<path fill="#cecece" d="&#10;  M 110.38 168.98&#10;  Q 109.82 167.24 110.15 164.91&#10;  Q 110.74 166.83 110.38 168.98&#10;  Z"/>
<path fill="#552c06" d="&#10;  M 154.39 238.67&#10;  L 235.60 165.79&#10;  A 1.21 1.20 -39.4 0 1 237.37 165.96&#10;  L 237.73 166.45&#10;  Q 238.44 167.38 237.56 168.16&#10;  Q 198.62 203.00 160.39 237.40&#10;  C 158.60 239.01 156.83 239.28 154.58 239.20&#10;  Q 153.83 239.18 154.39 238.67&#10;  Z"/>
<path fill="#7f807f" d="&#10;  M 255.94 166.98&#10;  Q 268.11 178.61 276.32 193.16&#10;  Q 278.45 196.94 284.22 209.76&#10;  Q 284.82 211.08 285.88 210.13&#10;  L 287.40 221.80&#10;  Q 278.43 203.22 273.80 195.24&#10;  C 268.52 186.14 262.19 176.81 254.26 169.81&#10;  Q 253.85 169.44 254.10 168.95&#10;  Q 254.72 167.76 255.94 166.98&#10;  Z"/>
<path fill="#ffffff" d="&#10;  M 177.53 181.59&#10;  L 174.74 182.15&#10;  Q 174.21 181.92 174.12 181.48&#10;  C 179.23 177.22 170.99 169.16 168.48 175.24&#10;  A 1.30 1.30 0.0 0 0 168.45 176.11&#10;  Q 168.91 177.49 170.18 178.40&#10;  Q 171.24 179.16 171.98 178.22&#10;  A 0.75 0.75 0.0 0 0 171.51 177.02&#10;  Q 170.78 176.89 170.25 176.36&#10;  Q 169.85 175.95 170.10 175.44&#10;  Q 170.47 174.71 171.17 174.32&#10;  Q 171.69 174.03 172.17 174.38&#10;  Q 173.61 175.46 174.21 177.14&#10;  A 2.42 2.42 0.0 0 1 172.39 180.33&#10;  Q 169.28 180.93 167.50 178.99&#10;  C 163.56 174.73 169.29 168.68 174.12 171.64&#10;  C 177.53 173.73 178.58 177.77 177.53 181.59&#10;  Z"/>
<path fill="#ffffff" d="&#10;  M 207.05 182.76&#10;  Q 205.43 184.47 204.73 183.73&#10;  Q 203.73 182.95 204.15 182.24&#10;  C 209.10 173.86 198.20 173.46 196.47 179.26&#10;  A 0.93 0.93 0.0 0 0 196.64 180.11&#10;  Q 197.72 181.41 197.82 182.78&#10;  L 195.12 182.16&#10;  C 192.90 174.79 201.15 170.66 206.23 174.97&#10;  C 208.90 177.24 206.69 180.10 207.05 182.76&#10;  Z"/>
<path fill="#7f807f" d="&#10;  M 204.73 183.73&#10;  L 201.96 183.22&#10;  C 205.74 181.22 203.71 174.89 199.25 177.50&#10;  Q 197.92 178.28 198.42 179.70&#10;  A 0.76 0.75 -25.8 0 0 199.55 180.09&#10;  L 201.23 179.00&#10;  A 0.59 0.59 0.0 0 1 202.13 179.37&#10;  L 202.20 179.72&#10;  A 1.29 1.28 -20.4 0 1 201.56 181.10&#10;  Q 199.87 182.02 199.67 183.15&#10;  Q 198.33 183.40 197.82 182.78&#10;  Q 197.72 181.41 196.64 180.11&#10;  A 0.93 0.93 0.0 0 1 196.47 179.26&#10;  C 198.20 173.46 209.10 173.86 204.15 182.24&#10;  Q 203.73 182.95 204.73 183.73&#10;  Z"/>
<path fill="#ffffff" d="&#10;  M 201.96 183.22&#10;  L 199.67 183.15&#10;  Q 199.87 182.02 201.56 181.10&#10;  A 1.29 1.28 -20.4 0 0 202.20 179.72&#10;  L 202.13 179.37&#10;  A 0.59 0.59 0.0 0 0 201.23 179.00&#10;  L 199.55 180.09&#10;  A 0.76 0.75 -25.8 0 1 198.42 179.70&#10;  Q 197.92 178.28 199.25 177.50&#10;  C 203.71 174.89 205.74 181.22 201.96 183.22&#10;  Z"/>
<path fill="#486b4b" d="&#10;  M 226.64 186.25&#10;  Q 230.17 186.74 231.86 181.62&#10;  Q 232.49 180.57 233.88 179.78&#10;  Q 234.35 179.51 234.63 179.98&#10;  C 236.45 183.13 235.75 188.87 235.11 192.29&#10;  A 0.54 0.54 0.0 0 1 234.38 192.69&#10;  L 224.92 188.82&#10;  Q 224.35 188.58 224.69 188.08&#10;  Q 225.60 186.71 226.64 186.25&#10;  Z"/>
<path fill="#cecece" d="&#10;  M 174.12 181.48&#10;  Q 174.21 181.92 174.74 182.15&#10;  Q 172.02 182.09 169.64 183.05&#10;  Q 169.17 183.24 168.69 183.10&#10;  Q 167.23 182.67 165.99 181.72&#10;  Q 166.02 180.63 167.50 180.81&#10;  Q 170.87 181.21 174.12 181.48&#10;  Z"/>
<path fill="#cecece" d="&#10;  M 231.86 181.62&#10;  Q 230.17 186.74 226.64 186.25&#10;  Q 228.81 183.49 231.86 181.62&#10;  Z"/>
<path fill="#486b4b" d="&#10;  M 159.49 188.34&#10;  L 162.76 189.60&#10;  Q 163.35 189.83 162.82 190.17&#10;  C 154.77 195.32 145.77 195.37 136.53 196.40&#10;  A 0.68 0.68 0.0 0 1 135.86 196.05&#10;  Q 135.48 195.33 136.28 194.81&#10;  C 139.96 192.42 145.91 192.01 150.18 191.19&#10;  C 153.08 190.64 155.58 189.56 158.13 188.38&#10;  Q 158.80 188.08 159.49 188.34&#10;  Z"/>
<path fill="#ff5700" d="&#10;  M 123.57 258.00&#10;  Q 109.19 255.37 95.56 251.37&#10;  Q 95.45 246.10 96.55 242.49&#10;  Q 102.74 222.32 110.38 202.73&#10;  A 0.85 0.85 0.0 0 1 111.32 202.20&#10;  L 115.96 203.03&#10;  A 0.52 0.52 0.0 0 1 116.21 203.93&#10;  C 111.34 208.34 106.48 213.75 105.67 220.00&#10;  Q 105.28 222.95 108.80 224.72&#10;  C 112.06 226.35 115.20 224.19 118.10 221.77&#10;  C 122.35 218.22 127.23 216.43 129.35 210.93&#10;  A 0.74 0.73 10.5 0 1 130.06 210.45&#10;  Q 136.22 210.57 138.90 216.06&#10;  C 141.62 221.65 158.70 223.07 151.09 210.61&#10;  Q 148.19 205.87 144.09 202.71&#10;  Q 142.97 201.84 144.38 201.72&#10;  C 155.43 200.80 164.28 198.78 171.45 189.80&#10;  C 172.60 188.36 173.07 188.65 174.75 188.58&#10;  Q 186.64 188.07 199.13 189.34&#10;  A 0.43 0.43 0.0 0 1 199.37 190.09&#10;  L 149.21 235.16&#10;  Q 148.83 235.49 148.40 235.24&#10;  Q 147.97 234.98 147.65 234.53&#10;  C 145.15 230.96 140.73 232.07 138.20 234.97&#10;  Q 133.50 240.35 134.71 247.46&#10;  A 1.12 1.10 -25.8 0 1 134.35 248.47&#10;  L 123.57 258.00&#10;  Z"/>
<path fill="#486b4b" d="&#10;  M 117.39 197.35&#10;  L 112.74 196.29&#10;  A 0.85 0.85 0.0 0 1 112.15 195.12&#10;  L 113.19 192.76&#10;  A 0.85 0.85 0.0 0 1 114.17 192.28&#10;  L 119.43 193.59&#10;  A 0.85 0.85 0.0 0 1 119.90 194.93&#10;  L 118.25 197.04&#10;  A 0.85 0.85 0.0 0 1 117.39 197.35&#10;  Z"/>
<path fill="#ff5700" d="&#10;  M 280.99 250.63&#10;  Q 239.50 263.03 196.06 263.57&#10;  C 198.30 255.37 194.54 247.71 188.79 241.93&#10;  Q 186.82 239.95 184.89 241.98&#10;  L 184.52 242.37&#10;  A 2.35 2.35 0.0 0 0 184.32 245.37&#10;  C 187.45 249.69 197.84 264.29 183.90 263.48&#10;  C 176.55 263.06 166.65 257.02 161.18 252.40&#10;  A 0.86 0.85 -51.1 0 1 161.06 251.21&#10;  C 162.65 249.16 163.26 247.18 163.21 244.59&#10;  C 163.19 243.56 163.15 243.08 163.97 242.34&#10;  Q 190.90 218.22 217.80 194.08&#10;  Q 218.17 193.75 218.64 193.89&#10;  C 246.97 202.21 272.24 221.52 280.99 250.63&#10;  Z"/>
<ellipse fill="#486b4b" cx="0.00" cy="0.00" transform="translate(126.53,199.18) rotate(-41.4)" rx="4.33" ry="1.61"/>
<path fill="#486b4b" d="&#10;  M 143.18 212.05&#10;  C 140.98 207.70 137.21 206.22 132.68 204.94&#10;  Q 131.84 204.70 132.41 204.05&#10;  L 132.59 203.84&#10;  A 1.07 1.06 30.4 0 1 133.77 203.54&#10;  Q 141.02 206.18 145.43 212.47&#10;  Q 146.60 214.14 144.61 213.71&#10;  Q 144.38 213.66 143.78 212.97&#10;  Q 143.47 212.62 143.18 212.05&#10;  Z"/>
<path fill="#486b4b" d="&#10;  M 112.37 217.38&#10;  C 113.94 214.66 119.14 207.54 122.75 208.07&#10;  A 0.97 0.96 19.3 0 1 123.45 209.51&#10;  Q 122.53 211.11 120.71 212.18&#10;  Q 116.40 214.72 113.45 218.47&#10;  A 0.46 0.46 0.0 0 1 112.82 218.56&#10;  L 112.59 218.39&#10;  A 0.77 0.76 33.0 0 1 112.37 217.38&#10;  Z"/>
<path fill="#7f807f" d="&#10;  M 288.96 224.00&#10;  Q 289.24 223.97 289.53 223.94&#10;  Q 289.93 224.55 289.82 224.96&#10;  Q 289.46 226.23 288.84 225.07&#10;  Q 288.34 224.15 288.96 224.00&#10;  Z"/>
<path fill="#ffffff" d="&#10;  M 143.64 238.62&#10;  C 146.20 244.47 149.14 246.96 156.18 244.59&#10;  Q 158.56 243.79 157.43 246.03&#10;  L 156.80 247.28&#10;  Q 155.74 249.40 153.57 250.35&#10;  C 146.51 253.42 135.12 248.13 142.50 238.48&#10;  A 0.67 0.67 0.0 0 1 143.64 238.62&#10;  Z"/>
<path fill="#ffffff" d="&#10;  M 280.99 250.63&#10;  Q 282.81 259.43 282.57 267.91&#10;  C 240.65 279.91 199.15 282.50 155.59 279.40&#10;  C 146.98 278.78 138.28 277.48 129.58 276.34&#10;  Q 128.94 275.54 128.76 274.74&#10;  Q 128.65 274.25 129.03 273.91&#10;  L 143.48 260.86&#10;  Q 154.13 262.67 165.30 262.97&#10;  Q 170.05 265.17 175.53 267.69&#10;  C 181.96 270.64 191.70 270.89 196.06 263.57&#10;  Q 239.50 263.03 280.99 250.63&#10;  Z"/>
<path fill="#ffffff" d="&#10;  M 95.56 251.37&#10;  Q 109.19 255.37 123.57 258.00&#10;  L 112.69 267.85&#10;  Q 112.32 268.19 111.85 267.98&#10;  C 106.43 265.50 105.30 265.58 101.18 269.88&#10;  A 0.83 0.83 0.0 0 1 100.35 270.10&#10;  Q 98.82 269.65 97.51 268.74&#10;  L 96.23 266.77&#10;  C 95.77 261.88 94.79 256.25 95.56 251.37&#10;  Z"/>
<path fill="#552c06" d="&#10;  M 140.09 255.55&#10;  C 135.25 259.87 130.41 264.51 125.42 268.78&#10;  C 123.36 270.54 120.62 271.79 118.25 272.55&#10;  Q 115.66 273.39 117.69 271.57&#10;  L 137.62 253.80&#10;  A 1.35 1.35 0.0 0 1 139.31 253.72&#10;  L 140.03 254.25&#10;  Q 140.87 254.86 140.09 255.55&#10;  Z"/>
<path fill="#ff5700" d="&#10;  M 165.30 262.97&#10;  Q 154.13 262.67 143.48 260.86&#10;  L 147.47 257.24&#10;  A 0.62 0.58 17.6 0 1 147.78 257.09&#10;  L 155.77 255.95&#10;  Q 156.26 255.88 156.64 256.18&#10;  L 165.30 262.97&#10;  Z"/>
<path fill="#494949" fill-opacity="0.302" d="&#10;  M 96.23 266.77&#10;  L 97.51 268.74&#10;  Q 96.92 269.14 96.38 268.37&#10;  Q 95.66 267.34 96.23 266.77&#10;  Z"/>
<path fill="#ff5700" d="&#10;  M 282.57 267.91&#10;  L 280.86 279.18&#10;  C 231.55 294.61 177.20 296.62 126.49 287.91&#10;  Q 129.80 282.66 129.58 276.34&#10;  C 138.28 277.48 146.98 278.78 155.59 279.40&#10;  C 199.15 282.50 240.65 279.91 282.57 267.91&#10;  Z"/>
<path fill="#ffffff" d="&#10;  M 108.35 273.33&#10;  C 111.89 279.86 116.47 280.29 122.58 277.26&#10;  A 0.69 0.68 -12.3 0 1 123.57 277.89&#10;  C 123.13 291.26 109.38 286.85 106.06 278.95&#10;  A 6.20 6.16 43.1 0 1 105.90 274.62&#10;  L 106.27 273.51&#10;  A 1.14 1.14 0.0 0 1 108.35 273.33&#10;  Z"/>
<path fill="#ffffff" d="&#10;  M 280.86 279.18&#10;  Q 277.33 290.76 270.64 299.42&#10;  C 219.84 310.93 169.66 312.89 118.24 303.05&#10;  Q 112.86 298.45 108.72 292.65&#10;  A 0.82 0.80 -48.9 0 1 108.67 291.81&#10;  Q 109.20 290.84 110.62 291.41&#10;  Q 120.11 295.21 126.49 287.91&#10;  C 177.20 296.62 231.55 294.61 280.86 279.18&#10;  Z"/>
<rect fill="#552c06" x="-31.83" y="-1.72" transform="translate(80.05,307.48) rotate(-41.9)" width="63.66" height="3.44" rx="1.50"/>
<path fill="#ff5700" d="&#10;  M 270.64 299.42&#10;  Q 255.34 318.16 231.78 325.80&#10;  C 204.80 334.55 176.61 333.27 150.36 323.25&#10;  C 139.53 319.11 129.98 313.22 121.10 305.90&#10;  Q 119.53 304.60 118.24 303.05&#10;  C 169.66 312.89 219.84 310.93 270.64 299.42&#10;  Z"/>
<path fill="#ff9e02" d="&#10;  M 165.61 366.00&#10;  L 130.61 366.00&#10;  C 144.02 359.52 156.62 349.47 157.13 333.64&#10;  Q 157.18 332.21 158.49 332.76&#10;  L 159.22 333.07&#10;  Q 160.33 333.53 160.25 334.72&#10;  Q 159.21 350.76 165.61 366.00&#10;  Z"/>
<path fill="#ff9e02" d="&#10;  M 210.14 366.00&#10;  L 206.23 366.00&#10;  Q 215.08 353.28 211.40 337.92&#10;  Q 211.29 337.45 211.76 337.35&#10;  L 224.52 334.85&#10;  A 0.38 0.38 0.0 0 1 224.91 335.42&#10;  Q 218.04 346.58 213.05 358.68&#10;  C 212.31 360.47 211.43 363.64 210.14 366.00&#10;  Z"/>
</svg>