<svg width="300" height="366" viewBox="0 0 300 366" fill="none" xmlns="http://www.w3.org/2000/svg">
<g clip-path="url(#clip0_1596_3819)">
<path d="M142.93 110.73L149.991 120.8C155.851 132.68 161.73 144.58 162.4 156.58C162.413 156.807 162.485 157.026 162.611 157.215C162.736 157.404 162.91 157.556 163.114 157.655C163.319 157.754 163.546 157.796 163.772 157.778C163.998 157.759 164.215 157.681 164.4 157.55C170.86 152.93 178.831 148.35 186.631 146.19C187.497 145.95 188.357 145.68 189.211 145.38C192.021 144.4 195.21 144.66 198.23 143.99C198.559 143.918 198.895 143.925 199.211 144.01C201.461 144.58 204.051 144.67 206.861 145.45C207.941 145.757 209.021 146.147 210.101 146.62C216.611 149.49 223.991 152.83 229.421 157.51C229.623 157.683 229.869 157.797 230.131 157.84C230.394 157.883 230.663 157.852 230.909 157.751C231.154 157.651 231.367 157.484 231.522 157.271C231.678 157.057 231.771 156.804 231.79 156.54C231.89 155.26 231.597 154.183 230.911 153.31C218.291 137.33 202.95 123.43 184.51 114.49C179.91 112.263 176.494 110.937 174.26 110.51C172.66 110.203 171.41 109.853 170.51 109.46C170.19 109.325 169.935 109.07 169.801 108.75C168.571 105.8 170.48 104.48 173.09 104C174.34 103.78 175.411 103.28 176.671 103.27C181.091 103.22 185.331 103.07 189.811 103.72C191.921 104.03 194.05 103.94 196.04 104.32C198.654 104.813 201.277 105.257 203.911 105.65C205.331 105.86 206.52 106.69 208.26 106.49C208.598 106.457 208.938 106.535 209.23 106.71C210.25 107.35 211.37 107.31 212.23 107.52C228.29 111.51 241.751 119.39 255.251 128.66C257.571 130.25 260.801 131.16 262.671 133.05C265.964 136.377 269.11 139.833 272.11 143.42C274.36 146.1 274.891 149.18 276.451 152.21C284.257 167.37 289.777 183.297 293.011 199.99C294.491 207.63 294.851 215.38 295.081 223.26C295.254 229.04 294.874 234.787 293.941 240.5C293.747 241.687 293.237 242.697 292.411 243.53C292.294 243.649 292.154 243.742 292.001 243.802C291.847 243.863 291.684 243.889 291.52 243.88C290.187 243.807 289.337 243.007 288.971 241.48C287.824 236.647 286.164 231.98 283.99 227.48C274.95 208.78 266.311 189.23 251.271 174.43C250.933 174.099 250.514 173.864 250.056 173.748C249.597 173.632 249.116 173.64 248.661 173.77C246.674 174.337 244.924 173.95 243.411 172.61C243.144 172.37 242.831 172.277 242.471 172.33C239.501 172.79 238.881 174.82 240.031 177.44C241.821 181.52 242.351 184.7 241.531 189.39C241.201 191.23 240.15 195.76 242.23 196.84C274.291 213.49 299.421 250.07 284.501 287.14C276.041 308.14 256.811 322.86 235.971 330.68C234.851 331.1 233.837 332.077 232.93 333.61C225.43 346.35 221.651 353.43 216.581 366H210.141C211.431 363.64 212.311 360.47 213.051 358.68C216.377 350.613 220.331 342.86 224.911 335.42C224.948 335.358 224.967 335.286 224.964 335.213C224.962 335.141 224.939 335.07 224.898 335.01C224.857 334.95 224.8 334.903 224.733 334.875C224.666 334.846 224.592 334.838 224.521 334.85L211.76 337.35C211.447 337.417 211.327 337.607 211.4 337.92C213.854 348.16 212.13 357.52 206.23 366H198.751C205.604 357.86 207.774 348.86 205.26 339C205.152 338.573 204.902 338.195 204.552 337.928C204.201 337.661 203.771 337.521 203.331 337.53C195.571 337.69 187.851 337.87 180.251 336.83C176.324 336.297 172.41 335.663 168.51 334.93C167.084 334.663 166.36 335.257 166.34 336.71C166.28 340.98 166.29 345.17 167.15 349.36C168.23 354.593 169.734 359.707 171.661 364.7C171.747 364.927 171.851 365.147 171.971 365.36C172.064 365.527 172.034 365.667 171.881 365.78C171.787 365.847 171.71 365.92 171.65 366H165.611C161.344 355.84 159.557 345.413 160.251 334.72C160.304 333.927 159.961 333.377 159.221 333.07L158.491 332.76C157.617 332.393 157.164 332.687 157.131 333.64C156.621 349.47 144.021 359.52 130.611 366H119.171C115.651 365.833 116.154 365.35 120.681 364.55C121.327 364.437 121.944 364.243 122.531 363.97C126.671 362.01 130.85 360.2 134.54 357.51C143.2 351.23 152.26 343.36 150.79 331.25C150.69 330.437 150.164 329.81 149.211 329.37C140.611 325.41 131.491 320.94 124.151 315.67C116.857 310.45 110.357 304.39 104.651 297.49C104.494 297.299 104.301 297.142 104.082 297.028C103.863 296.915 103.623 296.846 103.376 296.828C103.13 296.809 102.882 296.84 102.647 296.92C102.412 296.999 102.196 297.125 102.011 297.29L62.3805 332.74C61.7447 333.31 60.913 333.613 60.0582 333.585C59.2034 333.557 58.3912 333.201 57.7905 332.59L52.1605 326.85C51.894 326.58 51.6851 326.258 51.5463 325.905C51.4075 325.552 51.3417 325.174 51.3529 324.794C51.3642 324.415 51.4521 324.042 51.6116 323.697C51.771 323.353 51.9985 323.044 52.2805 322.79L94.7205 284.58C95.0261 284.306 95.2413 283.945 95.3377 283.546C95.4341 283.146 95.4072 282.725 95.2605 282.34L91.8305 273.47C91.4831 272.575 90.8174 271.838 89.9605 271.4C85.6505 269.22 78.3505 264.52 77.0705 259.88C75.5805 254.49 84.6905 248.42 88.6605 246.43C89.3738 246.077 89.8938 245.26 90.2205 243.98C91.7738 237.867 93.6772 231.86 95.9305 225.96C101.737 210.753 106.184 195.853 109.271 181.26C110.031 177.64 110.401 173.547 110.381 168.98C110.621 167.547 110.544 166.19 110.151 164.91C110.397 162.997 110.464 160.94 110.351 158.74C110.221 156.03 108.491 154.22 107.561 151.65C107.114 150.423 106.571 149.63 105.931 149.27C102.841 147.54 101.461 150.58 98.9805 151.77C89.2105 156.45 84.4705 166.96 76.8705 174.34C70.5005 180.53 49.4905 198.55 40.4305 188.82C36.1505 184.23 38.5105 178.02 42.1005 173.77C52.2872 161.73 58.5305 147.88 60.8305 132.22C61.5805 127.08 61.7105 119.78 64.3105 115.05C65.3638 113.143 66.4105 111.173 67.4505 109.14C67.6303 108.786 67.6662 108.376 67.5506 107.995C67.4351 107.615 67.1771 107.294 66.8305 107.1C46.8805 95.9201 62.8705 61.6501 79.8505 78.6301C80.5505 79.3301 81.6205 79.3967 83.0605 78.8301C93.5672 74.7234 103.494 75.5734 112.84 81.3801C116.37 83.5601 118.471 88.0201 120.331 91.6801C120.691 92.4001 121.55 93.1901 122.34 93.6501C131.38 98.9101 136.17 104.37 142.93 110.73ZM71.3368 102.173C72.3251 102.139 73.2936 101.819 74.1873 101.231C75.0809 100.643 75.882 99.7989 76.5449 98.7472C77.2079 97.6954 77.7196 96.4565 78.0509 95.101C78.3822 93.7455 78.5266 92.3001 78.4759 90.8473C78.3734 87.9131 77.4823 85.1268 75.9986 83.1013C74.5149 81.0758 72.5601 79.9771 70.5642 80.0468C69.5759 80.0813 68.6074 80.4016 67.7137 80.9895C66.8201 81.5773 66.019 82.4212 65.3561 83.4729C64.6931 84.5247 64.1814 85.7636 63.8501 87.1191C63.5188 88.4746 63.3744 89.92 63.4251 91.3729C63.5276 94.307 64.4187 97.0933 65.9024 99.1188C67.3861 101.144 69.3409 102.243 71.3368 102.173ZM83.7905 85.3401C85.5505 91.5701 84.5405 98.3801 80.6605 103.66C80.6363 103.695 80.6224 103.737 80.6203 103.779C80.6183 103.822 80.6282 103.865 80.649 103.902C80.6698 103.939 80.7006 103.97 80.738 103.991C80.7753 104.012 80.8178 104.022 80.8605 104.02C92.6805 103.07 104.001 101.91 114.381 95.6101C114.565 95.4981 114.707 95.3292 114.787 95.1289C114.866 94.9285 114.878 94.7078 114.821 94.5001C111.111 81.2501 94.8505 80.5401 84.2105 84.5101C84.0496 84.5711 83.9173 84.6901 83.8396 84.8436C83.7619 84.9972 83.7444 85.1742 83.7905 85.3401ZM156.48 182.09C158.427 181.623 158.91 180.513 157.93 178.76C158.62 150.76 146.741 114.32 120.411 100C120.095 99.8288 119.738 99.7484 119.38 99.7679C119.022 99.7873 118.676 99.9057 118.381 100.11C112.834 103.977 106.741 106.55 100.101 107.83C100.031 107.842 99.9666 107.873 99.9143 107.92C99.8621 107.967 99.8239 108.028 99.8043 108.096C99.7846 108.165 99.7841 108.238 99.8028 108.307C99.8216 108.377 99.8589 108.44 99.9105 108.49C102.991 111.46 102.681 115.66 98.8705 117.65C97.8638 118.177 97.0072 118.357 96.3005 118.19C91.6738 117.13 90.2672 114.337 92.0805 109.81C92.113 109.727 92.1231 109.636 92.1097 109.548C92.0963 109.46 92.06 109.377 92.0043 109.307C91.9486 109.237 91.8755 109.183 91.7923 109.15C91.7092 109.117 91.6189 109.107 91.5305 109.12C86.2172 109.873 80.8805 110.133 75.5205 109.9C75.1805 109.887 74.9072 110.013 74.7005 110.28C71.5005 114.4 66.7605 121.93 67.5205 127.26C68.0205 130.713 70.0172 131.793 73.5105 130.5C76.5805 129.36 81.0505 122.11 84.2705 124.17C85.4372 124.917 85.8705 125.863 85.5705 127.01C83.7105 134.13 81.2105 144.54 89.9005 148.67C90.0569 148.744 90.2291 148.778 90.4018 148.769C90.5745 148.761 90.7424 148.709 90.8905 148.62C93.8305 146.87 97.1405 144.78 100.271 143.97C111.38 141.07 117.041 150.37 117.481 160C117.867 168.553 116.924 177.213 114.651 185.98C114.637 186.034 114.636 186.091 114.647 186.146C114.658 186.201 114.681 186.253 114.715 186.297C114.748 186.342 114.791 186.379 114.841 186.406C114.89 186.432 114.945 186.447 115.001 186.45C118.761 186.677 122.147 187.9 125.161 190.12C125.474 190.347 125.824 190.453 126.211 190.44L131.48 190.22C131.787 190.207 132.071 190.113 132.331 189.94C139.941 185.03 150.1 186.4 156.48 182.09ZM239.811 148.96L254.37 135.9C254.452 135.828 254.516 135.737 254.557 135.637C254.599 135.536 254.617 135.427 254.61 135.318C254.603 135.209 254.572 135.103 254.518 135.008C254.465 134.914 254.39 134.832 254.301 134.77C240.221 125.01 225.98 116.53 209.23 112.85C204.904 111.897 200.567 110.99 196.221 110.13L190.191 109.65C189.037 109.557 188.954 109.817 189.941 110.43C196.911 114.76 204.361 119.25 210.461 124.2C220.254 132.14 228.951 141.177 236.551 151.31C236.771 151.603 237.011 151.623 237.271 151.37L239.811 148.96ZM84.5805 153.26C79.4205 149.39 76.5805 143.38 77.0105 136.91C77.0175 136.807 76.9978 136.704 76.9534 136.611C76.9089 136.518 76.8412 136.438 76.7567 136.378C76.6723 136.319 76.574 136.283 76.4713 136.272C76.3686 136.262 76.265 136.279 76.1705 136.32C73.2105 137.627 70.1605 137.897 67.0205 137.13C66.6205 137.03 66.3805 137.18 66.3005 137.58C63.1005 153.19 56.4605 166.9 45.5905 178.6C43.4405 180.91 43.9705 185.79 48.2605 185C56.2205 183.53 65.5605 176.36 71.2605 170.01C75.6738 165.09 80.1672 160.007 84.7405 154.76C84.8342 154.655 84.9047 154.531 84.9476 154.396C84.9905 154.261 85.005 154.119 84.9899 153.978C84.9749 153.837 84.9307 153.701 84.8603 153.577C84.7898 153.453 84.6945 153.345 84.5805 153.26ZM247.001 167.27L267.421 147.11C267.714 146.823 267.721 146.53 267.441 146.23L260.62 138.86C260.571 138.808 260.51 138.766 260.443 138.74C260.376 138.713 260.304 138.701 260.231 138.705C260.159 138.708 260.088 138.728 260.024 138.762C259.96 138.795 259.904 138.843 259.86 138.9C258.847 140.28 257.664 141.58 256.311 142.8C250.551 148.033 244.661 153.093 238.641 157.98C238.558 158.047 238.49 158.131 238.442 158.225C238.393 158.32 238.365 158.424 238.358 158.53C238.351 158.636 238.367 158.742 238.403 158.842C238.44 158.942 238.497 159.033 238.571 159.11L246.491 167.26C246.523 167.296 246.562 167.324 246.605 167.344C246.648 167.364 246.696 167.374 246.743 167.375C246.791 167.376 246.839 167.367 246.883 167.349C246.927 167.331 246.967 167.304 247.001 167.27ZM191.29 151.31C190.624 151.537 190.187 151.59 189.98 151.47C187.42 151.85 185.04 152.747 182.84 154.16C182.134 154.26 181.504 154.547 180.951 155.02L177.031 157.08C176.097 157.14 175.311 157.527 174.671 158.24C173.884 158.62 173.227 159.08 172.701 159.62C171.521 160.087 170.444 160.8 169.471 161.76C169.144 162.08 168.681 162.293 168.081 162.4C167.401 162.58 166.861 162.98 166.461 163.6C165.101 164.39 164.301 165.17 164.381 166.88C164.594 171.267 164.764 175.64 164.891 180C164.917 180.873 165.284 181.447 165.991 181.72C166.817 182.353 167.717 182.813 168.691 183.1C169.011 183.193 169.327 183.177 169.641 183.05C171.227 182.41 172.927 182.11 174.741 182.15L177.531 181.59L195.12 182.16L197.821 182.78C198.161 183.193 198.777 183.317 199.671 183.15L201.961 183.22L204.73 183.73C205.197 184.223 205.971 183.9 207.051 182.76L215.781 175.09L218.23 172.66L227.561 164.91C227.854 164.67 227.871 164.41 227.611 164.13C225.091 161.39 222.137 159.16 218.751 157.44L213.911 154.76C213.644 154.56 213.424 154.463 213.251 154.47C212.677 154.017 211.957 153.663 211.09 153.41C204.67 150.45 198.07 149.75 191.29 151.31ZM255.941 166.98C255.127 167.5 254.514 168.157 254.101 168.95C253.934 169.277 253.987 169.563 254.26 169.81C262.19 176.81 268.52 186.14 273.8 195.24C276.887 200.56 281.42 209.413 287.4 221.8L288.96 224C288.547 224.1 288.507 224.457 288.84 225.07C289.254 225.843 289.581 225.807 289.821 224.96C289.894 224.687 289.797 224.347 289.531 223.94L289.141 213.69C287.194 192.257 281.054 172.097 270.721 153.21C270.683 153.143 270.63 153.085 270.566 153.041C270.502 152.997 270.429 152.969 270.353 152.959C270.276 152.948 270.198 152.955 270.125 152.98C270.052 153.004 269.985 153.045 269.93 153.1L255.941 166.98ZM235.601 165.79L154.391 238.67C154.017 239.01 154.081 239.187 154.581 239.2C156.831 239.28 158.601 239.01 160.391 237.4C185.877 214.467 211.601 191.387 237.561 168.16C238.147 167.64 238.204 167.07 237.73 166.45L237.37 165.96C237.271 165.827 237.144 165.715 236.999 165.634C236.854 165.552 236.693 165.502 236.526 165.486C236.36 165.47 236.191 165.488 236.032 165.541C235.873 165.593 235.726 165.678 235.601 165.79ZM231.861 181.62C229.827 182.867 228.087 184.41 226.641 186.25C225.947 186.557 225.297 187.167 224.691 188.08C224.464 188.413 224.541 188.66 224.921 188.82L234.381 192.69C234.454 192.719 234.534 192.732 234.613 192.727C234.693 192.722 234.77 192.7 234.84 192.662C234.909 192.624 234.97 192.571 235.017 192.506C235.063 192.442 235.096 192.368 235.111 192.29C235.751 188.87 236.451 183.13 234.631 179.98C234.444 179.667 234.194 179.6 233.881 179.78C232.954 180.307 232.281 180.92 231.861 181.62ZM159.491 188.34C159.031 188.167 158.577 188.18 158.131 188.38C155.581 189.56 153.08 190.64 150.18 191.19C145.91 192.01 139.961 192.42 136.281 194.81C135.747 195.157 135.607 195.57 135.861 196.05C135.925 196.168 136.023 196.264 136.142 196.327C136.262 196.389 136.397 196.415 136.531 196.4C145.771 195.37 154.771 195.32 162.821 190.17C163.174 189.943 163.154 189.753 162.76 189.6L159.491 188.34ZM95.5605 251.37C94.7905 256.25 95.7705 261.88 96.2305 266.77C95.8505 267.15 95.9005 267.683 96.3805 268.37C96.7405 268.883 97.1172 269.007 97.5105 268.74C98.3838 269.347 99.3305 269.8 100.351 270.1C100.496 270.143 100.65 270.145 100.796 270.106C100.942 270.067 101.075 269.989 101.181 269.88C105.301 265.58 106.431 265.5 111.851 267.98C112.164 268.12 112.444 268.077 112.691 267.85L123.571 258L134.351 248.47C134.491 248.344 134.598 248.186 134.661 248.009C134.724 247.832 134.741 247.644 134.711 247.46C133.904 242.72 135.067 238.557 138.201 234.97C140.731 232.07 145.15 230.96 147.65 234.53C147.864 234.83 148.114 235.067 148.4 235.24C148.687 235.407 148.957 235.38 149.211 235.16L199.37 190.09C199.433 190.035 199.478 189.962 199.5 189.882C199.523 189.801 199.521 189.716 199.495 189.637C199.47 189.557 199.422 189.487 199.357 189.434C199.292 189.381 199.214 189.349 199.131 189.34C190.804 188.493 182.677 188.24 174.751 188.58C173.071 188.65 172.601 188.36 171.451 189.8C164.281 198.78 155.431 200.8 144.381 201.72C143.441 201.8 143.344 202.13 144.09 202.71C146.824 204.817 149.157 207.45 151.09 210.61C158.701 223.07 141.62 221.65 138.9 216.06C137.114 212.4 134.167 210.53 130.061 210.45C129.906 210.446 129.754 210.491 129.627 210.577C129.499 210.663 129.403 210.787 129.351 210.93C127.231 216.43 122.351 218.22 118.101 221.77C115.201 224.19 112.061 226.35 108.801 224.72C106.454 223.54 105.411 221.967 105.671 220C106.481 213.75 111.341 208.34 116.211 203.93C116.283 203.865 116.336 203.782 116.364 203.688C116.391 203.595 116.392 203.496 116.366 203.402C116.34 203.308 116.288 203.224 116.217 203.158C116.145 203.092 116.056 203.048 115.961 203.03L111.321 202.2C111.127 202.166 110.927 202.2 110.756 202.297C110.584 202.393 110.452 202.547 110.381 202.73C105.287 215.79 100.677 229.043 96.5505 242.49C95.8172 244.897 95.4872 247.857 95.5605 251.37ZM117.391 197.35C117.548 197.386 117.713 197.375 117.866 197.321C118.018 197.266 118.152 197.168 118.251 197.04L119.901 194.93C119.986 194.818 120.042 194.687 120.064 194.548C120.086 194.409 120.073 194.266 120.027 194.133C119.98 194.001 119.901 193.881 119.797 193.787C119.693 193.692 119.567 193.624 119.431 193.59L114.171 192.28C113.977 192.232 113.772 192.254 113.593 192.342C113.414 192.43 113.272 192.578 113.191 192.76L112.151 195.12C112.1 195.235 112.076 195.359 112.079 195.484C112.083 195.609 112.114 195.732 112.17 195.844C112.226 195.956 112.307 196.054 112.405 196.131C112.504 196.208 112.618 196.262 112.741 196.29L117.391 197.35ZM196.061 263.57C191.701 270.89 181.961 270.64 175.531 267.69C171.877 266.01 168.467 264.437 165.301 262.97L156.641 256.18C156.387 255.98 156.097 255.903 155.771 255.95L147.781 257.09C147.663 257.11 147.555 257.162 147.471 257.24L143.48 260.86L129.031 273.91C128.777 274.137 128.687 274.413 128.76 274.74C128.88 275.273 129.154 275.807 129.581 276.34C129.727 280.553 128.697 284.41 126.491 287.91C122.237 292.777 116.947 293.943 110.621 291.41C109.674 291.03 109.024 291.163 108.671 291.81C108.601 291.943 108.569 292.092 108.578 292.24C108.587 292.388 108.636 292.53 108.721 292.65C111.481 296.517 114.654 299.983 118.241 303.05C119.101 304.083 120.054 305.033 121.101 305.9C129.981 313.22 139.531 319.11 150.361 323.25C176.611 333.27 204.801 334.55 231.781 325.8C247.487 320.707 260.441 311.913 270.641 299.42C275.101 293.647 278.507 286.9 280.86 279.18L282.571 267.91C282.731 262.257 282.204 256.497 280.99 250.63C272.24 221.52 246.971 202.21 218.641 193.89C218.327 193.797 218.047 193.86 217.801 194.08C199.867 210.173 181.924 226.26 163.971 242.34C163.151 243.08 163.191 243.56 163.211 244.59C163.261 247.18 162.651 249.16 161.061 251.21C160.921 251.387 160.856 251.61 160.878 251.832C160.901 252.055 161.009 252.259 161.18 252.4C166.65 257.02 176.55 263.06 183.9 263.48C197.84 264.29 187.451 249.69 184.321 245.37C183.998 244.925 183.841 244.382 183.878 243.834C183.914 243.286 184.142 242.768 184.521 242.37L184.891 241.98C186.177 240.627 187.477 240.61 188.79 241.93C194.54 247.71 198.301 255.37 196.061 263.57ZM129.779 196.317C129.639 196.158 129.416 196.075 129.124 196.072C128.831 196.07 128.475 196.148 128.074 196.301C127.674 196.455 127.237 196.682 126.79 196.968C126.342 197.255 125.892 197.596 125.466 197.972C125.039 198.348 124.644 198.752 124.304 199.16C123.963 199.568 123.684 199.973 123.481 200.351C123.278 200.729 123.156 201.073 123.122 201.363C123.088 201.654 123.143 201.885 123.283 202.044C123.422 202.202 123.645 202.285 123.937 202.288C124.23 202.29 124.586 202.213 124.987 202.059C125.387 201.905 125.824 201.678 126.271 201.392C126.719 201.105 127.169 200.764 127.595 200.388C128.022 200.012 128.417 199.608 128.757 199.2C129.098 198.792 129.377 198.387 129.58 198.009C129.783 197.631 129.905 197.287 129.939 196.997C129.973 196.706 129.918 196.475 129.779 196.317ZM132.68 204.94C137.21 206.22 140.98 207.7 143.18 212.05C143.374 212.43 143.574 212.737 143.781 212.97C144.181 213.43 144.457 213.677 144.611 213.71C145.937 213.997 146.21 213.583 145.43 212.47C142.49 208.277 138.604 205.3 133.771 203.54C133.566 203.464 133.343 203.452 133.132 203.505C132.921 203.559 132.732 203.676 132.59 203.84L132.411 204.05C132.031 204.483 132.12 204.78 132.68 204.94ZM112.59 218.39L112.821 218.56C112.917 218.629 113.036 218.658 113.154 218.642C113.271 218.625 113.377 218.563 113.451 218.47C115.417 215.97 117.837 213.873 120.711 212.18C121.924 211.467 122.837 210.577 123.451 209.51C123.53 209.375 123.576 209.221 123.582 209.064C123.588 208.907 123.555 208.75 123.486 208.608C123.417 208.465 123.313 208.342 123.185 208.248C123.057 208.155 122.908 208.093 122.751 208.07C119.141 207.54 113.941 214.66 112.371 217.38C112.274 217.544 112.243 217.738 112.284 217.925C112.324 218.112 112.434 218.278 112.59 218.39ZM156.18 244.59C149.14 246.96 146.201 244.47 143.641 238.62C143.593 238.514 143.52 238.423 143.427 238.354C143.334 238.285 143.225 238.242 143.11 238.228C142.995 238.213 142.879 238.229 142.772 238.274C142.665 238.318 142.572 238.389 142.501 238.48C135.121 248.13 146.511 253.42 153.571 250.35C155.017 249.717 156.094 248.693 156.801 247.28L157.43 246.03C158.184 244.537 157.767 244.057 156.18 244.59ZM87.0905 263.98C87.2761 264.149 87.5071 264.259 87.7547 264.297C88.0024 264.336 88.256 264.301 88.4839 264.196C88.7118 264.092 88.904 263.923 89.0367 263.71C89.1695 263.498 89.2368 263.251 89.2305 263L89.0805 254.33C89.0766 254.08 88.9998 253.837 88.8596 253.631C88.7193 253.424 88.5217 253.263 88.291 253.168C88.0604 253.072 87.8068 253.046 87.5615 253.092C87.3162 253.139 87.0899 253.256 86.9105 253.43L82.3505 257.85C82.2249 257.973 82.1259 258.119 82.0595 258.282C81.9931 258.444 81.9608 258.618 81.9645 258.794C81.9683 258.969 82.008 259.142 82.0813 259.301C82.1546 259.46 82.2598 259.603 82.3905 259.72L87.0905 263.98ZM125.421 268.78C130.411 264.51 135.25 259.87 140.09 255.55C140.61 255.09 140.591 254.657 140.031 254.25L139.311 253.72C139.062 253.539 138.759 253.448 138.451 253.462C138.144 253.477 137.851 253.596 137.62 253.8L117.691 271.57C116.337 272.783 116.524 273.11 118.251 272.55C120.621 271.79 123.361 270.54 125.421 268.78ZM122.581 277.26C116.471 280.29 111.891 279.86 108.351 273.33C108.244 273.136 108.084 272.977 107.889 272.872C107.694 272.767 107.472 272.722 107.252 272.741C107.031 272.76 106.821 272.843 106.647 272.979C106.472 273.116 106.342 273.3 106.271 273.51L105.901 274.62C105.429 276.032 105.486 277.57 106.061 278.95C109.381 286.85 123.131 291.26 123.571 277.89C123.575 277.773 123.548 277.657 123.493 277.553C123.438 277.449 123.357 277.361 123.258 277.298C123.158 277.235 123.043 277.198 122.925 277.191C122.806 277.185 122.687 277.208 122.581 277.26ZM103.595 286.059C103.329 285.763 102.957 285.585 102.56 285.563C102.162 285.542 101.773 285.679 101.477 285.944L56.3269 326.455C56.1803 326.587 56.061 326.746 55.9759 326.923C55.8907 327.101 55.8414 327.294 55.8308 327.491C55.8201 327.687 55.8483 327.884 55.9137 328.07C55.9792 328.256 56.0805 328.427 56.2121 328.573L56.506 328.901C56.7717 329.197 57.1441 329.375 57.5413 329.397C57.9386 329.419 58.3281 329.281 58.6242 329.016L103.774 288.505C103.921 288.373 104.04 288.214 104.125 288.037C104.21 287.859 104.26 287.666 104.27 287.47C104.281 287.273 104.253 287.076 104.187 286.89C104.122 286.704 104.02 286.533 103.889 286.387L103.595 286.059Z" fill="black"/>
<path d="M63.4254 91.3728C63.6387 97.4828 67.1809 102.318 71.3371 102.173C75.4933 102.028 78.6895 96.9573 78.4762 90.8472C78.2628 84.7371 74.7206 79.9016 70.5644 80.0467C66.4083 80.1919 63.212 85.2627 63.4254 91.3728Z" fill="#FFEAC7"/>
<path d="M80.6596 103.66C84.5396 98.3801 85.5496 91.5701 83.7896 85.3401C83.7435 85.1742 83.761 84.9972 83.8387 84.8436C83.9164 84.6901 84.0487 84.5711 84.2096 84.5101C94.8496 80.5401 111.11 81.2501 114.82 94.5001C114.877 94.7078 114.865 94.9285 114.786 95.1289C114.706 95.3292 114.564 95.4981 114.38 95.6101C104 101.91 92.6796 103.07 80.8596 104.02C80.8168 104.022 80.7744 104.012 80.737 103.991C80.6997 103.97 80.6689 103.939 80.6481 103.902C80.6273 103.865 80.6174 103.822 80.6194 103.779C80.6214 103.737 80.6353 103.695 80.6596 103.66Z" fill="#FED000"/>
<path d="M157.931 178.76C157.731 179.813 157.247 180.923 156.481 182.09C150.101 186.4 139.941 185.03 132.331 189.94C132.071 190.113 131.787 190.207 131.481 190.22L126.211 190.44C125.824 190.453 125.474 190.347 125.161 190.12C122.147 187.9 118.761 186.677 115.001 186.45C114.945 186.447 114.89 186.432 114.841 186.406C114.791 186.379 114.748 186.342 114.715 186.297C114.682 186.252 114.658 186.201 114.647 186.146C114.636 186.091 114.637 186.034 114.651 185.98C116.924 177.213 117.867 168.553 117.481 160C117.041 150.37 111.381 141.07 100.271 143.97C97.1407 144.78 93.8307 146.87 90.8907 148.62C90.7426 148.709 90.5747 148.76 90.402 148.769C90.2293 148.778 90.0571 148.744 89.9007 148.67C81.2107 144.54 83.7107 134.13 85.5707 127.01C85.8707 125.863 85.4374 124.917 84.2707 124.17C81.0507 122.11 76.5807 129.36 73.5107 130.5C70.0174 131.793 68.0207 130.713 67.5207 127.26C66.7607 121.93 71.5007 114.4 74.7007 110.28C74.9074 110.013 75.1807 109.887 75.5207 109.9C80.8807 110.133 86.2174 109.873 91.5307 109.12C91.6191 109.107 91.7094 109.117 91.7925 109.15C91.8757 109.183 91.9488 109.237 92.0045 109.307C92.0602 109.376 92.0965 109.46 92.1099 109.548C92.1233 109.636 92.1132 109.727 92.0807 109.81C90.2674 114.337 91.674 117.13 96.3007 118.19C97.0074 118.357 97.864 118.177 98.8707 117.65C102.681 115.66 102.991 111.46 99.9107 108.49C99.8591 108.44 99.8218 108.377 99.8031 108.307C99.7843 108.238 99.7848 108.165 99.8045 108.096C99.8242 108.028 99.8623 107.967 99.9146 107.92C99.9668 107.873 100.031 107.842 100.101 107.83C106.741 106.55 112.834 103.977 118.381 100.11C118.676 99.9056 119.022 99.7872 119.38 99.7677C119.739 99.7483 120.095 99.8287 120.411 99.9999C146.741 114.32 158.621 150.76 157.931 178.76Z" fill="white"/>
<path d="M196.22 110.13C195.88 110.243 195.677 110.483 195.61 110.85C195.557 111.157 195.674 111.377 195.96 111.51C206.714 116.457 216.304 123.373 224.73 132.26C230.81 138.667 235.837 144.233 239.81 148.96L237.27 151.37C237.01 151.623 236.77 151.603 236.55 151.31C228.95 141.177 220.254 132.14 210.46 124.2C204.36 119.25 196.91 114.76 189.94 110.43C188.954 109.817 189.037 109.557 190.19 109.65L196.22 110.13Z" fill="#7F807F"/>
<path d="M196.22 110.13C200.567 110.99 204.904 111.897 209.23 112.85C225.98 116.53 240.22 125.01 254.3 134.77C254.39 134.832 254.464 134.913 254.518 135.008C254.572 135.103 254.603 135.209 254.61 135.318C254.617 135.427 254.598 135.536 254.557 135.637C254.515 135.737 254.452 135.827 254.37 135.9L239.81 148.96C235.837 144.233 230.81 138.667 224.73 132.26C216.304 123.373 206.714 116.457 195.96 111.51C195.674 111.377 195.557 111.157 195.61 110.85C195.677 110.483 195.88 110.243 196.22 110.13Z" fill="#CECECE"/>
<path d="M142.93 110.73C146.45 113.27 148.803 116.627 149.99 120.8L142.93 110.73Z" fill="white"/>
<path d="M77.0106 136.91C76.5806 143.38 79.4206 149.39 84.5806 153.26C84.6946 153.345 84.7899 153.453 84.8603 153.577C84.9308 153.701 84.975 153.837 84.99 153.978C85.005 154.119 84.9906 154.261 84.9477 154.396C84.9048 154.531 84.8342 154.654 84.7406 154.76C80.1672 160.007 75.6739 165.09 71.2606 170.01C65.5606 176.36 56.2206 183.53 48.2606 185C43.9706 185.79 43.4406 180.91 45.5906 178.6C56.4606 166.9 63.1006 153.19 66.3006 137.58C66.3806 137.18 66.6206 137.03 67.0206 137.13C70.1606 137.897 73.2106 137.627 76.1706 136.32C76.2651 136.278 76.3687 136.262 76.4714 136.272C76.574 136.282 76.6724 136.319 76.7568 136.378C76.8413 136.438 76.909 136.518 76.9535 136.611C76.9979 136.704 77.0176 136.807 77.0106 136.91Z" fill="#FF9E02"/>
<path d="M267.42 147.11L247 167.27C246.966 167.304 246.926 167.331 246.882 167.349C246.838 167.367 246.79 167.376 246.742 167.375C246.695 167.374 246.647 167.364 246.604 167.344C246.561 167.324 246.522 167.295 246.49 167.26L238.57 159.11C238.496 159.033 238.439 158.942 238.402 158.842C238.366 158.742 238.35 158.636 238.357 158.53C238.364 158.423 238.392 158.32 238.441 158.225C238.489 158.131 238.557 158.047 238.64 157.98C244.66 153.093 250.55 148.033 256.31 142.8C257.663 141.58 258.846 140.28 259.859 138.9C259.903 138.842 259.959 138.795 260.023 138.762C260.087 138.728 260.158 138.708 260.23 138.705C260.303 138.701 260.375 138.713 260.442 138.74C260.509 138.766 260.57 138.807 260.619 138.86L267.44 146.23C267.72 146.53 267.713 146.823 267.42 147.11Z" fill="#686868"/>
<path d="M211.09 153.41C210.764 153.65 210.06 153.457 208.98 152.83C208.414 152.897 208.03 153.24 207.83 153.86C207.697 154.273 207.727 154.737 207.92 155.25C209.427 159.283 212.83 160.677 218.13 159.43C218.302 159.389 218.462 159.31 218.599 159.199C218.736 159.089 218.846 158.949 218.921 158.79C218.996 158.631 219.034 158.458 219.032 158.283C219.03 158.108 218.989 157.936 218.91 157.78L218.75 157.44C222.137 159.16 225.09 161.39 227.61 164.13C227.87 164.41 227.854 164.67 227.56 164.91L218.23 172.66C219.52 168.31 220.69 163 214.24 162.57C210.867 162.343 208.49 163.377 207.11 165.67C204.39 170.21 209.55 175.65 213.73 172.24C215.744 170.593 216.14 168.753 214.92 166.72C214.754 166.447 214.52 166.25 214.22 166.13C212.267 165.383 210.857 165.837 209.99 167.49C209.517 168.397 209.747 169.047 210.68 169.44C210.967 169.56 211.22 169.51 211.44 169.29C211.86 168.88 212.11 168.36 212.62 168.1C213.414 167.693 213.734 168.123 213.58 169.39C213.559 169.582 213.492 169.765 213.386 169.925C213.28 170.085 213.138 170.217 212.97 170.31C211.404 171.183 210.17 171.233 209.27 170.46C204.1 166.02 217.51 161.61 217.06 167.5C216.907 169.46 216.237 171.177 215.05 172.65C214.952 172.768 214.88 172.905 214.84 173.05C214.4 174.543 214.714 175.223 215.78 175.09L207.05 182.76C206.69 180.1 208.9 177.24 206.23 174.97C201.15 170.66 192.9 174.79 195.12 182.16L177.53 181.59C178.58 177.77 177.53 173.73 174.12 171.64C169.29 168.68 163.56 174.73 167.5 178.99C168.687 180.283 170.317 180.73 172.39 180.33C172.733 180.264 173.057 180.124 173.341 179.921C173.624 179.718 173.861 179.456 174.033 179.153C174.206 178.85 174.312 178.513 174.342 178.166C174.373 177.819 174.328 177.469 174.21 177.14C173.81 176.02 173.13 175.1 172.17 174.38C171.85 174.147 171.517 174.127 171.17 174.32C170.704 174.58 170.347 174.953 170.1 175.44C169.934 175.78 169.984 176.087 170.25 176.36C170.604 176.713 171.024 176.933 171.51 177.02C171.639 177.041 171.759 177.095 171.86 177.177C171.961 177.259 172.039 177.366 172.086 177.486C172.134 177.607 172.149 177.739 172.13 177.867C172.112 177.996 172.06 178.117 171.98 178.22C171.487 178.847 170.887 178.907 170.18 178.4C169.334 177.793 168.757 177.03 168.45 176.11C168.36 175.825 168.371 175.518 168.48 175.24C170.99 169.16 179.23 177.22 174.12 181.48C171.954 181.3 169.747 181.077 167.5 180.81C166.514 180.69 166.01 180.993 165.99 181.72C165.284 181.447 164.917 180.873 164.89 180C164.764 175.64 164.594 171.267 164.38 166.88C164.3 165.17 165.1 164.39 166.46 163.6C169.12 172.82 181.81 162.66 172.7 159.62C173.227 159.08 173.884 158.62 174.67 158.24C174.564 158.493 174.66 158.677 174.96 158.79C179.28 160.45 176.5 164.94 174.78 167.34C174.614 167.57 174.545 167.857 174.588 168.139C174.631 168.421 174.783 168.676 175.01 168.85L175.26 169.04C175.41 169.156 175.599 169.21 175.788 169.19C175.976 169.169 176.149 169.076 176.27 168.93C178.93 165.69 181.2 160.22 177.03 157.08L180.95 155.02C180.91 155.313 181.09 155.567 181.49 155.78C183.004 156.573 184.72 156.877 186.64 156.69C190.34 156.323 191.89 154.53 191.29 151.31C198.07 149.75 204.67 150.45 211.09 153.41ZM199.61 159.36L200.52 160.34C200.593 160.418 200.681 160.48 200.779 160.522C200.876 160.565 200.982 160.586 201.089 160.585C201.197 160.584 201.303 160.561 201.401 160.517C201.499 160.473 201.588 160.409 201.66 160.33L201.96 160.01C202.103 159.855 202.187 159.655 202.198 159.443C202.209 159.232 202.146 159.022 202.02 158.85C200.687 157.023 199.25 156.517 197.71 157.33C193.32 159.66 198.98 167.16 204.2 163.06C205.88 161.74 206.277 159.913 205.39 157.58C204.17 154.387 201.53 153.047 197.47 153.56C190.32 154.47 192.73 162.09 195.73 165.68C196.117 166.147 196.56 166.207 197.06 165.86L197.36 165.65C197.437 165.597 197.502 165.53 197.551 165.451C197.601 165.372 197.633 165.284 197.648 165.193C197.662 165.101 197.657 165.007 197.633 164.917C197.61 164.827 197.568 164.743 197.51 164.67C195.944 162.637 195.097 160.347 194.97 157.8C194.952 157.456 195.05 157.115 195.247 156.831C195.444 156.547 195.73 156.336 196.06 156.23C204.63 153.47 205.4 163.61 200.04 162.01C199.267 161.783 198.71 161.41 198.37 160.89C197.944 160.237 198.08 159.693 198.78 159.26C199.087 159.067 199.364 159.1 199.61 159.36ZM190.88 170.12C191.69 176.99 181.01 174.32 182.19 169.51C182.72 167.33 186.32 167.27 187.27 168.84C188.284 170.507 187.894 170.953 186.1 170.18C186.067 170.167 185.857 169.983 185.47 169.63C185.204 169.383 184.9 169.317 184.56 169.43C183.92 169.637 183.674 170.203 183.82 171.13C183.857 171.369 183.95 171.597 184.09 171.797C184.231 171.996 184.415 172.161 184.63 172.28C190.16 175.32 191.2 166.96 186.25 165.66C183.024 164.813 181.024 166.133 180.25 169.62C178.07 179.45 202.11 178.76 189.71 163.82C189.628 163.721 189.512 163.656 189.385 163.637C189.257 163.619 189.127 163.648 189.02 163.72L188.79 163.86C188.571 164.004 188.416 164.227 188.358 164.482C188.3 164.738 188.344 165.006 188.48 165.23C189.98 167.677 190.78 169.307 190.88 170.12Z" fill="#486B4B"/>
<path d="M189.98 151.47C188.8 154.95 186.08 154.37 182.84 154.16C185.04 152.747 187.42 151.85 189.98 151.47Z" fill="#486B4B"/>
<path d="M189.981 151.47C190.187 151.59 190.624 151.537 191.291 151.31C191.891 154.53 190.341 156.323 186.641 156.69C184.721 156.877 183.004 156.573 181.491 155.78C181.091 155.567 180.911 155.313 180.951 155.02C181.504 154.547 182.134 154.26 182.841 154.16C186.081 154.37 188.801 154.95 189.981 151.47Z" fill="white"/>
<path d="M208.98 152.83C209.69 153.97 209.85 155.31 210.66 156.16C213.25 158.91 215.62 157.54 218.75 157.44L218.91 157.78C218.988 157.936 219.029 158.108 219.031 158.283C219.033 158.458 218.995 158.631 218.92 158.79C218.845 158.949 218.735 159.089 218.598 159.199C218.461 159.31 218.301 159.389 218.13 159.43C212.83 160.677 209.426 159.283 207.92 155.25C207.726 154.737 207.696 154.273 207.83 153.86C208.03 153.24 208.413 152.897 208.98 152.83Z" fill="white"/>
<path d="M208.98 152.83C210.06 153.457 210.764 153.65 211.09 153.41C211.957 153.663 212.677 154.017 213.25 154.47L212.45 154.61C212.184 154.657 212.094 154.807 212.18 155.06C212.407 155.693 212.824 156.123 213.43 156.35C214.07 156.59 214.31 156.38 214.15 155.72L213.91 154.76L218.75 157.44C215.62 157.54 213.25 158.91 210.66 156.16C209.85 155.31 209.69 153.97 208.98 152.83Z" fill="#7F807F"/>
<path d="M289.139 213.69C288.006 211.97 286.919 210.783 285.879 210.13C285.173 210.763 284.619 210.64 284.219 209.76C280.373 201.213 277.739 195.68 276.319 193.16C270.846 183.46 264.053 174.733 255.939 166.98L269.929 153.1C269.984 153.045 270.051 153.004 270.124 152.98C270.197 152.955 270.275 152.948 270.352 152.959C270.428 152.969 270.501 152.997 270.565 153.041C270.629 153.085 270.682 153.143 270.719 153.21C281.053 172.097 287.193 192.257 289.139 213.69Z" fill="#CECECE"/>
<path d="M198.779 159.26C198.079 159.693 197.943 160.237 198.369 160.89C198.709 161.41 199.266 161.783 200.039 162.01C205.399 163.61 204.629 153.47 196.059 156.23C195.729 156.336 195.443 156.547 195.246 156.831C195.049 157.115 194.951 157.456 194.969 157.8C195.096 160.347 195.943 162.637 197.509 164.67C197.567 164.743 197.608 164.827 197.632 164.917C197.656 165.007 197.661 165.101 197.646 165.192C197.632 165.284 197.6 165.372 197.55 165.451C197.501 165.53 197.436 165.597 197.359 165.65L197.059 165.86C196.559 166.207 196.116 166.147 195.729 165.68C192.729 162.09 190.319 154.47 197.469 153.56C201.529 153.047 204.169 154.387 205.389 157.58C206.276 159.913 205.879 161.74 204.199 163.06C198.979 167.16 193.319 159.66 197.709 157.33C199.249 156.517 200.686 157.023 202.019 158.85C202.145 159.022 202.208 159.231 202.197 159.443C202.186 159.655 202.102 159.855 201.959 160.01L201.659 160.33C201.587 160.409 201.498 160.473 201.4 160.517C201.302 160.561 201.196 160.584 201.088 160.585C200.981 160.586 200.875 160.565 200.777 160.522C200.68 160.48 200.592 160.418 200.519 160.34L199.609 159.36C199.363 159.1 199.086 159.067 198.779 159.26Z" fill="white"/>
<path d="M213.25 154.47C213.424 154.463 213.644 154.56 213.91 154.76L214.15 155.72C214.31 156.38 214.07 156.59 213.43 156.35C212.824 156.123 212.407 155.693 212.18 155.06C212.094 154.807 212.184 154.657 212.45 154.61L213.25 154.47Z" fill="#CECECE"/>
<path d="M177.031 157.08C181.201 160.22 178.931 165.69 176.271 168.93C176.15 169.076 175.977 169.169 175.788 169.189C175.6 169.21 175.41 169.156 175.261 169.04L175.011 168.85C174.783 168.676 174.632 168.421 174.589 168.139C174.546 167.857 174.615 167.57 174.781 167.34C176.501 164.94 179.281 160.45 174.961 158.79C174.661 158.677 174.564 158.493 174.671 158.24C175.311 157.527 176.097 157.14 177.031 157.08Z" fill="white"/>
<path d="M172.701 159.62C181.811 162.66 169.121 172.82 166.461 163.6C166.861 162.98 167.401 162.58 168.081 162.4C168.414 162.8 168.714 163.237 168.981 163.71C170.201 165.92 172.451 165.62 173.691 163.5C173.792 163.326 173.826 163.12 173.785 162.923C173.744 162.726 173.633 162.55 173.471 162.43L173.251 162.26C173.187 162.213 173.113 162.18 173.036 162.163C172.958 162.146 172.878 162.147 172.801 162.164C172.724 162.181 172.652 162.214 172.59 162.262C172.528 162.31 172.477 162.371 172.441 162.44C172.221 162.86 171.921 163.207 171.541 163.48C171.228 163.713 170.904 163.723 170.571 163.51C169.971 163.13 169.604 162.547 169.471 161.76C170.444 160.8 171.521 160.087 172.701 159.62Z" fill="white"/>
<path d="M169.47 161.76C169.603 162.547 169.97 163.13 170.57 163.51C170.903 163.723 171.227 163.713 171.54 163.48C171.92 163.207 172.22 162.86 172.44 162.44C172.476 162.371 172.527 162.31 172.589 162.262C172.651 162.214 172.723 162.181 172.8 162.164C172.877 162.147 172.957 162.146 173.035 162.163C173.113 162.18 173.186 162.213 173.25 162.26L173.47 162.43C173.632 162.55 173.744 162.726 173.784 162.923C173.825 163.12 173.791 163.326 173.69 163.5C172.45 165.62 170.2 165.92 168.98 163.71C168.713 163.237 168.413 162.8 168.08 162.4C168.68 162.293 169.143 162.08 169.47 161.76Z" fill="#486B4B"/>
<path d="M218.23 172.66L215.78 175.09C214.713 175.223 214.4 174.543 214.84 173.05C214.879 172.905 214.951 172.768 215.05 172.65C216.236 171.177 216.906 169.46 217.06 167.5C217.51 161.61 204.1 166.02 209.27 170.46C210.17 171.233 211.403 171.183 212.97 170.31C213.137 170.217 213.279 170.085 213.385 169.925C213.492 169.765 213.558 169.581 213.58 169.39C213.733 168.123 213.413 167.693 212.62 168.1C212.11 168.36 211.86 168.88 211.44 169.29C211.22 169.51 210.966 169.56 210.68 169.44C209.746 169.047 209.516 168.397 209.99 167.49C210.856 165.837 212.266 165.383 214.22 166.13C214.52 166.25 214.753 166.447 214.92 166.72C216.14 168.753 215.743 170.593 213.73 172.24C209.55 175.65 204.39 170.21 207.11 165.67C208.49 163.377 210.866 162.343 214.24 162.57C220.69 163 219.52 168.31 218.23 172.66Z" fill="white"/>
<path d="M190.88 170.12C190.78 169.307 189.98 167.677 188.48 165.23C188.344 165.006 188.3 164.738 188.358 164.482C188.416 164.227 188.571 164.003 188.79 163.86L189.02 163.72C189.127 163.648 189.257 163.619 189.384 163.637C189.512 163.656 189.628 163.721 189.71 163.82C202.11 178.76 178.07 179.45 180.25 169.62C181.024 166.133 183.024 164.813 186.25 165.66C191.2 166.96 190.16 175.32 184.63 172.28C184.415 172.161 184.23 171.996 184.09 171.797C183.949 171.597 183.857 171.369 183.82 171.13C183.674 170.203 183.92 169.637 184.56 169.43C184.9 169.317 185.204 169.383 185.47 169.63C185.857 169.983 186.067 170.167 186.1 170.18C187.894 170.953 188.284 170.507 187.27 168.84C186.32 167.27 182.72 167.33 182.19 169.51C181.01 174.32 191.69 176.99 190.88 170.12Z" fill="white"/>
<path d="M110.38 168.98C110.006 167.82 109.93 166.463 110.15 164.91C110.543 166.19 110.62 167.547 110.38 168.98Z" fill="#CECECE"/>
<path d="M154.39 238.67L235.6 165.79C235.725 165.678 235.872 165.593 236.031 165.541C236.191 165.488 236.359 165.47 236.525 165.486C236.692 165.501 236.853 165.552 236.998 165.634C237.144 165.715 237.27 165.826 237.37 165.96L237.73 166.45C238.203 167.07 238.146 167.64 237.56 168.16C211.6 191.387 185.876 214.467 160.39 237.4C158.6 239.01 156.83 239.28 154.58 239.2C154.08 239.187 154.016 239.01 154.39 238.67Z" fill="#552C06"/>
<path d="M255.941 166.98C264.054 174.733 270.847 183.46 276.321 193.16C277.741 195.68 280.374 201.213 284.221 209.76C284.621 210.64 285.174 210.763 285.881 210.13L287.401 221.8C281.421 209.413 276.887 200.56 273.801 195.24C268.521 186.14 262.191 176.81 254.261 169.81C253.987 169.563 253.934 169.277 254.101 168.95C254.514 168.157 255.127 167.5 255.941 166.98Z" fill="#7F807F"/>
<path d="M177.53 181.59L174.74 182.15C174.387 181.997 174.18 181.773 174.12 181.48C179.23 177.22 170.99 169.16 168.48 175.24C168.371 175.518 168.36 175.825 168.45 176.11C168.757 177.03 169.334 177.793 170.18 178.4C170.887 178.907 171.487 178.847 171.98 178.22C172.06 178.117 172.112 177.996 172.13 177.867C172.149 177.739 172.134 177.607 172.086 177.486C172.039 177.365 171.961 177.259 171.86 177.177C171.759 177.095 171.639 177.041 171.51 177.02C171.024 176.933 170.604 176.713 170.25 176.36C169.984 176.087 169.934 175.78 170.1 175.44C170.347 174.953 170.704 174.58 171.17 174.32C171.517 174.127 171.85 174.147 172.17 174.38C173.13 175.1 173.81 176.02 174.21 177.14C174.328 177.468 174.373 177.818 174.342 178.166C174.311 178.513 174.206 178.85 174.033 179.153C173.86 179.456 173.624 179.718 173.341 179.921C173.057 180.124 172.733 180.264 172.39 180.33C170.317 180.73 168.687 180.283 167.5 178.99C163.56 174.73 169.29 168.68 174.12 171.64C177.53 173.73 178.58 177.77 177.53 181.59Z" fill="white"/>
<path d="M207.049 182.76C205.969 183.9 205.196 184.223 204.729 183.73C204.063 183.21 203.869 182.713 204.149 182.24C209.099 173.86 198.199 173.46 196.469 179.26C196.426 179.405 196.42 179.558 196.449 179.706C196.479 179.854 196.544 179.993 196.639 180.11C197.359 180.977 197.753 181.867 197.819 182.78L195.119 182.16C192.899 174.79 201.149 170.66 206.229 174.97C208.899 177.24 206.689 180.1 207.049 182.76Z" fill="white"/>
<path d="M204.73 183.73L201.96 183.22C205.74 181.22 203.71 174.89 199.25 177.5C198.363 178.02 198.086 178.753 198.42 179.7C198.456 179.809 198.516 179.908 198.597 179.99C198.677 180.072 198.776 180.134 198.885 180.171C198.994 180.209 199.111 180.221 199.226 180.207C199.341 180.193 199.452 180.153 199.55 180.09L201.23 179C201.31 178.948 201.402 178.915 201.497 178.906C201.592 178.897 201.689 178.912 201.777 178.948C201.866 178.984 201.944 179.042 202.006 179.115C202.067 179.189 202.11 179.276 202.13 179.37L202.2 179.72C202.254 179.987 202.222 180.265 202.107 180.513C201.992 180.761 201.8 180.967 201.56 181.1C200.433 181.713 199.803 182.397 199.67 183.15C198.776 183.317 198.16 183.193 197.82 182.78C197.753 181.867 197.36 180.977 196.64 180.11C196.545 179.993 196.479 179.854 196.45 179.706C196.42 179.558 196.427 179.405 196.47 179.26C198.2 173.46 209.1 173.86 204.15 182.24C203.87 182.713 204.063 183.21 204.73 183.73Z" fill="#7F807F"/>
<path d="M201.96 183.22L199.67 183.15C199.803 182.397 200.433 181.713 201.56 181.1C201.8 180.967 201.992 180.761 202.107 180.513C202.222 180.265 202.254 179.987 202.2 179.72L202.13 179.37C202.11 179.276 202.067 179.189 202.006 179.115C201.944 179.042 201.866 178.984 201.777 178.948C201.689 178.912 201.592 178.897 201.497 178.906C201.402 178.915 201.31 178.948 201.23 179L199.55 180.09C199.452 180.153 199.342 180.193 199.226 180.207C199.111 180.221 198.994 180.209 198.885 180.171C198.776 180.134 198.677 180.072 198.597 179.99C198.516 179.908 198.456 179.809 198.42 179.7C198.086 178.753 198.363 178.02 199.25 177.5C203.71 174.89 205.74 181.22 201.96 183.22Z" fill="white"/>
<path d="M226.64 186.25C228.993 186.577 230.733 185.033 231.86 181.62C232.28 180.92 232.953 180.307 233.88 179.78C234.193 179.6 234.443 179.667 234.63 179.98C236.45 183.13 235.75 188.87 235.11 192.29C235.095 192.368 235.063 192.442 235.016 192.506C234.969 192.571 234.908 192.624 234.839 192.662C234.769 192.7 234.692 192.722 234.612 192.727C234.533 192.732 234.453 192.719 234.38 192.69L224.92 188.82C224.54 188.66 224.463 188.413 224.69 188.08C225.296 187.167 225.946 186.557 226.64 186.25Z" fill="#486B4B"/>
<path d="M174.12 181.48C174.18 181.773 174.387 181.997 174.74 182.15C172.927 182.11 171.227 182.41 169.64 183.05C169.327 183.177 169.01 183.193 168.69 183.1C167.717 182.813 166.817 182.353 165.99 181.72C166.01 180.993 166.514 180.69 167.5 180.81C169.747 181.077 171.954 181.3 174.12 181.48Z" fill="#CECECE"/>
<path d="M231.861 181.62C230.734 185.033 228.994 186.577 226.641 186.25C228.087 184.41 229.827 182.867 231.861 181.62Z" fill="#CECECE"/>
<path d="M159.491 188.34L162.761 189.6C163.154 189.753 163.174 189.943 162.821 190.17C154.771 195.32 145.771 195.37 136.531 196.4C136.397 196.414 136.262 196.389 136.143 196.327C136.023 196.264 135.925 196.168 135.861 196.05C135.607 195.57 135.747 195.157 136.281 194.81C139.961 192.42 145.911 192.01 150.181 191.19C153.081 190.64 155.581 189.56 158.131 188.38C158.577 188.18 159.031 188.167 159.491 188.34Z" fill="#486B4B"/>
<path d="M123.571 258C113.984 256.247 104.647 254.037 95.5608 251.37C95.4874 247.857 95.8175 244.897 96.5508 242.49C100.677 229.043 105.287 215.79 110.381 202.73C110.452 202.546 110.584 202.393 110.756 202.297C110.927 202.2 111.127 202.166 111.321 202.2L115.961 203.03C116.056 203.048 116.145 203.092 116.217 203.158C116.289 203.224 116.34 203.308 116.367 203.402C116.393 203.496 116.392 203.595 116.364 203.688C116.337 203.782 116.284 203.865 116.211 203.93C111.341 208.34 106.481 213.75 105.671 220C105.411 221.967 106.454 223.54 108.801 224.72C112.061 226.35 115.201 224.19 118.101 221.77C122.351 218.22 127.231 216.43 129.351 210.93C129.403 210.786 129.5 210.663 129.627 210.577C129.754 210.491 129.906 210.446 130.061 210.45C134.167 210.53 137.114 212.4 138.901 216.06C141.621 221.65 158.701 223.07 151.091 210.61C149.157 207.45 146.824 204.817 144.091 202.71C143.344 202.13 143.441 201.8 144.381 201.72C155.431 200.8 164.281 198.78 171.451 189.8C172.601 188.36 173.071 188.65 174.751 188.58C182.677 188.24 190.804 188.493 199.131 189.34C199.214 189.349 199.293 189.381 199.357 189.434C199.422 189.487 199.47 189.557 199.496 189.637C199.521 189.716 199.523 189.801 199.501 189.882C199.479 189.962 199.433 190.035 199.371 190.09L149.211 235.16C148.957 235.38 148.687 235.407 148.401 235.24C148.114 235.067 147.864 234.83 147.651 234.53C145.151 230.96 140.731 232.07 138.201 234.97C135.067 238.557 133.904 242.72 134.711 247.46C134.742 247.643 134.725 247.832 134.662 248.009C134.599 248.186 134.492 248.344 134.351 248.47L123.571 258Z" fill="#FF5700"/>
<path d="M117.39 197.35L112.74 196.29C112.618 196.262 112.503 196.208 112.405 196.131C112.306 196.054 112.226 195.956 112.169 195.844C112.113 195.732 112.082 195.609 112.078 195.484C112.075 195.359 112.099 195.235 112.15 195.12L113.19 192.76C113.271 192.578 113.413 192.43 113.592 192.342C113.772 192.254 113.976 192.232 114.17 192.28L119.43 193.59C119.566 193.624 119.692 193.692 119.796 193.786C119.9 193.881 119.979 194.001 120.026 194.133C120.072 194.266 120.085 194.409 120.063 194.548C120.041 194.687 119.985 194.818 119.9 194.93L118.25 197.04C118.151 197.168 118.017 197.266 117.865 197.32C117.712 197.375 117.548 197.386 117.39 197.35Z" fill="#486B4B"/>
<path d="M280.99 250.63C253.33 258.897 225.02 263.21 196.06 263.57C198.3 255.37 194.54 247.71 188.79 241.93C187.476 240.61 186.176 240.627 184.89 241.98L184.52 242.37C184.141 242.768 183.914 243.286 183.877 243.834C183.841 244.382 183.997 244.925 184.32 245.37C187.45 249.69 197.84 264.29 183.9 263.48C176.55 263.06 166.65 257.02 161.18 252.4C161.008 252.258 160.9 252.055 160.877 251.832C160.855 251.61 160.92 251.386 161.06 251.21C162.65 249.16 163.26 247.18 163.21 244.59C163.19 243.56 163.15 243.08 163.97 242.34C181.923 226.26 199.866 210.173 217.8 194.08C218.046 193.86 218.326 193.797 218.64 193.89C246.97 202.21 272.24 221.52 280.99 250.63Z" fill="#FF5700"/>
<path d="M127.594 200.388C129.388 198.806 130.365 196.984 129.777 196.317C129.189 195.65 127.259 196.391 125.465 197.972C123.671 199.554 122.693 201.377 123.282 202.043C123.87 202.71 125.8 201.969 127.594 200.388Z" fill="#486B4B"/>
<path d="M143.18 212.05C140.98 207.7 137.21 206.22 132.68 204.94C132.12 204.78 132.03 204.483 132.41 204.05L132.59 203.84C132.731 203.676 132.92 203.559 133.131 203.505C133.342 203.452 133.565 203.464 133.77 203.54C138.603 205.3 142.49 208.277 145.43 212.47C146.21 213.583 145.937 213.997 144.61 213.71C144.457 213.677 144.18 213.43 143.78 212.97C143.573 212.737 143.373 212.43 143.18 212.05Z" fill="#486B4B"/>
<path d="M112.37 217.38C113.94 214.66 119.14 207.54 122.75 208.07C122.907 208.093 123.057 208.155 123.185 208.248C123.313 208.342 123.416 208.465 123.485 208.608C123.554 208.75 123.587 208.907 123.581 209.064C123.575 209.221 123.53 209.374 123.45 209.51C122.837 210.577 121.923 211.467 120.71 212.18C117.837 213.873 115.417 215.97 113.45 218.47C113.377 218.563 113.271 218.625 113.153 218.642C113.036 218.658 112.916 218.629 112.82 218.56L112.59 218.39C112.433 218.278 112.324 218.112 112.283 217.925C112.242 217.738 112.273 217.544 112.37 217.38Z" fill="#486B4B"/>
<path d="M288.96 224C289.147 223.98 289.337 223.96 289.53 223.94C289.797 224.347 289.894 224.687 289.82 224.96C289.58 225.807 289.254 225.843 288.84 225.07C288.507 224.457 288.547 224.1 288.96 224Z" fill="#7F807F"/>
<path d="M143.64 238.62C146.2 244.47 149.14 246.96 156.18 244.59C157.767 244.057 158.183 244.537 157.43 246.03L156.8 247.28C156.093 248.693 155.017 249.717 153.57 250.35C146.51 253.42 135.12 248.13 142.5 238.48C142.571 238.389 142.665 238.318 142.772 238.274C142.878 238.229 142.995 238.213 143.11 238.228C143.224 238.242 143.334 238.285 143.426 238.354C143.519 238.423 143.593 238.514 143.64 238.62Z" fill="white"/>
<path d="M280.989 250.63C282.202 256.497 282.729 262.257 282.569 267.91C240.649 279.91 199.149 282.5 155.589 279.4C146.979 278.78 138.279 277.48 129.579 276.34C129.152 275.807 128.879 275.273 128.759 274.74C128.686 274.413 128.776 274.137 129.029 273.91L143.479 260.86C150.579 262.067 157.852 262.77 165.299 262.97C168.466 264.437 171.876 266.01 175.529 267.69C181.959 270.64 191.699 270.89 196.059 263.57C225.019 263.21 253.329 258.897 280.989 250.63Z" fill="white"/>
<path d="M95.5592 251.37C104.646 254.037 113.982 256.247 123.569 258L112.689 267.85C112.442 268.077 112.162 268.12 111.849 267.98C106.429 265.5 105.299 265.58 101.179 269.88C101.074 269.989 100.941 270.067 100.795 270.106C100.649 270.144 100.494 270.142 100.349 270.1C99.3292 269.8 98.3825 269.347 97.5092 268.74L96.2292 266.77C95.7692 261.88 94.7892 256.25 95.5592 251.37Z" fill="white"/>
<path d="M140.091 255.55C135.251 259.87 130.411 264.51 125.421 268.78C123.361 270.54 120.621 271.79 118.251 272.55C116.524 273.11 116.337 272.783 117.691 271.57L137.621 253.8C137.851 253.596 138.144 253.477 138.452 253.462C138.759 253.448 139.062 253.539 139.311 253.72L140.031 254.25C140.591 254.657 140.611 255.09 140.091 255.55Z" fill="#552C06"/>
<path d="M165.3 262.97C157.854 262.77 150.58 262.067 143.48 260.86L147.47 257.24C147.555 257.162 147.663 257.11 147.78 257.09L155.77 255.95C156.097 255.903 156.387 255.98 156.64 256.18L165.3 262.97Z" fill="#FF5700"/>
<path d="M96.2304 266.77L97.5104 268.74C97.117 269.007 96.7404 268.883 96.3804 268.37C95.9004 267.683 95.8504 267.15 96.2304 266.77Z" fill="#494949" fill-opacity="0.302"/>
<path d="M282.57 267.91L280.86 279.18C231.55 294.61 177.2 296.62 126.49 287.91C128.697 284.41 129.727 280.553 129.58 276.34C138.28 277.48 146.98 278.78 155.59 279.4C199.15 282.5 240.65 279.91 282.57 267.91Z" fill="#FF5700"/>
<path d="M108.35 273.33C111.89 279.86 116.47 280.29 122.58 277.26C122.687 277.208 122.806 277.184 122.924 277.191C123.043 277.198 123.158 277.235 123.257 277.298C123.357 277.361 123.438 277.449 123.493 277.553C123.548 277.657 123.574 277.773 123.57 277.89C123.13 291.26 109.38 286.85 106.06 278.95C105.486 277.57 105.429 276.032 105.9 274.62L106.27 273.51C106.341 273.3 106.472 273.116 106.646 272.979C106.821 272.843 107.031 272.76 107.251 272.741C107.472 272.722 107.693 272.767 107.889 272.872C108.084 272.976 108.244 273.136 108.35 273.33Z" fill="white"/>
<path d="M280.86 279.18C278.507 286.9 275.1 293.647 270.64 299.42C219.84 310.93 169.66 312.89 118.24 303.05C114.653 299.983 111.48 296.517 108.72 292.65C108.636 292.53 108.586 292.388 108.578 292.24C108.569 292.092 108.601 291.943 108.67 291.81C109.023 291.163 109.673 291.03 110.62 291.41C116.947 293.943 122.237 292.777 126.49 287.91C177.2 296.62 231.55 294.61 280.86 279.18Z" fill="white"/>
<path d="M101.475 285.944L56.3255 326.455C55.7088 327.008 55.6575 327.957 56.2107 328.573L56.5046 328.901C57.0578 329.517 58.0062 329.569 58.6228 329.016L103.773 288.505C104.389 287.952 104.441 287.003 103.887 286.387L103.594 286.059C103.04 285.443 102.092 285.391 101.475 285.944Z" fill="#552C06"/>
<path d="M270.64 299.42C260.44 311.913 247.487 320.707 231.78 325.8C204.8 334.55 176.61 333.27 150.36 323.25C139.53 319.11 129.98 313.22 121.1 305.9C120.054 305.033 119.1 304.083 118.24 303.05C169.66 312.89 219.84 310.93 270.64 299.42Z" fill="#FF5700"/>
<path d="M165.609 366H130.609C144.019 359.52 156.619 349.47 157.129 333.64C157.163 332.687 157.616 332.393 158.489 332.76L159.219 333.07C159.959 333.377 160.303 333.927 160.249 334.72C159.556 345.413 161.343 355.84 165.609 366Z" fill="#FF9E02"/>
<path d="M210.14 366H206.23C212.13 357.52 213.854 348.16 211.4 337.92C211.327 337.607 211.447 337.417 211.76 337.35L224.52 334.85C224.592 334.838 224.666 334.846 224.733 334.875C224.8 334.903 224.857 334.95 224.898 335.01C224.939 335.07 224.962 335.14 224.964 335.213C224.967 335.286 224.948 335.358 224.91 335.42C220.33 342.86 216.377 350.613 213.05 358.68C212.31 360.47 211.43 363.64 210.14 366Z" fill="#FF9E02"/>
</g>
<defs>
<clipPath id="clip0_1596_3819">
<rect width="300" height="366" fill="white"/>
</clipPath>
</defs>
</svg>
