<svg width="765" height="823" viewBox="0 0 765 823" fill="none" xmlns="http://www.w3.org/2000/svg">
<path d="M216.686 84.0214C215.055 83.9667 213.357 84.1229 211.592 84.4899C210.139 84.7905 208.555 85.343 206.838 86.1472C204.278 87.3497 201.766 88.2614 199.303 88.8821C193.329 90.3872 186.635 91.3711 180.532 92.2671C174.016 93.2237 167.281 93.7019 160.33 93.7019C143.205 93.7058 129.402 93.6765 118.921 93.6141C115.906 93.5965 112.84 93.3505 109.775 93.2217C100.685 92.8293 91.6677 91.131 82.5667 91.4004C80.0662 91.4746 77.5229 91.5936 74.937 91.7576C72.626 91.9021 70.7868 92.4584 69.4195 93.4267C67.703 94.637 65.8842 96.4251 63.9633 98.7911C62.6202 100.443 62.4976 102.153 63.1385 104.161C64.5058 108.476 65.4774 112.932 66.0533 117.531C66.5326 121.358 67.1215 126.054 67.82 131.622C68.0912 133.8 68.2138 136.155 68.1878 138.685C68.1655 141.144 68.0782 143.493 67.9259 145.73C67.5729 150.852 66.8112 156.527 65.6409 162.754C65.0334 165.963 64.6656 169.032 64.2531 172.189" stroke="#423E38" stroke-width="2"/>
<path d="M64.2534 172.188C64.0602 173.594 63.8912 175.009 63.7463 176.434C62.7357 186.359 62.0056 195.446 61.556 203.696C61.4724 205.212 61.2049 207.04 60.8426 208.498C59.3267 214.594 57.8888 220.597 57.7774 226.969C57.7365 229.202 58.0133 232.273 58.6078 236.181C60.068 245.789 61.3405 255.958 62.4254 266.687C63.1165 273.515 63.4732 278.798 62.8323 284.759C62.0966 291.682 61.3498 298.645 62.2192 305.561C62.7654 309.91 63.0645 313.891 63.1165 317.502C63.2911 329.754 63.4528 341.982 63.6014 354.186C63.6497 358.192 63.7537 362.089 63.9135 365.876C64.363 376.538 64.8925 387.244 65.5018 397.992" stroke="#383530" stroke-width="2"/>
<path d="M65.5023 397.992C65.3686 399.394 65.3184 400.547 65.3518 401.453C65.6714 410.491 65.8794 419.524 65.976 428.55" stroke="#262321" stroke-width="2"/>
<path d="M65.9762 428.551C66.0839 435.293 66.1285 442.024 66.1099 448.743C66.0988 454.114 65.6307 459.355 65.4802 464.872C65.2907 472.094 64.3767 479.177 62.7382 486.118C62.4818 487.2 62.3592 488.389 62.3703 489.685C62.4316 496.156 57.5328 502.891 54.1276 508.01C53.4996 508.95 53.0222 510.038 52.6952 511.272C51.6586 515.201 50.3824 520.232 51.4023 524.249C52.3943 528.146 53.325 531.845 54.1944 535.347C56.42 544.296 57.6572 553.886 57.9062 564.119C57.9731 566.809 57.8337 569.345 57.4882 571.727C57.1947 573.726 56.5538 576.181 55.5654 579.094C54.1981 583.131 52.959 587.32 51.8481 591.662C51.0957 594.596 50.5997 598.847 49.7359 602.432C48.1122 609.174 46.6112 615.825 45.2327 622.384C45.1919 622.575 45.2141 622.759 45.2996 622.935C45.5002 623.345 45.6303 623.768 45.6897 624.205C46.6669 631.139 47.7871 638.095 49.0504 645.072C49.3476 646.723 49.5873 648.31 49.7693 649.833C49.9625 651.445 50.1501 653.048 50.3322 654.641C51.0233 660.696 51.0846 666.851 51.5026 672.96C51.6029 674.394 51.876 675.864 52.0543 677.299C52.3553 679.7 53.0909 682.049 53.208 684.415C53.2674 685.684 53.5219 686.861 53.9715 687.946C56.7079 694.546 58.274 701.135 58.3743 708.478C58.4301 712.39 58.8035 715.816 58.2406 719.91C57.6331 724.314 57.7446 728.572 58.0511 733.028C58.3966 738.03 58.1291 742.773 58.1848 747.616C58.1886 747.956 58.2796 748.266 58.4579 748.548C60.3138 751.423 62.5208 754.123 64.3377 757.051C64.9619 758.05 65.5861 759.06 66.2103 760.079C67.128 761.582 68.2463 762.968 69.5653 764.237C71.0552 765.67 72.7328 767.036 74.5979 768.336C75.2221 768.773 75.1608 769.023 74.414 769.086C73.8976 769.133 73.383 769.199 72.8702 769.285C72.2869 769.379 72.2906 769.437 72.8814 769.461C73.8548 769.496 74.8209 769.509 75.7795 769.502C80.2009 769.463 84.4922 770.284 88.6536 771.967C89.6419 772.365 90.6729 772.598 91.7467 772.664C94.5444 772.828 97.331 773.142 100.106 773.607C101.873 773.9 104.158 773.841 106.109 774.421C108.134 775.022 110.417 775.774 112.958 776.676C114.523 777.234 115.789 777.771 116.759 778.286C117.814 778.852 118.977 779.649 120.248 780.676C120.383 780.787 120.489 780.93 120.555 781.091C120.673 781.376 120.878 781.566 121.168 781.659C121.346 781.718 121.502 781.816 121.636 781.952C123.014 783.323 124.382 784.402 125.738 785.191C127.164 786.018 128.493 786.793 129.722 787.516C129.905 787.625 130.038 787.781 130.124 787.984C130.343 788.535 130.718 788.855 131.25 788.945C137.246 789.968 143.251 790.879 149.262 791.68C156.301 792.622 165.642 792.898 173.974 793.419C178.562 793.708 183.459 793.718 188.665 793.448C190.27 793.366 191.566 793.136 192.555 792.757C193.777 792.289 194.948 791.605 196.066 790.707C199.023 788.33 202.111 786.122 205.329 784.084" stroke="#1D1B19" stroke-width="2"/>
<path d="M205.328 784.084C206.305 783.592 207.325 783.176 208.388 782.836C212.675 781.458 217.175 780.15 221.886 778.913C230.48 776.646 239.341 775.621 247.969 775.967C251.539 776.111 255.398 776.459 259.544 777.009C266.964 777.997 273.139 778.602 278.07 778.825C285.192 779.141 292.657 779.653 300.463 780.359C303.48 780.633 306.606 780.826 309.842 780.939C316.174 781.167 322.85 780.611 329.416 780.564C330.229 780.558 330.993 780.353 331.823 780.353C333.465 780.349 336.614 780.289 341.27 780.172" stroke="#262321" stroke-width="2"/>
<path d="M341.27 780.172C350.711 780.41 360.148 780.566 369.581 780.64C374.096 780.675 377.819 780.806 380.75 781.033C384.603 781.329 389.112 781.874 394.276 782.667C400.596 783.639 408.066 784.158 416.686 784.224C428.161 784.312 439.046 782.075 450.387 778.877C457.933 776.75 465.643 775.42 473.516 774.889C483.18 774.233 492.615 774.187 502.642 774.075C514.052 773.943 525.832 774.46 537.981 775.627C546.304 776.428 553.375 777.577 559.193 779.077C564.889 780.545 570.202 781.628 575.132 782.327C582.712 783.404 590.035 784.857 597.358 785.993C598.172 786.122 598.934 786.188 599.643 786.192C607.672 786.258 615.772 786.256 623.942 786.186C630.212 786.128 636.577 785.636 642.707 784.787C653.464 783.295 664.437 781.876 675.628 780.529C681.588 779.815 685.903 776.588 688.575 770.848C689.136 769.642 689.376 768.426 689.294 767.2C688.865 760.711 688.096 753.543 690.353 747.124C692.315 741.537 694.143 736.173 696.088 730.885C698.467 724.413 700.251 717.304 700.056 710.329C699.985 707.74 699.849 705.462 699.649 703.495C698.501 692.153 697.36 680.811 696.227 669.469C695.777 665.014 695.24 660.513 694.616 655.964" stroke="#383530" stroke-width="2"/>
<path d="M694.616 655.964C694.125 651.338 692.937 646.957 691.049 642.823C690.28 641.128 688.959 638.956 687.087 636.305C685.641 634.259 684.2 632.166 682.762 630.027" stroke="#423E38" stroke-width="2"/>
<path d="M682.763 630.026C678.743 623.842 676.658 616.902 676.51 609.207C676.446 605.767 676.469 601.676 676.577 596.932C676.974 579.777 677.786 563.444 679.012 547.932C679.781 538.234 679.92 528.958 680.249 519.166C680.6 508.648 681.732 498.083 682.557 487.547C682.928 482.811 683.199 479.832 683.37 478.61C684.485 470.681 685.17 465.516 685.427 463.115" stroke="#383530" stroke-width="2"/>
<path d="M685.427 463.115C686.348 458.562 687.186 453.791 687.94 448.802C688.124 447.566 688.152 446.278 688.286 445.024C688.379 444.126 688.401 443.211 688.353 442.278C688.163 438.479 687.846 434.957 687.4 431.713C686.051 421.921 681.905 411.959 677.602 403.181C675.339 398.554 674.23 393.875 674.007 388.838C673.721 382.385 673.463 375.552 673.233 368.341C672.95 359.494 672.895 352.816 673.065 348.307C673.456 337.98 673.855 328.219 674.264 319.025C674.358 316.911 674.046 314.937 674.041 312.911C674.03 304.823 674.247 296.894 673.628 289.152C673.409 286.415 673.535 283.719 674.007 281.064C675.2 274.36 676.166 267.879 676.905 261.621C677.18 259.325 677.47 256.846 677.775 254.183C678.704 246.109 679.681 237.807 680.706 229.276C680.866 227.976 681.078 225.401 681.342 221.552" stroke="#423E38" stroke-width="2"/>
<path d="M681.342 221.552C682.052 214.481 682.368 209.833 682.29 207.608C682.16 203.903 681.363 200.549 679.899 197.547C677.803 193.26 676.154 189.272 675.953 184.346C675.522 173.817 674.848 163.707 673.93 154.016C672.771 141.804 671.314 129.314 669.56 116.547C668.936 112.022 668.986 106.381 669.711 99.6225C669.884 97.9768 669.962 96.3019 669.995 94.6387C669.997 94.4945 669.946 94.3551 669.852 94.2494C669.759 94.1436 669.631 94.0796 669.494 94.0706C667.484 93.9262 665.479 93.7017 663.48 93.3972C659.456 92.7822 655.884 89.8424 651.726 89.8131C648.836 89.7896 645.648 89.8404 642.163 89.9653C635.564 90.2035 628.934 90.4495 622.272 90.7032C613.399 91.0429 604.616 90.9668 595.738 91.1307C589.325 91.2518 580.343 91.7047 568.791 92.4894C562.245 92.9345 554.695 94.3127 546.142 96.624C540.842 98.053 536.093 98.8787 530.743 99.3706C525.242 99.8743 519.992 99.5229 515.021 97.5259C513.1 96.7528 511.54 96.339 510.34 96.2843C504.068 96.0071 497.852 95.8197 491.692 95.7221C488.047 95.6636 484.346 95.4586 480.802 95.3356C478.112 95.2419 475.394 95.0935 472.648 94.8905C460.684 94.0082 449.688 93.3366 439.66 92.8759C432.519 92.5519 426.149 92.14 420.55 91.6402C418.532 91.4587 416.504 91.4528 414.486 91.2654C409.136 90.7618 403.507 91.6051 398.391 93.2039C397.449 93.4967 396.423 94.0238 395.643 94.6563C393.956 96.0228 392.279 97.3326 390.61 98.5859C383.499 103.915 375.295 102.884 367.08 103.195C360.677 103.441 353.721 103.013 347.546 102.984C330.71 102.914 313.929 102.024 297.293 99.6459C292.968 99.029 288.175 98.2677 282.914 97.3619C277.274 96.3898 271.65 95.0135 266.378 93.1278C260.277 90.9414 253.85 88.9873 247.095 87.2656C241.447 85.8249 237.827 84.9484 236.233 84.6361C229.872 83.3867 223.357 83.1817 216.688 84.0211" stroke="#554F49" stroke-width="2"/>
<path d="M681.342 221.552C680.677 220.618 680.021 219.765 679.375 218.992C678.818 218.319 678.439 217.481 678.327 216.609C678.16 215.246 677.855 214.042 677.413 212.995C676.993 212.008 676.633 211.055 676.332 210.138C675.909 208.839 675.445 207.548 674.944 206.272C674.524 205.203 674.097 204.111 673.662 202.999C673.443 202.433 672.834 201.503 671.834 200.211C671.11 199.274 670.358 198.427 669.577 197.669C666.806 194.975 664.097 192.287 661.451 189.605C658.033 186.142 655.585 182.605 654.106 178.993C651.726 173.184 650.679 166.473 650.489 159.966C650.233 151.225 650.656 142.13 651.76 132.681C652.116 129.642 652.256 126.737 652.456 123.721C652.464 123.599 652.43 123.479 652.359 123.381C652.288 123.283 652.187 123.215 652.072 123.188C645.897 121.789 641.003 117.748 634.923 116.137C627.407 114.146 620.481 112.838 614.146 112.213C605.794 111.386 598.08 111.142 591.006 111.481C579.865 112.014 568.842 112.858 557.45 114.931C553.95 115.569 550.35 115.639 546.777 115.897C543.277 116.155 539.341 116.789 534.968 117.8C527.455 119.546 519.19 118.831 510.83 117.83C507.787 117.467 504.755 117.326 501.779 117.15C497.181 116.887 493.224 115.587 488.816 114.41C484.692 113.309 478.883 112.344 471.389 111.517C469.382 111.294 466.9 111.212 463.943 111.271C458.069 111.382 452.64 111.112 446.811 110.052C442.425 109.256 437.743 107.646 433.58 107.628C429.27 107.616 424.687 107.601 419.831 107.581C416.431 107.564 413.639 108.102 410.228 108.987C402.05 111.107 395.115 114.568 389.423 119.37C387.057 121.361 384.703 123.391 382.362 125.461C379.033 128.408 375.199 130.177 370.859 130.766C365.672 131.473 360.456 131.742 355.21 131.575C352.876 131.5 350.495 131.17 348.065 130.585C343.116 129.39 338.583 128.416 334.466 127.663C328.882 126.638 323.13 124.746 317.551 122.96C312.184 121.238 306.672 120.278 301.54 118.269C300.087 117.699 298.706 117.262 297.399 116.957C294.272 116.225 290.911 116.424 287.696 116.371C284.307 116.313 280.841 115.522 277.302 115.224C272.854 114.843 268.568 114.111 263.987 113.695C260.829 113.41 257.896 112.335 255.187 110.468C251.264 107.763 246.51 105.66 243.233 102.978C241.063 101.202 238.999 99.4213 237.041 97.637C232.738 93.725 227.527 90.0413 222.684 86.4221C221.96 85.8794 219.961 85.079 216.688 84.021" stroke="#968D81" stroke-width="2"/>
<path d="M685.427 463.115C683.915 465.769 682.54 468.43 681.303 471.097C680.043 473.814 678.89 476.036 677.842 477.761C672.96 485.796 667.437 494.592 661.273 504.15C659.099 507.515 656.98 510.522 654.914 513.169C654.301 513.959 653.632 515.008 653.303 515.956C652.493 518.283 651.611 520.45 650.656 522.457C648.46 527.064 646.77 531.181 645.584 534.808C643.751 540.395 641.778 545.414 638.991 549.835C637.459 552.266 635.898 554.755 634.611 557.273C633.184 560.061 631.726 562.858 630.236 565.665C629.73 566.614 629.028 567.34 628.129 567.844C622.411 571.035 615.483 575.58 611.265 580.511C609.931 582.069 608.584 583.828 607.224 585.788C606.221 587.24 604.939 588.247 603.913 589.723C602.743 591.41 600.982 593.256 598.63 595.263C597.281 596.417 596.791 597.863 595.804 599.275C594.158 601.633 592.47 604.12 590.738 606.736C588.353 610.349 584.703 613.517 581.838 616.885C578.256 621.094 574.641 625.418 570.993 629.857C570.484 630.473 569.883 630.907 569.192 631.157C567.078 631.922 564.804 632.677 562.371 633.423C561.96 633.552 561.518 633.525 561.122 633.347C557.158 631.555 552.571 629.626 547.362 627.561C542.506 625.632 538.233 624.227 534.544 623.344C531.311 622.567 527.811 621.738 524.044 620.855C521.298 620.211 518.723 619.18 516.319 617.763C512.413 615.468 509.046 612.668 504.437 612.059C504.38 612.052 504.323 612.059 504.269 612.082C504.216 612.105 504.17 612.141 504.134 612.188C504.098 612.235 504.074 612.291 504.065 612.351C504.056 612.41 504.061 612.471 504.081 612.528C505.374 616.223 507.04 620.112 509.325 623.403C512.218 627.573 515.049 631.719 517.724 636C520.037 639.701 522.533 643.227 525.554 646.237C526.535 647.217 527.41 648.29 528.179 649.458C530.501 652.995 533.188 656.405 536.238 659.689C538.306 661.914 539.677 664.655 541.884 666.781C544.492 669.293 546.487 672.508 550.333 673.047C551.442 673.205 552.517 673.557 553.632 673.715C556.155 674.062 558.646 674.384 561.106 674.681C563.519 674.974 566.417 675.911 568.412 676.707C570.043 677.356 571.58 677.18 573.021 676.18C575.99 674.123 578.923 672.056 581.821 669.979C584.039 668.386 586.397 667.355 588.966 666.605C595.119 664.813 600.859 661.944 607.079 660.333C609.888 659.603 612.184 659.218 613.968 659.179C616.62 659.125 619.002 658.889 621.112 658.471C628.558 657.001 636.076 653.493 643.405 650.418C647.031 648.9 650.868 647.451 654.914 646.073C659.071 644.659 661.947 643.395 663.541 642.278C669.776 637.921 676.183 633.837 682.763 630.026" stroke="#7A7368" stroke-width="2"/>
<path d="M694.617 655.964C692.703 660.15 691.381 663.31 690.649 665.446C688.793 670.839 688.341 676.38 688.029 681.99C687.622 689.258 685.432 696.959 680.634 702.464C679.781 703.442 679.307 704.8 678.7 705.661C675.672 709.96 672.45 714.091 669.036 718.053C667.323 720.041 665.982 721.634 665.012 722.832C662.002 726.551 658.932 730.726 655.22 733.655C651.319 736.723 647.375 739.892 643.388 743.16C642.44 743.938 641.198 744.782 639.999 744.911C638.119 745.117 636.958 745.346 636.516 745.596C634.361 746.826 632.085 748.417 629.689 750.369C629.332 750.658 629.033 750.988 628.792 751.358C628.112 752.395 627.426 753.338 626.579 754.234C623.897 757.064 621.225 759.915 618.565 762.784C617.814 763.588 616.978 764.182 616.057 764.565C613.538 765.601 610.545 767.645 607.558 766.971C590.143 763.067 573.749 759.321 558.374 755.733C550.516 753.9 542.385 751.312 534.499 749.098C533.377 748.786 532.225 748.237 531.043 747.452C528.691 745.9 526.585 745.783 523.826 746.539C519.574 747.71 515.422 748.94 511.141 749.853C507.459 750.634 504.814 751.257 503.205 751.721C500.355 752.545 497.416 753.381 494.388 754.228C489.601 755.563 485.282 756.043 480.383 756.547C472.107 757.39 463.596 759.329 455.186 760.811C444.504 762.696 433.951 764.479 423.525 766.157C421.452 766.489 419.544 766.602 417.801 766.497C405.524 765.747 393.82 764.242 381.425 762.667C379.915 762.48 378.454 762.07 376.939 761.947C371.443 761.506 366.024 760.924 360.682 760.201C357.427 759.762 354.245 758.468 351.029 757.765C346.214 756.711 341.185 755.608 335.942 754.456C334.889 754.228 334.081 753.531 333.406 752.694C331.768 750.656 330.003 748.485 328.112 746.181C326.206 743.856 324.946 742.568 322.46 742.621C318.217 742.703 313.948 742.771 309.653 742.826C307.229 742.861 304.754 743.324 302.358 743.833C301.585 743.993 300.76 743.942 299.883 743.681C293.771 741.838 289.92 740.561 288.33 739.851C282.646 737.301 277.732 735.326 273.589 733.924C266.494 731.529 260.804 725.831 254.646 721.678C249.641 718.305 244.521 714.846 239.286 711.301C232.849 706.95 225.476 704.953 218.219 702.581C215.095 701.558 211.671 700.434 207.948 699.208C197.743 695.846 187.344 693.773 176.727 693.667C167.304 693.578 158.313 694.224 149.752 695.606C147.441 695.977 144.989 696.488 142.396 697.14C139.28 697.925 135.296 697.954 131.784 698.71C130.38 699.01 128.866 699.202 127.242 699.284C126.655 699.315 126.037 699.225 125.386 699.014C125.16 698.942 124.961 698.8 124.813 698.605C124.666 698.411 124.578 698.174 124.562 697.925C124.233 692.848 125.403 688.244 128.095 684.092C129.26 682.289 131.043 678.517 129.929 676.573C126.354 670.338 123.267 665.2 120.666 661.159C118.44 657.707 116.923 654.936 116.113 652.843C115.083 650.176 114.285 647.039 113.716 643.432C112.94 638.473 112.479 633.505 112.334 628.527C112.189 623.579 111.922 618.507 111.504 613.453C111.047 607.971 109.885 601.512 108.02 594.074C106.04 586.196 104.047 578.262 102.04 570.274C100.866 565.612 99.7757 560.582 98.7688 555.182C95.5289 537.824 93.0488 520.314 91.3285 502.651C91.0685 499.996 90.9068 496.925 90.8437 493.439C90.8028 491.264 90.905 489.209 91.1502 487.272C91.4289 485.09 91.6128 482.97 91.7019 480.912C91.8023 478.64 92.3652 476.49 92.7051 474.242C92.9132 472.867 92.5045 471.868 91.479 471.243C91.2602 471.11 91.0818 470.915 90.9644 470.679C90.847 470.444 90.7955 470.179 90.8158 469.914C91.0833 466.373 91.1446 463.097 90.9997 460.087C90.7712 455.343 90.8827 450.676 90.7155 445.973C90.604 442.76 90.134 440.246 89.3055 438.43C88.7667 437.243 88.2057 436.019 87.6224 434.758C87.0093 433.431 86.4687 431.455 86.0006 428.831C85.2649 424.685 84.8971 419.491 84.8469 414.946C84.7856 409.464 84.6909 404.018 84.3509 398.548C83.9422 392.032 83.5075 385.635 83.0468 379.357C82.3668 370.022 79.413 359.574 76.5763 350.081C75.9818 348.09 75.5489 345.954 75.2777 343.674C74.7575 339.356 74.4194 335.596 74.2634 332.395C73.6132 319.253 73.0168 304.171 72.4744 287.149C72.3741 284.088 72.1883 281.046 71.9171 278.025C70.9808 267.635 69.7435 257.164 69.4537 246.705C69.1936 237.436 69.0413 227.365 68.9967 216.492C68.9521 205.581 67.7929 196.006 66.3104 184.903C65.9054 181.861 65.5599 178.554 65.2738 174.982C65.2664 174.845 65.1995 174.757 65.0732 174.718C65.0286 174.703 64.9896 174.675 64.9561 174.636C64.841 174.508 64.7722 174.344 64.7499 174.144C64.6756 173.461 64.5103 172.809 64.2539 172.188" stroke="#7A7368" stroke-width="2"/>
<path d="M341.27 780.172C339.542 779.367 338.463 778.77 338.032 778.38C336.363 776.873 334.673 775.395 332.96 773.946C331.695 772.875 329.884 771.949 328.295 771.498C324.528 770.433 321.658 769.704 319.685 769.314C309.575 767.311 298.941 765.32 288.508 763.996C278.337 762.708 268.227 760.863 257.649 760.389C257.199 760.37 256.759 760.239 256.367 760.008C252.86 757.959 249.34 755.903 245.806 753.842C243.142 752.29 240.356 750.984 237.491 750.211C231.621 748.625 225.011 747.585 217.662 747.089C215.956 746.976 214.243 746.728 212.523 746.345C209.865 745.754 207.167 745.66 204.52 746.193C200.557 746.984 196.757 748.296 192.738 748.969C189.283 749.551 185.941 750.094 182.712 750.597C182.456 750.64 182.201 750.626 181.948 750.556C173.852 748.327 166.561 746.062 160.074 743.763C156.421 742.47 153.258 741.582 150.582 741.098C143.856 739.88 136.772 740.079 130.218 739.271C128.215 739.021 126.254 738.346 124.333 737.245C120.851 735.25 117.48 732.989 114.217 730.463C112.675 729.268 111.163 727.828 109.681 726.141C107.686 723.865 105.458 721.524 102.998 719.119C102.285 718.424 101.392 717.819 100.318 717.304C98.434 716.396 95.6641 714.944 94.8895 712.777C94.2374 710.95 93.2119 709.322 93.2342 707.289C93.2788 703.412 93.4832 699.889 93.8473 696.719C94.2894 692.9 94.5885 689.248 94.7446 685.761C94.8672 683.001 94.6647 680.241 94.1371 677.481C93.8919 676.204 93.9364 674.078 94.2262 672.608C95.1365 667.962 95.549 663.624 95.4635 659.595C95.3223 653.13 94.9693 646.333 94.4046 639.203C94.0999 635.385 93.8138 631.491 93.5463 627.52C92.8608 617.289 91.7908 606.964 89.9405 596.417C87.3545 581.69 85.3871 566.553 84.0384 551.007C83.665 546.685 82.3832 542.333 82.3609 538.011C82.3442 534.954 82.2383 532.553 80.5663 529.848C79.8697 528.717 79.6858 526.51 79.9421 525.186C80.2802 523.445 80.4976 521.805 80.5942 520.267C80.9286 514.918 81.2983 508.78 81.7033 501.854C82.2383 492.625 81.9206 483.612 80.2431 475.149C79.1247 469.535 77.6701 462.861 75.8793 455.127C74.8984 450.875 75.1213 446.09 75.2328 441.686C75.2922 439.441 75.0823 437.064 74.603 434.553C74.0605 431.734 73.4921 429.241 72.8976 427.075C71.3891 421.554 70.4082 416.324 69.9549 411.385C69.7432 409.096 69.3753 406.624 68.6007 404.545C67.9542 402.812 66.9213 400.627 65.502 397.992" stroke="#5E5851" stroke-width="2"/>
<path d="M205.328 784.084C203.909 783.451 202.487 783.332 201.064 783.727C200.958 783.757 200.846 783.757 200.74 783.725C200.634 783.694 200.538 783.633 200.462 783.549C200.387 783.465 200.334 783.36 200.311 783.247C200.287 783.134 200.294 783.016 200.329 782.907C200.702 781.712 201.661 778.468 201.131 777.285C200.284 775.393 195.508 775.293 193.83 775.241C188.19 775.069 183.459 775.436 179.635 776.342C176.336 777.127 172.736 777.513 169.654 778.866C165.357 780.746 160.804 781.109 155.905 780.992C150.982 780.875 145.973 780.754 140.879 780.629C139.984 780.609 139.161 780.373 138.41 779.92C134.375 777.513 130.714 775.411 126.01 773.993C121.39 772.6 117.455 771.147 113.493 768.746C110.847 767.145 108.703 766.181 107.061 765.853C101.655 764.779 95.4318 763.893 88.3909 763.194C86.9196 763.054 85.5096 762.761 84.0494 762.527C81.3241 762.087 79.0781 760.319 77.2222 758.333C73.6145 754.468 69.8879 750.57 66.0424 746.638C63.6794 744.226 60.681 740.706 60.6197 737.438C60.5677 734.545 60.759 731.457 61.1937 728.173C62.5201 718.139 63.9227 709.609 65.4015 702.581C65.9922 699.782 66.3749 697.234 66.5496 694.938C66.7093 692.861 66.7539 690.527 66.6833 687.934C66.5774 684.087 66.2765 680.227 66.1873 676.427C66.1594 675.255 65.8473 674.084 65.8529 672.913C65.8752 669.703 65.3959 666.43 65.4238 663.261C65.4721 658.627 65.3773 654.012 65.1395 649.417C65.1065 648.818 64.9605 648.235 64.7104 647.701C63.6013 645.329 62.5146 642.975 62.5759 640.24C62.6427 637.218 62.7431 634.155 62.2749 631.145C61.7547 627.76 61.4724 625.48 61.4278 624.305C61.2569 619.944 61.3498 615.93 61.7064 612.264C61.8681 610.625 61.751 608.856 61.9071 607.14C62.0185 605.941 62.1226 604.68 62.2192 603.357C62.4495 600.269 62.8248 597.081 63.345 593.793C63.9283 590.084 64.3556 586.409 64.6268 582.766C64.8664 579.551 65.329 576.353 65.7191 573.173C65.9309 571.416 65.7637 569.694 66.1594 567.949C66.3935 566.93 66.2486 565.8 66.3991 564.74C66.9415 560.996 67.4004 557.461 67.7757 554.134C68.0655 551.577 68.2197 547.885 68.2382 543.06C68.2457 540.823 68.3553 538.771 68.5671 536.905C68.8197 534.711 69.0761 532.434 69.3362 530.076C69.5201 528.407 69.4421 526.791 69.6594 525.139C69.8229 523.874 69.9102 522.621 69.9213 521.38C69.9474 517.725 69.9585 514.147 69.9548 510.645C69.9548 509.251 69.6817 507.945 69.6037 506.563C69.4662 503.971 69.2358 501.322 68.9126 498.616C68.6506 496.408 68.9572 494.271 68.4444 492.151C68.2067 491.163 68.1565 490.138 68.294 489.076C68.7621 485.474 68.9962 481.638 69.0965 478.048C69.1597 475.897 69.2581 473.748 69.3919 471.601C69.5182 469.617 69.2767 467.103 68.6674 464.058C68.4444 462.945 68.4073 461.934 68.5559 461.024C69.1578 457.358 68.8457 454.26 68.0878 450.764C67.7942 449.401 67.588 447.88 67.4691 446.202C67.2165 442.559 66.9936 438.916 66.8003 435.274C66.6815 433.013 66.4065 430.772 65.9755 428.551" stroke="#433E3A" stroke-width="2"/>
<path d="M495.552 786.707C481.135 787.024 468.522 787.129 455.08 790.719C451.569 791.656 448.098 792.548 444.669 793.395C434.912 795.808 425.674 796.97 416.954 796.88C408.962 796.798 402.853 796.49 398.629 795.955C393.672 795.33 388.454 794.656 382.974 793.934C380.7 793.635 378.337 793.448 375.996 793.413C355.877 793.114 337.129 792.611 315.989 793.542C306.142 793.981 294.499 792.195 286.719 791.879C275.364 791.41 263.41 790.366 250.855 788.745C248.931 788.496 246.12 788.421 242.423 788.523C239.989 788.589 237.257 788.833 234.225 789.255C229.941 789.848 226.064 790.457 222.594 791.082C219.489 791.638 216.268 792.318 213.409 793.864C209.857 795.785 206.415 798.071 203.082 800.722C199.816 803.322 196.338 805.196 192.27 805.641C187.376 806.176 182.108 806.293 176.464 805.992C163.674 805.319 151.808 804.868 139.04 802.736C131.912 801.542 125.023 800.985 118.107 799.931C111.43 798.912 104.999 796.722 98.5953 794.567C94.7275 793.261 92.6376 790.824 90.0349 787.926C86.665 784.177 82.5352 782.225 77.6457 782.069C69.3862 781.812 59.5272 783.334 53.5248 775.651C50.5878 771.885 47.79 767.288 46.6141 762.597C46.2016 760.949 46.0289 758.786 46.0958 756.108C46.2518 749.705 46.3001 743.458 46.2407 737.368C46.1849 732.091 45.4493 726.738 46.1348 721.473C46.9206 715.406 46.7478 708.783 45.9954 703.038C45.0926 696.139 41.5034 690.605 39.1571 684.362C36.7346 677.904 34.1245 671.121 31.3268 664.011C28.791 657.575 27.8937 649.599 28.6851 642.612C29.0938 638.981 29.9929 634.421 31.3825 628.931C32.7758 623.43 34.0112 618.122 35.0887 613.008C36.4541 606.566 38.271 600.253 39.3522 593.823C40.5894 586.502 42.9246 579.27 45.1539 572.453C45.7521 570.618 46.0382 568.406 46.0122 565.817C45.9601 561.456 45.6982 557.07 45.2263 552.658C44.3569 544.524 42.306 536.419 40.2104 528.63C39.1683 524.747 38.8004 520.8 39.4358 516.741C40.1826 511.982 41.0557 508.224 42.0552 505.468C43.4652 501.567 46.6531 497.942 48.7876 493.925C49.8186 491.986 50.5209 490.475 50.6268 488.109C50.7457 485.49 51.1952 482.573 51.9755 479.36C52.648 476.588 53.0938 473.17 53.3131 469.106C53.7088 461.756 54.0431 454.822 54.0153 447.42C53.9484 429.663 53.7348 414.146 53.3744 400.867C53.2034 394.535 52.8356 386.037 52.2709 375.375C51.5352 361.437 51.4516 347.774 51.3792 332.559C51.3178 320.811 51.251 313.397 49.9636 303.945C49.6737 301.813 49.6756 298.719 49.9691 294.662C50.2627 290.602 50.5915 286.487 50.9556 282.317C51.2677 278.718 51.0875 273.865 50.415 267.758C49.5679 260.083 48.652 252.424 47.6674 244.784C47.3256 242.129 46.9057 239.337 46.4079 236.409C44.7526 226.647 46.2908 216.281 48.9381 206.431C49.161 205.611 49.3951 204.375 49.4508 203.526C49.8558 197.443 50.3091 191.198 50.8107 184.791C51.6912 173.6 53.0065 164.212 54.9126 153.846C55.2581 151.969 55.429 150.024 55.4253 148.014C55.4197 144.658 56.0829 141.402 55.899 138.011C55.5535 131.51 54.9144 125.014 53.9818 118.521C53.4505 114.847 52.5997 111.126 51.4293 107.359C48.7319 98.6972 52.7502 91.6227 58.7971 86.1411C59.9266 85.1143 61.331 84.1968 63.0104 83.3886C65.9196 81.987 68.5892 81.0012 71.0191 80.4312C72.2675 80.1423 73.5271 79.867 74.7978 79.6054C79.4402 78.6509 84.3056 78.4693 88.9481 78.7856C95.9759 79.2658 103.695 80.2906 111.949 80.7006C115.2 80.8607 118.358 80.9602 121.423 80.9993C132.741 81.1359 145.284 81.1554 159.053 81.0578C166.146 81.0032 172.277 80.6049 177.445 79.8631C183.293 79.0198 189.591 77.9774 196.338 76.7358C198.672 76.3064 200.695 75.7266 202.407 74.9965C206.665 73.181 210.528 71.6057 215.438 71.2191C221.178 70.7702 225.625 70.6472 228.78 70.8502C232.499 71.0844 236.826 71.7638 241.76 72.8882C251.851 75.1956 261.106 77.8446 269.526 80.8353C273.717 82.3228 277.765 83.4413 281.67 84.191C300.057 87.7087 318.616 89.6823 337.346 90.1117C351.039 90.428 363.651 90.8145 376.854 90.2874C379.938 90.1625 382.537 89.2196 384.651 87.4588C387.204 85.333 390.085 82.639 393.178 81.6083C399.216 79.5898 404.824 78.5591 410.004 78.5162C413.738 78.481 417.505 78.6918 421.301 79.0022C427.138 79.4786 433.394 79.8807 440.071 80.2087C450.426 80.7123 462.999 81.4834 477.791 82.5219C482.914 82.8811 493.093 83.1895 508.326 83.4472C510.979 83.4941 514.111 83.7107 516.541 84.6478C520.487 86.1646 523.764 87.1016 528.106 86.7912C532.726 86.4574 537.257 85.8893 541.721 84.6419C551.212 81.9831 560.848 80.1618 570.545 79.5762C577.334 79.1662 584.073 78.8207 590.765 78.5396C602.173 78.0594 613.582 78.4459 625.001 77.9305C634.832 77.4894 643.874 77.2219 652.126 77.1282C653.512 77.1126 655.823 77.5694 659.059 78.4986C661.233 79.1194 663.222 80.8236 665.368 80.929C668.589 81.0891 671.333 81.4502 673.6 82.0124C680.221 83.6639 682.779 90.3167 682.121 96.7997C681.458 103.365 680.761 109.76 681.681 116.225C684.961 139.291 687.107 162.045 688.118 184.487C688.224 186.911 689.695 189.722 690.726 191.895C693.652 198.062 694.644 204.469 694.215 211.889C693.362 226.489 691.696 239.777 689.806 254.816C689.249 259.237 689.205 264.022 688.313 268.631C686.546 277.743 685.833 286.633 685.994 296.115C686.184 306.984 686.485 318.48 685.911 329.707C685.183 343.969 684.95 355.914 685.214 365.542C685.523 376.774 685.853 384.932 686.206 390.016C686.396 392.698 687.293 395.275 688.43 397.57C689.875 400.491 691.432 403.967 693.1 408C697.726 419.159 700.13 430.428 700.312 441.809C700.451 450.623 698.25 459.156 697.035 467.841C696.154 474.142 695.173 480.52 694.644 487.108C693.964 495.545 693.286 504.084 692.61 512.724C692.348 516.044 692.175 519.628 692.136 523.002C692.002 533.797 691.473 544.744 690.548 555.844C690.169 560.377 689.899 564.254 689.74 567.475C689.175 578.684 688.757 590.155 688.486 601.887C688.426 604.467 688.448 606.956 688.552 609.354C688.79 614.886 690.459 619.821 693.557 624.159C696.394 628.135 699.855 632.346 701.822 636.937C704.449 643.067 706.132 649.44 706.872 656.058C708.417 669.871 710.015 685.387 711.665 702.604C712.183 708.057 712.517 713.556 711.631 719.037C710.762 724.398 709.406 729.659 707.563 734.82C705.549 740.47 703.576 746.09 701.644 751.681C701.161 753.082 700.916 754.683 700.908 756.483C700.897 759.86 701.027 763.087 701.298 766.163C701.594 769.548 700.663 773.829 699.13 776.939C695.318 784.669 689.717 789.684 682.327 791.984C678.025 793.319 673.159 793.518 668.556 794.116C659.869 795.248 651.245 796.392 642.685 797.548C629.387 799.345 615.51 799.023 601.17 798.959C596.166 798.935 590.916 797.84 585.989 796.944C582.957 796.394 579.752 796.493 576.626 795.838C570.113 794.487 563.284 792.956 556.139 791.246C551.045 790.032 545.858 789.14 540.578 788.57C525.991 786.992 510.983 786.372 495.552 786.707ZM216.686 84.0211C215.055 83.9665 213.357 84.1226 211.592 84.4896C210.139 84.7903 208.555 85.3427 206.838 86.147C204.278 87.3495 201.766 88.2611 199.303 88.8819C193.329 90.387 186.635 91.3709 180.533 92.2669C174.016 93.2234 167.281 93.7017 160.33 93.7017C143.205 93.7056 129.402 93.6763 118.921 93.6138C115.906 93.5963 112.84 93.3503 109.775 93.2215C100.685 92.8291 91.6678 91.1308 82.5668 91.4001C80.0663 91.4743 77.5231 91.5934 74.9371 91.7574C72.6261 91.9018 70.7869 92.4582 69.4196 93.4264C67.7031 94.6367 65.8843 96.4249 63.9634 98.7909C62.6203 100.442 62.4977 102.152 63.1386 104.161C64.5059 108.475 65.4775 112.932 66.0534 117.531C66.5327 121.357 67.1216 126.054 67.8201 131.622C68.0913 133.8 68.214 136.154 68.1879 138.684C68.1656 141.144 68.0783 143.492 67.926 145.73C67.573 150.852 66.8114 156.527 65.641 162.754C65.0335 165.963 64.6657 169.032 64.2533 172.189C64.06 173.594 63.891 175.009 63.7461 176.434C62.7355 186.359 62.0054 195.446 61.5558 203.696C61.4722 205.213 61.2047 207.04 60.8424 208.498C59.3265 214.594 57.8887 220.597 57.7772 226.969C57.7363 229.202 58.0131 232.273 58.6076 236.181C60.0678 245.789 61.3403 255.958 62.4252 266.687C63.1163 273.515 63.473 278.798 62.8321 284.759C62.0964 291.682 61.3496 298.645 62.219 305.561C62.7652 309.91 63.0643 313.891 63.1163 317.502C63.2909 329.754 63.4526 341.982 63.6012 354.186C63.6495 358.192 63.7535 362.089 63.9133 365.876C64.3629 376.538 64.8923 387.244 65.5017 397.992C65.3679 399.394 65.3177 400.547 65.3512 401.453C65.6707 410.491 65.8788 419.524 65.9754 428.55C66.0831 435.293 66.1277 442.024 66.1091 448.743C66.098 454.113 65.6298 459.355 65.4794 464.871C65.2899 472.094 64.3759 479.177 62.7373 486.118C62.481 487.2 62.3584 488.389 62.3695 489.685C62.4308 496.156 57.532 502.891 54.1267 508.009C53.4988 508.95 53.0214 510.038 52.6944 511.271C51.6578 515.201 50.3815 520.232 51.4014 524.249C52.3935 528.146 53.3242 531.845 54.1936 535.347C56.4192 544.295 57.6564 553.886 57.9054 564.119C57.9722 566.809 57.8329 569.345 57.4874 571.727C57.1939 573.725 56.5529 576.181 55.5646 579.094C54.1973 583.131 52.9582 587.32 51.8473 591.662C51.0949 594.596 50.5989 598.847 49.7351 602.431C48.1114 609.174 46.6103 615.825 45.2319 622.384C45.191 622.575 45.2133 622.759 45.2988 622.934C45.4994 623.344 45.6295 623.768 45.6889 624.205C46.6661 631.139 47.7863 638.095 49.0495 645.071C49.3468 646.723 49.5864 648.31 49.7685 649.833C49.9617 651.445 50.1493 653.048 50.3314 654.641C51.0225 660.696 51.0838 666.851 51.5018 672.959C51.6021 674.394 51.8752 675.864 52.0535 677.299C52.3545 679.7 53.0901 682.049 53.2072 684.414C53.2666 685.683 53.5211 686.86 53.9707 687.946C56.7071 694.546 58.2732 701.134 58.3735 708.478C58.4293 712.39 58.8027 715.816 58.2398 719.91C57.6323 724.314 57.7438 728.571 58.0503 733.028C58.3958 738.029 58.1283 742.773 58.184 747.616C58.1877 747.956 58.2788 748.266 58.4571 748.547C60.313 751.423 62.52 754.123 64.3369 757.051C64.9611 758.05 65.5853 759.06 66.2095 760.079C67.1272 761.582 68.2455 762.968 69.5645 764.237C71.0544 765.669 72.732 767.036 74.5971 768.336C75.2213 768.773 75.16 769.023 74.4132 769.086C73.8968 769.133 73.3822 769.199 72.8694 769.285C72.2861 769.378 72.2898 769.437 72.8806 769.46C73.854 769.496 74.8201 769.509 75.7786 769.501C80.2001 769.462 84.4914 770.284 88.6527 771.967C89.6411 772.365 90.6721 772.597 91.7459 772.664C94.5436 772.828 97.3302 773.142 100.106 773.607C101.872 773.9 104.157 773.841 106.108 774.421C108.133 775.022 110.416 775.774 112.957 776.675C114.522 777.234 115.789 777.771 116.758 778.286C117.814 778.852 118.977 779.649 120.247 780.675C120.383 780.787 120.488 780.93 120.554 781.091C120.673 781.376 120.877 781.566 121.167 781.659C121.345 781.718 121.501 781.815 121.635 781.952C123.013 783.322 124.381 784.402 125.737 785.191C127.164 786.018 128.492 786.793 129.722 787.516C129.904 787.625 130.038 787.781 130.123 787.984C130.342 788.535 130.717 788.855 131.249 788.945C137.246 789.967 143.25 790.879 149.261 791.679C156.3 792.622 165.641 792.898 173.973 793.419C178.562 793.708 183.459 793.717 188.664 793.448C190.269 793.366 191.566 793.136 192.554 792.757C193.776 792.289 194.947 791.605 196.065 790.707C199.023 788.33 202.11 786.122 205.328 784.084C206.305 783.592 207.325 783.176 208.387 782.836C212.675 781.458 217.175 780.15 221.886 778.913C230.48 776.646 239.341 775.621 247.968 775.967C251.539 776.111 255.397 776.459 259.544 777.009C266.964 777.997 273.139 778.602 278.069 778.825C285.192 779.141 292.656 779.652 300.462 780.359C303.479 780.632 306.606 780.826 309.842 780.939C316.173 781.167 322.85 780.611 329.415 780.564C330.229 780.558 330.992 780.353 331.823 780.353C333.465 780.349 336.614 780.289 341.269 780.172C350.71 780.41 360.148 780.566 369.581 780.64C374.096 780.675 377.818 780.806 380.75 781.033C384.603 781.329 389.112 781.874 394.276 782.667C400.596 783.639 408.066 784.158 416.686 784.224C428.161 784.312 439.046 782.075 450.387 778.877C457.933 776.75 465.643 775.42 473.516 774.889C483.18 774.233 492.615 774.187 502.642 774.075C514.052 773.943 525.832 774.46 537.981 775.627C546.304 776.428 553.374 777.577 559.193 779.077C564.889 780.545 570.202 781.628 575.132 782.327C582.712 783.404 590.035 784.857 597.358 785.993C598.172 786.122 598.934 786.188 599.643 786.192C607.672 786.258 615.772 786.256 623.942 786.186C630.212 786.128 636.577 785.636 642.707 784.787C653.464 783.295 664.437 781.876 675.628 780.529C681.588 779.815 685.903 776.588 688.575 770.848C689.136 769.642 689.375 768.426 689.294 767.2C688.865 760.711 688.096 753.543 690.353 747.124C692.314 741.537 694.142 736.173 696.087 730.885C698.467 724.413 700.251 717.304 700.056 710.329C699.985 707.74 699.849 705.462 699.649 703.495C698.501 692.153 697.36 680.811 696.227 669.469C695.777 665.014 695.24 660.513 694.616 655.964C694.126 651.338 692.937 646.957 691.049 642.823C690.28 641.128 688.959 638.956 687.087 636.305C685.641 634.259 684.2 632.166 682.762 630.027C678.742 623.842 676.657 616.902 676.509 609.207C676.446 605.768 676.468 601.676 676.576 596.932C676.973 579.777 677.785 563.444 679.011 547.932C679.78 538.234 679.92 528.958 680.248 519.166C680.6 508.648 681.731 498.083 682.556 487.547C682.927 482.811 683.199 479.833 683.369 478.611C684.484 470.681 685.17 465.516 685.426 463.115C686.347 458.562 687.185 453.791 687.939 448.802C688.123 447.566 688.151 446.278 688.285 445.024C688.378 444.126 688.4 443.211 688.352 442.278C688.162 438.479 687.845 434.957 687.399 431.713C686.05 421.921 681.904 411.959 677.601 403.181C675.339 398.554 674.229 393.875 674.006 388.838C673.72 382.385 673.462 375.552 673.232 368.341C672.949 359.494 672.894 352.816 673.065 348.307C673.455 337.98 673.854 328.219 674.263 319.025C674.358 316.911 674.045 314.937 674.04 312.911C674.029 304.823 674.246 296.894 673.628 289.152C673.408 286.415 673.535 283.719 674.006 281.064C675.199 274.36 676.165 267.879 676.905 261.621C677.18 259.325 677.469 256.846 677.774 254.183C678.703 246.109 679.68 237.807 680.705 229.276C680.865 227.976 681.077 225.401 681.341 221.552C682.05 214.481 682.366 209.833 682.288 207.608C682.158 203.903 681.361 200.549 679.897 197.547C677.802 193.26 676.152 189.272 675.951 184.346C675.521 173.817 674.846 163.707 673.928 154.016C672.769 141.804 671.313 129.314 669.559 116.547C668.935 112.022 668.985 106.381 669.71 99.6225C669.882 97.9768 669.96 96.3019 669.994 94.6387C669.995 94.4945 669.944 94.3551 669.851 94.2494C669.758 94.1436 669.629 94.0796 669.492 94.0706C667.482 93.9262 665.478 93.7017 663.479 93.3972C659.455 92.7822 655.882 89.8424 651.725 89.8131C648.834 89.7896 645.646 89.8404 642.161 89.9653C635.562 90.2035 628.932 90.4495 622.27 90.7032C613.398 91.0429 604.615 90.9668 595.736 91.1307C589.323 91.2518 580.341 91.7047 568.79 92.4894C562.243 92.9345 554.693 94.3127 546.14 96.624C540.84 98.053 536.092 98.8787 530.742 99.3706C525.241 99.8743 519.991 99.5229 515.02 97.5259C513.099 96.7528 511.538 96.339 510.338 96.2843C504.066 96.0071 497.85 95.8197 491.69 95.7221C488.045 95.6636 484.345 95.4586 480.8 95.3356C478.11 95.2419 475.392 95.0935 472.647 94.8905C460.683 94.0082 449.687 93.3366 439.659 92.8759C432.518 92.5519 426.147 92.14 420.548 91.6402C418.531 91.4587 416.502 91.4528 414.485 91.2654C409.134 90.7618 403.505 91.6051 398.389 93.2039C397.447 93.4967 396.422 94.0238 395.642 94.6563C393.955 96.0228 392.277 97.3326 390.609 98.5859C383.498 103.915 375.294 102.884 367.079 103.195C360.675 103.441 353.72 103.013 347.545 102.984C330.708 102.914 313.927 102.024 297.291 99.6459C292.966 99.029 288.173 98.2677 282.912 97.3619C277.272 96.3898 271.649 95.0135 266.377 93.1278C260.276 90.9414 253.848 88.9873 247.093 87.2655C241.446 85.8249 237.825 84.9484 236.231 84.6361C229.87 83.3867 223.355 83.1817 216.686 84.0211Z" fill="black"/>
<path d="M681.34 221.552C680.675 220.619 680.019 219.766 679.373 218.993C678.816 218.319 678.437 217.482 678.325 216.609C678.158 215.246 677.853 214.042 677.411 212.996C676.991 212.008 676.631 211.055 676.33 210.138C675.907 208.839 675.443 207.548 674.942 206.273C674.522 205.203 674.095 204.112 673.66 202.999C673.441 202.433 672.832 201.503 671.832 200.211C671.108 199.274 670.355 198.427 669.575 197.67C666.804 194.976 664.095 192.288 661.449 189.605C658.031 186.142 655.583 182.605 654.104 178.994C651.724 173.184 650.677 166.473 650.487 159.966C650.231 151.225 650.654 142.13 651.758 132.682C652.114 129.642 652.254 126.737 652.454 123.721C652.462 123.6 652.428 123.479 652.357 123.381C652.286 123.283 652.185 123.215 652.07 123.188C645.895 121.789 641.001 117.748 634.921 116.137C627.405 114.146 620.479 112.838 614.144 112.214C605.792 111.386 598.078 111.142 591.004 111.482C579.863 112.015 568.84 112.858 557.448 114.931C553.948 115.569 550.348 115.64 546.775 115.897C543.275 116.155 539.339 116.789 534.966 117.801C527.453 119.546 519.188 118.831 510.828 117.83C507.785 117.467 504.753 117.326 501.777 117.151C497.179 116.887 493.222 115.587 488.814 114.41C484.69 113.309 478.881 112.344 471.387 111.517C469.38 111.294 466.898 111.212 463.941 111.271C458.067 111.382 452.638 111.113 446.809 110.053C442.423 109.256 437.741 107.646 433.578 107.628C429.268 107.616 424.685 107.601 419.829 107.581C416.429 107.564 413.637 108.102 410.226 108.987C402.048 111.107 395.114 114.568 389.421 119.37C387.055 121.361 384.701 123.391 382.36 125.461C379.031 128.408 375.197 130.177 370.857 130.767C365.67 131.473 360.454 131.743 355.208 131.575C352.874 131.501 350.493 131.171 348.063 130.585C343.114 129.39 338.581 128.416 334.464 127.663C328.88 126.638 323.128 124.746 317.549 122.96C312.182 121.238 306.67 120.278 301.538 118.269C300.085 117.699 298.705 117.262 297.397 116.957C294.27 116.225 290.909 116.424 287.694 116.372C284.305 116.313 280.839 115.522 277.3 115.224C272.852 114.843 268.567 114.111 263.985 113.695C260.827 113.41 257.894 112.335 255.185 110.468C251.262 107.763 246.508 105.66 243.231 102.978C241.061 101.202 238.997 99.4214 237.039 97.6372C232.736 93.7251 227.525 90.0415 222.682 86.4222C221.958 85.8796 219.959 85.0792 216.686 84.0211C223.355 83.1817 229.87 83.3867 236.231 84.6361C237.825 84.9484 241.445 85.8249 247.093 87.2656C253.848 88.9873 260.275 90.9414 266.376 93.1278C271.648 95.0135 277.272 96.3898 282.912 97.3619C288.173 98.2677 292.966 99.029 297.291 99.6459C313.927 102.024 330.708 102.914 347.544 102.984C353.719 103.013 360.675 103.441 367.078 103.195C375.293 102.884 383.497 103.915 390.609 98.5859C392.277 97.3326 393.954 96.0228 395.641 94.6563C396.421 94.0238 397.447 93.4967 398.389 93.2039C403.505 91.6051 409.134 90.7618 414.484 91.2654C416.502 91.4528 418.53 91.4587 420.548 91.6402C426.147 92.14 432.517 92.5519 439.658 92.8759C449.686 93.3366 460.682 94.0082 472.646 94.8905C475.392 95.0935 478.11 95.2419 480.8 95.3356C484.344 95.4586 488.045 95.6636 491.69 95.7221C497.85 95.8197 504.066 96.0071 510.338 96.2843C511.538 96.339 513.098 96.7528 515.019 97.5259C519.99 99.5229 525.24 99.8743 530.741 99.3706C536.091 98.8787 540.84 98.053 546.14 96.624C554.693 94.3127 562.243 92.9345 568.789 92.4894C580.341 91.7047 589.323 91.2518 595.736 91.1307C604.614 90.9668 613.397 91.0429 622.27 90.7032C628.932 90.4495 635.562 90.2035 642.161 89.9653C645.646 89.8404 648.834 89.7896 651.724 89.8131C655.882 89.8424 659.454 92.7822 663.478 93.3972C665.477 93.7017 667.482 93.9262 669.492 94.0706C669.629 94.0796 669.757 94.1436 669.85 94.2494C669.944 94.3551 669.995 94.4945 669.993 94.6387C669.96 96.3019 669.882 97.9768 669.709 99.6225C668.984 106.381 668.934 112.022 669.559 116.547C671.312 129.314 672.769 141.804 673.928 154.016C674.846 163.707 675.52 173.817 675.951 184.346C676.152 189.272 677.801 193.26 679.897 197.547C681.361 200.549 682.158 203.903 682.288 207.608C682.366 209.833 682.05 214.481 681.34 221.552Z" fill="#A99D91"/>
<path d="M216.686 84.0209C219.959 85.0789 221.958 85.8793 222.683 86.422C227.526 90.0412 232.737 93.7249 237.039 97.6369C238.997 99.4211 241.061 101.201 243.231 102.978C246.508 105.66 251.262 107.763 255.186 110.468C257.894 112.334 260.828 113.41 263.986 113.695C268.567 114.111 272.853 114.843 277.3 115.224C280.839 115.522 284.306 116.313 287.694 116.371C290.91 116.424 294.27 116.225 297.397 116.957C298.705 117.262 300.085 117.699 301.538 118.269C306.671 120.278 312.183 121.238 317.55 122.96C323.129 124.746 328.88 126.638 334.464 127.662C338.581 128.416 343.114 129.39 348.063 130.585C350.493 131.17 352.875 131.5 355.208 131.574C360.454 131.742 365.671 131.473 370.857 130.766C375.197 130.177 379.031 128.408 382.361 125.46C384.701 123.391 387.055 121.361 389.422 119.37C395.114 114.568 402.049 111.107 410.227 108.987C413.637 108.102 416.43 107.563 419.829 107.581C424.685 107.601 429.268 107.616 433.578 107.628C437.741 107.645 442.423 109.256 446.809 110.052C452.639 111.112 458.067 111.382 463.941 111.27C466.899 111.212 469.381 111.294 471.387 111.516C478.881 112.344 484.69 113.309 488.814 114.409C493.223 115.587 497.18 116.887 501.778 117.15C504.754 117.326 507.786 117.467 510.828 117.83C519.188 118.831 527.453 119.546 534.966 117.8C539.339 116.789 543.276 116.155 546.776 115.897C550.348 115.639 553.948 115.569 557.448 114.931C568.84 112.858 579.864 112.014 591.005 111.481C598.079 111.142 605.792 111.386 614.145 112.213C620.479 112.838 627.405 114.146 634.921 116.137C641.002 117.748 645.895 121.789 652.07 123.188C652.185 123.215 652.287 123.283 652.357 123.381C652.428 123.479 652.463 123.599 652.455 123.721C652.254 126.737 652.115 129.642 651.758 132.681C650.655 142.13 650.231 151.224 650.487 159.966C650.677 166.472 651.725 173.184 654.104 178.993C655.583 182.605 658.032 186.142 661.45 189.605C664.095 192.287 666.804 194.975 669.576 197.669C670.356 198.427 671.108 199.274 671.833 200.211C672.832 201.503 673.442 202.432 673.661 202.999C674.096 204.111 674.523 205.202 674.943 206.272C675.444 207.547 675.907 208.839 676.33 210.137C676.631 211.055 676.992 212.008 677.412 212.995C677.854 214.042 678.158 215.246 678.326 216.609C678.437 217.481 678.816 218.319 679.373 218.992C680.02 219.765 680.676 220.618 681.341 221.551C681.077 225.401 680.865 227.976 680.705 229.276C679.68 237.807 678.703 246.109 677.774 254.183C677.469 256.846 677.179 259.325 676.904 261.621C676.165 267.879 675.199 274.36 674.006 281.064C673.534 283.719 673.408 286.414 673.627 289.151C674.246 296.893 674.029 304.823 674.04 312.911C674.045 314.937 674.357 316.91 674.263 319.025C673.854 328.219 673.455 337.98 673.065 348.306C672.894 352.816 672.949 359.494 673.232 368.341C673.462 375.552 673.72 382.385 674.006 388.838C674.229 393.875 675.338 398.554 677.601 403.18C681.904 411.959 686.05 421.921 687.399 431.713C687.845 434.957 688.162 438.479 688.352 442.277C688.4 443.211 688.378 444.126 688.285 445.024C688.151 446.277 688.123 447.566 687.939 448.801C687.185 453.791 686.347 458.562 685.426 463.114C683.914 465.769 682.539 468.43 681.302 471.097C680.042 473.814 678.888 476.035 677.841 477.761C672.959 485.796 667.436 494.592 661.272 504.15C659.098 507.515 656.978 510.522 654.913 513.169C654.299 513.959 653.631 515.007 653.302 515.956C652.492 518.283 651.609 520.45 650.655 522.457C648.459 527.064 646.768 531.181 645.583 534.808C643.749 540.395 641.776 545.414 638.99 549.835C637.457 552.266 635.897 554.755 634.609 557.273C633.183 560.06 631.724 562.858 630.234 565.665C629.729 566.614 629.027 567.34 628.128 567.844C622.41 571.035 615.482 575.58 611.263 580.511C609.929 582.069 608.583 583.827 607.223 585.787C606.219 587.24 604.938 588.247 603.912 589.723C602.742 591.409 600.981 593.256 598.629 595.263C597.28 596.417 596.79 597.863 595.803 599.275C594.157 601.633 592.468 604.12 590.737 606.736C588.352 610.349 584.701 613.517 581.837 616.885C578.255 621.093 574.64 625.417 570.991 629.856C570.482 630.473 569.882 630.907 569.191 631.156C567.077 631.922 564.803 632.677 562.37 633.423C561.959 633.552 561.517 633.525 561.121 633.347C557.157 631.555 552.57 629.626 547.361 627.561C542.505 625.632 538.232 624.227 534.542 623.344C531.31 622.567 527.81 621.738 524.043 620.855C521.297 620.211 518.722 619.18 516.318 617.763C512.411 615.467 509.045 612.668 504.436 612.059C504.379 612.051 504.321 612.059 504.268 612.082C504.215 612.104 504.168 612.141 504.133 612.188C504.097 612.235 504.073 612.291 504.064 612.35C504.054 612.41 504.06 612.471 504.079 612.527C505.372 616.223 507.039 620.111 509.324 623.403C512.216 627.572 515.047 631.719 517.723 636C520.035 639.701 522.532 643.226 525.553 646.237C526.534 647.217 527.409 648.29 528.178 649.458C530.5 652.995 533.186 656.405 536.237 659.689C538.304 661.914 539.675 664.655 541.882 666.781C544.491 669.293 546.486 672.508 550.331 673.047C551.44 673.205 552.516 673.557 553.631 673.715C556.154 674.062 558.645 674.384 561.104 674.681C563.518 674.974 566.416 675.911 568.411 676.707C570.042 677.355 571.578 677.18 573.02 676.18C575.989 674.123 578.922 672.055 581.82 669.978C584.038 668.385 586.396 667.355 588.965 666.605C595.118 664.813 600.858 661.943 607.078 660.333C609.887 659.603 612.183 659.218 613.966 659.179C616.619 659.125 619.001 658.888 621.111 658.471C628.557 657.001 636.075 653.493 643.404 650.418C647.03 648.899 650.866 647.451 654.913 646.073C659.07 644.659 661.946 643.394 663.54 642.278C669.774 637.921 676.182 633.837 682.762 630.026C684.2 632.166 685.641 634.258 687.087 636.304C688.959 638.955 690.28 641.128 691.049 642.822C692.937 646.957 694.126 651.338 694.616 655.964C692.703 660.149 691.38 663.31 690.648 665.445C688.792 670.839 688.341 676.379 688.029 681.99C687.622 689.257 685.431 696.958 680.633 702.463C679.78 703.441 679.306 704.8 678.699 705.661C675.671 709.96 672.45 714.09 669.035 718.053C667.322 720.04 665.981 721.633 665.011 722.832C662.002 726.551 658.931 730.726 655.219 733.654C651.318 736.723 647.374 739.891 643.387 743.159C642.44 743.938 641.197 744.781 639.999 744.91C638.119 745.117 636.958 745.346 636.515 745.596C634.36 746.825 632.085 748.416 629.688 750.368C629.331 750.657 629.032 750.987 628.791 751.358C628.111 752.395 627.425 753.338 626.578 754.234C623.896 757.064 621.224 759.914 618.564 762.784C617.814 763.588 616.978 764.182 616.056 764.564C613.537 765.601 610.544 767.645 607.557 766.971C590.143 763.067 573.748 759.321 558.374 755.733C550.515 753.9 542.384 751.311 534.498 749.098C533.376 748.785 532.224 748.237 531.042 747.452C528.691 745.9 526.584 745.783 523.825 746.538C519.573 747.71 515.421 748.939 511.141 749.853C507.459 750.634 504.813 751.257 503.204 751.721C500.355 752.545 497.416 753.381 494.388 754.228C489.6 755.563 485.281 756.043 480.382 756.547C472.106 757.39 463.596 759.329 455.186 760.81C444.504 762.696 433.95 764.478 423.524 766.157C421.451 766.489 419.543 766.602 417.801 766.497C405.523 765.747 393.819 764.242 381.424 762.667C379.914 762.479 378.454 762.069 376.938 761.946C371.443 761.505 366.024 760.923 360.681 760.201C357.426 759.762 354.244 758.468 351.028 757.765C346.213 756.711 341.184 755.608 335.941 754.456C334.888 754.228 334.08 753.531 333.406 752.693C331.767 750.655 330.002 748.485 328.111 746.181C326.205 743.856 324.945 742.568 322.46 742.62C318.217 742.702 313.948 742.771 309.652 742.825C307.228 742.861 304.754 743.323 302.357 743.833C301.584 743.993 300.76 743.942 299.883 743.68C293.771 741.838 289.92 740.561 288.329 739.85C282.645 737.301 277.731 735.325 273.588 733.924C266.494 731.529 260.803 725.83 254.645 721.678C249.64 718.305 244.52 714.846 239.285 711.301C232.848 706.949 225.475 704.952 218.218 702.581C215.094 701.558 211.67 700.433 207.947 699.207C197.743 695.846 187.343 693.773 176.726 693.667C167.304 693.577 158.312 694.224 149.752 695.606C147.441 695.977 144.988 696.488 142.395 697.14C139.28 697.925 135.295 697.954 131.784 698.709C130.379 699.01 128.865 699.201 127.242 699.284C126.654 699.315 126.036 699.225 125.386 699.014C125.16 698.942 124.96 698.8 124.813 698.605C124.665 698.411 124.577 698.173 124.561 697.925C124.232 692.847 125.402 688.244 128.094 684.092C129.259 682.288 131.042 678.517 129.928 676.573C126.354 670.338 123.266 665.199 120.665 661.159C118.44 657.707 116.922 654.935 116.112 652.843C115.083 650.176 114.284 647.039 113.715 643.431C112.939 638.473 112.478 633.505 112.333 628.527C112.188 623.578 111.921 618.507 111.503 613.453C111.046 607.971 109.885 601.512 108.02 594.074C106.039 586.195 104.046 578.262 102.039 570.274C100.865 565.612 99.7749 560.582 98.768 555.182C95.5281 537.824 93.048 520.313 91.3278 502.651C91.0677 499.996 90.9061 496.925 90.8429 493.439C90.802 491.264 90.9042 489.208 91.1494 487.272C91.4281 485.089 91.612 482.969 91.7012 480.912C91.8015 478.64 92.3644 476.49 92.7044 474.241C92.9124 472.867 92.5037 471.868 91.4783 471.243C91.2594 471.11 91.081 470.914 90.9636 470.679C90.8462 470.444 90.7947 470.178 90.815 469.914C91.0826 466.372 91.1439 463.097 90.999 460.087C90.7705 455.343 90.8819 450.675 90.7147 445.973C90.6033 442.76 90.1333 440.245 89.3047 438.43C88.766 437.243 88.2049 436.019 87.6216 434.758C87.0085 433.43 86.4679 431.455 85.9998 428.831C85.2641 424.685 84.8963 419.49 84.8461 414.946C84.7848 409.464 84.6901 404.018 84.3501 398.548C83.9414 392.032 83.5067 385.635 83.046 379.357C82.3661 370.022 79.4123 359.574 76.5755 350.081C75.981 348.09 75.5482 345.954 75.2769 343.674C74.7568 339.356 74.4187 335.596 74.2626 332.395C73.6124 319.253 73.0161 304.171 72.4736 287.148C72.3733 284.088 72.1875 281.046 71.9163 278.024C70.98 267.635 69.7428 257.164 69.4529 246.705C69.1929 237.436 69.0405 227.365 68.9959 216.492C68.9514 205.581 67.7921 196.006 66.3097 184.902C65.9047 181.861 65.5591 178.554 65.273 174.982C65.2656 174.845 65.1987 174.757 65.0724 174.718C65.0278 174.703 64.9888 174.675 64.9554 174.636C64.8402 174.507 64.7715 174.343 64.7492 174.144C64.6748 173.461 64.5095 172.809 64.2531 172.188C64.6656 169.032 65.0334 165.963 65.6409 162.754C66.8112 156.526 67.5729 150.852 67.9259 145.729C68.0782 143.492 68.1655 141.144 68.1878 138.684C68.2138 136.154 68.0912 133.8 67.82 131.621C67.1215 126.054 66.5326 121.357 66.0533 117.531C65.4774 112.932 64.5058 108.475 63.1385 104.161C62.4976 102.152 62.6202 100.442 63.9633 98.7906C65.8842 96.4246 67.703 94.6365 69.4195 93.4262C70.7868 92.4579 72.626 91.9016 74.937 91.7571C77.523 91.5931 80.0662 91.4741 82.5667 91.3999C91.6677 91.1305 100.685 92.8288 109.775 93.2212C112.84 93.35 115.906 93.596 118.921 93.6136C129.402 93.6761 143.205 93.7053 160.33 93.7014C167.281 93.7014 174.016 93.2232 180.532 92.2666C186.635 91.3706 193.329 90.3867 199.303 88.8817C201.766 88.2609 204.278 87.3492 206.838 86.1467C208.555 85.3425 210.139 84.79 211.592 84.4894C213.357 84.1224 215.055 83.9662 216.686 84.0209Z" fill="#837C70"/>
<path d="M64.2534 172.188C64.5098 172.809 64.6751 173.461 64.7495 174.144C64.7717 174.344 64.8405 174.508 64.9557 174.636C64.9891 174.675 65.0281 174.703 65.0727 174.718C65.199 174.757 65.2659 174.845 65.2733 174.982C65.5594 178.554 65.905 181.861 66.31 184.903C67.7924 196.006 68.9517 205.581 68.9962 216.492C69.0408 227.365 69.1932 237.436 69.4532 246.705C69.743 257.164 70.9803 267.635 71.9166 278.024C72.1878 281.046 72.3736 284.088 72.4739 287.149C73.0164 304.171 73.6127 319.253 74.2629 332.395C74.419 335.596 74.7571 339.356 75.2772 343.674C75.5485 345.954 75.9813 348.09 76.5758 350.081C79.4126 359.574 82.3664 370.022 83.0463 379.357C83.507 385.635 83.9417 392.032 84.3504 398.548C84.6904 404.018 84.7851 409.464 84.8464 414.946C84.8966 419.491 85.2644 424.685 86.0001 428.831C86.4682 431.455 87.0088 433.431 87.6219 434.758C88.2052 436.019 88.7663 437.243 89.305 438.43C90.1336 440.246 90.6036 442.76 90.715 445.973C90.8822 450.676 90.7708 455.343 90.9993 460.087C91.1442 463.097 91.0828 466.373 90.8153 469.914C90.795 470.179 90.8465 470.444 90.9639 470.679C91.0813 470.915 91.2597 471.11 91.4785 471.243C92.504 471.868 92.9127 472.867 92.7047 474.242C92.3647 476.49 91.8018 478.64 91.7015 480.912C91.6123 482.97 91.4284 485.09 91.1497 487.272C90.9045 489.209 90.8023 491.264 90.8432 493.439C90.9064 496.925 91.068 499.996 91.3281 502.651C93.0483 520.314 95.5284 537.824 98.7683 555.182C99.7752 560.582 100.866 565.612 102.04 570.274C104.046 578.262 106.039 586.196 108.02 594.074C109.885 601.512 111.046 607.971 111.503 613.453C111.921 618.507 112.189 623.579 112.333 628.527C112.478 633.505 112.939 638.473 113.716 643.432C114.284 647.039 115.083 650.176 116.112 652.843C116.922 654.936 118.44 657.707 120.665 661.159C123.266 665.2 126.354 670.338 129.928 676.573C131.043 678.517 129.259 682.289 128.095 684.092C125.403 688.245 124.232 692.848 124.561 697.925C124.578 698.174 124.666 698.411 124.813 698.605C124.96 698.8 125.16 698.942 125.386 699.014C126.036 699.225 126.655 699.315 127.242 699.284C128.865 699.202 130.38 699.01 131.784 698.71C135.295 697.954 139.28 697.925 142.395 697.14C144.989 696.488 147.441 695.977 149.752 695.606C158.312 694.224 167.304 693.578 176.726 693.667C187.343 693.773 197.743 695.846 207.947 699.208C211.67 700.434 215.094 701.558 218.219 702.581C225.475 704.953 232.848 706.95 239.285 711.301C244.521 714.846 249.641 718.305 254.645 721.678C260.804 725.831 266.494 731.529 273.589 733.924C277.731 735.326 282.645 737.301 288.33 739.851C289.92 740.561 293.771 741.838 299.883 743.681C300.76 743.942 301.585 743.993 302.357 743.833C304.754 743.323 307.228 742.861 309.653 742.826C313.948 742.771 318.217 742.703 322.46 742.621C324.946 742.568 326.205 743.856 328.111 746.181C330.002 748.485 331.767 750.656 333.406 752.694C334.08 753.531 334.888 754.228 335.942 754.456C341.184 755.608 346.213 756.711 351.028 757.765C354.244 758.468 357.426 759.762 360.681 760.201C366.024 760.924 371.443 761.506 376.938 761.947C378.454 762.07 379.914 762.48 381.424 762.667C393.819 764.242 405.523 765.747 417.801 766.497C419.543 766.602 421.451 766.489 423.524 766.157C433.95 764.479 444.504 762.696 455.186 760.811C463.596 759.329 472.106 757.39 480.382 756.547C485.281 756.043 489.6 755.563 494.388 754.228C497.416 753.381 500.355 752.545 503.205 751.721C504.813 751.257 507.459 750.634 511.141 749.853C515.421 748.94 519.573 747.71 523.825 746.539C526.584 745.783 528.691 745.9 531.043 747.452C532.224 748.237 533.376 748.786 534.498 749.098C542.384 751.312 550.516 753.9 558.374 755.733C573.748 759.321 590.143 763.067 607.557 766.971C610.544 767.645 613.537 765.601 616.056 764.565C616.978 764.182 617.814 763.588 618.564 762.784C621.225 759.915 623.896 757.064 626.579 754.234C627.426 753.338 628.111 752.395 628.791 751.358C629.033 750.987 629.332 750.658 629.688 750.369C632.085 748.417 634.361 746.826 636.516 745.596C636.958 745.346 638.119 745.117 639.999 744.911C641.197 744.782 642.44 743.938 643.387 743.159C647.374 739.892 651.318 736.723 655.219 733.655C658.931 730.727 662.002 726.551 665.011 722.832C665.981 721.634 667.322 720.041 669.035 718.053C672.45 714.091 675.671 709.96 678.699 705.661C679.307 704.8 679.78 703.442 680.633 702.464C685.432 696.959 687.622 689.258 688.029 681.99C688.341 676.38 688.792 670.839 690.648 665.446C691.38 663.31 692.703 660.15 694.616 655.964C695.24 660.513 695.777 665.014 696.227 669.469C697.36 680.811 698.501 692.153 699.649 703.494C699.849 705.462 699.985 707.74 700.056 710.329C700.251 717.304 698.467 724.413 696.088 730.885C694.143 736.173 692.315 741.537 690.353 747.124C688.096 753.543 688.865 760.711 689.294 767.2C689.376 768.426 689.136 769.642 688.575 770.848C685.904 776.588 681.588 779.814 675.628 780.529C664.437 781.876 653.464 783.295 642.707 784.786C636.577 785.636 630.212 786.128 623.942 786.186C615.772 786.256 607.672 786.258 599.643 786.192C598.934 786.188 598.172 786.122 597.358 785.993C590.035 784.857 582.712 783.404 575.132 782.327C570.202 781.628 564.889 780.545 559.193 779.077C553.375 777.577 546.304 776.428 537.981 775.627C525.832 774.46 514.052 773.943 502.642 774.075C492.615 774.186 483.18 774.233 473.516 774.889C465.643 775.42 457.933 776.75 450.387 778.877C439.046 782.075 428.161 784.312 416.686 784.224C408.066 784.158 400.596 783.639 394.276 782.666C389.112 781.874 384.603 781.329 380.75 781.033C377.819 780.806 374.096 780.675 369.581 780.64C360.148 780.566 350.711 780.41 341.27 780.172C339.542 779.367 338.463 778.77 338.032 778.38C336.363 776.873 334.673 775.395 332.96 773.946C331.695 772.875 329.883 771.949 328.295 771.498C324.528 770.433 321.657 769.704 319.685 769.314C309.575 767.311 298.941 765.32 288.508 763.996C278.337 762.708 268.227 760.863 257.649 760.389C257.199 760.37 256.759 760.239 256.367 760.008C252.86 757.958 249.34 755.903 245.806 753.841C243.142 752.29 240.356 750.984 237.491 750.211C231.62 748.625 225.011 747.585 217.661 747.089C215.956 746.976 214.243 746.728 212.523 746.345C209.865 745.754 207.167 745.66 204.52 746.193C200.557 746.984 196.756 748.296 192.738 748.969C189.283 749.551 185.941 750.093 182.712 750.597C182.456 750.64 182.201 750.626 181.948 750.556C173.852 748.327 166.561 746.062 160.074 743.763C156.421 742.47 153.258 741.582 150.582 741.098C143.856 739.88 136.772 740.079 130.218 739.271C128.215 739.021 126.253 738.346 124.333 737.245C120.851 735.25 117.479 732.989 114.217 730.463C112.675 729.268 111.163 727.828 109.681 726.141C107.685 723.865 105.458 721.524 102.998 719.119C102.285 718.424 101.391 717.819 100.318 717.304C98.4339 716.396 95.664 714.944 94.8893 712.777C94.2373 710.95 93.2118 709.321 93.2341 707.289C93.2787 703.412 93.483 699.889 93.8472 696.719C94.2893 692.9 94.5884 689.248 94.7444 685.761C94.8671 683.001 94.6646 680.241 94.137 677.48C93.8917 676.204 93.9363 674.078 94.2261 672.608C95.1364 667.962 95.5488 663.624 95.4634 659.595C95.3222 653.13 94.9692 646.332 94.4045 639.203C94.0998 635.385 93.8137 631.491 93.5462 627.52C92.8607 617.289 91.7906 606.964 89.9403 596.417C87.3544 581.69 85.387 566.553 84.0383 551.007C83.6649 546.685 82.3831 542.333 82.3608 538.011C82.3441 534.954 82.2382 532.553 80.5662 529.848C79.8696 528.717 79.6856 526.51 79.942 525.186C80.2801 523.445 80.4975 521.805 80.5941 520.267C80.9285 514.918 81.2982 508.78 81.7032 501.854C82.2382 492.625 81.9205 483.612 80.243 475.149C79.1246 469.535 77.67 462.861 75.8791 455.127C74.8983 450.875 75.1212 446.09 75.2327 441.686C75.2921 439.441 75.0822 437.064 74.6029 434.553C74.0604 431.734 73.492 429.241 72.8975 427.075C71.389 421.554 70.4081 416.324 69.9548 411.385C69.7431 409.096 69.3752 406.624 68.6005 404.545C67.9541 402.812 66.9212 400.627 65.5018 397.992C64.8925 387.244 64.363 376.538 63.9135 365.876C63.7537 362.089 63.6497 358.192 63.6014 354.186C63.4528 341.982 63.2911 329.754 63.1165 317.502C63.0645 313.891 62.7654 309.91 62.2192 305.561C61.3498 298.645 62.0966 291.682 62.8323 284.759C63.4732 278.798 63.1165 273.515 62.4254 266.687C61.3405 255.958 60.068 245.789 58.6078 236.181C58.0133 232.273 57.7365 229.202 57.7774 226.969C57.8888 220.597 59.3267 214.594 60.8426 208.498C61.2049 207.04 61.4724 205.212 61.556 203.696C62.0056 195.446 62.7357 186.359 63.7463 176.434C63.8912 175.009 64.0602 173.594 64.2534 172.188Z" fill="#706960"/>
<path d="M65.5018 397.992C66.9211 400.627 67.954 402.812 68.6005 404.545C69.3752 406.624 69.743 409.096 69.9548 411.385C70.4081 416.324 71.389 421.554 72.8974 427.075C73.4919 429.241 74.0604 431.734 74.6028 434.553C75.0821 437.064 75.2921 439.441 75.2326 441.686C75.1211 446.09 74.8982 450.875 75.8791 455.127C77.67 462.861 79.1246 469.535 80.2429 475.149C81.9205 483.612 82.2381 492.625 81.7031 501.854C81.2981 508.78 80.9284 514.918 80.594 520.267C80.4974 521.805 80.2801 523.445 79.942 525.186C79.6856 526.51 79.8695 528.717 80.5662 529.848C82.2381 532.553 82.344 534.954 82.3607 538.011C82.383 542.333 83.6649 546.685 84.0383 551.007C85.387 566.553 87.3543 581.69 89.9403 596.417C91.7906 606.964 92.8607 617.289 93.5462 627.52C93.8137 631.491 94.0998 635.385 94.4044 639.203C94.9692 646.333 95.3222 653.13 95.4633 659.595C95.5488 663.624 95.1364 667.962 94.2261 672.608C93.9363 674.078 93.8917 676.204 94.1369 677.481C94.6645 680.241 94.867 683.001 94.7444 685.761C94.5884 689.248 94.2893 692.9 93.8471 696.719C93.483 699.889 93.2786 703.412 93.2341 707.289C93.2118 709.322 94.2372 710.95 94.8893 712.777C95.664 714.944 98.4339 716.396 100.318 717.304C101.391 717.819 102.285 718.424 102.998 719.119C105.458 721.524 107.685 723.865 109.681 726.141C111.163 727.828 112.675 729.268 114.217 730.463C117.479 732.989 120.851 735.25 124.333 737.245C126.253 738.346 128.215 739.021 130.218 739.271C136.772 740.079 143.855 739.88 150.582 741.098C153.257 741.582 156.421 742.47 160.074 743.763C166.561 746.062 173.852 748.327 181.948 750.556C182.201 750.626 182.456 750.64 182.712 750.597C185.941 750.094 189.283 749.551 192.738 748.969C196.756 748.296 200.557 746.984 204.52 746.193C207.167 745.66 209.865 745.754 212.523 746.345C214.243 746.728 215.956 746.976 217.661 747.089C225.011 747.585 231.62 748.625 237.491 750.211C240.356 750.984 243.142 752.29 245.806 753.842C249.34 755.903 252.86 757.959 256.367 760.008C256.759 760.239 257.199 760.37 257.649 760.389C268.227 760.863 278.337 762.708 288.508 763.996C298.941 765.32 309.575 767.311 319.685 769.314C321.657 769.704 324.528 770.433 328.295 771.498C329.883 771.949 331.695 772.875 332.96 773.946C334.673 775.395 336.363 776.873 338.032 778.38C338.463 778.77 339.542 779.367 341.27 780.172C336.614 780.289 333.465 780.349 331.823 780.353C330.993 780.353 330.229 780.558 329.415 780.564C322.85 780.611 316.173 781.167 309.842 780.939C306.606 780.826 303.48 780.632 300.463 780.359C292.656 779.652 285.192 779.141 278.069 778.825C273.139 778.602 266.964 777.997 259.544 777.009C255.398 776.459 251.539 776.111 247.969 775.967C239.341 775.621 230.48 776.646 221.886 778.913C217.175 780.15 212.675 781.458 208.388 782.836C207.325 783.176 206.305 783.592 205.328 784.084C203.909 783.451 202.487 783.332 201.064 783.727C200.958 783.757 200.846 783.757 200.74 783.725C200.634 783.694 200.538 783.633 200.462 783.549C200.387 783.464 200.334 783.36 200.311 783.247C200.287 783.134 200.294 783.016 200.329 782.907C200.702 781.712 201.661 778.467 201.131 777.285C200.284 775.393 195.508 775.293 193.83 775.241C188.19 775.069 183.459 775.436 179.635 776.342C176.336 777.126 172.736 777.513 169.654 778.866C165.357 780.746 160.804 781.109 155.905 780.992C150.982 780.874 145.973 780.753 140.879 780.628C139.984 780.609 139.161 780.373 138.41 779.92C134.375 777.513 130.714 775.41 126.01 773.993C121.39 772.599 117.455 771.147 113.493 768.746C110.847 767.145 108.703 766.181 107.061 765.853C101.655 764.779 95.4318 763.893 88.3909 763.194C86.9196 763.054 85.5096 762.761 84.0494 762.527C81.3241 762.087 79.0781 760.319 77.2222 758.333C73.6145 754.468 69.8879 750.57 66.0424 746.638C63.6794 744.225 60.681 740.706 60.6197 737.438C60.5677 734.545 60.759 731.457 61.1937 728.173C62.5201 718.139 63.9227 709.608 65.4015 702.581C65.9922 699.781 66.3749 697.234 66.5496 694.938C66.7093 692.861 66.7539 690.527 66.6833 687.934C66.5774 684.087 66.2765 680.227 66.1873 676.426C66.1594 675.255 65.8473 674.084 65.8529 672.913C65.8752 669.703 65.3959 666.43 65.4238 663.261C65.4721 658.627 65.3773 654.012 65.1395 649.417C65.1065 648.818 64.9605 648.234 64.7104 647.701C63.6013 645.329 62.5146 642.975 62.5759 640.24C62.6427 637.218 62.7431 634.155 62.2749 631.145C61.7547 627.76 61.4724 625.48 61.4278 624.305C61.2569 619.944 61.3498 615.93 61.7064 612.264C61.8681 610.624 61.751 608.856 61.9071 607.14C62.0185 605.941 62.1226 604.68 62.2192 603.357C62.4495 600.268 62.8248 597.081 63.345 593.793C63.9283 590.084 64.3556 586.408 64.6268 582.766C64.8665 579.551 65.329 576.353 65.7191 573.173C65.9309 571.416 65.7637 569.694 66.1594 567.949C66.3935 566.93 66.2486 565.8 66.3991 564.74C66.9415 560.996 67.4004 557.46 67.7757 554.134C68.0655 551.577 68.2197 547.885 68.2382 543.06C68.2457 540.823 68.3553 538.771 68.5671 536.905C68.8197 534.71 69.0761 532.434 69.3362 530.076C69.5201 528.407 69.4421 526.791 69.6594 525.139C69.8229 523.874 69.9102 522.621 69.9213 521.379C69.9474 517.725 69.9585 514.147 69.9548 510.645C69.9548 509.251 69.6817 507.945 69.6037 506.563C69.4662 503.97 69.2358 501.321 68.9126 498.616C68.6507 496.408 68.9572 494.27 68.4444 492.15C68.2067 491.163 68.1565 490.138 68.294 489.076C68.7621 485.474 68.9962 481.638 69.0965 478.048C69.1597 475.897 69.2581 473.748 69.3919 471.6C69.5182 469.617 69.2767 467.103 68.6674 464.057C68.4444 462.945 68.4073 461.934 68.5559 461.024C69.1578 457.358 68.8457 454.26 68.0878 450.764C67.7942 449.401 67.588 447.88 67.4691 446.201C67.2165 442.559 66.9936 438.916 66.8003 435.273C66.6815 433.013 66.4065 430.772 65.9755 428.55C65.8789 419.524 65.6708 410.491 65.3513 401.453C65.3179 400.547 65.368 399.394 65.5018 397.992Z" fill="#4C4641"/>
<path d="M65.9762 428.55C66.4072 430.772 66.6821 433.013 66.801 435.273C66.9942 438.916 67.2172 442.559 67.4698 446.201C67.5887 447.88 67.7949 449.401 68.0884 450.763C68.8464 454.26 69.1585 457.358 68.5566 461.024C68.408 461.933 68.4451 462.945 68.6681 464.057C69.2774 467.103 69.5189 469.617 69.3926 471.6C69.2588 473.748 69.1603 475.897 69.0972 478.048C68.9969 481.638 68.7628 485.474 68.2946 489.076C68.1572 490.138 68.2073 491.163 68.4451 492.15C68.9579 494.27 68.6513 496.408 68.9133 498.616C69.2365 501.321 69.4669 503.97 69.6043 506.563C69.6824 507.945 69.9555 509.251 69.9555 510.645C69.9592 514.147 69.948 517.725 69.922 521.379C69.9109 522.621 69.8236 523.874 69.6601 525.139C69.4427 526.791 69.5208 528.407 69.3368 530.076C69.0768 532.434 68.8204 534.71 68.5677 536.905C68.3559 538.771 68.2463 540.822 68.2389 543.06C68.2203 547.885 68.0661 551.577 67.7763 554.134C67.4011 557.46 66.9422 560.996 66.3998 564.74C66.2493 565.8 66.3942 566.93 66.1601 567.949C65.7644 569.694 65.9316 571.416 65.7198 573.173C65.3297 576.353 64.8671 579.55 64.6275 582.766C64.3562 586.408 63.929 590.084 63.3456 593.793C62.8255 597.081 62.4502 600.268 62.2198 603.357C62.1232 604.68 62.0192 605.941 61.9078 607.14C61.7517 608.856 61.8687 610.624 61.7071 612.264C61.3504 615.93 61.2575 619.944 61.4285 624.305C61.473 625.48 61.7554 627.76 62.2756 631.145C62.7437 634.155 62.6434 637.218 62.5765 640.24C62.5152 642.975 63.602 645.329 64.7111 647.701C64.9612 648.234 65.1071 648.818 65.1402 649.417C65.378 654.012 65.4727 658.627 65.4244 663.261C65.3966 666.43 65.8759 669.703 65.8536 672.913C65.848 674.084 66.1601 675.255 66.188 676.426C66.2771 680.227 66.5781 684.086 66.684 687.934C66.7546 690.526 66.71 692.861 66.5502 694.938C66.3756 697.234 65.9929 699.781 65.4022 702.581C63.9234 709.608 62.5208 718.139 61.1944 728.173C60.7597 731.457 60.5683 734.545 60.6203 737.438C60.6816 740.706 63.68 744.225 66.0431 746.638C69.8886 750.57 73.6152 754.468 77.2229 758.333C79.0788 760.319 81.3248 762.087 84.0501 762.526C85.5103 762.761 86.9203 763.053 88.3916 763.194C95.4324 763.893 101.656 764.779 107.062 765.853C108.704 766.181 110.848 767.145 113.493 768.746C117.456 771.147 121.391 772.599 126.011 773.993C130.715 775.41 134.376 777.513 138.411 779.92C139.162 780.373 139.985 780.609 140.88 780.628C145.974 780.753 150.982 780.874 155.905 780.991C160.804 781.109 165.358 780.746 169.654 778.866C172.736 777.513 176.337 777.126 179.636 776.342C183.459 775.436 188.191 775.069 193.831 775.241C195.509 775.293 200.285 775.393 201.132 777.284C201.661 778.467 200.703 781.712 200.329 782.907C200.294 783.016 200.288 783.134 200.312 783.247C200.335 783.36 200.387 783.464 200.463 783.549C200.539 783.633 200.635 783.694 200.741 783.725C200.847 783.756 200.959 783.757 201.065 783.726C202.488 783.332 203.909 783.451 205.329 784.084C202.111 786.122 199.023 788.33 196.066 790.707C194.948 791.605 193.777 792.288 192.555 792.757C191.566 793.136 190.27 793.366 188.665 793.448C183.459 793.717 178.562 793.708 173.974 793.419C165.642 792.897 156.301 792.622 149.262 791.679C143.251 790.879 137.246 789.967 131.25 788.944C130.718 788.855 130.343 788.534 130.124 787.984C130.038 787.781 129.905 787.625 129.722 787.515C128.493 786.793 127.164 786.018 125.738 785.19C124.382 784.402 123.014 783.322 121.636 781.952C121.502 781.815 121.346 781.718 121.168 781.659C120.878 781.565 120.673 781.376 120.555 781.091C120.489 780.93 120.383 780.787 120.248 780.675C118.977 779.648 117.814 778.852 116.759 778.286C115.789 777.77 114.523 777.234 112.958 776.675C110.417 775.773 108.134 775.022 106.109 774.421C104.158 773.841 101.873 773.899 100.106 773.607C97.331 773.142 94.5444 772.828 91.7467 772.664C90.6729 772.597 89.6419 772.365 88.6536 771.967C84.4922 770.284 80.2009 769.462 75.7795 769.501C74.8209 769.509 73.8548 769.495 72.8814 769.46C72.2906 769.437 72.2869 769.378 72.8702 769.285C73.383 769.199 73.8976 769.132 74.414 769.086C75.1608 769.023 75.2221 768.773 74.5979 768.336C72.7328 767.036 71.0552 765.669 69.5653 764.236C68.2463 762.968 67.128 761.582 66.2103 760.078C65.5861 759.059 64.9619 758.05 64.3377 757.051C62.5208 754.123 60.3138 751.423 58.4579 748.547C58.2796 748.266 58.1886 747.956 58.1848 747.616C58.1291 742.773 58.3966 738.029 58.0511 733.028C57.7446 728.571 57.6331 724.314 58.2406 719.91C58.8035 715.816 58.4301 712.39 58.3743 708.478C58.274 701.134 56.7079 694.546 53.9715 687.946C53.5219 686.86 53.2674 685.683 53.208 684.414C53.0909 682.048 52.3553 679.7 52.0543 677.299C51.876 675.864 51.6029 674.394 51.5026 672.959C51.0846 666.851 51.0233 660.696 50.3322 654.641C50.1501 653.048 49.9625 651.445 49.7693 649.833C49.5873 648.31 49.3476 646.723 49.0504 645.071C47.7871 638.095 46.6669 631.139 45.6897 624.205C45.6303 623.768 45.5002 623.344 45.2996 622.934C45.2141 622.759 45.1919 622.575 45.2327 622.384C46.6112 615.825 48.1122 609.174 49.7359 602.431C50.5997 598.847 51.0957 594.595 51.8481 591.661C52.959 587.32 54.1981 583.131 55.5654 579.094C56.5538 576.181 57.1947 573.725 57.4882 571.726C57.8337 569.345 57.9731 566.809 57.9062 564.119C57.6572 553.886 56.42 544.295 54.1944 535.347C53.325 531.845 52.3943 528.145 51.4023 524.249C50.3824 520.231 51.6586 515.201 52.6952 511.271C53.0222 510.038 53.4996 508.95 54.1276 508.009C57.5328 502.891 62.4316 496.156 62.3703 489.685C62.3592 488.389 62.4818 487.2 62.7382 486.118C64.3767 479.177 65.2907 472.094 65.4802 464.871C65.6307 459.355 66.0988 454.113 66.1099 448.743C66.1285 442.024 66.0839 435.293 65.9762 428.55Z" fill="#393532"/>
<path d="M685.425 463.115C685.169 465.516 684.483 470.681 683.369 478.61C683.198 479.832 682.926 482.811 682.555 487.547C681.73 498.083 680.599 508.648 680.248 519.166C679.919 528.957 679.779 538.234 679.01 547.932C677.784 563.444 676.972 579.777 676.575 596.932C676.467 601.676 676.445 605.767 676.508 609.207C676.657 616.902 678.741 623.842 682.761 630.026C676.181 633.837 669.774 637.921 663.539 642.278C661.945 643.395 659.069 644.66 654.912 646.073C650.866 647.451 647.029 648.9 643.403 650.418C636.074 653.493 628.556 657.001 621.11 658.471C619 658.889 616.618 659.125 613.966 659.179C612.182 659.218 609.886 659.603 607.077 660.333C600.857 661.944 595.117 664.813 588.964 666.605C586.395 667.355 584.037 668.386 581.819 669.979C578.921 672.056 575.988 674.123 573.019 676.18C571.578 677.18 570.041 677.356 568.41 676.707C566.415 675.911 563.517 674.974 561.104 674.681C558.644 674.384 556.153 674.062 553.63 673.715C552.515 673.557 551.44 673.205 550.331 673.047C546.485 672.508 544.49 669.293 541.882 666.781C539.675 664.655 538.304 661.914 536.236 659.689C533.186 656.405 530.499 652.995 528.177 649.458C527.408 648.29 526.533 647.217 525.552 646.237C522.532 643.227 520.035 639.701 517.722 636C515.047 631.719 512.216 627.573 509.323 623.403C507.038 620.112 505.372 616.223 504.079 612.528C504.059 612.471 504.054 612.41 504.063 612.351C504.072 612.291 504.096 612.235 504.132 612.188C504.168 612.141 504.214 612.105 504.268 612.082C504.321 612.059 504.378 612.052 504.435 612.059C509.044 612.668 512.411 615.468 516.317 617.763C518.721 619.18 521.296 620.211 524.042 620.855C527.809 621.738 531.309 622.567 534.542 623.344C538.231 624.227 542.504 625.632 547.36 627.561C552.569 629.626 557.156 631.555 561.12 633.347C561.516 633.525 561.958 633.552 562.369 633.423C564.802 632.677 567.076 631.922 569.19 631.157C569.882 630.907 570.482 630.473 570.991 629.857C574.639 625.418 578.254 621.094 581.836 616.885C584.701 613.517 588.351 610.349 590.736 606.736C592.468 604.12 594.157 601.633 595.802 599.275C596.789 597.863 597.279 596.417 598.628 595.263C600.98 593.256 602.741 591.41 603.911 589.723C604.937 588.247 606.219 587.24 607.222 585.788C608.582 583.828 609.929 582.069 611.263 580.511C615.481 575.58 622.409 571.035 628.127 567.844C629.026 567.34 629.728 566.614 630.234 565.665C631.724 562.858 633.182 560.061 634.609 557.273C635.896 554.755 637.457 552.266 638.989 549.835C641.776 545.414 643.749 540.395 645.582 534.808C646.768 531.181 648.458 527.064 650.654 522.457C651.609 520.45 652.491 518.283 653.301 515.956C653.63 515.008 654.299 513.959 654.912 513.169C656.978 510.522 659.097 507.515 661.271 504.15C667.435 494.592 672.958 485.796 677.84 477.761C678.888 476.036 680.041 473.814 681.301 471.097C682.538 468.43 683.913 465.769 685.425 463.115Z" fill="#706960"/>
</svg>
