<?xml version="1.0" encoding="UTF-8" standalone="no"?>
<!DOCTYPE svg PUBLIC "-//W3C//DTD SVG 1.1//EN" "http://www.w3.org/Graphics/SVG/1.1/DTD/svg11.dtd">
<svg xmlns="http://www.w3.org/2000/svg" version="1.1" viewBox="0.00 0.00 1448.00 1448.00">
<g stroke-width="2.00" fill="none" stroke-linecap="butt">
<path stroke="#4f4d4c" vector-effect="non-scaling-stroke" d="
  M 758.16 191.36
  C 746.39 185.82 733.90 181.37 721.46 177.81
  Q 670.35 163.20 616.43 165.35
  Q 587.75 166.49 560.86 173.21
  A 0.84 0.84 0.0 0 0 560.25 174.22
  L 567.95 207.75
  Q 568.09 208.36 568.67 208.14
  Q 585.34 201.94 603.74 198.54
  Q 625.88 194.45 647.84 192.44
  Q 704.24 187.30 758.00 191.96
  Q 759.77 192.12 758.16 191.36"
/>
<path stroke="#363636" vector-effect="non-scaling-stroke" d="
  M 536.7710 169.0865
  A 0.45 0.45 0.0 0 0 536.2267 168.7568
  L 505.7525 176.2420
  A 0.45 0.45 0.0 0 0 505.4228 176.7863
  L 518.0890 228.3535
  A 0.45 0.45 0.0 0 0 518.6333 228.6832
  L 549.1075 221.1980
  A 0.45 0.45 0.0 0 0 549.4372 220.6537
  L 536.7710 169.0865"
/>
<path stroke="#4f4d4c" vector-effect="non-scaling-stroke" d="
  M 486.67 190.25
  C 438.46 201.05 392.81 225.67 355.19 257.43
  Q 334.61 274.80 318.54 294.62
  Q 316.97 296.57 319.11 295.26
  Q 382.33 256.62 451.65 234.47
  Q 473.24 227.57 495.33 224.93
  Q 495.68 224.89 495.60 224.54
  L 487.32 190.66
  A 0.56 0.55 77.0 0 0 486.67 190.25"
/>
<path stroke="#24180c" vector-effect="non-scaling-stroke" d="
  M 602.75 543.70
  C 604.20 549.81 605.38 555.57 607.43 561.76
  Q 608.41 564.70 608.93 567.87
  A 0.58 0.57 -20.9 0 0 609.81 568.26
  Q 614.20 565.48 618.89 564.24
  A 1.03 1.03 0.0 0 0 619.63 563.01
  L 545.40 244.44
  A 0.60 0.60 0.0 0 0 544.67 243.99
  L 532.44 247.03
  Q 531.75 247.20 531.93 247.89
  C 532.19 248.89 532.75 249.90 532.99 250.92
  Q 567.82 397.32 602.75 543.70"
/>
<path stroke="#756f62" vector-effect="non-scaling-stroke" d="
  M 692.7636 382.8780
  A 31.63 26.46 111.8 0 0 729.0777 363.3364
  A 31.63 26.46 111.8 0 0 716.2564 324.1420
  A 31.63 26.46 111.8 0 0 679.9423 343.6836
  A 31.63 26.46 111.8 0 0 692.7636 382.8780"
/>
<path stroke="#805219" vector-effect="non-scaling-stroke" d="
  M 831.50 373.08
  C 816.59 341.26 784.81 329.05 750.87 333.09
  Q 750.09 333.19 750.31 333.93
  Q 752.97 342.94 752.54 352.06
  A 1.79 1.77 27.3 0 0 752.94 353.29
  C 756.58 357.83 763.31 361.62 768.82 364.09
  Q 793.88 375.35 818.83 375.74
  Q 825.45 375.85 831.21 373.78
  A 0.51 0.51 0.0 0 0 831.50 373.08"
/>
<path stroke="#363636" vector-effect="non-scaling-stroke" d="
  M 810.73 396.32
  C 788.88 394.61 765.50 387.96 746.93 375.67
  Q 746.43 375.34 746.18 375.88
  Q 744.23 380.16 741.37 383.79
  Q 740.99 384.28 741.51 384.61
  Q 749.70 389.93 761.13 394.12
  Q 789.93 404.68 819.33 406.12
  C 824.76 406.38 830.74 406.06 836.03 404.53
  Q 838.49 403.82 838.27 401.26
  L 837.68 394.41
  Q 837.63 393.92 837.16 394.05
  Q 825.19 397.46 810.73 396.32"
/>
<path stroke="#805219" vector-effect="non-scaling-stroke" d="
  M 743.92 409.60
  Q 734.01 405.18 726.05 398.74
  Q 725.66 398.42 725.21 398.65
  Q 724.27 399.10 723.35 399.61
  C 703.53 410.35 679.60 405.70 666.17 387.59
  Q 665.87 387.18 665.36 387.22
  C 656.19 387.98 647.00 387.74 639.09 392.45
  Q 634.86 394.96 637.35 399.18
  C 641.02 405.38 647.65 410.32 653.77 413.74
  Q 677.87 427.19 706.81 428.49
  Q 714.87 428.85 722.03 427.24
  C 732.03 424.99 740.21 423.14 749.98 428.13
  Q 779.59 443.27 815.35 442.81
  Q 823.54 442.71 831.65 440.17
  Q 833.36 439.64 833.84 437.88
  Q 835.38 432.25 836.52 426.66
  Q 836.69 425.83 835.85 425.97
  Q 830.25 426.93 824.73 426.95
  Q 804.69 427.02 782.84 422.08
  Q 760.68 417.06 743.92 409.60"
/>
<path stroke="#808080" vector-effect="non-scaling-stroke" d="
  M 747.55 449.96
  Q 743.80 448.29 740.14 445.88
  Q 739.56 445.51 739.55 446.20
  C 739.35 464.13 715.16 466.24 710.74 449.99
  Q 710.56 449.35 709.90 449.35
  Q 674.93 449.08 643.39 431.90
  Q 643.02 431.70 642.73 432.00
  Q 634.43 440.69 627.86 454.50
  C 626.13 458.14 627.88 462.67 631.65 463.98
  C 639.56 466.73 646.87 464.34 654.41 461.29
  Q 659.00 459.43 664.98 457.91
  C 671.69 456.21 678.34 457.02 680.90 464.27
  C 682.58 469.05 680.31 474.42 676.82 477.81
  C 665.21 489.06 655.02 502.88 655.28 520.00
  Q 655.39 526.68 661.10 530.40
  C 666.55 533.96 672.67 536.37 679.18 535.48
  C 699.91 532.63 720.16 539.14 726.97 560.87
  Q 732.46 578.42 731.97 595.89
  Q 731.35 618.42 725.75 640.56
  Q 725.46 641.73 726.63 642.02
  Q 771.33 653.30 817.17 646.01
  Q 834.02 643.33 848.09 636.65
  C 849.36 636.05 850.23 635.41 850.26 633.86
  Q 850.82 609.52 848.34 589.10
  Q 845.53 565.94 841.34 541.61
  Q 838.37 524.38 834.60 509.35
  Q 828.64 485.54 817.56 464.21
  A 0.95 0.94 -14.1 0 0 816.68 463.69
  Q 780.36 464.58 747.55 449.96"
/>
<path stroke="#805219" vector-effect="non-scaling-stroke" d="
  M 635.13 528.50
  C 632.11 514.59 636.14 499.02 642.83 486.85
  A 0.37 0.36 -77.4 0 0 642.49 486.30
  Q 632.20 487.02 623.13 483.48
  Q 622.45 483.21 622.61 483.93
  L 637.75 548.96
  Q 637.91 549.63 638.52 549.31
  L 645.36 545.64
  A 0.40 0.40 0.0 0 0 645.44 544.99
  C 640.49 540.59 636.56 535.08 635.13 528.50"
/>
<path stroke="#805219" vector-effect="non-scaling-stroke" d="
  M 535.28 551.19
  C 526.79 556.96 517.15 562.57 507.53 565.71
  C 500.72 567.93 496.72 572.74 500.76 580.21
  Q 502.03 582.56 504.73 583.25
  C 514.93 585.88 527.01 585.73 537.61 584.38
  Q 563.38 581.10 587.61 572.66
  Q 588.14 572.47 588.01 571.92
  L 575.51 519.56
  A 0.11 0.11 0.0 0 0 575.32 519.50
  Q 557.02 536.41 535.28 551.19"
/>
<path stroke="#54633a" vector-effect="non-scaling-stroke" d="
  M 898.66 556.23
  C 888.26 572.13 882.87 589.35 880.38 608.89
  Q 880.29 609.57 880.83 609.15
  Q 899.29 594.86 918.91 586.70
  Q 919.47 586.46 919.31 585.88
  Q 916.45 575.46 912.18 565.40
  Q 909.00 557.88 902.32 554.31
  Q 900.90 553.55 899.82 554.73
  Q 899.18 555.43 898.66 556.23"
/>
<path stroke="#808080" vector-effect="non-scaling-stroke" d="
  M 642.02 580.72
  Q 632.51 576.49 624.20 581.98
  Q 619.46 585.12 618.25 589.42
  C 615.50 599.25 624.39 607.04 632.70 610.55
  C 640.42 613.80 650.63 616.14 657.94 611.70
  C 666.41 606.55 665.99 595.03 658.16 589.42
  C 653.26 585.90 647.60 583.20 642.02 580.72"
/>
<path stroke="#54633a" vector-effect="non-scaling-stroke" d="
  M 954.68 598.62
  C 926.94 601.90 902.57 616.98 881.88 635.36
  Q 881.21 635.96 882.09 636.13
  C 905.50 640.67 928.03 639.89 951.69 636.14
  Q 962.79 634.38 972.62 631.21
  A 0.46 0.46 0.0 0 0 972.92 630.65
  C 970.02 620.09 965.10 608.13 958.09 599.97
  Q 956.73 598.38 954.68 598.62"
/>
<path stroke="#24180c" vector-effect="non-scaling-stroke" d="
  M 675.90 804.86
  L 634.81 628.96
  Q 634.56 627.88 633.50 627.56
  Q 627.86 625.86 622.64 623.29
  A 0.28 0.27 6.3 0 0 622.25 623.60
  Q 635.12 677.53 648.38 732.47
  C 649.18 735.77 649.26 739.20 650.06 742.52
  Q 657.69 774.19 665.11 805.68
  A 0.89 0.89 0.0 0 0 666.14 806.35
  Q 670.96 805.42 675.53 805.33
  A 0.39 0.38 -7.2 0 0 675.90 804.86"
/>
<path stroke="#54633a" vector-effect="non-scaling-stroke" d="
  M 703.50 730.41
  Q 716.31 756.05 733.80 779.82
  A 0.44 0.44 0.0 0 0 734.37 779.94
  C 764.09 762.94 791.20 740.44 814.24 715.01
  C 829.89 697.72 843.51 679.25 852.32 658.38
  Q 852.59 657.73 851.94 658.00
  Q 833.79 665.37 811.36 668.01
  Q 781.09 671.57 750.34 667.80
  Q 728.08 665.08 709.47 658.20
  Q 705.41 656.70 701.72 654.80
  C 699.93 653.88 698.03 654.11 696.38 655.18
  Q 686.61 661.51 681.92 673.38
  A 3.06 3.01 -42.8 0 0 681.83 675.34
  Q 686.11 690.07 692.37 705.51
  Q 692.63 706.15 693.31 706.12
  C 698.02 705.92 703.01 706.09 707.24 705.72
  Q 731.06 703.62 752.87 693.80
  C 757.58 691.68 761.68 688.93 765.99 686.26
  C 770.42 683.51 776.45 684.08 779.82 688.32
  C 783.85 693.42 781.97 699.96 777.05 703.75
  Q 772.17 707.51 765.81 710.64
  Q 735.86 725.33 702.46 726.93
  A 0.41 0.41 0.0 0 0 702.11 727.51
  Q 702.78 728.96 703.50 730.41"
/>
<path stroke="#1c1816" vector-effect="non-scaling-stroke" d="
  M 937.32 855.63
  Q 938.26 861.87 939.17 867.27
  C 940.16 873.14 939.61 878.68 939.35 884.55
  Q 939.30 885.55 940.30 885.64
  L 944.96 886.07
  A 1.12 1.11 -84.6 0 0 946.17 885.06
  Q 946.81 878.59 946.58 873.73
  C 946.18 865.18 945.56 856.69 944.47 848.44
  Q 935.51 780.73 910.68 720.20
  Q 904.22 704.44 893.88 686.05
  Q 892.81 684.14 890.68 683.67
  L 883.50 682.06
  Q 882.00 681.73 882.69 683.10
  Q 893.05 703.90 901.62 726.40
  Q 916.71 766.06 928.78 813.79
  Q 934.28 835.54 937.32 855.63"
/>
<path stroke="#363636" vector-effect="non-scaling-stroke" d="
  M 851.78 903.87
  L 849.08 906.10
  Q 848.70 906.40 848.26 906.59
  Q 846.75 907.25 846.22 908.77"
/>
<path stroke="#756f62" vector-effect="non-scaling-stroke" d="
  M 846.22 908.77
  L 842.28 911.78"
/>
<path stroke="#363636" vector-effect="non-scaling-stroke" d="
  M 842.28 911.78
  Q 839.78 912.41 837.62 914.15
  C 836.64 914.93 835.82 914.92 834.89 915.69
  Q 834.02 916.40 832.57 916.82
  Q 828.02 918.15 823.72 920.42"
/>
<path stroke="#756f62" vector-effect="non-scaling-stroke" d="
  M 823.72 920.42
  L 819.67 921.40
  A 1.02 1.01 -29.0 0 0 819.18 923.10
  Q 825.76 929.73 832.98 934.55
  A 1.34 1.34 0.0 0 0 834.85 934.17
  Q 838.38 928.74 843.02 923.87
  Q 852.25 914.21 861.75 907.19
  Q 875.87 896.78 891.75 891.70
  Q 902.11 888.39 917.95 886.07
  Q 918.47 886.00 918.50 885.47
  C 919.15 872.96 917.55 860.77 914.93 847.77
  Q 902.33 785.39 878.06 723.20
  Q 871.53 706.50 864.22 691.92
  C 862.90 689.29 859.87 688.22 858.14 691.29
  Q 853.90 698.79 848.18 706.41
  C 821.22 742.35 786.90 773.32 747.78 796.37
  Q 747.25 796.68 747.66 797.13
  L 757.34 807.62
  A 0.42 0.42 0.0 0 0 757.93 807.64
  Q 776.85 789.77 803.10 789.08
  C 840.40 788.09 871.28 819.17 870.92 856.20
  Q 870.91 857.03 871.72 856.84
  Q 879.37 855.09 887.28 851.36
  C 901.52 844.65 910.38 863.25 896.61 870.17
  Q 883.46 876.79 868.34 878.74
  Q 867.82 878.81 867.63 879.30
  Q 862.23 893.36 851.78 903.87"
/>
<path stroke="#aba497" vector-effect="non-scaling-stroke" d="
  M 823.72 920.42
  Q 833.99 917.99 842.28 911.78"
/>
<path stroke="#aba497" vector-effect="non-scaling-stroke" d="
  M 846.22 908.77
  Q 849.65 907.04 851.78 903.87"
/>
<path stroke="#363636" vector-effect="non-scaling-stroke" d="
  M 732.10 906.42
  Q 731.16 904.49 729.52 902.97"
/>
<path stroke="#1c1816" vector-effect="non-scaling-stroke" d="
  M 729.52 902.97
  Q 728.86 900.16 726.83 899.71"
/>
<path stroke="#756f62" vector-effect="non-scaling-stroke" d="
  M 726.83 899.71
  L 718.36 888.82
  Q 716.68 886.65 717.34 889.32
  L 719.27 897.00"
/>
<path stroke="#363636" vector-effect="non-scaling-stroke" d="
  M 719.27 897.00
  Q 718.75 901.15 720.40 905.01
  Q 720.65 905.60 720.80 906.22
  L 722.17 911.96"
/>
<path stroke="#4f4d4c" vector-effect="non-scaling-stroke" d="
  M 722.17 911.96
  L 722.94 914.47"
/>
<path stroke="#756f62" vector-effect="non-scaling-stroke" d="
  M 722.94 914.47
  Q 736.77 973.90 750.65 1033.33
  Q 751.71 1037.88 751.67 1040.67
  C 751.57 1046.64 745.89 1050.51 740.68 1052.22
  A 0.35 0.35 0.0 0 0 740.58 1052.84
  C 796.77 1093.91 864.24 1116.55 933.85 1120.39
  Q 945.97 1121.06 955.55 1120.64
  Q 962.00 1120.35 967.18 1118.90
  C 977.13 1116.12 987.80 1113.15 997.33 1109.52
  Q 1074.55 1080.06 1117.45 1009.88
  C 1146.85 961.79 1158.69 903.63 1156.13 847.61
  Q 1155.58 835.67 1154.28 822.46
  Q 1154.18 821.41 1153.52 820.55
  Q 1123.63 781.43 1085.12 755.57
  Q 1011.90 706.40 923.30 696.60
  A 0.11 0.11 0.0 0 0 923.19 696.76
  Q 935.47 723.43 944.87 753.74
  C 957.52 794.51 966.07 836.42 967.75 878.92
  Q 967.95 883.92 967.44 889.86
  Q 967.39 890.53 968.02 890.73
  L 975.09 893.05
  Q 975.70 893.25 976.13 892.76
  Q 979.15 889.28 985.84 884.71
  Q 991.97 880.54 997.19 878.12
  C 1005.78 874.13 1015.90 877.88 1023.04 883.70
  C 1030.51 889.80 1037.60 897.09 1044.01 904.39
  C 1051.55 912.97 1050.09 919.93 1044.59 928.62
  C 1041.83 933.00 1039.04 938.60 1035.14 941.93
  A 0.53 0.52 -35.9 0 0 1035.03 942.60
  C 1052.67 971.69 1054.90 1007.64 1041.31 1038.86
  Q 1028.67 1067.92 1001.93 1086.09
  C 965.05 1111.15 916.52 1113.68 876.82 1092.97
  C 836.24 1071.79 812.22 1030.82 815.90 984.94
  Q 815.92 984.66 815.66 984.55
  C 801.61 978.21 789.79 967.98 778.77 957.48
  Q 753.65 933.56 732.10 906.42"
/>
<path stroke="#c4bcae" vector-effect="non-scaling-stroke" d="
  M 722.94 914.47
  Q 723.32 912.32 722.33 910.30"
/>
<path stroke="#aba497" vector-effect="non-scaling-stroke" d="
  M 722.33 910.30
  L 719.27 897.00"
/>
<path stroke="#918677" vector-effect="non-scaling-stroke" d="
  M 726.83 899.71
  L 727.86 901.47"
/>
<path stroke="#aba497" vector-effect="non-scaling-stroke" d="
  M 727.86 901.47
  Q 729.55 904.51 732.10 906.42"
/>
<path stroke="#858382" vector-effect="non-scaling-stroke" d="
  M 722.33 910.30
  L 722.17 911.96"
/>
<path stroke="#514d4b" vector-effect="non-scaling-stroke" d="
  M 729.52 902.97
  L 727.86 901.47"
/>
<path stroke="#54633a" vector-effect="non-scaling-stroke" d="
  M 683.22 743.04
  L 695.25 795.73
  A 0.42 0.42 0.0 0 0 695.77 796.04
  Q 705.14 793.68 714.38 789.70
  Q 714.83 789.51 714.54 789.11
  Q 695.92 763.25 682.24 734.52"
/>
<path stroke="#363636" vector-effect="non-scaling-stroke" d="
  M 682.24 734.52
  Q 682.11 733.16 681.46 732.74
  A 0.42 0.41 9.8 0 0 680.83 733.18
  L 683.22 743.04"
/>
<path stroke="#8a9870" vector-effect="non-scaling-stroke" d="
  M 682.24 734.52
  Q 681.88 737.20 682.20 738.00
  Q 682.97 739.86 683.22 743.04"
/>
<path stroke="#4f4d4c" vector-effect="non-scaling-stroke" d="
  M 741.49 821.46
  L 735.72 814.75"
/>
<path stroke="#1c1816" vector-effect="non-scaling-stroke" d="
  M 735.72 814.75
  L 731.33 809.71"
/>
<path stroke="#363636" vector-effect="non-scaling-stroke" d="
  M 731.33 809.71
  L 728.85 807.45"
/>
<path stroke="#756f62" vector-effect="non-scaling-stroke" d="
  M 728.85 807.45
  Q 728.37 806.32 727.50 806.84
  Q 726.19 807.63 724.92 807.93
  A 1.01 1.00 -23.9 0 0 724.32 809.47
  L 740.48 833.05
  Q 741.31 834.26 741.65 832.83
  Q 742.37 829.83 744.46 826.22
  Q 745.15 825.04 744.17 824.08
  L 741.49 821.46"
/>
<path stroke="#aba497" vector-effect="non-scaling-stroke" d="
  M 728.85 807.45
  L 732.79 812.48"
/>
<path stroke="#c4bcae" vector-effect="non-scaling-stroke" d="
  M 732.79 812.48
  Q 736.33 818.03 741.49 821.46"
/>
<path stroke="#6b6562" vector-effect="non-scaling-stroke" d="
  M 735.72 814.75
  Q 734.38 814.45 733.99 813.28
  Q 733.82 812.80 733.34 812.65
  L 732.79 812.48"
/>
<path stroke="#514d4b" vector-effect="non-scaling-stroke" d="
  M 731.33 809.71
  Q 731.29 810.85 732.48 811.54
  Q 732.90 811.78 732.79 812.48"
/>
<path stroke="#54633a" vector-effect="non-scaling-stroke" d="
  M 783.24 830.44
  L 797.24 840.05"
/>
<path stroke="#673222" vector-effect="non-scaling-stroke" d="
  M 797.24 840.05
  L 802.98 843.36"
/>
<path stroke="#54633a" vector-effect="non-scaling-stroke" d="
  M 802.98 843.36
  Q 815.36 850.38 828.59 854.38"
/>
<path stroke="#673222" vector-effect="non-scaling-stroke" d="
  M 828.59 854.38
  Q 838.59 857.67 849.47 858.24
  Q 850.06 858.27 850.07 857.68
  C 850.63 816.56 804.39 794.94 773.35 821.87
  A 0.47 0.47 0.0 0 0 773.36 822.59
  L 783.24 830.44"
/>
<path stroke="#bb945c" vector-effect="non-scaling-stroke" d="
  M 828.59 854.38
  Q 829.08 848.33 828.52 842.50
  Q 828.19 839.12 826.88 836.57
  C 823.43 829.82 815.36 829.20 810.11 834.36
  Q 805.86 838.54 802.98 843.36"
/>
<path stroke="#bb945c" vector-effect="non-scaling-stroke" d="
  M 797.24 840.05
  Q 797.62 836.22 793.89 832.86
  Q 788.97 828.42 783.24 830.44"
/>
<path stroke="#1c1816" vector-effect="non-scaling-stroke" d="
  M 748.95 893.97
  C 762.13 910.22 775.95 925.86 790.86 940.47
  C 799.48 948.90 809.00 957.53 819.51 963.33
  A 0.73 0.72 -65.2 0 0 820.53 962.95
  L 823.78 954.43
  A 0.73 0.73 0.0 0 0 823.53 953.58
  C 807.72 942.19 793.67 928.41 780.30 914.02
  Q 751.28 882.83 724.32 846.17
  Q 712.74 830.43 703.91 815.89
  Q 703.80 815.71 703.64 815.83
  L 703.41 815.98
  Q 703.13 816.17 703.34 816.44
  Q 709.90 825.02 708.36 836.07
  A 3.39 3.38 -57.3 0 0 708.86 838.38
  Q 726.99 866.90 748.95 893.97"
/>
<path stroke="#808080" vector-effect="non-scaling-stroke" d="
  M 683.78 846.79
  C 689.62 841.77 695.90 833.33 690.94 825.76
  C 683.34 814.17 660.03 825.09 652.40 830.79
  C 646.01 835.56 641.27 842.83 645.40 850.49
  C 649.30 857.71 658.02 858.59 665.34 856.68
  Q 675.28 854.08 683.78 846.79"
/>
<path stroke="#363636" vector-effect="non-scaling-stroke" d="
  M 759.45 857.80
  Q 761.55 861.43 764.73 863.88"
/>
<path stroke="#54633a" vector-effect="non-scaling-stroke" d="
  M 764.73 863.88
  L 770.47 870.85"
/>
<path stroke="#673222" vector-effect="non-scaling-stroke" d="
  M 770.47 870.85
  Q 781.52 884.46 793.42 897.37
  C 795.54 899.68 796.80 901.59 800.44 901.70
  Q 814.10 902.13 825.74 896.40
  Q 828.42 895.08 830.43 893.32"
/>
<path stroke="#24180c" vector-effect="non-scaling-stroke" d="
  M 830.43 893.32
  Q 835.71 891.05 838.60 886.11"
/>
<path stroke="#673222" vector-effect="non-scaling-stroke" d="
  M 838.60 886.11
  L 843.17 879.70
  A 0.54 0.54 0.0 0 0 842.83 878.86
  L 828.90 876.27"
/>
<path stroke="#54633a" vector-effect="non-scaling-stroke" d="
  M 828.90 876.27
  L 810.29 870.19"
/>
<path stroke="#673222" vector-effect="non-scaling-stroke" d="
  M 810.29 870.19
  L 806.86 868.78"
/>
<path stroke="#54633a" vector-effect="non-scaling-stroke" d="
  M 806.86 868.78
  Q 793.09 862.74 781.01 854.57"
/>
<path stroke="#363636" vector-effect="non-scaling-stroke" d="
  M 781.01 854.57
  L 768.98 846.04"
/>
<path stroke="#54633a" vector-effect="non-scaling-stroke" d="
  M 768.98 846.04
  Q 768.66 845.87 768.55 845.65"
/>
<path stroke="#673222" vector-effect="non-scaling-stroke" d="
  M 768.55 845.65
  L 761.69 840.25
  A 0.57 0.57 0.0 0 0 760.80 840.50
  Q 758.34 847.34 758.73 854.75
  Q 758.84 856.79 759.45 857.80"
/>
<path stroke="#bb945c" vector-effect="non-scaling-stroke" d="
  M 768.55 845.65
  C 767.77 846.09 767.08 846.44 766.53 847.18
  C 763.37 851.50 760.47 854.79 759.91 858.06"
/>
<path stroke="#9d6757" vector-effect="non-scaling-stroke" d="
  M 759.91 858.06
  Q 759.78 857.92 759.45 857.80"
/>
<path stroke="#8a9870" vector-effect="non-scaling-stroke" d="
  M 768.98 846.04
  Q 770.42 847.80 773.78 850.24
  Q 778.13 853.42 781.01 854.57"
/>
<path stroke="#bb945c" vector-effect="non-scaling-stroke" d="
  M 806.86 868.78
  Q 805.17 871.06 803.81 873.32
  C 797.66 883.54 785.38 880.51 783.90 868.87
  Q 783.16 863.09 782.79 858.22
  Q 782.65 856.55 781.71 857.94
  Q 778.08 863.26 774.17 868.64
  Q 772.57 870.84 770.47 870.85"
/>
<path stroke="#8a9870" vector-effect="non-scaling-stroke" d="
  M 764.73 863.88
  L 759.91 858.06"
/>
<path stroke="#bb945c" vector-effect="non-scaling-stroke" d="
  M 810.29 870.19
  Q 810.45 877.19 810.55 884.01
  C 810.63 889.99 815.09 894.71 821.05 893.64
  C 829.52 892.12 829.39 883.67 828.90 876.27"
/>
<path stroke="#8b492e" vector-effect="non-scaling-stroke" d="
  M 838.60 886.11
  L 830.43 893.32"
/>
<path stroke="#24180c" vector-effect="non-scaling-stroke" d="
  M 689.37 862.06
  A 0.32 0.32 0.0 0 0 688.92 861.85
  L 679.79 866.41
  A 0.32 0.32 0.0 0 0 679.62 866.77
  L 720.01 1036.18
  A 0.32 0.32 0.0 0 0 720.41 1036.41
  L 729.02 1034.05
  A 0.32 0.32 0.0 0 0 729.25 1033.67
  L 689.37 862.06"
/>
<path stroke="#808080" vector-effect="non-scaling-stroke" d="
  M 1177.29 862.52
  C 1177.52 956.64 1138.47 1047.10 1059.26 1100.97
  Q 1058.12 1101.75 1059.50 1101.73
  Q 1061.70 1101.70 1063.70 1100.92
  C 1116.46 1080.37 1163.10 1043.52 1183.27 989.62
  C 1198.79 948.16 1195.49 902.77 1177.69 862.43
  Q 1177.29 861.51 1177.29 862.52"
/>
<path stroke="#756f62" vector-effect="non-scaling-stroke" d="
  M 642.95 867.27
  A 0.26 0.26 0.0 0 0 642.59 867.50
  Q 639.69 906.59 653.61 942.99
  Q 666.93 977.84 691.51 1006.78
  Q 691.61 1006.90 691.57 1006.75
  L 659.25 871.01
  A 0.81 0.80 82.8 0 0 658.46 870.39
  Q 650.41 870.46 642.95 867.27"
/>
<path stroke="#4f4d4c" vector-effect="non-scaling-stroke" d="
  M 1006.59 898.48
  A 2.34 2.33 -45.4 0 0 1004.16 898.50
  L 997.40 902.71
  Q 996.25 903.43 997.41 904.14
  Q 1010.67 912.30 1021.49 924.27
  A 0.31 0.31 0.0 0 0 1021.98 924.23
  L 1026.17 917.41
  A 0.67 0.66 -50.6 0 0 1026.10 916.63
  Q 1020.78 910.68 1013.98 904.22
  Q 1010.13 900.57 1006.59 898.48"
/>
<path stroke="#4f4d4c" vector-effect="non-scaling-stroke" d="
  M 862.94 933.86
  Q 859.04 937.42 855.17 943.18
  Q 848.96 952.42 844.80 960.03
  C 832.74 982.06 834.32 1010.08 844.74 1031.84
  C 862.62 1069.19 902.95 1089.31 944.04 1085.42
  C 980.90 1081.92 1014.11 1057.88 1025.34 1022.37
  C 1037.45 984.12 1020.77 944.15 987.67 922.70
  C 954.07 900.93 910.48 900.37 876.56 922.62
  Q 873.16 924.85 867.08 930.09
  Q 866.48 930.61 865.82 931.09
  C 864.81 931.83 863.90 932.98 862.94 933.86"
/>
<path stroke="#805219" vector-effect="non-scaling-stroke" d="
  M 788.00 1180.90
  Q 761.51 1193.10 733.48 1198.71
  Q 732.67 1198.87 733.30 1199.41
  C 743.00 1207.69 748.53 1218.53 751.10 1230.63
  A 0.54 0.53 73.6 0 0 751.81 1231.02
  Q 763.21 1226.77 774.50 1224.21
  Q 797.57 1218.98 818.33 1225.59
  Q 827.56 1228.53 837.15 1232.66
  A 0.34 0.34 0.0 0 0 837.62 1232.29
  Q 834.11 1212.09 835.11 1192.89
  Q 836.41 1167.74 841.52 1145.31
  Q 843.20 1137.94 846.17 1129.73
  A 0.44 0.44 0.0 0 0 845.87 1129.16
  L 839.22 1127.43
  Q 838.70 1127.29 838.51 1127.81
  Q 836.45 1133.48 833.66 1137.72
  Q 823.52 1153.11 808.84 1166.90
  Q 799.65 1175.53 788.00 1180.90"
/>
<path stroke="#805219" vector-effect="non-scaling-stroke" d="
  M 987.70 1201.68
  C 983.71 1212.69 979.27 1223.45 972.19 1232.96
  C 967.86 1238.78 963.93 1244.89 958.45 1249.88
  Q 951.09 1256.57 943.97 1262.52
  C 936.14 1269.07 925.96 1273.41 916.63 1277.83
  Q 892.73 1289.15 866.56 1292.51
  A 0.39 0.38 -15.7 0 0 866.25 1293.05
  Q 873.21 1308.54 872.73 1326.23
  Q 872.71 1326.95 873.37 1326.64
  C 884.54 1321.26 895.39 1317.88 907.97 1319.84
  Q 934.92 1324.03 950.67 1345.03
  A 1.76 1.75 -21.5 0 0 952.27 1345.72
  C 955.85 1345.33 958.20 1344.23 962.44 1342.52
  Q 978.73 1335.95 988.09 1320.51
  Q 989.38 1318.39 988.72 1316.12
  Q 984.65 1302.16 984.23 1285.90
  Q 983.46 1255.74 988.86 1227.70
  Q 994.19 1200.03 1001.86 1177.98
  Q 1008.96 1157.52 1018.45 1136.39
  Q 1018.83 1135.55 1017.93 1135.74
  Q 1002.50 1139.01 988.93 1140.27
  Q 988.20 1140.34 988.44 1141.04
  C 991.75 1150.76 993.70 1159.92 993.60 1170.53
  Q 993.46 1185.81 987.70 1201.68"
/>
</g>
<path fill="#000000" d="
  M 869.28 567.77
  Q 873.58 555.87 881.98 543.58
  C 886.85 536.45 892.97 531.31 902.31 532.85
  Q 918.42 535.51 927.61 550.09
  C 932.72 558.20 936.37 569.23 939.03 578.95
  A 1.28 1.27 76.1 0 0 940.53 579.86
  Q 947.01 578.44 953.63 577.78
  C 957.50 577.40 961.23 577.34 964.83 579.05
  Q 969.96 581.49 974.21 586.63
  C 983.91 598.33 989.99 612.89 993.91 627.86
  C 994.83 631.35 996.84 634.37 995.91 638.22
  C 994.09 645.73 986.02 648.87 979.24 651.05
  C 963.46 656.13 945.92 658.57 929.01 659.79
  Q 902.83 661.69 875.91 656.26
  A 1.07 1.05 -75.4 0 0 874.69 656.99
  L 873.33 661.42
  A 0.53 0.53 0.0 0 0 873.95 662.10
  C 887.48 659.14 902.17 661.92 910.77 673.60
  A 1.32 1.30 -15.7 0 0 911.71 674.12
  Q 991.87 680.52 1061.66 716.78
  C 1128.06 751.28 1186.16 808.60 1207.17 881.84
  C 1220.57 928.54 1215.71 976.74 1193.15 1018.85
  C 1163.33 1074.53 1107.22 1111.99 1046.75 1129.06
  Q 1045.46 1129.42 1044.86 1130.62
  Q 1029.30 1161.79 1019.75 1191.27
  Q 1015.65 1203.91 1011.47 1222.81
  Q 1004.41 1254.66 1005.49 1286.20
  Q 1005.98 1300.21 1010.22 1314.38
  C 1012.07 1320.59 1009.15 1326.99 1005.36 1332.76
  Q 997.39 1344.88 988.56 1351.64
  C 978.48 1359.35 952.13 1374.01 939.81 1362.92
  C 937.77 1361.08 935.47 1359.55 933.59 1357.49
  C 930.96 1354.61 928.41 1351.53 925.28 1349.21
  C 916.70 1342.85 903.21 1338.15 892.55 1341.69
  Q 879.96 1345.86 865.14 1354.76
  C 858.57 1358.70 851.39 1356.96 848.47 1349.80
  C 846.51 1344.99 846.14 1341.24 848.30 1336.39
  C 849.71 1333.23 851.06 1329.91 851.34 1326.48
  C 852.11 1316.99 849.39 1300.43 840.84 1293.77
  C 836.27 1290.20 832.40 1286.10 834.48 1279.76
  Q 835.62 1276.31 839.16 1274.15
  C 843.34 1271.59 847.49 1270.34 852.11 1271.61
  Q 854.97 1272.40 857.91 1272.15
  Q 871.53 1270.97 886.24 1266.89
  C 898.26 1263.55 910.51 1257.51 921.89 1251.65
  Q 928.32 1248.34 933.49 1243.64
  C 939.15 1238.50 945.24 1233.94 949.71 1227.61
  C 953.39 1222.39 957.51 1217.49 960.45 1211.61
  C 968.36 1195.84 974.37 1178.69 971.83 1161.25
  Q 970.52 1152.25 964.67 1142.84
  A 1.02 1.00 -17.8 0 0 963.73 1142.37
  C 958.08 1142.87 952.52 1143.24 946.77 1143.09
  Q 924.47 1142.50 902.26 1139.42
  Q 890.00 1137.72 876.54 1135.57
  C 873.41 1135.07 870.62 1133.85 867.51 1133.34
  A 0.88 0.87 15.5 0 0 866.56 1133.87
  Q 862.77 1143.35 860.73 1153.33
  C 854.81 1182.22 852.51 1212.93 861.01 1241.27
  C 862.47 1246.14 861.91 1250.58 859.14 1254.85
  C 854.72 1261.69 847.24 1260.85 840.97 1257.31
  Q 829.57 1250.85 813.55 1245.51
  Q 795.53 1239.50 774.88 1245.11
  Q 764.36 1247.96 751.85 1252.46
  Q 748.70 1253.60 745.75 1255.42
  C 741.73 1257.90 736.21 1257.14 732.96 1253.59
  C 730.21 1250.60 729.85 1246.59 730.78 1242.71
  Q 732.63 1235.03 727.60 1224.58
  C 725.65 1220.52 723.15 1217.73 719.91 1214.66
  Q 711.23 1206.41 700.95 1202.95
  Q 695.35 1201.07 690.45 1198.73
  C 686.17 1196.68 683.84 1190.53 685.33 1186.21
  Q 687.26 1180.60 693.77 1180.44
  Q 710.78 1179.99 727.88 1178.69
  Q 731.14 1178.44 734.75 1177.58
  Q 759.36 1171.71 780.18 1161.91
  Q 788.19 1158.14 795.30 1151.50
  Q 805.35 1142.12 814.82 1129.16
  C 816.92 1126.28 818.20 1123.17 819.15 1119.80
  A 0.53 0.52 19.2 0 0 818.83 1119.16
  Q 815.74 1117.99 812.76 1116.67
  C 807.97 1114.55 802.76 1113.44 798.26 1110.90
  Q 790.22 1106.37 782.29 1102.69
  Q 774.38 1099.01 766.17 1094.39
  Q 738.62 1078.88 715.57 1060.22
  Q 713.81 1058.80 711.46 1058.20
  C 707.20 1057.12 704.08 1054.16 702.23 1050.04
  C 701.57 1048.57 700.23 1046.79 699.06 1045.68
  C 648.40 998.16 613.66 930.71 622.01 860.08
  Q 622.46 856.30 622.55 851.55
  Q 622.64 847.28 623.59 842.92
  C 627.43 825.31 633.22 809.18 639.61 792.86
  A 5.27 5.22 49.3 0 0 639.83 789.70
  L 593.20 594.03
  A 0.72 0.71 -15.8 0 0 592.28 593.52
  C 572.27 600.24 551.66 604.70 530.67 606.37
  C 521.91 607.07 514.66 608.25 505.22 606.52
  C 499.43 605.45 493.58 601.27 488.24 598.58
  C 485.24 597.07 482.04 594.05 480.70 590.81
  C 477.51 583.08 476.68 575.74 479.49 567.90
  C 483.48 556.74 491.21 550.20 501.50 545.71
  Q 508.68 542.58 513.86 539.49
  Q 532.08 528.58 550.08 513.59
  Q 559.60 505.66 569.13 495.63
  A 1.51 1.50 -30.3 0 0 569.50 494.23
  Q 534.24 347.59 512.68 254.68
  Q 512.46 253.75 512.23 252.85
  A 1.03 1.02 86.9 0 0 511.39 252.09
  C 510.01 251.88 508.77 251.83 507.44 251.32
  Q 503.67 249.87 501.63 246.55
  A 1.24 1.23 -16.3 0 0 500.54 245.96
  Q 490.20 246.27 480.81 248.32
  Q 458.70 253.13 433.29 262.76
  C 405.06 273.46 377.65 286.10 351.03 300.77
  Q 326.76 314.15 307.51 328.49
  Q 296.88 336.41 290.63 343.65
  Q 288.29 346.37 286.04 347.66
  C 280.41 350.89 273.13 348.08 271.24 341.76
  Q 270.05 337.78 271.68 333.50
  C 284.29 300.39 308.62 270.55 335.29 246.93
  C 376.82 210.14 427.54 182.29 481.79 169.90
  A 1.25 1.24 85.7 0 0 482.76 168.76
  C 483.17 161.87 487.81 158.98 494.06 157.43
  Q 516.32 151.91 540.39 146.22
  C 546.30 144.82 551.42 146.68 554.28 151.95
  Q 554.91 153.10 556.18 152.80
  C 613.78 138.95 676.14 142.00 732.01 159.07
  C 762.65 168.44 793.60 183.10 816.97 204.76
  C 822.10 209.51 823.14 216.72 817.50 221.58
  C 813.89 224.70 809.54 224.35 805.20 222.56
  Q 797.55 219.41 787.86 217.42
  Q 765.31 212.79 737.46 211.44
  Q 693.44 209.29 648.87 213.32
  Q 614.63 216.41 590.30 222.98
  Q 583.05 224.93 573.97 228.88
  A 1.67 1.62 -88.1 0 0 573.14 229.68
  C 572.57 230.91 572.62 232.30 571.96 233.52
  Q 570.07 237.00 566.39 238.72
  A 1.08 1.07 70.8 0 0 565.80 239.94
  L 611.86 437.80
  Q 612.10 438.84 612.61 437.90
  Q 618.13 427.71 625.50 419.48
  A 1.09 1.09 0.0 0 0 625.47 418.01
  C 615.52 407.76 611.20 393.06 620.75 380.99
  C 628.90 370.68 644.35 367.70 656.63 366.94
  A 0.68 0.68 0.0 0 0 657.26 366.15
  C 653.54 345.02 663.07 323.60 679.72 311.12
  C 691.41 302.37 708.01 298.74 721.77 303.67
  Q 730.49 306.79 737.71 313.34
  A 2.26 2.25 60.4 0 0 739.66 313.88
  C 767.48 308.35 796.27 311.96 819.74 327.83
  C 859.69 354.82 867.22 406.74 851.69 449.94
  C 849.99 454.67 844.91 457.79 840.17 459.37
  A 1.16 1.16 0.0 0 0 839.57 461.12
  Q 843.93 467.61 846.53 474.51
  C 850.45 484.90 853.55 495.26 856.20 505.97
  Q 863.68 536.28 868.24 567.66
  Q 868.55 569.79 869.28 567.77
  Z
  M 758.16 191.36
  C 746.39 185.82 733.90 181.37 721.46 177.81
  Q 670.35 163.20 616.43 165.35
  Q 587.75 166.49 560.86 173.21
  A 0.84 0.84 0.0 0 0 560.25 174.22
  L 567.95 207.75
  Q 568.09 208.36 568.67 208.14
  Q 585.34 201.94 603.74 198.54
  Q 625.88 194.45 647.84 192.44
  Q 704.24 187.30 758.00 191.96
  Q 759.77 192.12 758.16 191.36
  Z
  M 536.7710 169.0865
  A 0.45 0.45 0.0 0 0 536.2267 168.7568
  L 505.7525 176.2420
  A 0.45 0.45 0.0 0 0 505.4228 176.7863
  L 518.0890 228.3535
  A 0.45 0.45 0.0 0 0 518.6333 228.6832
  L 549.1075 221.1980
  A 0.45 0.45 0.0 0 0 549.4372 220.6537
  L 536.7710 169.0865
  Z
  M 486.67 190.25
  C 438.46 201.05 392.81 225.67 355.19 257.43
  Q 334.61 274.80 318.54 294.62
  Q 316.97 296.57 319.11 295.26
  Q 382.33 256.62 451.65 234.47
  Q 473.24 227.57 495.33 224.93
  Q 495.68 224.89 495.60 224.54
  L 487.32 190.66
  A 0.56 0.55 77.0 0 0 486.67 190.25
  Z
  M 602.75 543.70
  C 604.20 549.81 605.38 555.57 607.43 561.76
  Q 608.41 564.70 608.93 567.87
  A 0.58 0.57 -20.9 0 0 609.81 568.26
  Q 614.20 565.48 618.89 564.24
  A 1.03 1.03 0.0 0 0 619.63 563.01
  L 545.40 244.44
  A 0.60 0.60 0.0 0 0 544.67 243.99
  L 532.44 247.03
  Q 531.75 247.20 531.93 247.89
  C 532.19 248.89 532.75 249.90 532.99 250.92
  Q 567.82 397.32 602.75 543.70
  Z
  M 692.7636 382.8780
  A 31.63 26.46 111.8 0 0 729.0777 363.3364
  A 31.63 26.46 111.8 0 0 716.2564 324.1420
  A 31.63 26.46 111.8 0 0 679.9423 343.6836
  A 31.63 26.46 111.8 0 0 692.7636 382.8780
  Z
  M 831.50 373.08
  C 816.59 341.26 784.81 329.05 750.87 333.09
  Q 750.09 333.19 750.31 333.93
  Q 752.97 342.94 752.54 352.06
  A 1.79 1.77 27.3 0 0 752.94 353.29
  C 756.58 357.83 763.31 361.62 768.82 364.09
  Q 793.88 375.35 818.83 375.74
  Q 825.45 375.85 831.21 373.78
  A 0.51 0.51 0.0 0 0 831.50 373.08
  Z
  M 810.73 396.32
  C 788.88 394.61 765.50 387.96 746.93 375.67
  Q 746.43 375.34 746.18 375.88
  Q 744.23 380.16 741.37 383.79
  Q 740.99 384.28 741.51 384.61
  Q 749.70 389.93 761.13 394.12
  Q 789.93 404.68 819.33 406.12
  C 824.76 406.38 830.74 406.06 836.03 404.53
  Q 838.49 403.82 838.27 401.26
  L 837.68 394.41
  Q 837.63 393.92 837.16 394.05
  Q 825.19 397.46 810.73 396.32
  Z
  M 743.92 409.60
  Q 734.01 405.18 726.05 398.74
  Q 725.66 398.42 725.21 398.65
  Q 724.27 399.10 723.35 399.61
  C 703.53 410.35 679.60 405.70 666.17 387.59
  Q 665.87 387.18 665.36 387.22
  C 656.19 387.98 647.00 387.74 639.09 392.45
  Q 634.86 394.96 637.35 399.18
  C 641.02 405.38 647.65 410.32 653.77 413.74
  Q 677.87 427.19 706.81 428.49
  Q 714.87 428.85 722.03 427.24
  C 732.03 424.99 740.21 423.14 749.98 428.13
  Q 779.59 443.27 815.35 442.81
  Q 823.54 442.71 831.65 440.17
  Q 833.36 439.64 833.84 437.88
  Q 835.38 432.25 836.52 426.66
  Q 836.69 425.83 835.85 425.97
  Q 830.25 426.93 824.73 426.95
  Q 804.69 427.02 782.84 422.08
  Q 760.68 417.06 743.92 409.60
  Z
  M 747.55 449.96
  Q 743.80 448.29 740.14 445.88
  Q 739.56 445.51 739.55 446.20
  C 739.35 464.13 715.16 466.24 710.74 449.99
  Q 710.56 449.35 709.90 449.35
  Q 674.93 449.08 643.39 431.90
  Q 643.02 431.70 642.73 432.00
  Q 634.43 440.69 627.86 454.50
  C 626.13 458.14 627.88 462.67 631.65 463.98
  C 639.56 466.73 646.87 464.34 654.41 461.29
  Q 659.00 459.43 664.98 457.91
  C 671.69 456.21 678.34 457.02 680.90 464.27
  C 682.58 469.05 680.31 474.42 676.82 477.81
  C 665.21 489.06 655.02 502.88 655.28 520.00
  Q 655.39 526.68 661.10 530.40
  C 666.55 533.96 672.67 536.37 679.18 535.48
  C 699.91 532.63 720.16 539.14 726.97 560.87
  Q 732.46 578.42 731.97 595.89
  Q 731.35 618.42 725.75 640.56
  Q 725.46 641.73 726.63 642.02
  Q 771.33 653.30 817.17 646.01
  Q 834.02 643.33 848.09 636.65
  C 849.36 636.05 850.23 635.41 850.26 633.86
  Q 850.82 609.52 848.34 589.10
  Q 845.53 565.94 841.34 541.61
  Q 838.37 524.38 834.60 509.35
  Q 828.64 485.54 817.56 464.21
  A 0.95 0.94 -14.1 0 0 816.68 463.69
  Q 780.36 464.58 747.55 449.96
  Z
  M 635.13 528.50
  C 632.11 514.59 636.14 499.02 642.83 486.85
  A 0.37 0.36 -77.4 0 0 642.49 486.30
  Q 632.20 487.02 623.13 483.48
  Q 622.45 483.21 622.61 483.93
  L 637.75 548.96
  Q 637.91 549.63 638.52 549.31
  L 645.36 545.64
  A 0.40 0.40 0.0 0 0 645.44 544.99
  C 640.49 540.59 636.56 535.08 635.13 528.50
  Z
  M 535.28 551.19
  C 526.79 556.96 517.15 562.57 507.53 565.71
  C 500.72 567.93 496.72 572.74 500.76 580.21
  Q 502.03 582.56 504.73 583.25
  C 514.93 585.88 527.01 585.73 537.61 584.38
  Q 563.38 581.10 587.61 572.66
  Q 588.14 572.47 588.01 571.92
  L 575.51 519.56
  A 0.11 0.11 0.0 0 0 575.32 519.50
  Q 557.02 536.41 535.28 551.19
  Z
  M 898.66 556.23
  C 888.26 572.13 882.87 589.35 880.38 608.89
  Q 880.29 609.57 880.83 609.15
  Q 899.29 594.86 918.91 586.70
  Q 919.47 586.46 919.31 585.88
  Q 916.45 575.46 912.18 565.40
  Q 909.00 557.88 902.32 554.31
  Q 900.90 553.55 899.82 554.73
  Q 899.18 555.43 898.66 556.23
  Z
  M 652.40 566.59
  C 665.41 571.52 678.69 581.84 682.28 595.49
  Q 686.50 611.51 673.29 622.65
  Q 671.98 623.74 670.18 624.59
  A 0.68 0.68 0.0 0 0 669.86 625.49
  Q 671.05 628.09 671.50 630.89
  Q 672.62 637.85 674.25 645.71
  A 0.51 0.51 0.0 0 0 675.14 645.94
  C 682.35 637.67 694.19 630.78 704.85 633.79
  Q 705.58 634.00 705.75 633.26
  C 710.29 614.02 712.29 594.54 709.22 574.68
  Q 708.29 568.68 705.49 563.84
  C 700.07 554.48 686.88 555.18 677.85 556.85
  C 669.11 558.46 659.55 561.23 652.32 565.90
  Q 651.68 566.32 652.40 566.59
  Z
  M 642.02 580.72
  Q 632.51 576.49 624.20 581.98
  Q 619.46 585.12 618.25 589.42
  C 615.50 599.25 624.39 607.04 632.70 610.55
  C 640.42 613.80 650.63 616.14 657.94 611.70
  C 666.41 606.55 665.99 595.03 658.16 589.42
  C 653.26 585.90 647.60 583.20 642.02 580.72
  Z
  M 954.68 598.62
  C 926.94 601.90 902.57 616.98 881.88 635.36
  Q 881.21 635.96 882.09 636.13
  C 905.50 640.67 928.03 639.89 951.69 636.14
  Q 962.79 634.38 972.62 631.21
  A 0.46 0.46 0.0 0 0 972.92 630.65
  C 970.02 620.09 965.10 608.13 958.09 599.97
  Q 956.73 598.38 954.68 598.62
  Z
  M 675.90 804.86
  L 634.81 628.96
  Q 634.56 627.88 633.50 627.56
  Q 627.86 625.86 622.64 623.29
  A 0.28 0.27 6.3 0 0 622.25 623.60
  Q 635.12 677.53 648.38 732.47
  C 649.18 735.77 649.26 739.20 650.06 742.52
  Q 657.69 774.19 665.11 805.68
  A 0.89 0.89 0.0 0 0 666.14 806.35
  Q 670.96 805.42 675.53 805.33
  A 0.39 0.38 -7.2 0 0 675.90 804.86
  Z
  M 703.50 730.41
  Q 716.31 756.05 733.80 779.82
  A 0.44 0.44 0.0 0 0 734.37 779.94
  C 764.09 762.94 791.20 740.44 814.24 715.01
  C 829.89 697.72 843.51 679.25 852.32 658.38
  Q 852.59 657.73 851.94 658.00
  Q 833.79 665.37 811.36 668.01
  Q 781.09 671.57 750.34 667.80
  Q 728.08 665.08 709.47 658.20
  Q 705.41 656.70 701.72 654.80
  C 699.93 653.88 698.03 654.11 696.38 655.18
  Q 686.61 661.51 681.92 673.38
  A 3.06 3.01 -42.8 0 0 681.83 675.34
  Q 686.11 690.07 692.37 705.51
  Q 692.63 706.15 693.31 706.12
  C 698.02 705.92 703.01 706.09 707.24 705.72
  Q 731.06 703.62 752.87 693.80
  C 757.58 691.68 761.68 688.93 765.99 686.26
  C 770.42 683.51 776.45 684.08 779.82 688.32
  C 783.85 693.42 781.97 699.96 777.05 703.75
  Q 772.17 707.51 765.81 710.64
  Q 735.86 725.33 702.46 726.93
  A 0.41 0.41 0.0 0 0 702.11 727.51
  Q 702.78 728.96 703.50 730.41
  Z
  M 937.32 855.63
  Q 938.26 861.87 939.17 867.27
  C 940.16 873.14 939.61 878.68 939.35 884.55
  Q 939.30 885.55 940.30 885.64
  L 944.96 886.07
  A 1.12 1.11 -84.6 0 0 946.17 885.06
  Q 946.81 878.59 946.58 873.73
  C 946.18 865.18 945.56 856.69 944.47 848.44
  Q 935.51 780.73 910.68 720.20
  Q 904.22 704.44 893.88 686.05
  Q 892.81 684.14 890.68 683.67
  L 883.50 682.06
  Q 882.00 681.73 882.69 683.10
  Q 893.05 703.90 901.62 726.40
  Q 916.71 766.06 928.78 813.79
  Q 934.28 835.54 937.32 855.63
  Z
  M 851.78 903.87
  L 849.08 906.10
  Q 848.70 906.40 848.26 906.59
  Q 846.75 907.25 846.22 908.77
  L 842.28 911.78
  Q 839.78 912.41 837.62 914.15
  C 836.64 914.93 835.82 914.92 834.89 915.69
  Q 834.02 916.40 832.57 916.82
  Q 828.02 918.15 823.72 920.42
  L 819.67 921.40
  A 1.02 1.01 -29.0 0 0 819.18 923.10
  Q 825.76 929.73 832.98 934.55
  A 1.34 1.34 0.0 0 0 834.85 934.17
  Q 838.38 928.74 843.02 923.87
  Q 852.25 914.21 861.75 907.19
  Q 875.87 896.78 891.75 891.70
  Q 902.11 888.39 917.95 886.07
  Q 918.47 886.00 918.50 885.47
  C 919.15 872.96 917.55 860.77 914.93 847.77
  Q 902.33 785.39 878.06 723.20
  Q 871.53 706.50 864.22 691.92
  C 862.90 689.29 859.87 688.22 858.14 691.29
  Q 853.90 698.79 848.18 706.41
  C 821.22 742.35 786.90 773.32 747.78 796.37
  Q 747.25 796.68 747.66 797.13
  L 757.34 807.62
  A 0.42 0.42 0.0 0 0 757.93 807.64
  Q 776.85 789.77 803.10 789.08
  C 840.40 788.09 871.28 819.17 870.92 856.20
  Q 870.91 857.03 871.72 856.84
  Q 879.37 855.09 887.28 851.36
  C 901.52 844.65 910.38 863.25 896.61 870.17
  Q 883.46 876.79 868.34 878.74
  Q 867.82 878.81 867.63 879.30
  Q 862.23 893.36 851.78 903.87
  Z
  M 732.10 906.42
  Q 731.16 904.49 729.52 902.97
  Q 728.86 900.16 726.83 899.71
  L 718.36 888.82
  Q 716.68 886.65 717.34 889.32
  L 719.27 897.00
  Q 718.75 901.15 720.40 905.01
  Q 720.65 905.60 720.80 906.22
  L 722.17 911.96
  L 722.94 914.47
  Q 736.77 973.90 750.65 1033.33
  Q 751.71 1037.88 751.67 1040.67
  C 751.57 1046.64 745.89 1050.51 740.68 1052.22
  A 0.35 0.35 0.0 0 0 740.58 1052.84
  C 796.77 1093.91 864.24 1116.55 933.85 1120.39
  Q 945.97 1121.06 955.55 1120.64
  Q 962.00 1120.35 967.18 1118.90
  C 977.13 1116.12 987.80 1113.15 997.33 1109.52
  Q 1074.55 1080.06 1117.45 1009.88
  C 1146.85 961.79 1158.69 903.63 1156.13 847.61
  Q 1155.58 835.67 1154.28 822.46
  Q 1154.18 821.41 1153.52 820.55
  Q 1123.63 781.43 1085.12 755.57
  Q 1011.90 706.40 923.30 696.60
  A 0.11 0.11 0.0 0 0 923.19 696.76
  Q 935.47 723.43 944.87 753.74
  C 957.52 794.51 966.07 836.42 967.75 878.92
  Q 967.95 883.92 967.44 889.86
  Q 967.39 890.53 968.02 890.73
  L 975.09 893.05
  Q 975.70 893.25 976.13 892.76
  Q 979.15 889.28 985.84 884.71
  Q 991.97 880.54 997.19 878.12
  C 1005.78 874.13 1015.90 877.88 1023.04 883.70
  C 1030.51 889.80 1037.60 897.09 1044.01 904.39
  C 1051.55 912.97 1050.09 919.93 1044.59 928.62
  C 1041.83 933.00 1039.04 938.60 1035.14 941.93
  A 0.53 0.52 -35.9 0 0 1035.03 942.60
  C 1052.67 971.69 1054.90 1007.64 1041.31 1038.86
  Q 1028.67 1067.92 1001.93 1086.09
  C 965.05 1111.15 916.52 1113.68 876.82 1092.97
  C 836.24 1071.79 812.22 1030.82 815.90 984.94
  Q 815.92 984.66 815.66 984.55
  C 801.61 978.21 789.79 967.98 778.77 957.48
  Q 753.65 933.56 732.10 906.42
  Z
  M 683.22 743.04
  L 695.25 795.73
  A 0.42 0.42 0.0 0 0 695.77 796.04
  Q 705.14 793.68 714.38 789.70
  Q 714.83 789.51 714.54 789.11
  Q 695.92 763.25 682.24 734.52
  Q 682.11 733.16 681.46 732.74
  A 0.42 0.41 9.8 0 0 680.83 733.18
  L 683.22 743.04
  Z
  M 741.49 821.46
  L 735.72 814.75
  L 731.33 809.71
  L 728.85 807.45
  Q 728.37 806.32 727.50 806.84
  Q 726.19 807.63 724.92 807.93
  A 1.01 1.00 -23.9 0 0 724.32 809.47
  L 740.48 833.05
  Q 741.31 834.26 741.65 832.83
  Q 742.37 829.83 744.46 826.22
  Q 745.15 825.04 744.17 824.08
  L 741.49 821.46
  Z
  M 783.24 830.44
  L 797.24 840.05
  L 802.98 843.36
  Q 815.36 850.38 828.59 854.38
  Q 838.59 857.67 849.47 858.24
  Q 850.06 858.27 850.07 857.68
  C 850.63 816.56 804.39 794.94 773.35 821.87
  A 0.47 0.47 0.0 0 0 773.36 822.59
  L 783.24 830.44
  Z
  M 748.95 893.97
  C 762.13 910.22 775.95 925.86 790.86 940.47
  C 799.48 948.90 809.00 957.53 819.51 963.33
  A 0.73 0.72 -65.2 0 0 820.53 962.95
  L 823.78 954.43
  A 0.73 0.73 0.0 0 0 823.53 953.58
  C 807.72 942.19 793.67 928.41 780.30 914.02
  Q 751.28 882.83 724.32 846.17
  Q 712.74 830.43 703.91 815.89
  Q 703.80 815.71 703.64 815.83
  L 703.41 815.98
  Q 703.13 816.17 703.34 816.44
  Q 709.90 825.02 708.36 836.07
  A 3.39 3.38 -57.3 0 0 708.86 838.38
  Q 726.99 866.90 748.95 893.97
  Z
  M 683.78 846.79
  C 689.62 841.77 695.90 833.33 690.94 825.76
  C 683.34 814.17 660.03 825.09 652.40 830.79
  C 646.01 835.56 641.27 842.83 645.40 850.49
  C 649.30 857.71 658.02 858.59 665.34 856.68
  Q 675.28 854.08 683.78 846.79
  Z
  M 759.45 857.80
  Q 761.55 861.43 764.73 863.88
  L 770.47 870.85
  Q 781.52 884.46 793.42 897.37
  C 795.54 899.68 796.80 901.59 800.44 901.70
  Q 814.10 902.13 825.74 896.40
  Q 828.42 895.08 830.43 893.32
  Q 835.71 891.05 838.60 886.11
  L 843.17 879.70
  A 0.54 0.54 0.0 0 0 842.83 878.86
  L 828.90 876.27
  L 810.29 870.19
  L 806.86 868.78
  Q 793.09 862.74 781.01 854.57
  L 768.98 846.04
  Q 768.66 845.87 768.55 845.65
  L 761.69 840.25
  A 0.57 0.57 0.0 0 0 760.80 840.50
  Q 758.34 847.34 758.73 854.75
  Q 758.84 856.79 759.45 857.80
  Z
  M 689.37 862.06
  A 0.32 0.32 0.0 0 0 688.92 861.85
  L 679.79 866.41
  A 0.32 0.32 0.0 0 0 679.62 866.77
  L 720.01 1036.18
  A 0.32 0.32 0.0 0 0 720.41 1036.41
  L 729.02 1034.05
  A 0.32 0.32 0.0 0 0 729.25 1033.67
  L 689.37 862.06
  Z
  M 1177.29 862.52
  C 1177.52 956.64 1138.47 1047.10 1059.26 1100.97
  Q 1058.12 1101.75 1059.50 1101.73
  Q 1061.70 1101.70 1063.70 1100.92
  C 1116.46 1080.37 1163.10 1043.52 1183.27 989.62
  C 1198.79 948.16 1195.49 902.77 1177.69 862.43
  Q 1177.29 861.51 1177.29 862.52
  Z
  M 642.95 867.27
  A 0.26 0.26 0.0 0 0 642.59 867.50
  Q 639.69 906.59 653.61 942.99
  Q 666.93 977.84 691.51 1006.78
  Q 691.61 1006.90 691.57 1006.75
  L 659.25 871.01
  A 0.81 0.80 82.8 0 0 658.46 870.39
  Q 650.41 870.46 642.95 867.27
  Z
  M 1006.59 898.48
  A 2.34 2.33 -45.4 0 0 1004.16 898.50
  L 997.40 902.71
  Q 996.25 903.43 997.41 904.14
  Q 1010.67 912.30 1021.49 924.27
  A 0.31 0.31 0.0 0 0 1021.98 924.23
  L 1026.17 917.41
  A 0.67 0.66 -50.6 0 0 1026.10 916.63
  Q 1020.78 910.68 1013.98 904.22
  Q 1010.13 900.57 1006.59 898.48
  Z
  M 862.94 933.86
  Q 859.04 937.42 855.17 943.18
  Q 848.96 952.42 844.80 960.03
  C 832.74 982.06 834.32 1010.08 844.74 1031.84
  C 862.62 1069.19 902.95 1089.31 944.04 1085.42
  C 980.90 1081.92 1014.11 1057.88 1025.34 1022.37
  C 1037.45 984.12 1020.77 944.15 987.67 922.70
  C 954.07 900.93 910.48 900.37 876.56 922.62
  Q 873.16 924.85 867.08 930.09
  Q 866.48 930.61 865.82 931.09
  C 864.81 931.83 863.90 932.98 862.94 933.86
  Z
  M 788.00 1180.90
  Q 761.51 1193.10 733.48 1198.71
  Q 732.67 1198.87 733.30 1199.41
  C 743.00 1207.69 748.53 1218.53 751.10 1230.63
  A 0.54 0.53 73.6 0 0 751.81 1231.02
  Q 763.21 1226.77 774.50 1224.21
  Q 797.57 1218.98 818.33 1225.59
  Q 827.56 1228.53 837.15 1232.66
  A 0.34 0.34 0.0 0 0 837.62 1232.29
  Q 834.11 1212.09 835.11 1192.89
  Q 836.41 1167.74 841.52 1145.31
  Q 843.20 1137.94 846.17 1129.73
  A 0.44 0.44 0.0 0 0 845.87 1129.16
  L 839.22 1127.43
  Q 838.70 1127.29 838.51 1127.81
  Q 836.45 1133.48 833.66 1137.72
  Q 823.52 1153.11 808.84 1166.90
  Q 799.65 1175.53 788.00 1180.90
  Z
  M 987.70 1201.68
  C 983.71 1212.69 979.27 1223.45 972.19 1232.96
  C 967.86 1238.78 963.93 1244.89 958.45 1249.88
  Q 951.09 1256.57 943.97 1262.52
  C 936.14 1269.07 925.96 1273.41 916.63 1277.83
  Q 892.73 1289.15 866.56 1292.51
  A 0.39 0.38 -15.7 0 0 866.25 1293.05
  Q 873.21 1308.54 872.73 1326.23
  Q 872.71 1326.95 873.37 1326.64
  C 884.54 1321.26 895.39 1317.88 907.97 1319.84
  Q 934.92 1324.03 950.67 1345.03
  A 1.76 1.75 -21.5 0 0 952.27 1345.72
  C 955.85 1345.33 958.20 1344.23 962.44 1342.52
  Q 978.73 1335.95 988.09 1320.51
  Q 989.38 1318.39 988.72 1316.12
  Q 984.65 1302.16 984.23 1285.90
  Q 983.46 1255.74 988.86 1227.70
  Q 994.19 1200.03 1001.86 1177.98
  Q 1008.96 1157.52 1018.45 1136.39
  Q 1018.83 1135.55 1017.93 1135.74
  Q 1002.50 1139.01 988.93 1140.27
  Q 988.20 1140.34 988.44 1141.04
  C 991.75 1150.76 993.70 1159.92 993.60 1170.53
  Q 993.46 1185.81 987.70 1201.68
  Z"
/>
<path fill="#9e9a98" d="
  M 721.46 177.81
  C 733.90 181.37 746.39 185.82 758.16 191.36
  Q 759.77 192.12 758.00 191.96
  Q 704.24 187.30 647.84 192.44
  Q 625.88 194.45 603.74 198.54
  Q 585.34 201.94 568.67 208.14
  Q 568.09 208.36 567.95 207.75
  L 560.25 174.22
  A 0.84 0.84 0.0 0 1 560.86 173.21
  Q 587.75 166.49 616.43 165.35
  Q 670.35 163.20 721.46 177.81
  Z"
/>
<rect fill="#6b6b6b" x="-16.14" y="-27.00" transform="translate(527.43,198.72) rotate(-13.8)" width="32.28" height="54.00" rx="0.45"/>
<path fill="#9e9a98" d="
  M 355.19 257.43
  C 392.81 225.67 438.46 201.05 486.67 190.25
  A 0.56 0.55 77.0 0 1 487.32 190.66
  L 495.60 224.54
  Q 495.68 224.89 495.33 224.93
  Q 473.24 227.57 451.65 234.47
  Q 382.33 256.62 319.11 295.26
  Q 316.97 296.57 318.54 294.62
  Q 334.61 274.80 355.19 257.43
  Z"
/>
<path fill="#482f18" d="
  M 602.75 543.70
  Q 567.82 397.32 532.99 250.92
  C 532.75 249.90 532.19 248.89 531.93 247.89
  Q 531.75 247.20 532.44 247.03
  L 544.67 243.99
  A 0.60 0.60 0.0 0 1 545.40 244.44
  L 619.63 563.01
  A 1.03 1.03 0.0 0 1 618.89 564.24
  Q 614.20 565.48 609.81 568.26
  A 0.58 0.57 -20.9 0 1 608.93 567.87
  Q 608.41 564.70 607.43 561.76
  C 605.38 555.57 604.20 549.81 602.75 543.70
  Z"
/>
<ellipse fill="#eaddc3" cx="0.00" cy="0.00" transform="translate(704.51,353.51) rotate(111.8)" rx="31.63" ry="26.46"/>
<path fill="#ffa332" d="
  M 750.87 333.09
  C 784.81 329.05 816.59 341.26 831.50 373.08
  A 0.51 0.51 0.0 0 1 831.21 373.78
  Q 825.45 375.85 818.83 375.74
  Q 793.88 375.35 768.82 364.09
  C 763.31 361.62 756.58 357.83 752.94 353.29
  A 1.79 1.77 27.3 0 1 752.54 352.06
  Q 752.97 342.94 750.31 333.93
  Q 750.09 333.19 750.87 333.09
  Z"
/>
<path fill="#6b6b6b" d="
  M 746.93 375.67
  C 765.50 387.96 788.88 394.61 810.73 396.32
  Q 825.19 397.46 837.16 394.05
  Q 837.63 393.92 837.68 394.41
  L 838.27 401.26
  Q 838.49 403.82 836.03 404.53
  C 830.74 406.06 824.76 406.38 819.33 406.12
  Q 789.93 404.68 761.13 394.12
  Q 749.70 389.93 741.51 384.61
  Q 740.99 384.28 741.37 383.79
  Q 744.23 380.16 746.18 375.88
  Q 746.43 375.34 746.93 375.67
  Z"
/>
<path fill="#ffa332" d="
  M 743.92 409.60
  Q 760.68 417.06 782.84 422.08
  Q 804.69 427.02 824.73 426.95
  Q 830.25 426.93 835.85 425.97
  Q 836.69 425.83 836.52 426.66
  Q 835.38 432.25 833.84 437.88
  Q 833.36 439.64 831.65 440.17
  Q 823.54 442.71 815.35 442.81
  Q 779.59 443.27 749.98 428.13
  C 740.21 423.14 732.03 424.99 722.03 427.24
  Q 714.87 428.85 706.81 428.49
  Q 677.87 427.19 653.77 413.74
  C 647.65 410.32 641.02 405.38 637.35 399.18
  Q 634.86 394.96 639.09 392.45
  C 647.00 387.74 656.19 387.98 665.36 387.22
  Q 665.87 387.18 666.17 387.59
  C 679.60 405.70 703.53 410.35 723.35 399.61
  Q 724.27 399.10 725.21 398.65
  Q 725.66 398.42 726.05 398.74
  Q 734.01 405.18 743.92 409.60
  Z"
/>
<path fill="#ffffff" d="
  M 747.55 449.96
  Q 780.36 464.58 816.68 463.69
  A 0.95 0.94 -14.1 0 1 817.56 464.21
  Q 828.64 485.54 834.60 509.35
  Q 838.37 524.38 841.34 541.61
  Q 845.53 565.94 848.34 589.10
  Q 850.82 609.52 850.26 633.86
  C 850.23 635.41 849.36 636.05 848.09 636.65
  Q 834.02 643.33 817.17 646.01
  Q 771.33 653.30 726.63 642.02
  Q 725.46 641.73 725.75 640.56
  Q 731.35 618.42 731.97 595.89
  Q 732.46 578.42 726.97 560.87
  C 720.16 539.14 699.91 532.63 679.18 535.48
  C 672.67 536.37 666.55 533.96 661.10 530.40
  Q 655.39 526.68 655.28 520.00
  C 655.02 502.88 665.21 489.06 676.82 477.81
  C 680.31 474.42 682.58 469.05 680.90 464.27
  C 678.34 457.02 671.69 456.21 664.98 457.91
  Q 659.00 459.43 654.41 461.29
  C 646.87 464.34 639.56 466.73 631.65 463.98
  C 627.88 462.67 626.13 458.14 627.86 454.50
  Q 634.43 440.69 642.73 432.00
  Q 643.02 431.70 643.39 431.90
  Q 674.93 449.08 709.90 449.35
  Q 710.56 449.35 710.74 449.99
  C 715.16 466.24 739.35 464.13 739.55 446.20
  Q 739.56 445.51 740.14 445.88
  Q 743.80 448.29 747.55 449.96
  Z"
/>
<path fill="#ffa332" d="
  M 635.13 528.50
  C 636.56 535.08 640.49 540.59 645.44 544.99
  A 0.40 0.40 0.0 0 1 645.36 545.64
  L 638.52 549.31
  Q 637.91 549.63 637.75 548.96
  L 622.61 483.93
  Q 622.45 483.21 623.13 483.48
  Q 632.20 487.02 642.49 486.30
  A 0.37 0.36 -77.4 0 1 642.83 486.85
  C 636.14 499.02 632.11 514.59 635.13 528.50
  Z"
/>
<path fill="#ffa332" d="
  M 507.53 565.71
  C 517.15 562.57 526.79 556.96 535.28 551.19
  Q 557.02 536.41 575.32 519.50
  A 0.11 0.11 0.0 0 1 575.51 519.56
  L 588.01 571.92
  Q 588.14 572.47 587.61 572.66
  Q 563.38 581.10 537.61 584.38
  C 527.01 585.73 514.93 585.88 504.73 583.25
  Q 502.03 582.56 500.76 580.21
  C 496.72 572.74 500.72 567.93 507.53 565.71
  Z"
/>
<path fill="#a8c574" d="
  M 880.38 608.89
  C 882.87 589.35 888.26 572.13 898.66 556.23
  Q 899.18 555.43 899.82 554.73
  Q 900.90 553.55 902.32 554.31
  Q 909.00 557.88 912.18 565.40
  Q 916.45 575.46 919.31 585.88
  Q 919.47 586.46 918.91 586.70
  Q 899.29 594.86 880.83 609.15
  Q 880.29 609.57 880.38 608.89
  Z"
/>
<path fill="#ffffff" d="
  M 642.02 580.72
  C 647.60 583.20 653.26 585.90 658.16 589.42
  C 665.99 595.03 666.41 606.55 657.94 611.70
  C 650.63 616.14 640.42 613.80 632.70 610.55
  C 624.39 607.04 615.50 599.25 618.25 589.42
  Q 619.46 585.12 624.20 581.98
  Q 632.51 576.49 642.02 580.72
  Z"
/>
<path fill="#a8c574" d="
  M 881.88 635.36
  C 902.57 616.98 926.94 601.90 954.68 598.62
  Q 956.73 598.38 958.09 599.97
  C 965.10 608.13 970.02 620.09 972.92 630.65
  A 0.46 0.46 0.0 0 1 972.62 631.21
  Q 962.79 634.38 951.69 636.14
  C 928.03 639.89 905.50 640.67 882.09 636.13
  Q 881.21 635.96 881.88 635.36
  Z"
/>
<path fill="#482f18" d="
  M 634.81 628.96
  L 675.90 804.86
  A 0.39 0.38 -7.2 0 1 675.53 805.33
  Q 670.96 805.42 666.14 806.35
  A 0.89 0.89 0.0 0 1 665.11 805.68
  Q 657.69 774.19 650.06 742.52
  C 649.26 739.20 649.18 735.77 648.38 732.47
  Q 635.12 677.53 622.25 623.60
  A 0.28 0.27 6.3 0 1 622.64 623.29
  Q 627.86 625.86 633.50 627.56
  Q 634.56 627.88 634.81 628.96
  Z"
/>
<path fill="#a8c574" d="
  M 703.50 730.41
  Q 702.78 728.96 702.11 727.51
  A 0.41 0.41 0.0 0 1 702.46 726.93
  Q 735.86 725.33 765.81 710.64
  Q 772.17 707.51 777.05 703.75
  C 781.97 699.96 783.85 693.42 779.82 688.32
  C 776.45 684.08 770.42 683.51 765.99 686.26
  C 761.68 688.93 757.58 691.68 752.87 693.80
  Q 731.06 703.62 707.24 705.72
  C 703.01 706.09 698.02 705.92 693.31 706.12
  Q 692.63 706.15 692.37 705.51
  Q 686.11 690.07 681.83 675.34
  A 3.06 3.01 -42.8 0 1 681.92 673.38
  Q 686.61 661.51 696.38 655.18
  C 698.03 654.11 699.93 653.88 701.72 654.80
  Q 705.41 656.70 709.47 658.20
  Q 728.08 665.08 750.34 667.80
  Q 781.09 671.57 811.36 668.01
  Q 833.79 665.37 851.94 658.00
  Q 852.59 657.73 852.32 658.38
  C 843.51 679.25 829.89 697.72 814.24 715.01
  C 791.20 740.44 764.09 762.94 734.37 779.94
  A 0.44 0.44 0.0 0 1 733.80 779.82
  Q 716.31 756.05 703.50 730.41
  Z"
/>
<path fill="#372f2b" d="
  M 937.32 855.63
  Q 934.28 835.54 928.78 813.79
  Q 916.71 766.06 901.62 726.40
  Q 893.05 703.90 882.69 683.10
  Q 882.00 681.73 883.50 682.06
  L 890.68 683.67
  Q 892.81 684.14 893.88 686.05
  Q 904.22 704.44 910.68 720.20
  Q 935.51 780.73 944.47 848.44
  C 945.56 856.69 946.18 865.18 946.58 873.73
  Q 946.81 878.59 946.17 885.06
  A 1.12 1.11 -84.6 0 1 944.96 886.07
  L 940.30 885.64
  Q 939.30 885.55 939.35 884.55
  C 939.61 878.68 940.16 873.14 939.17 867.27
  Q 938.26 861.87 937.32 855.63
  Z"
/>
<path fill="#eaddc3" d="
  M 823.72 920.42
  Q 833.99 917.99 842.28 911.78
  L 846.22 908.77
  Q 849.65 907.04 851.78 903.87
  Q 862.23 893.36 867.63 879.30
  Q 867.82 878.81 868.34 878.74
  Q 883.46 876.79 896.61 870.17
  C 910.38 863.25 901.52 844.65 887.28 851.36
  Q 879.37 855.09 871.72 856.84
  Q 870.91 857.03 870.92 856.20
  C 871.28 819.17 840.40 788.09 803.10 789.08
  Q 776.85 789.77 757.93 807.64
  A 0.42 0.42 0.0 0 1 757.34 807.62
  L 747.66 797.13
  Q 747.25 796.68 747.78 796.37
  C 786.90 773.32 821.22 742.35 848.18 706.41
  Q 853.90 698.79 858.14 691.29
  C 859.87 688.22 862.90 689.29 864.22 691.92
  Q 871.53 706.50 878.06 723.20
  Q 902.33 785.39 914.93 847.77
  C 917.55 860.77 919.15 872.96 918.50 885.47
  Q 918.47 886.00 917.95 886.07
  Q 902.11 888.39 891.75 891.70
  Q 875.87 896.78 861.75 907.19
  Q 852.25 914.21 843.02 923.87
  Q 838.38 928.74 834.85 934.17
  A 1.34 1.34 0.0 0 1 832.98 934.55
  Q 825.76 929.73 819.18 923.10
  A 1.02 1.01 -29.0 0 1 819.67 921.40
  L 823.72 920.42
  Z"
/>
<path fill="#eaddc3" d="
  M 722.94 914.47
  Q 723.32 912.32 722.33 910.30
  L 719.27 897.00
  L 717.34 889.32
  Q 716.68 886.65 718.36 888.82
  L 726.83 899.71
  L 727.86 901.47
  Q 729.55 904.51 732.10 906.42
  Q 753.65 933.56 778.77 957.48
  C 789.79 967.98 801.61 978.21 815.66 984.55
  Q 815.92 984.66 815.90 984.94
  C 812.22 1030.82 836.24 1071.79 876.82 1092.97
  C 916.52 1113.68 965.05 1111.15 1001.93 1086.09
  Q 1028.67 1067.92 1041.31 1038.86
  C 1054.90 1007.64 1052.67 971.69 1035.03 942.60
  A 0.53 0.52 -35.9 0 1 1035.14 941.93
  C 1039.04 938.60 1041.83 933.00 1044.59 928.62
  C 1050.09 919.93 1051.55 912.97 1044.01 904.39
  C 1037.60 897.09 1030.51 889.80 1023.04 883.70
  C 1015.90 877.88 1005.78 874.13 997.19 878.12
  Q 991.97 880.54 985.84 884.71
  Q 979.15 889.28 976.13 892.76
  Q 975.70 893.25 975.09 893.05
  L 968.02 890.73
  Q 967.39 890.53 967.44 889.86
  Q 967.95 883.92 967.75 878.92
  C 966.07 836.42 957.52 794.51 944.87 753.74
  Q 935.47 723.43 923.19 696.76
  A 0.11 0.11 0.0 0 1 923.30 696.60
  Q 1011.90 706.40 1085.12 755.57
  Q 1123.63 781.43 1153.52 820.55
  Q 1154.18 821.41 1154.28 822.46
  Q 1155.58 835.67 1156.13 847.61
  C 1158.69 903.63 1146.85 961.79 1117.45 1009.88
  Q 1074.55 1080.06 997.33 1109.52
  C 987.80 1113.15 977.13 1116.12 967.18 1118.90
  Q 962.00 1120.35 955.55 1120.64
  Q 945.97 1121.06 933.85 1120.39
  C 864.24 1116.55 796.77 1093.91 740.58 1052.84
  A 0.35 0.35 0.0 0 1 740.68 1052.22
  C 745.89 1050.51 751.57 1046.64 751.67 1040.67
  Q 751.71 1037.88 750.65 1033.33
  Q 736.77 973.90 722.94 914.47
  Z"
/>
<path fill="#6b6b6b" d="
  M 682.24 734.52
  Q 681.88 737.20 682.20 738.00
  Q 682.97 739.86 683.22 743.04
  L 680.83 733.18
  A 0.42 0.41 9.8 0 1 681.46 732.74
  Q 682.11 733.16 682.24 734.52
  Z"
/>
<path fill="#a8c574" d="
  M 682.24 734.52
  Q 695.92 763.25 714.54 789.11
  Q 714.83 789.51 714.38 789.70
  Q 705.14 793.68 695.77 796.04
  A 0.42 0.42 0.0 0 1 695.25 795.73
  L 683.22 743.04
  Q 682.97 739.86 682.20 738.00
  Q 681.88 737.20 682.24 734.52
  Z"
/>
<path fill="#eaddc3" d="
  M 728.85 807.45
  L 732.79 812.48
  Q 736.33 818.03 741.49 821.46
  L 744.17 824.08
  Q 745.15 825.04 744.46 826.22
  Q 742.37 829.83 741.65 832.83
  Q 741.31 834.26 740.48 833.05
  L 724.32 809.47
  A 1.01 1.00 -23.9 0 1 724.92 807.93
  Q 726.19 807.63 727.50 806.84
  Q 728.37 806.32 728.85 807.45
  Z"
/>
<path fill="#6b6b6b" d="
  M 728.85 807.45
  L 731.33 809.71
  Q 731.29 810.85 732.48 811.54
  Q 732.90 811.78 732.79 812.48
  L 728.85 807.45
  Z"
/>
<path fill="#372f2b" d="
  M 731.33 809.71
  L 735.72 814.75
  Q 734.38 814.45 733.99 813.28
  Q 733.82 812.80 733.34 812.65
  L 732.79 812.48
  Q 732.90 811.78 732.48 811.54
  Q 731.29 810.85 731.33 809.71
  Z"
/>
<path fill="#ce6343" d="
  M 828.59 854.38
  Q 829.08 848.33 828.52 842.50
  Q 828.19 839.12 826.88 836.57
  C 823.43 829.82 815.36 829.20 810.11 834.36
  Q 805.86 838.54 802.98 843.36
  L 797.24 840.05
  Q 797.62 836.22 793.89 832.86
  Q 788.97 828.42 783.24 830.44
  L 773.36 822.59
  A 0.47 0.47 0.0 0 1 773.35 821.87
  C 804.39 794.94 850.63 816.56 850.07 857.68
  Q 850.06 858.27 849.47 858.24
  Q 838.59 857.67 828.59 854.38
  Z"
/>
<path fill="#9e9a98" d="
  M 732.79 812.48
  L 733.34 812.65
  Q 733.82 812.80 733.99 813.28
  Q 734.38 814.45 735.72 814.75
  L 741.49 821.46
  Q 736.33 818.03 732.79 812.48
  Z"
/>
<path fill="#372f2b" d="
  M 748.95 893.97
  Q 726.99 866.90 708.86 838.38
  A 3.39 3.38 -57.3 0 1 708.36 836.07
  Q 709.90 825.02 703.34 816.44
  Q 703.13 816.17 703.41 815.98
  L 703.64 815.83
  Q 703.80 815.71 703.91 815.89
  Q 712.74 830.43 724.32 846.17
  Q 751.28 882.83 780.30 914.02
  C 793.67 928.41 807.72 942.19 823.53 953.58
  A 0.73 0.73 0.0 0 1 823.78 954.43
  L 820.53 962.95
  A 0.73 0.72 -65.2 0 1 819.51 963.33
  C 809.00 957.53 799.48 948.90 790.86 940.47
  C 775.95 925.86 762.13 910.22 748.95 893.97
  Z"
/>
<path fill="#ffffff" d="
  M 690.94 825.76
  C 695.90 833.33 689.62 841.77 683.78 846.79
  Q 675.28 854.08 665.34 856.68
  C 658.02 858.59 649.30 857.71 645.40 850.49
  C 641.27 842.83 646.01 835.56 652.40 830.79
  C 660.03 825.09 683.34 814.17 690.94 825.76
  Z"
/>
<path fill="#a8c574" d="
  M 797.24 840.05
  L 783.24 830.44
  Q 788.97 828.42 793.89 832.86
  Q 797.62 836.22 797.24 840.05
  Z"
/>
<path fill="#a8c574" d="
  M 828.59 854.38
  Q 815.36 850.38 802.98 843.36
  Q 805.86 838.54 810.11 834.36
  C 815.36 829.20 823.43 829.82 826.88 836.57
  Q 828.19 839.12 828.52 842.50
  Q 829.08 848.33 828.59 854.38
  Z"
/>
<path fill="#ce6343" d="
  M 768.55 845.65
  C 767.77 846.09 767.08 846.44 766.53 847.18
  C 763.37 851.50 760.47 854.79 759.91 858.06
  Q 759.78 857.92 759.45 857.80
  Q 758.84 856.79 758.73 854.75
  Q 758.34 847.34 760.80 840.50
  A 0.57 0.57 0.0 0 1 761.69 840.25
  L 768.55 845.65
  Z"
/>
<path fill="#a8c574" d="
  M 768.55 845.65
  Q 768.66 845.87 768.98 846.04
  Q 770.42 847.80 773.78 850.24
  Q 778.13 853.42 781.01 854.57
  Q 793.09 862.74 806.86 868.78
  Q 805.17 871.06 803.81 873.32
  C 797.66 883.54 785.38 880.51 783.90 868.87
  Q 783.16 863.09 782.79 858.22
  Q 782.65 856.55 781.71 857.94
  Q 778.08 863.26 774.17 868.64
  Q 772.57 870.84 770.47 870.85
  L 764.73 863.88
  L 759.91 858.06
  C 760.47 854.79 763.37 851.50 766.53 847.18
  C 767.08 846.44 767.77 846.09 768.55 845.65
  Z"
/>
<path fill="#6b6b6b" d="
  M 768.98 846.04
  L 781.01 854.57
  Q 778.13 853.42 773.78 850.24
  Q 770.42 847.80 768.98 846.04
  Z"
/>
<path fill="#ce6343" d="
  M 806.86 868.78
  L 810.29 870.19
  Q 810.45 877.19 810.55 884.01
  C 810.63 889.99 815.09 894.71 821.05 893.64
  C 829.52 892.12 829.39 883.67 828.90 876.27
  L 842.83 878.86
  A 0.54 0.54 0.0 0 1 843.17 879.70
  L 838.60 886.11
  L 830.43 893.32
  Q 828.42 895.08 825.74 896.40
  Q 814.10 902.13 800.44 901.70
  C 796.80 901.59 795.54 899.68 793.42 897.37
  Q 781.52 884.46 770.47 870.85
  Q 772.57 870.84 774.17 868.64
  Q 778.08 863.26 781.71 857.94
  Q 782.65 856.55 782.79 858.22
  Q 783.16 863.09 783.90 868.87
  C 785.38 880.51 797.66 883.54 803.81 873.32
  Q 805.17 871.06 806.86 868.78
  Z"
/>
<path fill="#6b6b6b" d="
  M 759.45 857.80
  Q 759.78 857.92 759.91 858.06
  L 764.73 863.88
  Q 761.55 861.43 759.45 857.80
  Z"
/>
<path fill="#482f18" d="
  M 689.37 862.06
  L 729.25 1033.67
  A 0.32 0.32 0.0 0 1 729.02 1034.05
  L 720.41 1036.41
  A 0.32 0.32 0.0 0 1 720.01 1036.18
  L 679.62 866.77
  A 0.32 0.32 0.0 0 1 679.79 866.41
  L 688.92 861.85
  A 0.32 0.32 0.0 0 1 689.37 862.06
  Z"
/>
<path fill="#ffffff" d="
  M 1059.26 1100.97
  C 1138.47 1047.10 1177.52 956.64 1177.29 862.52
  Q 1177.29 861.51 1177.69 862.43
  C 1195.49 902.77 1198.79 948.16 1183.27 989.62
  C 1163.10 1043.52 1116.46 1080.37 1063.70 1100.92
  Q 1061.70 1101.70 1059.50 1101.73
  Q 1058.12 1101.75 1059.26 1100.97
  Z"
/>
<path fill="#eaddc3" d="
  M 642.95 867.27
  Q 650.41 870.46 658.46 870.39
  A 0.81 0.80 82.8 0 1 659.25 871.01
  L 691.57 1006.75
  Q 691.61 1006.90 691.51 1006.78
  Q 666.93 977.84 653.61 942.99
  Q 639.69 906.59 642.59 867.50
  A 0.26 0.26 0.0 0 1 642.95 867.27
  Z"
/>
<path fill="#a8c574" d="
  M 810.29 870.19
  L 828.90 876.27
  C 829.39 883.67 829.52 892.12 821.05 893.64
  C 815.09 894.71 810.63 889.99 810.55 884.01
  Q 810.45 877.19 810.29 870.19
  Z"
/>
<path fill="#482f18" d="
  M 838.60 886.11
  Q 835.71 891.05 830.43 893.32
  L 838.60 886.11
  Z"
/>
<path fill="#6b6b6b" d="
  M 719.27 897.00
  L 722.33 910.30
  L 722.17 911.96
  L 720.80 906.22
  Q 720.65 905.60 720.40 905.01
  Q 718.75 901.15 719.27 897.00
  Z"
/>
<path fill="#9e9a98" d="
  M 1006.59 898.48
  Q 1010.13 900.57 1013.98 904.22
  Q 1020.78 910.68 1026.10 916.63
  A 0.67 0.66 -50.6 0 1 1026.17 917.41
  L 1021.98 924.23
  A 0.31 0.31 0.0 0 1 1021.49 924.27
  Q 1010.67 912.30 997.41 904.14
  Q 996.25 903.43 997.40 902.71
  L 1004.16 898.50
  A 2.34 2.33 -45.4 0 1 1006.59 898.48
  Z"
/>
<path fill="#372f2b" d="
  M 726.83 899.71
  Q 728.86 900.16 729.52 902.97
  L 727.86 901.47
  L 726.83 899.71
  Z"
/>
<path fill="#6b6b6b" d="
  M 727.86 901.47
  L 729.52 902.97
  Q 731.16 904.49 732.10 906.42
  Q 729.55 904.51 727.86 901.47
  Z"
/>
<path fill="#6b6b6b" d="
  M 851.78 903.87
  Q 849.65 907.04 846.22 908.77
  Q 846.75 907.25 848.26 906.59
  Q 848.70 906.40 849.08 906.10
  L 851.78 903.87
  Z"
/>
<path fill="#9e9a98" d="
  M 862.94 933.86
  C 863.90 932.98 864.81 931.83 865.82 931.09
  Q 866.48 930.61 867.08 930.09
  Q 873.16 924.85 876.56 922.62
  C 910.48 900.37 954.07 900.93 987.67 922.70
  C 1020.77 944.15 1037.45 984.12 1025.34 1022.37
  C 1014.11 1057.88 980.90 1081.92 944.04 1085.42
  C 902.95 1089.31 862.62 1069.19 844.74 1031.84
  C 834.32 1010.08 832.74 982.06 844.80 960.03
  Q 848.96 952.42 855.17 943.18
  Q 859.04 937.42 862.94 933.86
  Z"
/>
<path fill="#9e9a98" d="
  M 722.33 910.30
  Q 723.32 912.32 722.94 914.47
  L 722.17 911.96
  L 722.33 910.30
  Z"
/>
<path fill="#6b6b6b" d="
  M 842.28 911.78
  Q 833.99 917.99 823.72 920.42
  Q 828.02 918.15 832.57 916.82
  Q 834.02 916.40 834.89 915.69
  C 835.82 914.92 836.64 914.93 837.62 914.15
  Q 839.78 912.41 842.28 911.78
  Z"
/>
<path fill="#ffa332" d="
  M 788.00 1180.90
  Q 799.65 1175.53 808.84 1166.90
  Q 823.52 1153.11 833.66 1137.72
  Q 836.45 1133.48 838.51 1127.81
  Q 838.70 1127.29 839.22 1127.43
  L 845.87 1129.16
  A 0.44 0.44 0.0 0 1 846.17 1129.73
  Q 843.20 1137.94 841.52 1145.31
  Q 836.41 1167.74 835.11 1192.89
  Q 834.11 1212.09 837.62 1232.29
  A 0.34 0.34 0.0 0 1 837.15 1232.66
  Q 827.56 1228.53 818.33 1225.59
  Q 797.57 1218.98 774.50 1224.21
  Q 763.21 1226.77 751.81 1231.02
  A 0.54 0.53 73.6 0 1 751.10 1230.63
  C 748.53 1218.53 743.00 1207.69 733.30 1199.41
  Q 732.67 1198.87 733.48 1198.71
  Q 761.51 1193.10 788.00 1180.90
  Z"
/>
<path fill="#ffa332" d="
  M 972.19 1232.96
  C 979.27 1223.45 983.71 1212.69 987.70 1201.68
  Q 993.46 1185.81 993.60 1170.53
  C 993.70 1159.92 991.75 1150.76 988.44 1141.04
  Q 988.20 1140.34 988.93 1140.27
  Q 1002.50 1139.01 1017.93 1135.74
  Q 1018.83 1135.55 1018.45 1136.39
  Q 1008.96 1157.52 1001.86 1177.98
  Q 994.19 1200.03 988.86 1227.70
  Q 983.46 1255.74 984.23 1285.90
  Q 984.65 1302.16 988.72 1316.12
  Q 989.38 1318.39 988.09 1320.51
  Q 978.73 1335.95 962.44 1342.52
  C 958.20 1344.23 955.85 1345.33 952.27 1345.72
  A 1.76 1.75 -21.5 0 1 950.67 1345.03
  Q 934.92 1324.03 907.97 1319.84
  C 895.39 1317.88 884.54 1321.26 873.37 1326.64
  Q 872.71 1326.95 872.73 1326.23
  Q 873.21 1308.54 866.25 1293.05
  A 0.39 0.38 -15.7 0 1 866.56 1292.51
  Q 892.73 1289.15 916.63 1277.83
  C 925.96 1273.41 936.14 1269.07 943.97 1262.52
  Q 951.09 1256.57 958.45 1249.88
  C 963.93 1244.89 967.86 1238.78 972.19 1232.96
  Z"
/>
</svg>
