<?xml version="1.0" encoding="UTF-8" standalone="no"?>
<!DOCTYPE svg PUBLIC "-//W3C//DTD SVG 1.1//EN" "http://www.w3.org/Graphics/SVG/1.1/DTD/svg11.dtd">
<svg xmlns="http://www.w3.org/2000/svg" version="1.1" viewBox="0.00 0.00 1448.00 1448.00">
<g stroke-width="2.00" fill="none" stroke-linecap="butt">
<path stroke="#4f4d4c" vector-effect="non-scaling-stroke" d="
  M 906.49 107.57
  Q 892.47 102.90 878.66 100.21
  C 822.77 89.32 763.26 92.98 709.41 112.42
  Q 705.98 113.66 709.63 113.58
  Q 781.70 112.15 851.24 127.36
  Q 868.42 131.12 885.69 137.34
  Q 891.00 139.26 896.16 141.82
  A 0.69 0.69 0.0 0 0 897.12 141.40
  L 906.94 108.45
  Q 907.14 107.79 906.49 107.57"
/>
<path stroke="#363636" vector-effect="non-scaling-stroke" d="
  M 960.5724 114.7417
  A 0.59 0.59 0.0 0 0 960.1755 114.0077
  L 930.3717 105.1228
  A 0.59 0.59 0.0 0 0 929.6377 105.5197
  L 914.5476 156.1383
  A 0.59 0.59 0.0 0 0 914.9445 156.8723
  L 944.7483 165.7572
  A 0.59 0.59 0.0 0 0 945.4823 165.3603
  L 960.5724 114.7417"
/>
<path stroke="#4f4d4c" vector-effect="non-scaling-stroke" d="
  M 1109.27 208.89
  C 1073.32 173.39 1027.94 144.43 979.19 130.28
  A 0.74 0.73 16.5 0 0 978.28 130.76
  L 967.95 163.75
  A 0.59 0.58 12.7 0 0 968.43 164.50
  Q 975.73 165.49 982.60 167.35
  Q 1004.58 173.28 1027.97 183.37
  Q 1087.64 209.10 1139.61 245.74
  Q 1141.69 247.21 1140.21 245.13
  Q 1126.56 225.97 1109.27 208.89"
/>
<path stroke="#24180c" vector-effect="non-scaling-stroke" d="
  M 903.42 224.71
  Q 864.51 352.46 825.59 480.22
  C 824.06 485.23 823.19 490.36 821.47 495.27
  A 0.57 0.57 0.0 0 0 822.03 496.03
  Q 827.35 495.85 832.12 497.24
  A 0.79 0.79 0.0 0 0 833.10 496.72
  L 929.89 184.25
  A 0.86 0.86 0.0 0 0 929.32 183.17
  L 917.69 179.74
  Q 917.05 179.55 916.86 180.19
  Q 910.04 202.97 903.42 224.71"
/>
<path stroke="#756f62" vector-effect="non-scaling-stroke" d="
  M 760.0011 361.5082
  A 31.64 26.45 126.7 0 0 800.1170 351.9472
  A 31.64 26.45 126.7 0 0 797.8189 310.7718
  A 31.64 26.45 126.7 0 0 757.7030 320.3328
  A 31.64 26.45 126.7 0 0 760.0011 361.5082"
/>
<path stroke="#805219" vector-effect="non-scaling-stroke" d="
  M 848.35 333.79
  Q 848.54 333.15 847.90 332.93
  Q 838.42 329.69 828.56 328.39
  A 0.33 0.32 -87.8 0 0 828.20 328.73
  Q 828.52 338.21 825.61 347.43
  A 1.44 1.44 0.0 0 0 825.71 348.51
  C 828.82 354.40 833.64 359.10 838.75 363.40
  Q 839.21 363.79 839.39 363.20
  L 848.35 333.79"
/>
<path stroke="#805219" vector-effect="non-scaling-stroke" d="
  M 715.81 382.63
  C 732.76 398.41 758.85 412.38 781.55 412.13
  Q 790.15 412.03 797.91 415.90
  Q 800.78 417.33 806.30 422.35
  Q 811.09 426.69 818.07 431.46
  A 0.38 0.37 -64.2 0 0 818.64 431.26
  L 823.35 415.99
  Q 823.61 415.15 822.85 414.70
  Q 808.33 406.04 797.78 396.40
  Q 792.03 391.15 788.14 385.51
  Q 787.78 384.98 787.14 385.12
  C 769.75 389.18 754.13 385.74 741.97 373.22
  Q 736.23 367.32 733.13 359.16
  Q 732.93 358.64 732.38 358.55
  C 723.58 357.12 712.10 353.24 703.52 357.79
  C 700.81 359.23 702.27 363.76 703.21 365.83
  Q 707.22 374.64 715.81 382.63"
/>
<path stroke="#363636" vector-effect="non-scaling-stroke" d="
  M 832.65 385.34
  Q 832.70 385.14 832.54 385.02
  Q 822.19 377.66 814.36 368.69
  Q 813.96 368.24 813.52 368.65
  L 806.74 375.11
  A 0.59 0.59 0.0 0 0 806.72 375.95
  Q 816.64 386.25 829.66 394.46
  Q 829.84 394.57 829.90 394.37
  L 832.65 385.34"
/>
<path stroke="#805219" vector-effect="non-scaling-stroke" d="
  M 888.55 388.05
  A 0.34 0.34 0.0 0 0 888.87 388.49
  L 896.48 388.63
  A 0.34 0.34 0.0 0 0 896.81 388.20
  L 893.26 374.86
  A 0.34 0.34 0.0 0 0 892.61 374.85
  L 888.55 388.05"
/>
<path stroke="#808080" vector-effect="non-scaling-stroke" d="
  M 759.20 430.00
  C 737.04 424.31 715.86 411.72 699.62 396.01
  A 0.63 0.63 0.0 0 0 698.84 395.93
  Q 687.16 403.51 678.48 414.22
  Q 676.52 416.65 677.34 420.28
  C 678.69 426.20 689.56 428.15 694.56 427.84
  Q 701.15 427.44 708.44 426.83
  C 715.08 426.27 723.09 426.38 726.41 433.06
  C 729.34 438.94 725.84 445.67 720.43 448.73
  C 706.33 456.72 694.02 466.23 688.76 482.27
  Q 686.40 489.50 690.10 494.32
  Q 697.69 504.20 708.19 505.49
  C 718.30 506.73 728.71 510.89 736.77 516.29
  C 747.55 523.50 752.04 535.58 753.22 548.19
  C 754.95 566.60 752.02 585.78 747.13 603.39
  C 744.84 611.64 742.57 619.76 739.93 627.82
  A 0.61 0.61 0.0 0 0 740.35 628.61
  L 756.68 633.14
  A 0.50 0.50 0.0 0 0 757.29 632.80
  L 812.00 453.17
  A 1.16 1.16 0.0 0 0 811.49 451.83
  Q 799.02 444.32 789.22 434.54
  A 0.25 0.25 0.0 0 0 788.80 434.65
  Q 786.94 441.46 781.23 444.34
  C 772.71 448.62 762.33 443.35 760.23 434.19
  C 759.97 433.05 760.07 431.89 759.90 430.77
  Q 759.80 430.15 759.20 430.00"
/>
<path stroke="#363636" vector-effect="non-scaling-stroke" d="
  M 879.53 417.23
  A 0.35 0.34 -74.2 0 0 879.76 417.66
  C 883.71 418.74 889.95 420.24 894.11 419.12
  Q 895.46 418.76 895.69 417.38
  L 896.92 410.04
  A 0.50 0.50 0.0 0 0 896.39 409.46
  Q 889.53 409.90 882.77 408.40
  A 0.55 0.54 14.0 0 0 882.14 408.77
  L 879.53 417.23"
/>
<path stroke="#805219" vector-effect="non-scaling-stroke" d="
  M 672.30 505.88
  C 667.15 497.85 665.31 489.97 667.49 480.02
  C 669.95 468.74 676.57 457.76 684.68 449.06
  A 0.46 0.46 0.0 0 0 684.44 448.29
  C 674.15 446.19 664.99 441.44 659.61 432.60
  A 0.52 0.51 -33.0 0 0 658.88 432.45
  C 642.05 444.19 626.04 455.11 607.28 464.97
  Q 581.16 478.68 551.13 487.20
  Q 544.35 489.13 533.55 490.05
  C 526.19 490.68 521.35 494.39 523.48 502.52
  Q 524.12 504.99 526.33 506.23
  C 539.12 513.40 555.08 516.18 569.93 517.30
  Q 592.05 518.97 611.89 517.44
  Q 616.04 517.12 619.90 516.44
  Q 633.02 514.13 647.86 511.73
  C 656.09 510.40 664.04 508.28 672.09 506.39
  Q 672.55 506.28 672.30 505.88"
/>
<path stroke="#805219" vector-effect="non-scaling-stroke" d="
  M 868.75 452.05
  A 0.40 0.40 0.0 0 0 869.12 452.56
  L 880.79 452.87
  A 0.40 0.40 0.0 0 0 881.15 452.67
  L 887.58 441.04
  A 0.40 0.40 0.0 0 0 887.31 440.45
  L 873.55 437.77
  A 0.40 0.40 0.0 0 0 873.09 438.04
  L 868.75 452.05"
/>
<path stroke="#808080" vector-effect="non-scaling-stroke" d="
  M 851.70 506.96
  A 1.20 1.20 0.0 0 0 852.05 508.20
  Q 862.77 517.62 868.31 530.60
  Q 868.60 531.27 868.56 530.54
  C 867.68 513.23 865.95 495.36 861.13 478.93
  Q 860.78 477.76 860.42 478.92
  L 851.70 506.96"
/>
<path stroke="#808080" vector-effect="non-scaling-stroke" d="
  M 832.20 554.99
  C 841.47 560.98 853.57 557.10 854.35 545.27
  C 854.63 540.94 852.54 537.10 850.44 533.49
  Q 847.06 527.68 843.01 522.31
  Q 837.42 514.90 828.24 515.11
  C 820.72 515.28 814.90 519.88 814.61 527.30
  C 814.17 538.48 822.83 548.93 832.20 554.99"
/>
<path stroke="#54633a" vector-effect="non-scaling-stroke" d="
  M 917.96 550.02
  C 905.84 565.88 899.28 583.82 895.70 603.45
  Q 895.59 604.07 896.11 603.71
  Q 914.64 590.65 935.40 583.08
  Q 935.92 582.89 935.80 582.35
  Q 933.62 572.30 930.27 562.95
  C 928.22 557.25 925.06 551.93 919.49 549.61
  A 1.31 1.30 -59.9 0 0 917.96 550.02"
/>
<path stroke="#24180c" vector-effect="non-scaling-stroke" d="
  M 786.89 608.75
  Q 780.24 632.13 772.29 657.58
  C 771.24 660.92 769.65 664.01 768.63 667.40
  Q 759.27 698.35 749.79 729.18
  A 0.55 0.55 0.0 0 0 750.14 729.86
  Q 754.77 731.40 758.90 733.75
  A 0.62 0.62 0.0 0 0 759.80 733.39
  Q 770.54 699.19 780.83 664.16
  C 782.58 658.20 783.26 653.12 784.22 647.19
  C 789.02 617.45 798.90 588.20 812.56 560.28
  A 1.25 1.24 -53.9 0 0 812.34 558.86
  Q 808.63 554.96 805.41 550.04
  Q 804.96 549.35 804.73 550.14
  Q 796.19 579.45 787.73 605.99
  Q 787.27 607.43 786.89 608.75"
/>
<path stroke="#808080" vector-effect="non-scaling-stroke" d="
  M 869.00 561.01
  C 862.56 575.16 846.02 577.91 832.14 572.52
  A 0.59 0.58 -70.5 0 0 831.38 572.89
  L 811.10 637.82
  Q 810.89 638.50 811.60 638.49
  Q 833.11 638.21 851.56 633.18
  Q 857.72 631.50 863.25 628.79
  A 1.94 1.91 -11.2 0 0 864.32 627.21
  C 864.72 622.11 865.06 617.16 865.71 611.95
  Q 868.83 587.21 869.18 561.05
  Q 869.19 560.61 869.00 561.01"
/>
<path stroke="#54633a" vector-effect="non-scaling-stroke" d="
  M 970.49 596.80
  C 942.95 598.85 917.06 612.46 895.62 630.21
  A 0.20 0.20 0.0 0 0 895.70 630.55
  Q 919.23 636.31 942.56 635.70
  C 957.29 635.32 972.47 634.11 986.70 630.30
  A 0.59 0.58 76.6 0 0 987.12 629.61
  C 984.54 618.61 980.36 606.75 973.78 598.27
  Q 972.53 596.65 970.49 596.80"
/>
<path stroke="#54633a" vector-effect="non-scaling-stroke" d="
  M 750.58 653.02
  C 738.43 650.27 725.88 646.19 714.95 640.14
  C 713.37 639.26 711.62 639.22 710.04 640.10
  C 703.29 643.83 697.53 650.27 694.63 657.12
  Q 692.69 661.72 693.62 667.96
  C 695.33 679.40 698.03 692.29 689.53 701.79
  C 687.54 704.01 684.91 705.74 683.23 708.04
  Q 678.86 714.04 680.30 721.50
  C 682.23 731.47 685.63 745.37 685.82 757.38
  Q 685.82 757.90 686.25 757.60
  Q 689.57 755.19 693.44 753.74
  A 0.95 0.93 83.1 0 0 694.05 752.95
  C 695.89 735.91 711.95 727.26 728.00 726.56
  Q 728.79 726.53 729.02 725.77
  L 733.42 711.42
  Q 733.61 710.77 732.94 710.87
  Q 718.80 713.06 705.47 711.69
  Q 701.00 711.23 698.01 708.49
  C 694.16 704.98 693.57 699.00 696.92 694.94
  C 700.81 690.22 705.84 690.88 711.30 691.17
  Q 724.47 691.86 739.47 688.81
  A 1.44 1.44 0.0 0 0 740.56 687.82
  L 750.97 653.69
  Q 751.13 653.15 750.58 653.02"
/>
<path stroke="#54633a" vector-effect="non-scaling-stroke" d="
  M 865.30 651.46
  Q 865.69 650.68 864.86 650.96
  C 845.88 657.52 824.96 659.72 804.93 659.49
  A 1.00 0.99 5.9 0 0 803.94 660.29
  Q 802.54 667.32 802.03 674.87
  Q 800.39 699.06 804.19 724.06
  A 0.25 0.25 0.0 0 0 804.60 724.21
  C 828.81 703.54 851.25 679.41 865.30 651.46"
/>
<path stroke="#1c1816" vector-effect="non-scaling-stroke" d="
  M 925.08 771.31
  C 931.61 797.69 936.97 823.17 939.80 848.89
  Q 940.78 857.88 941.65 867.67
  Q 942.04 872.07 940.79 881.29
  Q 940.61 882.67 941.99 882.85
  L 946.19 883.36
  A 1.33 1.33 0.0 0 0 947.68 882.18
  Q 948.96 869.70 948.37 857.38
  Q 945.89 806.20 931.40 751.39
  Q 921.05 712.27 905.77 681.89
  A 6.52 6.50 85.6 0 0 901.97 678.62
  Q 899.04 677.65 896.10 676.68
  Q 893.51 675.83 894.61 678.33
  C 907.64 707.87 916.96 738.46 925.08 771.31"
/>
<path stroke="#756f62" vector-effect="non-scaling-stroke" d="
  M 832.30 926.61
  Q 832.46 926.74 832.62 926.89
  Q 832.87 927.12 833.08 926.85
  Q 851.24 904.04 877.70 891.74
  C 890.40 885.84 905.33 883.13 919.22 882.10
  A 0.68 0.68 0.0 0 0 919.85 881.49
  C 921.03 871.50 920.45 861.04 919.20 851.13
  Q 915.07 818.63 905.98 781.09
  Q 895.97 739.77 882.46 702.64
  Q 879.12 693.43 875.02 684.70
  C 873.91 682.33 871.03 682.12 869.59 684.32
  Q 865.55 690.52 861.02 696.17
  Q 838.85 723.90 809.89 747.00
  A 0.91 0.91 0.0 0 0 809.59 747.96
  Q 814.52 764.74 822.70 780.26
  A 2.38 2.37 -5.8 0 0 824.14 781.43
  C 850.53 789.06 869.04 809.38 873.31 836.39
  Q 873.51 837.61 874.53 838.29
  Q 886.30 846.16 898.71 852.12
  C 912.13 858.58 903.54 877.32 889.53 871.03
  Q 881.23 867.30 873.15 862.42
  Q 872.47 862.00 872.31 862.78
  C 866.75 888.61 843.85 909.16 817.77 912.43
  Q 817.04 912.52 817.55 913.05
  Q 824.36 920.29 832.30 926.61"
/>
<path stroke="#756f62" vector-effect="non-scaling-stroke" d="
  M 812.16 975.20
  C 801.35 969.79 792.10 961.86 783.34 953.13
  Q 756.08 926.01 732.70 892.97
  Q 732.30 892.40 732.10 893.06
  Q 719.83 932.94 707.81 971.53
  C 705.49 979.00 699.22 981.28 691.91 980.05
  Q 684.92 978.88 677.16 976.38
  Q 676.43 976.14 676.85 976.78
  C 734.08 1063.59 838.09 1112.00 939.66 1118.20
  Q 946.95 1118.64 953.90 1117.54
  Q 962.29 1116.21 978.21 1111.84
  Q 1021.67 1099.90 1057.11 1073.61
  C 1126.88 1021.86 1159.72 937.37 1159.10 851.49
  Q 1159.03 840.73 1158.57 830.29
  A 1.72 1.62 -64.5 0 0 1158.30 829.44
  C 1109.07 754.51 1022.09 707.41 934.61 693.13
  Q 934.13 693.05 934.31 693.50
  Q 960.64 761.61 967.77 836.18
  Q 969.56 854.96 969.47 876.02
  C 969.45 880.21 969.00 884.38 968.60 888.51
  A 0.69 0.68 13.4 0 0 969.03 889.20
  L 975.88 891.91
  Q 976.49 892.15 976.98 891.70
  Q 984.14 885.07 996.24 879.19
  C 1006.28 874.32 1016.35 877.77 1024.18 884.85
  Q 1030.94 890.96 1039.03 900.27
  Q 1043.87 905.83 1046.87 910.72
  C 1050.84 917.20 1048.55 923.81 1044.48 929.70
  Q 1040.62 935.28 1036.95 940.33
  C 1036.04 941.58 1034.83 942.69 1033.60 943.64
  A 0.61 0.61 0.0 0 0 1033.43 944.40
  C 1046.67 969.90 1049.74 999.68 1040.62 1026.72
  C 1025.06 1072.86 982.99 1101.35 934.51 1103.46
  C 900.38 1104.94 866.02 1091.21 842.43 1066.73
  C 819.08 1042.50 807.50 1009.13 812.42 975.71
  A 0.48 0.48 0.0 0 0 812.16 975.20"
/>
<path stroke="#54633a" vector-effect="non-scaling-stroke" d="
  M 783.56 728.74
  A 0.35 0.35 0.0 0 0 782.88 728.70
  L 778.27 743.90
  A 0.35 0.35 0.0 0 0 778.81 744.29
  L 785.38 739.53
  A 0.35 0.35 0.0 0 0 785.52 739.18
  L 783.56 728.74"
/>
<path stroke="#808080" vector-effect="non-scaling-stroke" d="
  M 753.30 748.31
  Q 741.03 743.20 728.56 743.88
  C 723.30 744.16 717.31 745.57 713.56 749.54
  C 709.69 753.65 709.11 759.99 712.10 764.64
  Q 715.77 770.33 723.00 772.54
  Q 739.39 777.56 754.56 770.63
  C 765.60 765.58 763.85 752.71 753.30 748.31"
/>
<path stroke="#756f62" vector-effect="non-scaling-stroke" d="
  M 762.48 796.57
  C 772.54 787.36 784.82 781.78 798.50 779.89
  A 0.24 0.24 0.0 0 0 798.69 779.57
  L 791.47 761.25
  A 0.33 0.33 0.0 0 0 790.91 761.16
  Q 790.35 761.82 789.61 762.31
  Q 783.16 766.60 777.12 770.52
  C 774.46 772.25 773.11 775.63 770.89 777.91
  C 768.97 779.87 767.03 781.09 766.16 783.91
  Q 764.20 790.19 762.14 796.35
  Q 761.88 797.11 762.48 796.57"
/>
<path stroke="#54633a" vector-effect="non-scaling-stroke" d="
  M 707.56 780.10
  A 0.54 0.54 0.0 0 0 707.85 779.17
  L 701.34 773.28
  A 0.54 0.54 0.0 0 0 700.68 773.23
  L 687.84 781.70
  A 0.54 0.54 0.0 0 0 688.21 782.69
  L 707.56 780.10"
/>
<path stroke="#24180c" vector-effect="non-scaling-stroke" d="
  M 680.87 955.48
  A 0.34 0.34 0.0 0 0 681.11 955.91
  L 689.70 958.24
  A 0.34 0.34 0.0 0 0 690.12 958.02
  L 742.31 789.85
  A 0.34 0.34 0.0 0 0 742.01 789.41
  L 731.96 788.74
  A 0.34 0.34 0.0 0 0 731.61 788.98
  L 680.87 955.48"
/>
<path stroke="#756f62" vector-effect="non-scaling-stroke" d="
  M 678.58 802.14
  C 674.55 801.36 670.30 800.06 667.06 797.82
  A 0.88 0.86 -47.7 0 0 666.01 797.88
  C 662.56 800.79 658.98 802.88 657.09 807.31
  C 637.43 853.37 640.51 902.26 660.98 947.80
  Q 661.27 948.44 661.48 947.77
  L 695.31 836.54
  A 2.69 2.67 37.8 0 0 695.03 834.36
  Q 686.07 819.49 679.46 802.87
  Q 679.22 802.26 678.58 802.14"
/>
<path stroke="#54633a" vector-effect="non-scaling-stroke" d="
  M 762.69 846.03
  Q 762.72 845.81 762.97 846.23"
/>
<path stroke="#363636" vector-effect="non-scaling-stroke" d="
  M 762.97 846.23
  Q 764.15 849.06 766.30 851.13
  Q 766.65 851.48 766.83 851.94
  Q 767.38 853.36 769.15 854.43"
/>
<path stroke="#54633a" vector-effect="non-scaling-stroke" d="
  M 769.15 854.43
  L 772.06 858.66"
/>
<path stroke="#673222" vector-effect="non-scaling-stroke" d="
  M 772.06 858.66
  Q 778.40 866.67 784.79 875.00
  Q 791.47 883.72 796.98 890.04
  Q 798.30 891.55 800.76 891.73
  Q 828.77 893.78 844.46 872.75
  C 849.36 866.17 852.21 857.84 852.95 849.51
  A 1.40 1.39 22.0 0 0 852.43 848.29
  Q 841.48 839.47 831.64 829.17"
/>
<path stroke="#54633a" vector-effect="non-scaling-stroke" d="
  M 831.64 829.17
  L 826.14 823.00"
/>
<path stroke="#673222" vector-effect="non-scaling-stroke" d="
  M 826.14 823.00
  Q 817.27 812.23 810.14 800.87
  A 1.31 1.30 75.1 0 0 809.06 800.24
  C 787.53 799.56 768.94 813.33 763.15 833.88
  Q 761.76 838.78 761.76 843.73
  Q 761.76 845.30 762.69 846.03"
/>
<path stroke="#bb945c" vector-effect="non-scaling-stroke" d="
  M 826.14 823.00
  Q 820.43 820.75 816.85 823.04
  C 812.06 826.11 807.90 831.51 804.19 835.80
  Q 803.17 836.99 803.03 835.43
  C 802.28 826.76 796.69 815.89 785.90 819.97
  C 782.72 821.17 780.04 823.89 777.85 826.38
  Q 770.52 834.72 763.67 843.67
  Q 763.05 844.48 762.69 846.03"
/>
<path stroke="#bb945c" vector-effect="non-scaling-stroke" d="
  M 831.64 829.17
  Q 832.38 836.36 832.21 840.25
  Q 831.47 857.12 830.71 874.00
  Q 830.54 877.80 828.86 880.53
  C 826.28 884.73 820.60 886.13 816.41 883.41
  C 812.29 880.73 811.74 876.70 812.03 872.14
  Q 812.56 863.47 812.85 855.18
  Q 812.89 854.08 812.26 854.98
  Q 809.11 859.43 805.27 864.47
  Q 801.62 869.27 796.25 869.25
  C 790.07 869.21 786.77 863.81 786.30 858.19
  Q 785.82 852.34 785.66 847.40
  Q 785.61 845.93 784.69 847.09
  Q 781.11 851.62 777.22 856.71
  Q 774.50 860.28 772.06 858.66"
/>
<path stroke="#8a9870" vector-effect="non-scaling-stroke" d="
  M 769.15 854.43
  L 762.97 846.23"
/>
<path stroke="#1c1816" vector-effect="non-scaling-stroke" d="
  M 705.41 802.20
  A 0.36 0.36 0.0 0 0 704.99 801.77
  L 702.78 802.19
  A 0.36 0.36 0.0 0 0 702.52 802.68
  L 703.91 806.11
  A 0.36 0.36 0.0 0 0 704.59 806.05
  L 705.41 802.20"
/>
<path stroke="#1c1816" vector-effect="non-scaling-stroke" d="
  M 743.32 871.86
  Q 765.46 903.83 790.00 930.36
  C 798.07 939.09 807.07 947.83 817.01 954.32
  A 0.76 0.76 0.0 0 0 818.12 953.99
  L 821.76 945.65
  Q 821.98 945.14 821.56 944.79
  Q 806.19 932.06 793.18 917.59
  Q 767.18 888.67 744.50 856.58
  Q 743.59 855.30 743.24 856.83
  Q 742.23 861.21 740.50 865.84
  A 2.79 2.78 37.0 0 0 740.88 868.48
  Q 742.14 870.16 743.32 871.86"
/>
<path stroke="#808080" vector-effect="non-scaling-stroke" d="
  M 1179.51 871.69
  C 1174.89 965.55 1131.48 1054.06 1049.67 1103.78
  Q 1048.25 1104.64 1049.91 1104.70
  Q 1051.85 1104.76 1053.85 1104.09
  C 1092.42 1091.07 1127.37 1070.54 1153.30 1040.09
  C 1184.69 1003.23 1197.39 956.60 1189.88 908.69
  Q 1187.06 890.69 1179.97 871.62
  Q 1179.56 870.53 1179.51 871.69"
/>
<path stroke="#4f4d4c" vector-effect="non-scaling-stroke" d="
  M 997.76 902.72
  Q 996.68 903.32 997.70 904.03
  Q 1010.49 912.94 1020.90 925.51
  A 0.21 0.21 0.0 0 0 1021.23 925.50
  L 1025.94 918.59
  Q 1026.06 918.41 1025.93 918.25
  Q 1019.73 910.55 1012.36 903.11
  Q 1009.97 900.71 1007.20 898.91
  A 2.37 2.37 0.0 0 0 1004.75 898.83
  L 997.76 902.72"
/>
<path stroke="#4f4d4c" vector-effect="non-scaling-stroke" d="
  M 1018.22 960.97
  C 993.19 902.31 915.87 884.67 866.14 923.36
  Q 858.72 929.13 853.44 936.24
  Q 847.91 943.67 842.99 951.35
  Q 835.75 962.64 833.50 976.52
  Q 828.31 1008.62 844.88 1035.90
  C 873.07 1082.31 936.54 1096.36 982.49 1068.05
  Q 1007.04 1052.93 1018.13 1027.46
  C 1027.20 1006.63 1027.29 982.23 1018.22 960.97"
/>
<path stroke="#805219" vector-effect="non-scaling-stroke" d="
  M 837.63 1232.29
  C 832.71 1204.68 835.15 1176.27 840.70 1148.89
  Q 843.10 1137.00 848.04 1125.52
  A 0.50 0.49 -69.9 0 0 847.73 1124.85
  L 840.52 1122.66
  Q 840.00 1122.50 839.88 1123.03
  Q 837.55 1133.12 830.81 1142.01
  C 821.68 1154.07 812.36 1165.05 800.55 1173.64
  Q 793.77 1178.58 782.72 1183.30
  Q 762.88 1191.79 741.39 1197.05
  Q 737.20 1198.07 733.12 1198.66
  A 0.24 0.24 0.0 0 0 733.00 1199.08
  C 737.27 1202.86 741.31 1207.09 744.05 1212.05
  Q 749.10 1221.16 751.10 1230.62
  A 0.54 0.53 73.6 0 0 751.81 1231.01
  Q 763.05 1226.86 774.12 1224.30
  Q 797.42 1218.89 818.75 1225.71
  Q 827.52 1228.51 837.16 1232.66
  A 0.34 0.34 0.0 0 0 837.63 1232.29"
/>
<path stroke="#805219" vector-effect="non-scaling-stroke" d="
  M 987.56 1202.08
  C 983.50 1213.12 979.22 1223.50 972.23 1232.90
  C 967.86 1238.78 963.95 1244.88 958.44 1249.89
  Q 951.10 1256.56 943.93 1262.55
  C 936.13 1269.07 925.98 1273.42 916.62 1277.84
  Q 892.75 1289.12 866.55 1292.51
  A 0.36 0.36 0.0 0 0 866.27 1293.01
  Q 873.37 1309.41 872.70 1326.19
  Q 872.67 1326.96 873.37 1326.63
  C 884.44 1321.26 895.38 1317.90 907.86 1319.82
  Q 934.85 1323.97 950.68 1345.03
  A 1.75 1.74 -21.1 0 0 952.26 1345.73
  C 955.85 1345.40 959.13 1343.87 962.45 1342.53
  Q 978.72 1335.96 988.12 1320.44
  Q 989.37 1318.38 988.72 1316.12
  Q 984.62 1301.90 984.23 1285.49
  Q 983.52 1255.24 988.85 1227.68
  Q 994.03 1200.88 1001.53 1178.86
  Q 1007.88 1160.21 1019.06 1135.01
  Q 1019.28 1134.52 1018.76 1134.61
  L 988.70 1139.57
  Q 988.06 1139.67 988.26 1140.29
  C 990.74 1148.13 992.89 1155.71 993.43 1163.96
  Q 994.64 1182.77 987.56 1202.08"
/>
</g>
<path fill="#000000" d="
  M 891.35 552.56
  Q 895.27 545.15 900.87 537.92
  C 905.32 532.17 911.26 527.19 918.95 528.15
  C 932.10 529.79 942.43 538.53 947.60 550.25
  Q 953.02 562.54 955.77 576.29
  A 1.38 1.37 79.7 0 0 957.33 577.38
  Q 964.26 576.28 971.02 575.92
  Q 975.88 575.66 979.51 576.93
  C 993.15 581.68 1002.63 606.07 1005.86 618.79
  Q 1007.60 625.66 1009.12 631.12
  Q 1010.28 635.26 1009.87 637.46
  C 1008.29 645.96 998.83 648.68 991.78 650.61
  Q 987.18 651.87 982.61 652.71
  Q 955.80 657.58 927.62 656.39
  C 914.73 655.85 901.63 653.55 888.84 650.44
  Q 888.04 650.25 887.74 651.01
  L 886.07 655.20
  A 0.66 0.66 0.0 0 0 886.78 656.10
  Q 898.11 654.47 907.82 657.70
  C 912.79 659.34 919.68 663.98 922.20 668.76
  A 2.68 2.65 -10.0 0 0 924.21 670.15
  C 1016.31 682.10 1107.97 727.32 1164.60 801.56
  C 1210.70 861.99 1229.81 940.73 1196.53 1011.56
  C 1171.01 1065.88 1121.43 1103.50 1064.49 1122.86
  Q 1055.49 1125.93 1046.73 1128.73
  Q 1045.68 1129.07 1045.17 1130.08
  Q 1029.73 1160.66 1019.76 1191.25
  Q 1015.87 1203.20 1011.63 1221.95
  Q 1004.47 1253.67 1005.50 1286.20
  Q 1005.95 1300.46 1010.39 1314.88
  Q 1011.22 1317.55 1010.32 1322.00
  Q 1009.41 1326.53 1005.48 1332.58
  Q 997.91 1344.26 989.24 1351.09
  C 979.12 1359.07 952.11 1374.21 939.71 1362.84
  C 937.75 1361.04 935.55 1359.63 933.75 1357.66
  Q 931.76 1355.50 929.78 1353.32
  C 921.54 1344.25 904.65 1337.67 892.60 1341.68
  Q 879.64 1345.99 865.02 1354.81
  C 858.53 1358.72 851.42 1356.89 848.51 1349.89
  C 846.46 1344.95 846.15 1341.15 848.37 1336.21
  C 849.78 1333.09 851.11 1329.73 851.37 1326.31
  C 852.12 1316.38 849.24 1300.09 840.29 1293.29
  Q 838.55 1291.97 837.13 1290.48
  C 832.02 1285.14 833.16 1277.58 839.53 1273.90
  C 843.71 1271.50 847.67 1270.38 852.22 1271.61
  Q 855.14 1272.41 858.09 1272.14
  C 873.61 1270.75 889.35 1266.95 904.06 1260.27
  Q 913.26 1256.09 921.66 1251.78
  C 929.74 1247.63 935.51 1241.73 942.19 1235.93
  Q 946.61 1232.10 950.04 1227.17
  C 953.49 1222.23 957.28 1217.79 960.07 1212.33
  C 968.17 1196.49 974.35 1179.02 971.89 1161.56
  Q 970.58 1152.23 964.48 1142.56
  Q 964.19 1142.10 963.69 1141.90
  Q 962.54 1141.45 961.39 1141.41
  Q 946.67 1140.86 933.34 1139.95
  C 912.37 1138.53 891.52 1134.55 870.68 1130.43
  Q 868.57 1130.01 867.68 1131.82
  Q 863.95 1139.42 861.92 1148.13
  Q 856.21 1172.59 855.49 1197.84
  C 855.07 1212.68 856.84 1227.25 860.96 1241.15
  C 862.45 1246.17 861.96 1250.45 859.16 1254.81
  C 854.24 1262.50 846.05 1260.39 839.24 1256.42
  Q 830.97 1251.60 815.07 1246.00
  Q 796.34 1239.41 775.56 1244.93
  Q 764.09 1247.98 751.46 1252.63
  C 747.00 1254.27 743.81 1257.67 738.54 1256.68
  C 731.87 1255.43 729.27 1249.10 730.74 1242.97
  Q 732.68 1234.91 727.52 1224.41
  C 725.55 1220.40 723.08 1217.68 719.97 1214.68
  Q 711.71 1206.70 701.31 1203.10
  Q 695.93 1201.24 690.79 1198.92
  Q 687.26 1197.32 685.73 1193.30
  C 683.29 1186.86 686.32 1180.71 693.57 1180.46
  Q 709.74 1179.91 725.91 1178.93
  Q 729.13 1178.74 732.25 1178.06
  Q 755.96 1172.97 779.18 1162.39
  Q 789.89 1157.51 799.62 1147.30
  Q 809.26 1137.18 815.63 1127.92
  Q 819.00 1123.02 819.26 1115.92
  Q 819.28 1115.42 818.91 1115.08
  Q 818.05 1114.28 816.92 1113.82
  C 811.04 1111.42 805.56 1108.63 799.76 1106.02
  Q 785.01 1099.40 770.99 1091.51
  C 766.46 1088.96 761.88 1085.28 757.18 1082.36
  C 697.93 1045.60 648.30 990.51 629.49 922.65
  A 1.15 1.15 0.0 0 0 628.59 921.82
  Q 626.39 921.43 624.47 920.35
  C 604.78 909.19 592.09 891.50 593.31 868.68
  C 594.80 840.81 615.90 814.99 635.70 796.46
  C 637.00 795.25 637.94 793.72 638.62 792.08
  Q 649.47 766.02 661.85 741.59
  C 662.31 740.69 662.58 739.64 662.35 738.64
  Q 660.59 730.99 659.69 724.89
  Q 656.41 702.72 672.97 688.85
  C 675.04 687.11 674.74 682.82 674.36 680.43
  Q 673.28 673.78 672.61 667.62
  Q 671.24 655.09 678.01 643.55
  Q 684.57 632.38 694.46 625.10
  C 701.00 620.29 710.91 616.45 718.78 619.20
  A 0.86 0.85 19.8 0 0 719.88 618.69
  C 727.00 599.09 732.26 578.86 731.76 558.21
  C 731.52 548.16 729.36 536.91 719.97 531.38
  C 710.25 525.64 698.80 524.90 687.55 525.45
  Q 680.11 525.81 671.04 528.28
  C 657.14 532.06 645.02 533.48 631.59 536.00
  Q 619.53 538.25 611.81 538.78
  Q 584.85 540.59 558.39 537.45
  C 551.00 536.57 543.55 534.86 536.15 533.74
  C 529.63 532.76 520.87 530.09 515.67 525.32
  Q 510.84 520.91 505.50 515.76
  Q 502.67 513.04 501.59 508.50
  C 500.03 501.95 501.08 493.72 504.24 487.93
  Q 512.01 473.71 528.95 470.01
  C 535.04 468.68 541.37 468.03 547.55 466.20
  Q 590.34 453.56 626.75 428.75
  Q 642.78 417.83 654.32 409.83
  C 655.11 409.28 656.48 407.96 657.19 406.99
  Q 669.22 390.45 685.70 379.16
  A 0.77 0.76 -32.0 0 0 685.94 378.15
  C 679.56 366.80 678.62 353.22 687.75 343.73
  C 697.74 333.34 715.30 333.72 728.85 336.73
  A 0.94 0.94 0.0 0 0 729.99 335.91
  C 733.05 306.97 758.87 283.00 788.47 285.53
  Q 809.16 287.30 821.32 305.83
  A 2.48 2.46 75.4 0 0 823.20 306.94
  Q 840.31 308.19 853.78 312.93
  A 0.82 0.82 0.0 0 0 854.84 312.39
  Q 875.47 244.46 895.93 177.69
  Q 896.44 176.01 897.08 174.31
  A 0.91 0.89 26.8 0 0 896.71 173.22
  Q 891.49 169.98 891.14 163.91
  A 1.85 1.85 0.0 0 0 890.17 162.39
  Q 880.18 157.02 869.24 153.68
  Q 846.05 146.60 818.01 142.15
  Q 781.56 136.35 741.95 134.67
  Q 712.59 133.43 684.63 136.09
  Q 670.35 137.45 659.76 141.02
  Q 655.68 142.40 652.83 142.04
  C 644.97 141.03 641.08 131.58 646.13 125.42
  Q 648.24 122.85 651.32 120.51
  C 673.51 103.64 699.46 92.35 726.50 85.00
  Q 781.55 70.04 841.52 74.17
  Q 879.16 76.76 912.73 87.54
  Q 913.27 87.71 913.69 87.34
  Q 914.20 86.89 914.61 86.32
  C 918.22 81.18 923.87 81.26 929.74 82.98
  Q 952.89 89.77 975.48 96.71
  Q 984.53 99.50 984.39 109.11
  A 1.13 1.12 -81.3 0 0 985.20 110.22
  C 1036.65 125.42 1083.91 154.97 1122.30 192.29
  C 1149.35 218.57 1172.33 250.21 1183.99 285.37
  Q 1185.46 289.81 1184.91 293.17
  C 1183.44 302.20 1172.14 304.80 1166.44 297.65
  C 1163.79 294.31 1161.09 290.86 1158.00 287.91
  Q 1142.54 273.13 1124.85 260.90
  Q 1070.57 223.35 1010.37 198.59
  C 1000.38 194.48 989.55 190.76 979.30 188.05
  Q 970.81 185.81 962.31 184.97
  A 1.68 1.67 -67.9 0 0 960.83 185.60
  Q 957.26 190.16 950.67 189.71
  A 0.81 0.80 -79.2 0 0 949.84 190.28
  Q 925.78 268.40 901.80 345.35
  C 901.53 346.21 901.69 347.19 902.21 347.94
  C 927.84 384.88 920.47 431.70 896.24 467.26
  C 893.34 471.52 887.29 473.26 882.41 473.59
  A 0.60 0.60 0.0 0 0 881.87 474.35
  Q 884.26 482.81 885.65 491.56
  Q 890.27 520.66 890.16 552.26
  Q 890.15 554.82 891.35 552.56
  Z
  M 906.49 107.57
  Q 892.47 102.90 878.66 100.21
  C 822.77 89.32 763.26 92.98 709.41 112.42
  Q 705.98 113.66 709.63 113.58
  Q 781.70 112.15 851.24 127.36
  Q 868.42 131.12 885.69 137.34
  Q 891.00 139.26 896.16 141.82
  A 0.69 0.69 0.0 0 0 897.12 141.40
  L 906.94 108.45
  Q 907.14 107.79 906.49 107.57
  Z
  M 960.5724 114.7417
  A 0.59 0.59 0.0 0 0 960.1755 114.0077
  L 930.3717 105.1228
  A 0.59 0.59 0.0 0 0 929.6377 105.5197
  L 914.5476 156.1383
  A 0.59 0.59 0.0 0 0 914.9445 156.8723
  L 944.7483 165.7572
  A 0.59 0.59 0.0 0 0 945.4823 165.3603
  L 960.5724 114.7417
  Z
  M 1109.27 208.89
  C 1073.32 173.39 1027.94 144.43 979.19 130.28
  A 0.74 0.73 16.5 0 0 978.28 130.76
  L 967.95 163.75
  A 0.59 0.58 12.7 0 0 968.43 164.50
  Q 975.73 165.49 982.60 167.35
  Q 1004.58 173.28 1027.97 183.37
  Q 1087.64 209.10 1139.61 245.74
  Q 1141.69 247.21 1140.21 245.13
  Q 1126.56 225.97 1109.27 208.89
  Z
  M 903.42 224.71
  Q 864.51 352.46 825.59 480.22
  C 824.06 485.23 823.19 490.36 821.47 495.27
  A 0.57 0.57 0.0 0 0 822.03 496.03
  Q 827.35 495.85 832.12 497.24
  A 0.79 0.79 0.0 0 0 833.10 496.72
  L 929.89 184.25
  A 0.86 0.86 0.0 0 0 929.32 183.17
  L 917.69 179.74
  Q 917.05 179.55 916.86 180.19
  Q 910.04 202.97 903.42 224.71
  Z
  M 760.0011 361.5082
  A 31.64 26.45 126.7 0 0 800.1170 351.9472
  A 31.64 26.45 126.7 0 0 797.8189 310.7718
  A 31.64 26.45 126.7 0 0 757.7030 320.3328
  A 31.64 26.45 126.7 0 0 760.0011 361.5082
  Z
  M 848.35 333.79
  Q 848.54 333.15 847.90 332.93
  Q 838.42 329.69 828.56 328.39
  A 0.33 0.32 -87.8 0 0 828.20 328.73
  Q 828.52 338.21 825.61 347.43
  A 1.44 1.44 0.0 0 0 825.71 348.51
  C 828.82 354.40 833.64 359.10 838.75 363.40
  Q 839.21 363.79 839.39 363.20
  L 848.35 333.79
  Z
  M 715.81 382.63
  C 732.76 398.41 758.85 412.38 781.55 412.13
  Q 790.15 412.03 797.91 415.90
  Q 800.78 417.33 806.30 422.35
  Q 811.09 426.69 818.07 431.46
  A 0.38 0.37 -64.2 0 0 818.64 431.26
  L 823.35 415.99
  Q 823.61 415.15 822.85 414.70
  Q 808.33 406.04 797.78 396.40
  Q 792.03 391.15 788.14 385.51
  Q 787.78 384.98 787.14 385.12
  C 769.75 389.18 754.13 385.74 741.97 373.22
  Q 736.23 367.32 733.13 359.16
  Q 732.93 358.64 732.38 358.55
  C 723.58 357.12 712.10 353.24 703.52 357.79
  C 700.81 359.23 702.27 363.76 703.21 365.83
  Q 707.22 374.64 715.81 382.63
  Z
  M 832.65 385.34
  Q 832.70 385.14 832.54 385.02
  Q 822.19 377.66 814.36 368.69
  Q 813.96 368.24 813.52 368.65
  L 806.74 375.11
  A 0.59 0.59 0.0 0 0 806.72 375.95
  Q 816.64 386.25 829.66 394.46
  Q 829.84 394.57 829.90 394.37
  L 832.65 385.34
  Z
  M 888.55 388.05
  A 0.34 0.34 0.0 0 0 888.87 388.49
  L 896.48 388.63
  A 0.34 0.34 0.0 0 0 896.81 388.20
  L 893.26 374.86
  A 0.34 0.34 0.0 0 0 892.61 374.85
  L 888.55 388.05
  Z
  M 759.20 430.00
  C 737.04 424.31 715.86 411.72 699.62 396.01
  A 0.63 0.63 0.0 0 0 698.84 395.93
  Q 687.16 403.51 678.48 414.22
  Q 676.52 416.65 677.34 420.28
  C 678.69 426.20 689.56 428.15 694.56 427.84
  Q 701.15 427.44 708.44 426.83
  C 715.08 426.27 723.09 426.38 726.41 433.06
  C 729.34 438.94 725.84 445.67 720.43 448.73
  C 706.33 456.72 694.02 466.23 688.76 482.27
  Q 686.40 489.50 690.10 494.32
  Q 697.69 504.20 708.19 505.49
  C 718.30 506.73 728.71 510.89 736.77 516.29
  C 747.55 523.50 752.04 535.58 753.22 548.19
  C 754.95 566.60 752.02 585.78 747.13 603.39
  C 744.84 611.64 742.57 619.76 739.93 627.82
  A 0.61 0.61 0.0 0 0 740.35 628.61
  L 756.68 633.14
  A 0.50 0.50 0.0 0 0 757.29 632.80
  L 812.00 453.17
  A 1.16 1.16 0.0 0 0 811.49 451.83
  Q 799.02 444.32 789.22 434.54
  A 0.25 0.25 0.0 0 0 788.80 434.65
  Q 786.94 441.46 781.23 444.34
  C 772.71 448.62 762.33 443.35 760.23 434.19
  C 759.97 433.05 760.07 431.89 759.90 430.77
  Q 759.80 430.15 759.20 430.00
  Z
  M 879.53 417.23
  A 0.35 0.34 -74.2 0 0 879.76 417.66
  C 883.71 418.74 889.95 420.24 894.11 419.12
  Q 895.46 418.76 895.69 417.38
  L 896.92 410.04
  A 0.50 0.50 0.0 0 0 896.39 409.46
  Q 889.53 409.90 882.77 408.40
  A 0.55 0.54 14.0 0 0 882.14 408.77
  L 879.53 417.23
  Z
  M 672.30 505.88
  C 667.15 497.85 665.31 489.97 667.49 480.02
  C 669.95 468.74 676.57 457.76 684.68 449.06
  A 0.46 0.46 0.0 0 0 684.44 448.29
  C 674.15 446.19 664.99 441.44 659.61 432.60
  A 0.52 0.51 -33.0 0 0 658.88 432.45
  C 642.05 444.19 626.04 455.11 607.28 464.97
  Q 581.16 478.68 551.13 487.20
  Q 544.35 489.13 533.55 490.05
  C 526.19 490.68 521.35 494.39 523.48 502.52
  Q 524.12 504.99 526.33 506.23
  C 539.12 513.40 555.08 516.18 569.93 517.30
  Q 592.05 518.97 611.89 517.44
  Q 616.04 517.12 619.90 516.44
  Q 633.02 514.13 647.86 511.73
  C 656.09 510.40 664.04 508.28 672.09 506.39
  Q 672.55 506.28 672.30 505.88
  Z
  M 868.75 452.05
  A 0.40 0.40 0.0 0 0 869.12 452.56
  L 880.79 452.87
  A 0.40 0.40 0.0 0 0 881.15 452.67
  L 887.58 441.04
  A 0.40 0.40 0.0 0 0 887.31 440.45
  L 873.55 437.77
  A 0.40 0.40 0.0 0 0 873.09 438.04
  L 868.75 452.05
  Z
  M 851.70 506.96
  A 1.20 1.20 0.0 0 0 852.05 508.20
  Q 862.77 517.62 868.31 530.60
  Q 868.60 531.27 868.56 530.54
  C 867.68 513.23 865.95 495.36 861.13 478.93
  Q 860.78 477.76 860.42 478.92
  L 851.70 506.96
  Z
  M 832.20 554.99
  C 841.47 560.98 853.57 557.10 854.35 545.27
  C 854.63 540.94 852.54 537.10 850.44 533.49
  Q 847.06 527.68 843.01 522.31
  Q 837.42 514.90 828.24 515.11
  C 820.72 515.28 814.90 519.88 814.61 527.30
  C 814.17 538.48 822.83 548.93 832.20 554.99
  Z
  M 917.96 550.02
  C 905.84 565.88 899.28 583.82 895.70 603.45
  Q 895.59 604.07 896.11 603.71
  Q 914.64 590.65 935.40 583.08
  Q 935.92 582.89 935.80 582.35
  Q 933.62 572.30 930.27 562.95
  C 928.22 557.25 925.06 551.93 919.49 549.61
  A 1.31 1.30 -59.9 0 0 917.96 550.02
  Z
  M 786.89 608.75
  Q 780.24 632.13 772.29 657.58
  C 771.24 660.92 769.65 664.01 768.63 667.40
  Q 759.27 698.35 749.79 729.18
  A 0.55 0.55 0.0 0 0 750.14 729.86
  Q 754.77 731.40 758.90 733.75
  A 0.62 0.62 0.0 0 0 759.80 733.39
  Q 770.54 699.19 780.83 664.16
  C 782.58 658.20 783.26 653.12 784.22 647.19
  C 789.02 617.45 798.90 588.20 812.56 560.28
  A 1.25 1.24 -53.9 0 0 812.34 558.86
  Q 808.63 554.96 805.41 550.04
  Q 804.96 549.35 804.73 550.14
  Q 796.19 579.45 787.73 605.99
  Q 787.27 607.43 786.89 608.75
  Z
  M 869.00 561.01
  C 862.56 575.16 846.02 577.91 832.14 572.52
  A 0.59 0.58 -70.5 0 0 831.38 572.89
  L 811.10 637.82
  Q 810.89 638.50 811.60 638.49
  Q 833.11 638.21 851.56 633.18
  Q 857.72 631.50 863.25 628.79
  A 1.94 1.91 -11.2 0 0 864.32 627.21
  C 864.72 622.11 865.06 617.16 865.71 611.95
  Q 868.83 587.21 869.18 561.05
  Q 869.19 560.61 869.00 561.01
  Z
  M 970.49 596.80
  C 942.95 598.85 917.06 612.46 895.62 630.21
  A 0.20 0.20 0.0 0 0 895.70 630.55
  Q 919.23 636.31 942.56 635.70
  C 957.29 635.32 972.47 634.11 986.70 630.30
  A 0.59 0.58 76.6 0 0 987.12 629.61
  C 984.54 618.61 980.36 606.75 973.78 598.27
  Q 972.53 596.65 970.49 596.80
  Z
  M 750.58 653.02
  C 738.43 650.27 725.88 646.19 714.95 640.14
  C 713.37 639.26 711.62 639.22 710.04 640.10
  C 703.29 643.83 697.53 650.27 694.63 657.12
  Q 692.69 661.72 693.62 667.96
  C 695.33 679.40 698.03 692.29 689.53 701.79
  C 687.54 704.01 684.91 705.74 683.23 708.04
  Q 678.86 714.04 680.30 721.50
  C 682.23 731.47 685.63 745.37 685.82 757.38
  Q 685.82 757.90 686.25 757.60
  Q 689.57 755.19 693.44 753.74
  A 0.95 0.93 83.1 0 0 694.05 752.95
  C 695.89 735.91 711.95 727.26 728.00 726.56
  Q 728.79 726.53 729.02 725.77
  L 733.42 711.42
  Q 733.61 710.77 732.94 710.87
  Q 718.80 713.06 705.47 711.69
  Q 701.00 711.23 698.01 708.49
  C 694.16 704.98 693.57 699.00 696.92 694.94
  C 700.81 690.22 705.84 690.88 711.30 691.17
  Q 724.47 691.86 739.47 688.81
  A 1.44 1.44 0.0 0 0 740.56 687.82
  L 750.97 653.69
  Q 751.13 653.15 750.58 653.02
  Z
  M 865.30 651.46
  Q 865.69 650.68 864.86 650.96
  C 845.88 657.52 824.96 659.72 804.93 659.49
  A 1.00 0.99 5.9 0 0 803.94 660.29
  Q 802.54 667.32 802.03 674.87
  Q 800.39 699.06 804.19 724.06
  A 0.25 0.25 0.0 0 0 804.60 724.21
  C 828.81 703.54 851.25 679.41 865.30 651.46
  Z
  M 925.08 771.31
  C 931.61 797.69 936.97 823.17 939.80 848.89
  Q 940.78 857.88 941.65 867.67
  Q 942.04 872.07 940.79 881.29
  Q 940.61 882.67 941.99 882.85
  L 946.19 883.36
  A 1.33 1.33 0.0 0 0 947.68 882.18
  Q 948.96 869.70 948.37 857.38
  Q 945.89 806.20 931.40 751.39
  Q 921.05 712.27 905.77 681.89
  A 6.52 6.50 85.6 0 0 901.97 678.62
  Q 899.04 677.65 896.10 676.68
  Q 893.51 675.83 894.61 678.33
  C 907.64 707.87 916.96 738.46 925.08 771.31
  Z
  M 832.30 926.61
  Q 832.46 926.74 832.62 926.89
  Q 832.87 927.12 833.08 926.85
  Q 851.24 904.04 877.70 891.74
  C 890.40 885.84 905.33 883.13 919.22 882.10
  A 0.68 0.68 0.0 0 0 919.85 881.49
  C 921.03 871.50 920.45 861.04 919.20 851.13
  Q 915.07 818.63 905.98 781.09
  Q 895.97 739.77 882.46 702.64
  Q 879.12 693.43 875.02 684.70
  C 873.91 682.33 871.03 682.12 869.59 684.32
  Q 865.55 690.52 861.02 696.17
  Q 838.85 723.90 809.89 747.00
  A 0.91 0.91 0.0 0 0 809.59 747.96
  Q 814.52 764.74 822.70 780.26
  A 2.38 2.37 -5.8 0 0 824.14 781.43
  C 850.53 789.06 869.04 809.38 873.31 836.39
  Q 873.51 837.61 874.53 838.29
  Q 886.30 846.16 898.71 852.12
  C 912.13 858.58 903.54 877.32 889.53 871.03
  Q 881.23 867.30 873.15 862.42
  Q 872.47 862.00 872.31 862.78
  C 866.75 888.61 843.85 909.16 817.77 912.43
  Q 817.04 912.52 817.55 913.05
  Q 824.36 920.29 832.30 926.61
  Z
  M 812.16 975.20
  C 801.35 969.79 792.10 961.86 783.34 953.13
  Q 756.08 926.01 732.70 892.97
  Q 732.30 892.40 732.10 893.06
  Q 719.83 932.94 707.81 971.53
  C 705.49 979.00 699.22 981.28 691.91 980.05
  Q 684.92 978.88 677.16 976.38
  Q 676.43 976.14 676.85 976.78
  C 734.08 1063.59 838.09 1112.00 939.66 1118.20
  Q 946.95 1118.64 953.90 1117.54
  Q 962.29 1116.21 978.21 1111.84
  Q 1021.67 1099.90 1057.11 1073.61
  C 1126.88 1021.86 1159.72 937.37 1159.10 851.49
  Q 1159.03 840.73 1158.57 830.29
  A 1.72 1.62 -64.5 0 0 1158.30 829.44
  C 1109.07 754.51 1022.09 707.41 934.61 693.13
  Q 934.13 693.05 934.31 693.50
  Q 960.64 761.61 967.77 836.18
  Q 969.56 854.96 969.47 876.02
  C 969.45 880.21 969.00 884.38 968.60 888.51
  A 0.69 0.68 13.4 0 0 969.03 889.20
  L 975.88 891.91
  Q 976.49 892.15 976.98 891.70
  Q 984.14 885.07 996.24 879.19
  C 1006.28 874.32 1016.35 877.77 1024.18 884.85
  Q 1030.94 890.96 1039.03 900.27
  Q 1043.87 905.83 1046.87 910.72
  C 1050.84 917.20 1048.55 923.81 1044.48 929.70
  Q 1040.62 935.28 1036.95 940.33
  C 1036.04 941.58 1034.83 942.69 1033.60 943.64
  A 0.61 0.61 0.0 0 0 1033.43 944.40
  C 1046.67 969.90 1049.74 999.68 1040.62 1026.72
  C 1025.06 1072.86 982.99 1101.35 934.51 1103.46
  C 900.38 1104.94 866.02 1091.21 842.43 1066.73
  C 819.08 1042.50 807.50 1009.13 812.42 975.71
  A 0.48 0.48 0.0 0 0 812.16 975.20
  Z
  M 783.56 728.74
  A 0.35 0.35 0.0 0 0 782.88 728.70
  L 778.27 743.90
  A 0.35 0.35 0.0 0 0 778.81 744.29
  L 785.38 739.53
  A 0.35 0.35 0.0 0 0 785.52 739.18
  L 783.56 728.74
  Z
  M 753.30 748.31
  Q 741.03 743.20 728.56 743.88
  C 723.30 744.16 717.31 745.57 713.56 749.54
  C 709.69 753.65 709.11 759.99 712.10 764.64
  Q 715.77 770.33 723.00 772.54
  Q 739.39 777.56 754.56 770.63
  C 765.60 765.58 763.85 752.71 753.30 748.31
  Z
  M 762.48 796.57
  C 772.54 787.36 784.82 781.78 798.50 779.89
  A 0.24 0.24 0.0 0 0 798.69 779.57
  L 791.47 761.25
  A 0.33 0.33 0.0 0 0 790.91 761.16
  Q 790.35 761.82 789.61 762.31
  Q 783.16 766.60 777.12 770.52
  C 774.46 772.25 773.11 775.63 770.89 777.91
  C 768.97 779.87 767.03 781.09 766.16 783.91
  Q 764.20 790.19 762.14 796.35
  Q 761.88 797.11 762.48 796.57
  Z
  M 707.56 780.10
  A 0.54 0.54 0.0 0 0 707.85 779.17
  L 701.34 773.28
  A 0.54 0.54 0.0 0 0 700.68 773.23
  L 687.84 781.70
  A 0.54 0.54 0.0 0 0 688.21 782.69
  L 707.56 780.10
  Z
  M 680.87 955.48
  A 0.34 0.34 0.0 0 0 681.11 955.91
  L 689.70 958.24
  A 0.34 0.34 0.0 0 0 690.12 958.02
  L 742.31 789.85
  A 0.34 0.34 0.0 0 0 742.01 789.41
  L 731.96 788.74
  A 0.34 0.34 0.0 0 0 731.61 788.98
  L 680.87 955.48
  Z
  M 678.58 802.14
  C 674.55 801.36 670.30 800.06 667.06 797.82
  A 0.88 0.86 -47.7 0 0 666.01 797.88
  C 662.56 800.79 658.98 802.88 657.09 807.31
  C 637.43 853.37 640.51 902.26 660.98 947.80
  Q 661.27 948.44 661.48 947.77
  L 695.31 836.54
  A 2.69 2.67 37.8 0 0 695.03 834.36
  Q 686.07 819.49 679.46 802.87
  Q 679.22 802.26 678.58 802.14
  Z
  M 762.69 846.03
  Q 762.72 845.81 762.97 846.23
  Q 764.15 849.06 766.30 851.13
  Q 766.65 851.48 766.83 851.94
  Q 767.38 853.36 769.15 854.43
  L 772.06 858.66
  Q 778.40 866.67 784.79 875.00
  Q 791.47 883.72 796.98 890.04
  Q 798.30 891.55 800.76 891.73
  Q 828.77 893.78 844.46 872.75
  C 849.36 866.17 852.21 857.84 852.95 849.51
  A 1.40 1.39 22.0 0 0 852.43 848.29
  Q 841.48 839.47 831.64 829.17
  L 826.14 823.00
  Q 817.27 812.23 810.14 800.87
  A 1.31 1.30 75.1 0 0 809.06 800.24
  C 787.53 799.56 768.94 813.33 763.15 833.88
  Q 761.76 838.78 761.76 843.73
  Q 761.76 845.30 762.69 846.03
  Z
  M 705.41 802.20
  A 0.36 0.36 0.0 0 0 704.99 801.77
  L 702.78 802.19
  A 0.36 0.36 0.0 0 0 702.52 802.68
  L 703.91 806.11
  A 0.36 0.36 0.0 0 0 704.59 806.05
  L 705.41 802.20
  Z
  M 624.21 846.73
  Q 624.52 844.56 624.89 842.62
  Q 625.28 840.58 624.21 842.35
  C 614.59 858.25 608.89 877.06 623.04 892.73
  Q 624.00 893.80 623.81 892.38
  Q 620.96 870.04 624.21 846.73
  Z
  M 743.32 871.86
  Q 765.46 903.83 790.00 930.36
  C 798.07 939.09 807.07 947.83 817.01 954.32
  A 0.76 0.76 0.0 0 0 818.12 953.99
  L 821.76 945.65
  Q 821.98 945.14 821.56 944.79
  Q 806.19 932.06 793.18 917.59
  Q 767.18 888.67 744.50 856.58
  Q 743.59 855.30 743.24 856.83
  Q 742.23 861.21 740.50 865.84
  A 2.79 2.78 37.0 0 0 740.88 868.48
  Q 742.14 870.16 743.32 871.86
  Z
  M 1179.51 871.69
  C 1174.89 965.55 1131.48 1054.06 1049.67 1103.78
  Q 1048.25 1104.64 1049.91 1104.70
  Q 1051.85 1104.76 1053.85 1104.09
  C 1092.42 1091.07 1127.37 1070.54 1153.30 1040.09
  C 1184.69 1003.23 1197.39 956.60 1189.88 908.69
  Q 1187.06 890.69 1179.97 871.62
  Q 1179.56 870.53 1179.51 871.69
  Z
  M 997.76 902.72
  Q 996.68 903.32 997.70 904.03
  Q 1010.49 912.94 1020.90 925.51
  A 0.21 0.21 0.0 0 0 1021.23 925.50
  L 1025.94 918.59
  Q 1026.06 918.41 1025.93 918.25
  Q 1019.73 910.55 1012.36 903.11
  Q 1009.97 900.71 1007.20 898.91
  A 2.37 2.37 0.0 0 0 1004.75 898.83
  L 997.76 902.72
  Z
  M 1018.22 960.97
  C 993.19 902.31 915.87 884.67 866.14 923.36
  Q 858.72 929.13 853.44 936.24
  Q 847.91 943.67 842.99 951.35
  Q 835.75 962.64 833.50 976.52
  Q 828.31 1008.62 844.88 1035.90
  C 873.07 1082.31 936.54 1096.36 982.49 1068.05
  Q 1007.04 1052.93 1018.13 1027.46
  C 1027.20 1006.63 1027.29 982.23 1018.22 960.97
  Z
  M 837.63 1232.29
  C 832.71 1204.68 835.15 1176.27 840.70 1148.89
  Q 843.10 1137.00 848.04 1125.52
  A 0.50 0.49 -69.9 0 0 847.73 1124.85
  L 840.52 1122.66
  Q 840.00 1122.50 839.88 1123.03
  Q 837.55 1133.12 830.81 1142.01
  C 821.68 1154.07 812.36 1165.05 800.55 1173.64
  Q 793.77 1178.58 782.72 1183.30
  Q 762.88 1191.79 741.39 1197.05
  Q 737.20 1198.07 733.12 1198.66
  A 0.24 0.24 0.0 0 0 733.00 1199.08
  C 737.27 1202.86 741.31 1207.09 744.05 1212.05
  Q 749.10 1221.16 751.10 1230.62
  A 0.54 0.53 73.6 0 0 751.81 1231.01
  Q 763.05 1226.86 774.12 1224.30
  Q 797.42 1218.89 818.75 1225.71
  Q 827.52 1228.51 837.16 1232.66
  A 0.34 0.34 0.0 0 0 837.63 1232.29
  Z
  M 987.56 1202.08
  C 983.50 1213.12 979.22 1223.50 972.23 1232.90
  C 967.86 1238.78 963.95 1244.88 958.44 1249.89
  Q 951.10 1256.56 943.93 1262.55
  C 936.13 1269.07 925.98 1273.42 916.62 1277.84
  Q 892.75 1289.12 866.55 1292.51
  A 0.36 0.36 0.0 0 0 866.27 1293.01
  Q 873.37 1309.41 872.70 1326.19
  Q 872.67 1326.96 873.37 1326.63
  C 884.44 1321.26 895.38 1317.90 907.86 1319.82
  Q 934.85 1323.97 950.68 1345.03
  A 1.75 1.74 -21.1 0 0 952.26 1345.73
  C 955.85 1345.40 959.13 1343.87 962.45 1342.53
  Q 978.72 1335.96 988.12 1320.44
  Q 989.37 1318.38 988.72 1316.12
  Q 984.62 1301.90 984.23 1285.49
  Q 983.52 1255.24 988.85 1227.68
  Q 994.03 1200.88 1001.53 1178.86
  Q 1007.88 1160.21 1019.06 1135.01
  Q 1019.28 1134.52 1018.76 1134.61
  L 988.70 1139.57
  Q 988.06 1139.67 988.26 1140.29
  C 990.74 1148.13 992.89 1155.71 993.43 1163.96
  Q 994.64 1182.77 987.56 1202.08
  Z"
/>
<path fill="#9e9a98" d="
  M 906.49 107.57
  Q 907.14 107.79 906.94 108.45
  L 897.12 141.40
  A 0.69 0.69 0.0 0 1 896.16 141.82
  Q 891.00 139.26 885.69 137.34
  Q 868.42 131.12 851.24 127.36
  Q 781.70 112.15 709.63 113.58
  Q 705.98 113.66 709.41 112.42
  C 763.26 92.98 822.77 89.32 878.66 100.21
  Q 892.47 102.90 906.49 107.57
  Z"
/>
<rect fill="#6b6b6b" x="-16.14" y="-27.00" transform="translate(937.56,135.44) rotate(16.6)" width="32.28" height="54.00" rx="0.59"/>
<path fill="#9e9a98" d="
  M 979.19 130.28
  C 1027.94 144.43 1073.32 173.39 1109.27 208.89
  Q 1126.56 225.97 1140.21 245.13
  Q 1141.69 247.21 1139.61 245.74
  Q 1087.64 209.10 1027.97 183.37
  Q 1004.58 173.28 982.60 167.35
  Q 975.73 165.49 968.43 164.50
  A 0.59 0.58 12.7 0 1 967.95 163.75
  L 978.28 130.76
  A 0.74 0.73 16.5 0 1 979.19 130.28
  Z"
/>
<path fill="#482f18" d="
  M 903.42 224.71
  Q 910.04 202.97 916.86 180.19
  Q 917.05 179.55 917.69 179.74
  L 929.32 183.17
  A 0.86 0.86 0.0 0 1 929.89 184.25
  L 833.10 496.72
  A 0.79 0.79 0.0 0 1 832.12 497.24
  Q 827.35 495.85 822.03 496.03
  A 0.57 0.57 0.0 0 1 821.47 495.27
  C 823.19 490.36 824.06 485.23 825.59 480.22
  Q 864.51 352.46 903.42 224.71
  Z"
/>
<ellipse fill="#eaddc3" cx="0.00" cy="0.00" transform="translate(778.91,336.14) rotate(126.7)" rx="31.64" ry="26.45"/>
<path fill="#ffa332" d="
  M 848.35 333.79
  L 839.39 363.20
  Q 839.21 363.79 838.75 363.40
  C 833.64 359.10 828.82 354.40 825.71 348.51
  A 1.44 1.44 0.0 0 1 825.61 347.43
  Q 828.52 338.21 828.20 328.73
  A 0.33 0.32 -87.8 0 1 828.56 328.39
  Q 838.42 329.69 847.90 332.93
  Q 848.54 333.15 848.35 333.79
  Z"
/>
<path fill="#ffa332" d="
  M 781.55 412.13
  C 758.85 412.38 732.76 398.41 715.81 382.63
  Q 707.22 374.64 703.21 365.83
  C 702.27 363.76 700.81 359.23 703.52 357.79
  C 712.10 353.24 723.58 357.12 732.38 358.55
  Q 732.93 358.64 733.13 359.16
  Q 736.23 367.32 741.97 373.22
  C 754.13 385.74 769.75 389.18 787.14 385.12
  Q 787.78 384.98 788.14 385.51
  Q 792.03 391.15 797.78 396.40
  Q 808.33 406.04 822.85 414.70
  Q 823.61 415.15 823.35 415.99
  L 818.64 431.26
  A 0.38 0.37 -64.2 0 1 818.07 431.46
  Q 811.09 426.69 806.30 422.35
  Q 800.78 417.33 797.91 415.90
  Q 790.15 412.03 781.55 412.13
  Z"
/>
<path fill="#6b6b6b" d="
  M 832.65 385.34
  L 829.90 394.37
  Q 829.84 394.57 829.66 394.46
  Q 816.64 386.25 806.72 375.95
  A 0.59 0.59 0.0 0 1 806.74 375.11
  L 813.52 368.65
  Q 813.96 368.24 814.36 368.69
  Q 822.19 377.66 832.54 385.02
  Q 832.70 385.14 832.65 385.34
  Z"
/>
<path fill="#ffa332" d="
  M 888.55 388.05
  L 892.61 374.85
  A 0.34 0.34 0.0 0 1 893.26 374.86
  L 896.81 388.20
  A 0.34 0.34 0.0 0 1 896.48 388.63
  L 888.87 388.49
  A 0.34 0.34 0.0 0 1 888.55 388.05
  Z"
/>
<path fill="#ffffff" d="
  M 699.62 396.01
  C 715.86 411.72 737.04 424.31 759.20 430.00
  Q 759.80 430.15 759.90 430.77
  C 760.07 431.89 759.97 433.05 760.23 434.19
  C 762.33 443.35 772.71 448.62 781.23 444.34
  Q 786.94 441.46 788.80 434.65
  A 0.25 0.25 0.0 0 1 789.22 434.54
  Q 799.02 444.32 811.49 451.83
  A 1.16 1.16 0.0 0 1 812.00 453.17
  L 757.29 632.80
  A 0.50 0.50 0.0 0 1 756.68 633.14
  L 740.35 628.61
  A 0.61 0.61 0.0 0 1 739.93 627.82
  C 742.57 619.76 744.84 611.64 747.13 603.39
  C 752.02 585.78 754.95 566.60 753.22 548.19
  C 752.04 535.58 747.55 523.50 736.77 516.29
  C 728.71 510.89 718.30 506.73 708.19 505.49
  Q 697.69 504.20 690.10 494.32
  Q 686.40 489.50 688.76 482.27
  C 694.02 466.23 706.33 456.72 720.43 448.73
  C 725.84 445.67 729.34 438.94 726.41 433.06
  C 723.09 426.38 715.08 426.27 708.44 426.83
  Q 701.15 427.44 694.56 427.84
  C 689.56 428.15 678.69 426.20 677.34 420.28
  Q 676.52 416.65 678.48 414.22
  Q 687.16 403.51 698.84 395.93
  A 0.63 0.63 0.0 0 1 699.62 396.01
  Z"
/>
<path fill="#6b6b6b" d="
  M 879.53 417.23
  L 882.14 408.77
  A 0.55 0.54 14.0 0 1 882.77 408.40
  Q 889.53 409.90 896.39 409.46
  A 0.50 0.50 0.0 0 1 896.92 410.04
  L 895.69 417.38
  Q 895.46 418.76 894.11 419.12
  C 889.95 420.24 883.71 418.74 879.76 417.66
  A 0.35 0.34 -74.2 0 1 879.53 417.23
  Z"
/>
<path fill="#ffa332" d="
  M 667.49 480.02
  C 665.31 489.97 667.15 497.85 672.30 505.88
  Q 672.55 506.28 672.09 506.39
  C 664.04 508.28 656.09 510.40 647.86 511.73
  Q 633.02 514.13 619.90 516.44
  Q 616.04 517.12 611.89 517.44
  Q 592.05 518.97 569.93 517.30
  C 555.08 516.18 539.12 513.40 526.33 506.23
  Q 524.12 504.99 523.48 502.52
  C 521.35 494.39 526.19 490.68 533.55 490.05
  Q 544.35 489.13 551.13 487.20
  Q 581.16 478.68 607.28 464.97
  C 626.04 455.11 642.05 444.19 658.88 432.45
  A 0.52 0.51 -33.0 0 1 659.61 432.60
  C 664.99 441.44 674.15 446.19 684.44 448.29
  A 0.46 0.46 0.0 0 1 684.68 449.06
  C 676.57 457.76 669.95 468.74 667.49 480.02
  Z"
/>
<path fill="#ffa332" d="
  M 868.75 452.05
  L 873.09 438.04
  A 0.40 0.40 0.0 0 1 873.55 437.77
  L 887.31 440.45
  A 0.40 0.40 0.0 0 1 887.58 441.04
  L 881.15 452.67
  A 0.40 0.40 0.0 0 1 880.79 452.87
  L 869.12 452.56
  A 0.40 0.40 0.0 0 1 868.75 452.05
  Z"
/>
<path fill="#ffffff" d="
  M 851.70 506.96
  L 860.42 478.92
  Q 860.78 477.76 861.13 478.93
  C 865.95 495.36 867.68 513.23 868.56 530.54
  Q 868.60 531.27 868.31 530.60
  Q 862.77 517.62 852.05 508.20
  A 1.20 1.20 0.0 0 1 851.70 506.96
  Z"
/>
<path fill="#ffffff" d="
  M 832.20 554.99
  C 822.83 548.93 814.17 538.48 814.61 527.30
  C 814.90 519.88 820.72 515.28 828.24 515.11
  Q 837.42 514.90 843.01 522.31
  Q 847.06 527.68 850.44 533.49
  C 852.54 537.10 854.63 540.94 854.35 545.27
  C 853.57 557.10 841.47 560.98 832.20 554.99
  Z"
/>
<path fill="#a8c574" d="
  M 895.70 603.45
  C 899.28 583.82 905.84 565.88 917.96 550.02
  A 1.31 1.30 -59.9 0 1 919.49 549.61
  C 925.06 551.93 928.22 557.25 930.27 562.95
  Q 933.62 572.30 935.80 582.35
  Q 935.92 582.89 935.40 583.08
  Q 914.64 590.65 896.11 603.71
  Q 895.59 604.07 895.70 603.45
  Z"
/>
<path fill="#482f18" d="
  M 786.89 608.75
  Q 787.27 607.43 787.73 605.99
  Q 796.19 579.45 804.73 550.14
  Q 804.96 549.35 805.41 550.04
  Q 808.63 554.96 812.34 558.86
  A 1.25 1.24 -53.9 0 1 812.56 560.28
  C 798.90 588.20 789.02 617.45 784.22 647.19
  C 783.26 653.12 782.58 658.20 780.83 664.16
  Q 770.54 699.19 759.80 733.39
  A 0.62 0.62 0.0 0 1 758.90 733.75
  Q 754.77 731.40 750.14 729.86
  A 0.55 0.55 0.0 0 1 749.79 729.18
  Q 759.27 698.35 768.63 667.40
  C 769.65 664.01 771.24 660.92 772.29 657.58
  Q 780.24 632.13 786.89 608.75
  Z"
/>
<path fill="#ffffff" d="
  M 832.14 572.52
  C 846.02 577.91 862.56 575.16 869.00 561.01
  Q 869.19 560.61 869.18 561.05
  Q 868.83 587.21 865.71 611.95
  C 865.06 617.16 864.72 622.11 864.32 627.21
  A 1.94 1.91 -11.2 0 1 863.25 628.79
  Q 857.72 631.50 851.56 633.18
  Q 833.11 638.21 811.60 638.49
  Q 810.89 638.50 811.10 637.82
  L 831.38 572.89
  A 0.59 0.58 -70.5 0 1 832.14 572.52
  Z"
/>
<path fill="#a8c574" d="
  M 895.62 630.21
  C 917.06 612.46 942.95 598.85 970.49 596.80
  Q 972.53 596.65 973.78 598.27
  C 980.36 606.75 984.54 618.61 987.12 629.61
  A 0.59 0.58 76.6 0 1 986.70 630.30
  C 972.47 634.11 957.29 635.32 942.56 635.70
  Q 919.23 636.31 895.70 630.55
  A 0.20 0.20 0.0 0 1 895.62 630.21
  Z"
/>
<path fill="#a8c574" d="
  M 714.95 640.14
  C 725.88 646.19 738.43 650.27 750.58 653.02
  Q 751.13 653.15 750.97 653.69
  L 740.56 687.82
  A 1.44 1.44 0.0 0 1 739.47 688.81
  Q 724.47 691.86 711.30 691.17
  C 705.84 690.88 700.81 690.22 696.92 694.94
  C 693.57 699.00 694.16 704.98 698.01 708.49
  Q 701.00 711.23 705.47 711.69
  Q 718.80 713.06 732.94 710.87
  Q 733.61 710.77 733.42 711.42
  L 729.02 725.77
  Q 728.79 726.53 728.00 726.56
  C 711.95 727.26 695.89 735.91 694.05 752.95
  A 0.95 0.93 83.1 0 1 693.44 753.74
  Q 689.57 755.19 686.25 757.60
  Q 685.82 757.90 685.82 757.38
  C 685.63 745.37 682.23 731.47 680.30 721.50
  Q 678.86 714.04 683.23 708.04
  C 684.91 705.74 687.54 704.01 689.53 701.79
  C 698.03 692.29 695.33 679.40 693.62 667.96
  Q 692.69 661.72 694.63 657.12
  C 697.53 650.27 703.29 643.83 710.04 640.10
  C 711.62 639.22 713.37 639.26 714.95 640.14
  Z"
/>
<path fill="#a8c574" d="
  M 865.30 651.46
  C 851.25 679.41 828.81 703.54 804.60 724.21
  A 0.25 0.25 0.0 0 1 804.19 724.06
  Q 800.39 699.06 802.03 674.87
  Q 802.54 667.32 803.94 660.29
  A 1.00 0.99 5.9 0 1 804.93 659.49
  C 824.96 659.72 845.88 657.52 864.86 650.96
  Q 865.69 650.68 865.30 651.46
  Z"
/>
<path fill="#372f2b" d="
  M 925.08 771.31
  C 916.96 738.46 907.64 707.87 894.61 678.33
  Q 893.51 675.83 896.10 676.68
  Q 899.04 677.65 901.97 678.62
  A 6.52 6.50 85.6 0 1 905.77 681.89
  Q 921.05 712.27 931.40 751.39
  Q 945.89 806.20 948.37 857.38
  Q 948.96 869.70 947.68 882.18
  A 1.33 1.33 0.0 0 1 946.19 883.36
  L 941.99 882.85
  Q 940.61 882.67 940.79 881.29
  Q 942.04 872.07 941.65 867.67
  Q 940.78 857.88 939.80 848.89
  C 936.97 823.17 931.61 797.69 925.08 771.31
  Z"
/>
<path fill="#eaddc3" d="
  M 832.30 926.61
  Q 824.36 920.29 817.55 913.05
  Q 817.04 912.52 817.77 912.43
  C 843.85 909.16 866.75 888.61 872.31 862.78
  Q 872.47 862.00 873.15 862.42
  Q 881.23 867.30 889.53 871.03
  C 903.54 877.32 912.13 858.58 898.71 852.12
  Q 886.30 846.16 874.53 838.29
  Q 873.51 837.61 873.31 836.39
  C 869.04 809.38 850.53 789.06 824.14 781.43
  A 2.38 2.37 -5.8 0 1 822.70 780.26
  Q 814.52 764.74 809.59 747.96
  A 0.91 0.91 0.0 0 1 809.89 747.00
  Q 838.85 723.90 861.02 696.17
  Q 865.55 690.52 869.59 684.32
  C 871.03 682.12 873.91 682.33 875.02 684.70
  Q 879.12 693.43 882.46 702.64
  Q 895.97 739.77 905.98 781.09
  Q 915.07 818.63 919.20 851.13
  C 920.45 861.04 921.03 871.50 919.85 881.49
  A 0.68 0.68 0.0 0 1 919.22 882.10
  C 905.33 883.13 890.40 885.84 877.70 891.74
  Q 851.24 904.04 833.08 926.85
  Q 832.87 927.12 832.62 926.89
  Q 832.46 926.74 832.30 926.61
  Z"
/>
<path fill="#eaddc3" d="
  M 812.16 975.20
  A 0.48 0.48 0.0 0 1 812.42 975.71
  C 807.50 1009.13 819.08 1042.50 842.43 1066.73
  C 866.02 1091.21 900.38 1104.94 934.51 1103.46
  C 982.99 1101.35 1025.06 1072.86 1040.62 1026.72
  C 1049.74 999.68 1046.67 969.90 1033.43 944.40
  A 0.61 0.61 0.0 0 1 1033.60 943.64
  C 1034.83 942.69 1036.04 941.58 1036.95 940.33
  Q 1040.62 935.28 1044.48 929.70
  C 1048.55 923.81 1050.84 917.20 1046.87 910.72
  Q 1043.87 905.83 1039.03 900.27
  Q 1030.94 890.96 1024.18 884.85
  C 1016.35 877.77 1006.28 874.32 996.24 879.19
  Q 984.14 885.07 976.98 891.70
  Q 976.49 892.15 975.88 891.91
  L 969.03 889.20
  A 0.69 0.68 13.4 0 1 968.60 888.51
  C 969.00 884.38 969.45 880.21 969.47 876.02
  Q 969.56 854.96 967.77 836.18
  Q 960.64 761.61 934.31 693.50
  Q 934.13 693.05 934.61 693.13
  C 1022.09 707.41 1109.07 754.51 1158.30 829.44
  A 1.72 1.62 -64.5 0 1 1158.57 830.29
  Q 1159.03 840.73 1159.10 851.49
  C 1159.72 937.37 1126.88 1021.86 1057.11 1073.61
  Q 1021.67 1099.90 978.21 1111.84
  Q 962.29 1116.21 953.90 1117.54
  Q 946.95 1118.64 939.66 1118.20
  C 838.09 1112.00 734.08 1063.59 676.85 976.78
  Q 676.43 976.14 677.16 976.38
  Q 684.92 978.88 691.91 980.05
  C 699.22 981.28 705.49 979.00 707.81 971.53
  Q 719.83 932.94 732.10 893.06
  Q 732.30 892.40 732.70 892.97
  Q 756.08 926.01 783.34 953.13
  C 792.10 961.86 801.35 969.79 812.16 975.20
  Z"
/>
<path fill="#a8c574" d="
  M 783.56 728.74
  L 785.52 739.18
  A 0.35 0.35 0.0 0 1 785.38 739.53
  L 778.81 744.29
  A 0.35 0.35 0.0 0 1 778.27 743.90
  L 782.88 728.70
  A 0.35 0.35 0.0 0 1 783.56 728.74
  Z"
/>
<path fill="#ffffff" d="
  M 753.30 748.31
  C 763.85 752.71 765.60 765.58 754.56 770.63
  Q 739.39 777.56 723.00 772.54
  Q 715.77 770.33 712.10 764.64
  C 709.11 759.99 709.69 753.65 713.56 749.54
  C 717.31 745.57 723.30 744.16 728.56 743.88
  Q 741.03 743.20 753.30 748.31
  Z"
/>
<path fill="#eaddc3" d="
  M 798.50 779.89
  C 784.82 781.78 772.54 787.36 762.48 796.57
  Q 761.88 797.11 762.14 796.35
  Q 764.20 790.19 766.16 783.91
  C 767.03 781.09 768.97 779.87 770.89 777.91
  C 773.11 775.63 774.46 772.25 777.12 770.52
  Q 783.16 766.60 789.61 762.31
  Q 790.35 761.82 790.91 761.16
  A 0.33 0.33 0.0 0 1 791.47 761.25
  L 798.69 779.57
  A 0.24 0.24 0.0 0 1 798.50 779.89
  Z"
/>
<path fill="#a8c574" d="
  M 707.56 780.10
  L 688.21 782.69
  A 0.54 0.54 0.0 0 1 687.84 781.70
  L 700.68 773.23
  A 0.54 0.54 0.0 0 1 701.34 773.28
  L 707.85 779.17
  A 0.54 0.54 0.0 0 1 707.56 780.10
  Z"
/>
<path fill="#482f18" d="
  M 680.87 955.48
  L 731.61 788.98
  A 0.34 0.34 0.0 0 1 731.96 788.74
  L 742.01 789.41
  A 0.34 0.34 0.0 0 1 742.31 789.85
  L 690.12 958.02
  A 0.34 0.34 0.0 0 1 689.70 958.24
  L 681.11 955.91
  A 0.34 0.34 0.0 0 1 680.87 955.48
  Z"
/>
<path fill="#eaddc3" d="
  M 667.06 797.82
  C 670.30 800.06 674.55 801.36 678.58 802.14
  Q 679.22 802.26 679.46 802.87
  Q 686.07 819.49 695.03 834.36
  A 2.69 2.67 37.8 0 1 695.31 836.54
  L 661.48 947.77
  Q 661.27 948.44 660.98 947.80
  C 640.51 902.26 637.43 853.37 657.09 807.31
  C 658.98 802.88 662.56 800.79 666.01 797.88
  A 0.88 0.86 -47.7 0 1 667.06 797.82
  Z"
/>
<path fill="#ce6343" d="
  M 826.14 823.00
  Q 820.43 820.75 816.85 823.04
  C 812.06 826.11 807.90 831.51 804.19 835.80
  Q 803.17 836.99 803.03 835.43
  C 802.28 826.76 796.69 815.89 785.90 819.97
  C 782.72 821.17 780.04 823.89 777.85 826.38
  Q 770.52 834.72 763.67 843.67
  Q 763.05 844.48 762.69 846.03
  Q 761.76 845.30 761.76 843.73
  Q 761.76 838.78 763.15 833.88
  C 768.94 813.33 787.53 799.56 809.06 800.24
  A 1.31 1.30 75.1 0 1 810.14 800.87
  Q 817.27 812.23 826.14 823.00
  Z"
/>
<path fill="#372f2b" d="
  M 705.41 802.20
  L 704.59 806.05
  A 0.36 0.36 0.0 0 1 703.91 806.11
  L 702.52 802.68
  A 0.36 0.36 0.0 0 1 702.78 802.19
  L 704.99 801.77
  A 0.36 0.36 0.0 0 1 705.41 802.20
  Z"
/>
<path fill="#a8c574" d="
  M 826.14 823.00
  L 831.64 829.17
  Q 832.38 836.36 832.21 840.25
  Q 831.47 857.12 830.71 874.00
  Q 830.54 877.80 828.86 880.53
  C 826.28 884.73 820.60 886.13 816.41 883.41
  C 812.29 880.73 811.74 876.70 812.03 872.14
  Q 812.56 863.47 812.85 855.18
  Q 812.89 854.08 812.26 854.98
  Q 809.11 859.43 805.27 864.47
  Q 801.62 869.27 796.25 869.25
  C 790.07 869.21 786.77 863.81 786.30 858.19
  Q 785.82 852.34 785.66 847.40
  Q 785.61 845.93 784.69 847.09
  Q 781.11 851.62 777.22 856.71
  Q 774.50 860.28 772.06 858.66
  L 769.15 854.43
  L 762.97 846.23
  Q 762.72 845.81 762.69 846.03
  Q 763.05 844.48 763.67 843.67
  Q 770.52 834.72 777.85 826.38
  C 780.04 823.89 782.72 821.17 785.90 819.97
  C 796.69 815.89 802.28 826.76 803.03 835.43
  Q 803.17 836.99 804.19 835.80
  C 807.90 831.51 812.06 826.11 816.85 823.04
  Q 820.43 820.75 826.14 823.00
  Z"
/>
<path fill="#ce6343" d="
  M 831.64 829.17
  Q 841.48 839.47 852.43 848.29
  A 1.40 1.39 22.0 0 1 852.95 849.51
  C 852.21 857.84 849.36 866.17 844.46 872.75
  Q 828.77 893.78 800.76 891.73
  Q 798.30 891.55 796.98 890.04
  Q 791.47 883.72 784.79 875.00
  Q 778.40 866.67 772.06 858.66
  Q 774.50 860.28 777.22 856.71
  Q 781.11 851.62 784.69 847.09
  Q 785.61 845.93 785.66 847.40
  Q 785.82 852.34 786.30 858.19
  C 786.77 863.81 790.07 869.21 796.25 869.25
  Q 801.62 869.27 805.27 864.47
  Q 809.11 859.43 812.26 854.98
  Q 812.89 854.08 812.85 855.18
  Q 812.56 863.47 812.03 872.14
  C 811.74 876.70 812.29 880.73 816.41 883.41
  C 820.60 886.13 826.28 884.73 828.86 880.53
  Q 830.54 877.80 830.71 874.00
  Q 831.47 857.12 832.21 840.25
  Q 832.38 836.36 831.64 829.17
  Z"
/>
<path fill="#6b6b6b" d="
  M 762.97 846.23
  L 769.15 854.43
  Q 767.38 853.36 766.83 851.94
  Q 766.65 851.48 766.30 851.13
  Q 764.15 849.06 762.97 846.23
  Z"
/>
<path fill="#372f2b" d="
  M 743.32 871.86
  Q 742.14 870.16 740.88 868.48
  A 2.79 2.78 37.0 0 1 740.50 865.84
  Q 742.23 861.21 743.24 856.83
  Q 743.59 855.30 744.50 856.58
  Q 767.18 888.67 793.18 917.59
  Q 806.19 932.06 821.56 944.79
  Q 821.98 945.14 821.76 945.65
  L 818.12 953.99
  A 0.76 0.76 0.0 0 1 817.01 954.32
  C 807.07 947.83 798.07 939.09 790.00 930.36
  Q 765.46 903.83 743.32 871.86
  Z"
/>
<path fill="#ffffff" d="
  M 1049.67 1103.78
  C 1131.48 1054.06 1174.89 965.55 1179.51 871.69
  Q 1179.56 870.53 1179.97 871.62
  Q 1187.06 890.69 1189.88 908.69
  C 1197.39 956.60 1184.69 1003.23 1153.30 1040.09
  C 1127.37 1070.54 1092.42 1091.07 1053.85 1104.09
  Q 1051.85 1104.76 1049.91 1104.70
  Q 1048.25 1104.64 1049.67 1103.78
  Z"
/>
<path fill="#9e9a98" d="
  M 997.76 902.72
  L 1004.75 898.83
  A 2.37 2.37 0.0 0 1 1007.20 898.91
  Q 1009.97 900.71 1012.36 903.11
  Q 1019.73 910.55 1025.93 918.25
  Q 1026.06 918.41 1025.94 918.59
  L 1021.23 925.50
  A 0.21 0.21 0.0 0 1 1020.90 925.51
  Q 1010.49 912.94 997.70 904.03
  Q 996.68 903.32 997.76 902.72
  Z"
/>
<path fill="#9e9a98" d="
  M 866.14 923.36
  C 915.87 884.67 993.19 902.31 1018.22 960.97
  C 1027.29 982.23 1027.20 1006.63 1018.13 1027.46
  Q 1007.04 1052.93 982.49 1068.05
  C 936.54 1096.36 873.07 1082.31 844.88 1035.90
  Q 828.31 1008.62 833.50 976.52
  Q 835.75 962.64 842.99 951.35
  Q 847.91 943.67 853.44 936.24
  Q 858.72 929.13 866.14 923.36
  Z"
/>
<path fill="#ffa332" d="
  M 840.70 1148.89
  C 835.15 1176.27 832.71 1204.68 837.63 1232.29
  A 0.34 0.34 0.0 0 1 837.16 1232.66
  Q 827.52 1228.51 818.75 1225.71
  Q 797.42 1218.89 774.12 1224.30
  Q 763.05 1226.86 751.81 1231.01
  A 0.54 0.53 73.6 0 1 751.10 1230.62
  Q 749.10 1221.16 744.05 1212.05
  C 741.31 1207.09 737.27 1202.86 733.00 1199.08
  A 0.24 0.24 0.0 0 1 733.12 1198.66
  Q 737.20 1198.07 741.39 1197.05
  Q 762.88 1191.79 782.72 1183.30
  Q 793.77 1178.58 800.55 1173.64
  C 812.36 1165.05 821.68 1154.07 830.81 1142.01
  Q 837.55 1133.12 839.88 1123.03
  Q 840.00 1122.50 840.52 1122.66
  L 847.73 1124.85
  A 0.50 0.49 -69.9 0 1 848.04 1125.52
  Q 843.10 1137.00 840.70 1148.89
  Z"
/>
<path fill="#ffa332" d="
  M 972.23 1232.90
  C 979.22 1223.50 983.50 1213.12 987.56 1202.08
  Q 994.64 1182.77 993.43 1163.96
  C 992.89 1155.71 990.74 1148.13 988.26 1140.29
  Q 988.06 1139.67 988.70 1139.57
  L 1018.76 1134.61
  Q 1019.28 1134.52 1019.06 1135.01
  Q 1007.88 1160.21 1001.53 1178.86
  Q 994.03 1200.88 988.85 1227.68
  Q 983.52 1255.24 984.23 1285.49
  Q 984.62 1301.90 988.72 1316.12
  Q 989.37 1318.38 988.12 1320.44
  Q 978.72 1335.96 962.45 1342.53
  C 959.13 1343.87 955.85 1345.40 952.26 1345.73
  A 1.75 1.74 -21.1 0 1 950.68 1345.03
  Q 934.85 1323.97 907.86 1319.82
  C 895.38 1317.90 884.44 1321.26 873.37 1326.63
  Q 872.67 1326.96 872.70 1326.19
  Q 873.37 1309.41 866.27 1293.01
  A 0.36 0.36 0.0 0 1 866.55 1292.51
  Q 892.75 1289.12 916.62 1277.84
  C 925.98 1273.42 936.13 1269.07 943.93 1262.55
  Q 951.10 1256.56 958.44 1249.89
  C 963.95 1244.88 967.86 1238.78 972.23 1232.90
  Z"
/>
</svg>
