<svg xmlns="http://www.w3.org/2000/svg" version="1.1" viewBox="0.00 0.00 1448.00 1448.00">
  <g stroke-width="2.00" fill="none" stroke-linecap="butt">
  <path stroke="#4f4d4c" vector-effect="non-scaling-stroke" d="
    M 1066.51 139.81
    C 1047.18 129.54 1025.84 122.18 1004.10 116.91
    Q 946.81 103.03 890.23 109.54
    Q 879.26 110.80 869.82 112.90
    A 0.29 0.28 -22.7 0 0 869.64 113.33
    Q 869.76 113.52 869.99 113.54
    Q 878.59 114.58 886.77 116.00
    C 931.58 123.82 976.80 136.40 1018.68 154.57
    Q 1036.08 162.11 1051.22 172.12
    A 0.30 0.30 0.0 0 0 1051.66 172.00
    L 1066.85 140.85
    Q 1067.18 140.17 1066.51 139.81"
  />
  <path stroke="#363636" vector-effect="non-scaling-stroke" d="
    M 1118.7629 155.7725
    A 0.59 0.59 0.0 0 0 1118.4913 154.9836
    L 1090.5208 141.3415
    A 0.59 0.59 0.0 0 0 1089.7319 141.6132
    L 1066.5771 189.0875
    A 0.59 0.59 0.0 0 0 1066.8487 189.8764
    L 1094.8192 203.5185
    A 0.59 0.59 0.0 0 0 1095.6081 203.2468
    L 1118.7629 155.7725"
  />
  <path stroke="#4f4d4c" vector-effect="non-scaling-stroke" d="
    M 1275.08 314.50
    C 1267.34 299.08 1258.66 284.53 1248.37 270.63
    Q 1213.51 223.55 1165.55 191.66
    Q 1150.48 181.65 1134.29 174.03
    A 0.42 0.42 0.0 0 0 1133.75 174.22
    L 1117.93 205.51
    A 0.41 0.40 22.6 0 0 1118.17 206.07
    Q 1126.52 208.75 1133.86 212.17
    Q 1154.43 221.74 1176.99 236.40
    Q 1229.78 270.71 1274.64 314.90
    Q 1274.76 315.01 1274.92 315.00
    Q 1274.99 314.99 1275.03 314.94
    Q 1275.19 314.73 1275.08 314.50"
  />
  <path stroke="#24180c" vector-effect="non-scaling-stroke" d="
    M 1064.86 213.01
    Q 1064.00 214.97 1063.14 216.73
    Q 995.90 353.24 926.07 493.84
    C 923.69 498.64 922.04 503.85 919.27 508.51
    Q 918.87 509.19 919.65 509.29
    Q 924.94 510.01 929.32 512.06
    A 1.00 0.99 25.8 0 0 930.63 511.61
    L 1077.27 219.06
    A 0.52 0.52 0.0 0 0 1077.03 218.36
    L 1065.55 212.76
    Q 1065.07 212.52 1064.86 213.01"
  />
  <path stroke="#756f62" vector-effect="non-scaling-stroke" d="
    M 760.0011 361.5082
    A 31.64 26.45 126.7 0 0 800.1170 351.9472
    A 31.64 26.45 126.7 0 0 797.8189 310.7718
    A 31.64 26.45 126.7 0 0 757.7030 320.3328
    A 31.64 26.45 126.7 0 0 760.0011 361.5082"
  />
  <path stroke="#805219" vector-effect="non-scaling-stroke" d="
    M 871.73 383.10
    C 879.38 386.31 887.61 389.08 896.00 388.53
    A 0.54 0.54 0.0 0 0 896.50 387.89
    C 890.41 353.27 862.19 332.86 828.79 328.45
    Q 828.19 328.37 828.21 328.97
    Q 828.50 338.33 825.62 347.40
    Q 825.43 348.00 825.73 348.56
    Q 828.11 353.04 831.55 356.63
    C 842.28 367.81 856.84 376.86 871.73 383.10"
  />
  <path stroke="#805219" vector-effect="non-scaling-stroke" d="
    M 747.90 403.91
    C 757.83 408.44 768.90 412.06 779.19 412.04
    C 789.45 412.03 797.28 414.04 804.89 421.09
    C 818.09 433.32 836.49 443.09 854.63 448.83
    C 863.05 451.49 871.24 453.26 879.40 452.71
    Q 881.06 452.60 881.90 451.19
    Q 884.93 446.14 887.59 440.77
    A 0.49 0.49 0.0 0 0 887.17 440.06
    Q 882.93 439.87 878.72 438.85
    C 853.39 432.72 827.85 419.51 806.87 403.98
    Q 795.44 395.51 788.04 385.48
    Q 787.67 384.98 787.07 385.14
    C 764.34 391.27 741.87 380.88 733.06 359.06
    A 0.82 0.81 83.7 0 0 732.46 358.57
    C 725.21 357.31 718.28 355.35 710.73 355.80
    C 708.41 355.94 702.31 356.95 702.03 359.97
    C 701.37 367.05 710.24 377.41 715.56 382.40
    Q 729.65 395.61 747.90 403.91"
  />
  <path stroke="#363636" vector-effect="non-scaling-stroke" d="
    M 857.32 399.62
    Q 830.22 386.61 814.27 368.67
    Q 813.77 368.12 813.28 368.68
    Q 810.18 372.26 806.66 374.96
    A 0.50 0.50 0.0 0 0 806.59 375.69
    Q 810.46 380.00 814.88 383.64
    C 827.96 394.39 842.22 402.61 857.67 409.63
    C 868.12 414.36 879.15 418.52 889.93 419.47
    C 892.64 419.71 895.24 419.76 895.85 416.49
    Q 896.47 413.25 896.86 410.02
    A 0.51 0.51 0.0 0 0 896.32 409.45
    Q 890.98 409.86 885.48 408.90
    Q 871.57 406.47 857.32 399.62"
  />
  <path stroke="#808080" vector-effect="non-scaling-stroke" d="
    M 855.44 470.81
    C 835.26 465.41 815.66 456.01 799.46 443.58
    Q 794.00 439.39 789.27 434.54
    A 0.27 0.27 0.0 0 0 788.82 434.65
    C 786.51 442.77 778.81 447.91 770.71 445.19
    Q 760.23 441.68 759.85 430.61
    Q 759.84 430.27 759.51 430.18
    Q 725.33 420.64 699.60 396.01
    Q 699.25 395.68 698.85 395.94
    Q 688.28 402.74 679.23 413.21
    Q 676.54 416.32 677.20 419.78
    C 678.45 426.35 689.87 428.25 694.99 427.86
    C 702.51 427.30 711.95 425.73 719.33 427.42
    Q 724.15 428.53 726.40 433.04
    C 729.28 438.84 725.93 445.60 720.60 448.63
    Q 715.62 451.47 710.91 454.55
    C 700.93 461.10 692.48 470.84 688.78 482.22
    Q 686.46 489.34 689.75 493.79
    Q 697.58 504.37 708.23 505.44
    Q 711.02 505.72 713.45 506.34
    Q 728.03 510.05 737.70 516.92
    C 750.12 525.76 753.62 541.84 753.76 556.62
    C 753.98 580.75 747.59 604.33 739.99 627.55
    A 0.85 0.85 0.0 0 0 740.56 628.64
    Q 784.78 642.18 830.63 637.25
    A 2.21 2.21 0.0 0 0 832.37 636.04
    Q 848.93 602.70 866.18 567.80
    C 867.59 564.94 869.19 562.36 869.23 559.22
    Q 869.46 537.46 867.18 512.51
    Q 866.03 499.98 863.26 487.00
    Q 861.63 479.33 858.95 473.70
    Q 857.88 471.46 855.44 470.81"
  />
  <path stroke="#805219" vector-effect="non-scaling-stroke" d="
    M 672.30 505.88
    C 667.15 497.85 665.31 489.97 667.49 480.02
    C 669.95 468.74 676.57 457.76 684.68 449.06
    A 0.46 0.46 0.0 0 0 684.44 448.29
    C 674.15 446.19 664.99 441.44 659.61 432.60
    A 0.52 0.51 -33.0 0 0 658.88 432.45
    C 642.05 444.19 626.04 455.11 607.28 464.97
    Q 581.16 478.68 551.13 487.20
    Q 544.35 489.13 533.55 490.05
    C 526.19 490.68 521.35 494.39 523.48 502.52
    Q 524.12 504.99 526.33 506.23
    C 539.12 513.40 555.08 516.18 569.93 517.30
    Q 592.05 518.97 611.89 517.44
    Q 616.04 517.12 619.90 516.44
    Q 633.02 514.13 647.86 511.73
    C 656.09 510.40 664.04 508.28 672.09 506.39
    Q 672.55 506.28 672.30 505.88"
  />
  <path stroke="#808080" vector-effect="non-scaling-stroke" d="
    M 927.30 530.34
    Q 922.03 528.29 917.63 529.14
    C 906.85 531.20 905.31 542.00 908.17 551.03
    Q 912.08 563.34 922.97 571.09
    C 930.54 576.48 940.50 573.16 943.40 564.08
    C 944.68 560.09 943.55 555.84 942.09 551.97
    Q 939.45 544.98 936.41 539.07
    Q 933.08 532.58 927.30 530.34"
  />
  <path stroke="#24180c" vector-effect="non-scaling-stroke" d="
    M 893.98 559.90
    L 873.73 600.70
    Q 872.88 602.43 874.12 600.96
    Q 884.64 588.50 897.31 576.37
    C 898.56 575.18 899.55 573.55 900.42 572.06
    A 1.60 1.59 -47.5 0 0 900.35 570.35
    Q 896.83 565.18 894.57 559.91
    Q 894.30 559.26 893.98 559.90"
  />
  <path stroke="#54633a" vector-effect="non-scaling-stroke" d="
    M 913.93 592.73
    C 916.23 591.31 918.57 590.19 921.05 589.19
    Q 921.85 588.87 921.08 588.48
    L 917.66 586.77
    A 0.72 0.71 -58.9 0 0 916.75 587.00
    Q 914.97 589.55 913.52 592.34
    Q 913.02 593.29 913.93 592.73"
  />
  <path stroke="#54633a" vector-effect="non-scaling-stroke" d="
    M 970.98 596.79
    C 943.26 598.66 917.27 612.35 895.66 630.16
    A 0.23 0.23 0.0 0 0 895.75 630.56
    C 919.83 636.47 942.84 636.90 968.57 633.78
    Q 977.97 632.64 986.72 630.31
    Q 987.23 630.17 987.11 629.66
    Q 983.94 615.67 977.34 603.61
    Q 975.58 600.39 973.19 597.70
    A 2.70 2.70 0.0 0 0 970.98 596.79"
  />
  <path stroke="#54633a" vector-effect="non-scaling-stroke" d="
    M 703.52 749.81
    C 719.35 744.48 734.71 740.46 751.53 739.33
    Q 752.10 739.29 752.39 738.80
    Q 752.99 737.77 753.54 736.66
    C 759.82 724.07 775.88 719.52 789.17 721.48
    A 1.28 1.27 17.3 0 0 790.49 720.79
    L 820.71 659.65
    Q 821.00 659.07 820.35 659.11
    C 790.76 660.71 759.17 657.15 731.56 647.50
    Q 722.66 644.38 714.42 639.90
    C 711.81 638.47 708.22 640.94 706.19 642.51
    Q 699.28 647.87 695.11 655.98
    C 693.34 659.42 693.09 662.98 693.53 666.77
    C 695.07 679.87 698.88 694.41 687.09 704.14
    C 681.70 708.59 679.08 713.73 680.27 721.00
    Q 681.52 728.67 683.13 736.27
    Q 685.23 746.18 685.89 756.92
    A 0.56 0.56 0.0 0 0 686.69 757.39
    Q 695.30 753.28 703.53 750.12
    Q 703.61 750.09 703.55 750.05
    Q 703.52 750.02 703.48 749.99
    Q 703.35 749.86 703.52 749.81"
  />
  <path stroke="#1c1816" vector-effect="non-scaling-stroke" d="
    M 925.00 771.00
    Q 933.10 803.56 937.56 831.85
    C 939.38 843.38 940.47 855.90 941.76 867.74
    Q 942.12 871.07 940.78 881.30
    Q 940.61 882.68 941.98 882.85
    L 946.15 883.36
    A 1.37 1.36 6.4 0 0 947.68 882.15
    Q 949.04 869.08 948.39 857.23
    Q 944.67 789.02 922.81 722.85
    Q 916.05 702.38 905.35 681.12
    A 4.69 4.68 -4.4 0 0 902.62 678.79
    Q 899.25 677.71 895.89 676.63
    Q 893.55 675.88 894.53 678.13
    C 907.42 707.52 917.05 739.03 925.00 771.00"
  />
  <path stroke="#756f62" vector-effect="non-scaling-stroke" d="
    M 832.34 926.65
    Q 832.49 926.76 832.62 926.89
    Q 832.87 927.13 833.08 926.85
    Q 851.66 903.50 878.43 891.47
    C 891.27 885.70 905.51 883.12 919.19 882.10
    A 0.76 0.76 0.0 0 0 919.88 881.43
    C 921.30 868.36 919.94 854.52 917.92 841.47
    Q 910.00 790.40 894.96 740.45
    C 889.27 721.55 882.66 701.35 875.11 684.80
    Q 873.95 682.27 871.56 682.97
    Q 870.34 683.33 869.15 685.00
    Q 862.82 693.78 860.33 698.65
    Q 847.85 723.10 835.76 747.50
    C 835.38 748.29 835.15 749.47 835.18 750.25
    Q 836.01 770.01 843.07 788.46
    C 843.44 789.42 844.20 790.47 845.05 791.07
    Q 865.88 805.79 872.12 830.31
    C 872.36 831.23 873.10 832.29 873.80 832.92
    Q 884.47 842.54 896.51 849.49
    Q 899.97 851.49 901.69 853.47
    C 906.43 858.94 904.26 867.68 897.22 869.83
    Q 892.43 871.30 887.30 868.41
    Q 880.25 864.44 873.45 859.51
    Q 872.94 859.15 872.85 859.76
    Q 870.51 875.50 859.61 888.76
    Q 843.19 908.73 817.38 912.59
    A 0.13 0.12 -25.6 0 0 817.30 912.80
    Q 824.41 920.43 832.34 926.65"
  />
  <path stroke="#756f62" vector-effect="non-scaling-stroke" d="
    M 812.12 975.18
    C 801.55 970.00 792.17 961.87 783.83 953.64
    Q 766.33 936.37 751.32 917.40
    A 0.43 0.43 0.0 0 0 750.60 917.48
    Q 740.18 938.36 729.31 959.94
    C 725.79 966.92 718.75 967.95 711.97 965.45
    Q 703.79 962.45 693.41 957.24
    Q 686.51 953.78 684.28 950.31
    Q 680.15 943.86 684.26 935.50
    Q 700.43 902.68 716.33 870.66
    A 1.39 1.38 -48.5 0 0 716.25 869.29
    Q 698.67 842.74 684.60 814.91
    Q 682.25 810.26 679.64 802.99
    Q 679.44 802.43 678.87 802.28
    C 673.57 800.90 669.18 799.76 665.10 796.32
    Q 664.75 796.02 664.35 796.25
    Q 661.24 798.06 659.67 801.44
    Q 637.42 849.41 646.32 900.87
    C 654.78 949.80 683.78 994.34 720.25 1027.85
    C 779.85 1082.60 859.23 1113.35 940.11 1118.21
    Q 947.21 1118.64 954.83 1117.41
    Q 961.50 1116.34 978.61 1111.67
    Q 1021.75 1099.90 1057.09 1073.65
    C 1126.86 1021.81 1159.53 937.77 1159.11 851.71
    Q 1159.06 841.77 1158.56 830.22
    A 1.59 1.51 -64.3 0 0 1158.31 829.44
    C 1128.61 784.10 1085.03 749.30 1035.75 725.17
    Q 988.06 701.83 934.60 693.14
    Q 934.13 693.06 934.30 693.50
    Q 960.60 761.52 967.71 835.78
    Q 969.77 857.37 969.40 878.05
    Q 969.30 883.43 968.54 888.57
    A 0.53 0.52 16.1 0 0 968.86 889.14
    L 976.08 891.99
    A 0.79 0.77 33.1 0 0 976.92 891.82
    C 982.38 886.51 989.52 882.47 996.36 879.15
    C 1006.51 874.21 1016.78 877.98 1024.60 885.20
    Q 1031.25 891.35 1039.11 900.35
    Q 1043.88 905.81 1046.93 910.81
    C 1050.75 917.08 1048.61 923.68 1044.66 929.41
    Q 1040.90 934.89 1037.15 940.08
    C 1036.17 941.44 1034.94 942.61 1033.63 943.62
    Q 1033.18 943.96 1033.45 944.46
    C 1060.04 995.34 1042.26 1054.71 994.91 1084.93
    C 947.11 1115.44 882.02 1107.74 842.54 1066.83
    C 819.17 1042.61 807.42 1009.14 812.41 975.74
    A 0.53 0.53 0.0 0 0 812.12 975.18"
  />
  <path stroke="#24180c" vector-effect="non-scaling-stroke" d="
    M 815.54 717.04
    L 810.67 727.36
    A 0.76 0.76 0.0 0 0 810.96 728.34
    L 813.82 730.08
    Q 814.34 730.40 814.42 729.79
    L 816.04 717.19
    Q 816.25 715.55 815.54 717.04"
  />
  <path stroke="#808080" vector-effect="non-scaling-stroke" d="
    M 778.85 766.88
    C 788.17 770.90 799.60 772.30 809.28 768.84
    Q 812.18 767.80 814.40 765.78
    A 2.57 2.56 -25.2 0 0 815.20 763.57
    Q 814.35 757.15 814.14 751.26
    Q 814.06 749.17 812.22 747.92
    C 803.18 741.78 791.04 737.51 779.80 738.57
    C 772.53 739.25 766.55 743.92 766.52 751.50
    C 766.50 758.80 772.48 764.13 778.85 766.88"
  />
  <path stroke="#1c1816" vector-effect="non-scaling-stroke" d="
    M 735.14 762.69
    Q 731.85 762.73 729.75 763.88"
  />
  <path stroke="#54633a" vector-effect="non-scaling-stroke" d="
    M 729.75 763.88
    Q 706.81 769.65 686.11 781.60
    Q 685.60 781.90 686.19 781.94
    C 697.29 782.79 709.46 779.76 719.84 775.92
    Q 736.77 769.67 752.75 760.75
    Q 753.51 760.32 752.64 760.36
    Q 743.89 760.79 735.14 762.69"
  />
  <path stroke="#707a50" vector-effect="non-scaling-stroke" d="
    M 729.75 763.88
    L 735.14 762.69"
  />
  <path stroke="#756f62" vector-effect="non-scaling-stroke" d="
    M 760.68 780.21
    C 750.42 785.82 740.84 790.49 729.74 794.59
    Q 729.22 794.78 729.50 795.25
    L 742.42 816.41
    Q 742.82 817.08 743.17 816.38
    L 760.98 780.50
    Q 761.29 779.88 760.68 780.21"
  />
  <path stroke="#24180c" vector-effect="non-scaling-stroke" d="
    M 793.13 786.11
    A 0.34 0.34 0.0 0 0 792.90 785.62
    L 783.11 783.33
    A 0.34 0.34 0.0 0 0 782.73 783.51
    L 705.46 939.56
    A 0.34 0.34 0.0 0 0 705.62 940.02
    L 713.71 943.68
    A 0.34 0.34 0.0 0 0 714.16 943.52
    L 793.13 786.11"
  />
  <path stroke="#54633a" vector-effect="non-scaling-stroke" d="
    M 798.13 822.87
    L 785.61 847.69"
  />
  <path stroke="#673222" vector-effect="non-scaling-stroke" d="
    M 785.61 847.69
    L 777.22 864.32
    Q 776.97 864.81 777.29 865.25
    Q 786.68 878.24 796.71 889.75
    Q 798.08 891.33 800.19 891.55
    Q 824.08 894.05 840.04 877.99
    C 849.04 868.94 853.94 855.64 852.93 843.12
    Q 852.84 841.90 851.95 840.97
    Q 836.65 824.78 827.51 805.72
    A 3.15 3.13 -0.7 0 0 825.95 804.21
    Q 818.68 801.02 810.02 800.26
    A 0.79 0.78 15.8 0 0 809.24 800.69
    L 798.13 822.87"
  />
  <path stroke="#bb945c" vector-effect="non-scaling-stroke" d="
    M 785.61 847.69
    C 786.58 853.09 785.20 859.30 788.18 864.51
    C 792.03 871.25 800.71 870.30 805.05 864.73
    Q 808.66 860.11 812.12 855.17
    Q 812.94 853.99 812.86 855.43
    Q 812.40 864.11 812.09 872.34
    Q 811.91 876.94 812.87 879.28
    C 815.33 885.26 822.76 886.52 827.50 882.21
    C 829.72 880.18 830.57 876.89 830.70 873.96
    Q 831.44 857.27 832.23 840.46
    Q 832.53 834.06 831.46 829.78
    C 829.53 822.02 820.97 819.56 814.86 824.46
    C 810.89 827.64 807.34 832.12 804.05 835.95
    Q 803.22 836.92 803.08 835.65
    Q 802.15 827.68 798.13 822.87"
  />
  <path stroke="#1c1816" vector-effect="non-scaling-stroke" d="
    M 732.02 838.58
    Q 732.07 838.45 731.99 838.33
    Q 719.30 820.07 709.10 801.18
    A 0.38 0.38 0.0 0 0 708.71 800.99
    L 702.27 802.16
    A 0.22 0.22 0.0 0 0 702.11 802.46
    Q 713.20 826.17 727.37 848.02
    A 0.08 0.08 0.0 0 0 727.50 848.01
    Q 730.94 841.29 732.02 838.58"
  />
  <path stroke="#808080" vector-effect="non-scaling-stroke" d="
    M 1179.51 871.69
    C 1175.08 965.41 1131.39 1054.02 1049.67 1103.77
    Q 1048.29 1104.61 1049.90 1104.69
    Q 1051.85 1104.78 1053.80 1104.11
    C 1092.40 1091.03 1127.36 1070.58 1153.26 1040.14
    C 1184.60 1003.30 1197.49 956.56 1189.88 908.66
    Q 1186.99 890.49 1179.98 871.61
    Q 1179.57 870.50 1179.51 871.69"
  />
  <path stroke="#1c1816" vector-effect="non-scaling-stroke" d="
    M 761.93 897.09
    Q 778.89 919.40 797.38 937.93
    Q 806.87 947.44 816.94 954.32
    A 0.80 0.79 28.7 0 0 818.12 953.98
    L 821.77 945.64
    Q 821.99 945.13 821.56 944.78
    C 800.92 927.77 783.37 907.36 766.65 886.15
    A 0.33 0.33 0.0 0 0 766.09 886.22
    Q 764.02 890.88 761.77 894.94
    Q 761.15 896.06 761.93 897.09"
  />
  <path stroke="#4f4d4c" vector-effect="non-scaling-stroke" d="
    M 997.76 902.72
    Q 996.68 903.32 997.70 904.03
    Q 1010.49 912.94 1020.90 925.51
    A 0.21 0.21 0.0 0 0 1021.23 925.50
    L 1025.94 918.59
    Q 1026.06 918.41 1025.93 918.25
    Q 1019.73 910.55 1012.36 903.11
    Q 1009.97 900.71 1007.20 898.91
    A 2.37 2.37 0.0 0 0 1004.75 898.83
    L 997.76 902.72"
  />
  <path stroke="#4f4d4c" vector-effect="non-scaling-stroke" d="
    M 966.79 910.68
    C 933.54 896.92 895.23 900.89 866.51 923.08
    Q 858.70 929.12 853.55 936.08
    Q 847.43 944.35 842.67 951.89
    Q 835.57 963.13 833.39 977.12
    Q 829.24 1003.77 840.30 1027.41
    C 867.78 1086.09 948.58 1100.86 996.30 1057.71
    Q 1017.98 1038.10 1023.41 1010.27
    C 1031.77 967.41 1005.87 926.84 966.79 910.68"
  />
  <path stroke="#805219" vector-effect="non-scaling-stroke" d="
    M 837.63 1232.29
    C 832.71 1204.68 835.15 1176.27 840.70 1148.89
    Q 843.10 1137.00 848.04 1125.52
    A 0.50 0.49 -69.9 0 0 847.73 1124.85
    L 840.52 1122.66
    Q 840.00 1122.50 839.88 1123.03
    Q 837.55 1133.12 830.81 1142.01
    C 821.68 1154.07 812.36 1165.05 800.55 1173.64
    Q 793.77 1178.58 782.72 1183.30
    Q 762.88 1191.79 741.39 1197.05
    Q 737.20 1198.07 733.12 1198.66
    A 0.24 0.24 0.0 0 0 733.00 1199.08
    C 737.27 1202.86 741.31 1207.09 744.05 1212.05
    Q 749.10 1221.16 751.10 1230.62
    A 0.54 0.53 73.6 0 0 751.81 1231.01
    Q 763.05 1226.86 774.12 1224.30
    Q 797.42 1218.89 818.75 1225.71
    Q 827.52 1228.51 837.16 1232.66
    A 0.34 0.34 0.0 0 0 837.63 1232.29"
  />
  <path stroke="#805219" vector-effect="non-scaling-stroke" d="
    M 987.56 1202.08
    C 983.50 1213.12 979.22 1223.50 972.23 1232.90
    C 967.86 1238.78 963.95 1244.88 958.44 1249.89
    Q 951.10 1256.56 943.93 1262.55
    C 936.13 1269.07 925.98 1273.42 916.62 1277.84
    Q 892.75 1289.12 866.55 1292.51
    A 0.36 0.36 0.0 0 0 866.27 1293.01
    Q 873.37 1309.41 872.70 1326.19
    Q 872.67 1326.96 873.37 1326.63
    C 884.44 1321.26 895.38 1317.90 907.86 1319.82
    Q 934.85 1323.97 950.68 1345.03
    A 1.75 1.74 -21.1 0 0 952.26 1345.73
    C 955.85 1345.40 959.13 1343.87 962.45 1342.53
    Q 978.72 1335.96 988.12 1320.44
    Q 989.37 1318.38 988.72 1316.12
    Q 984.62 1301.90 984.23 1285.49
    Q 983.52 1255.24 988.85 1227.68
    Q 994.03 1200.88 1001.53 1178.86
    Q 1007.88 1160.21 1019.06 1135.01
    Q 1019.28 1134.52 1018.76 1134.61
    L 988.70 1139.57
    Q 988.06 1139.67 988.26 1140.29
    C 990.74 1148.13 992.89 1155.71 993.43 1163.96
    Q 994.64 1182.77 987.56 1202.08"
  />
  <path stroke="#54633a" vector-effect="non-scaling-stroke" d="
    M 777.17 698.71
    C 784.19 695.62 796.20 689.99 792.62 680.04
    C 790.50 674.14 783.73 671.83 778.21 674.57
    C 774.23 676.55 770.42 679.14 766.31 680.80
    Q 736.26 692.94 706.70 691.01
    C 693.07 690.12 690.14 707.97 702.95 711.16
    Q 707.28 712.24 713.69 712.20
    Q 747.03 712.01 777.17 698.71"
  />
  </g>
  <path fill="#000000" d="
    M 889.03 520.34
    Q 889.11 521.49 889.62 520.46
    Q 967.43 363.19 1044.84 206.86
    C 1045.31 205.91 1046.05 205.05 1046.44 204.08
    Q 1046.68 203.48 1046.20 203.05
    Q 1041.51 198.96 1042.27 192.63
    Q 1042.33 192.06 1041.89 191.69
    Q 1036.51 187.22 1030.33 183.69
    C 1013.32 173.96 994.44 166.52 975.94 160.32
    Q 937.43 147.40 898.76 139.50
    Q 870.49 133.73 844.91 131.87
    Q 828.80 130.70 817.31 132.59
    Q 813.46 133.23 810.72 132.39
    C 802.22 129.80 800.74 118.52 808.26 113.68
    Q 814.11 109.91 821.74 106.45
    C 851.32 93.05 885.16 87.25 917.68 86.59
    C 972.04 85.49 1027.43 96.43 1075.96 121.07
    A 1.25 1.24 -54.9 0 0 1077.43 120.81
    C 1082.02 115.96 1087.59 116.50 1093.09 119.17
    Q 1115.59 130.11 1136.63 140.52
    C 1141.76 143.06 1144.28 148.03 1143.22 153.67
    Q 1142.99 154.93 1144.14 155.49
    C 1201.66 183.76 1251.21 231.17 1283.13 285.31
    C 1297.09 308.98 1307.90 335.33 1311.50 362.40
    C 1313.24 375.53 1297.42 380.67 1291.29 368.75
    C 1285.87 358.20 1276.76 347.72 1268.25 338.48
    Q 1262.77 332.54 1257.47 327.38
    Q 1208.03 279.25 1149.77 244.00
    C 1137.19 236.38 1122.86 228.96 1108.67 225.30
    A 1.15 1.14 30.3 0 0 1107.59 225.58
    Q 1103.31 229.64 1097.11 228.14
    A 1.19 1.19 0.0 0 0 1095.77 228.77
    L 947.39 524.75
    A 1.43 1.43 0.0 0 0 947.55 526.27
    C 958.36 540.09 965.64 560.22 958.12 576.56
    A 0.46 0.46 0.0 0 0 958.61 577.20
    Q 964.82 576.17 972.25 575.91
    C 982.77 575.54 989.30 582.89 994.24 591.11
    Q 1002.78 605.30 1006.30 620.34
    Q 1007.57 625.78 1009.03 630.66
    Q 1010.39 635.21 1009.77 638.04
    C 1008.52 643.69 1003.01 647.07 997.81 648.75
    C 983.18 653.48 968.75 655.10 953.55 656.17
    Q 920.50 658.49 888.88 650.43
    Q 888.04 650.22 887.72 651.02
    L 886.08 655.20
    A 0.66 0.66 0.0 0 0 886.78 656.09
    Q 898.15 654.54 907.41 657.57
    C 912.10 659.10 915.59 661.61 919.19 664.90
    Q 921.06 666.61 922.21 668.77
    A 2.63 2.61 79.4 0 0 924.19 670.14
    C 1001.09 680.08 1076.21 712.88 1132.35 765.84
    C 1176.20 807.21 1208.64 862.27 1212.85 922.52
    Q 1216.14 969.66 1196.58 1011.48
    C 1171.16 1065.79 1121.50 1103.43 1064.37 1122.90
    Q 1055.41 1125.95 1046.73 1128.74
    Q 1045.69 1129.08 1045.19 1130.06
    Q 1030.26 1159.41 1019.90 1190.80
    Q 1015.74 1203.41 1011.46 1222.75
    Q 1004.51 1254.22 1005.48 1285.99
    Q 1005.91 1300.03 1010.21 1314.32
    C 1012.08 1320.49 1009.20 1326.85 1005.50 1332.55
    Q 997.85 1344.32 989.16 1351.15
    C 979.01 1359.11 952.10 1374.20 939.71 1362.84
    C 937.75 1361.04 935.55 1359.63 933.75 1357.66
    Q 931.76 1355.50 929.78 1353.32
    C 921.54 1344.25 904.65 1337.67 892.60 1341.68
    Q 879.64 1345.99 865.02 1354.81
    C 858.53 1358.72 851.42 1356.89 848.51 1349.89
    C 846.46 1344.95 846.15 1341.15 848.37 1336.21
    C 849.78 1333.09 851.11 1329.73 851.37 1326.31
    C 852.12 1316.38 849.24 1300.09 840.29 1293.29
    Q 838.55 1291.97 837.13 1290.48
    C 832.02 1285.14 833.16 1277.58 839.53 1273.90
    C 843.71 1271.50 847.67 1270.38 852.22 1271.61
    Q 855.14 1272.41 858.09 1272.14
    C 873.61 1270.75 889.35 1266.95 904.06 1260.27
    Q 913.26 1256.09 921.66 1251.78
    C 929.74 1247.63 935.51 1241.73 942.19 1235.93
    Q 946.61 1232.10 950.04 1227.17
    C 953.49 1222.23 957.28 1217.79 960.07 1212.33
    C 968.17 1196.48 974.35 1179.02 971.89 1161.54
    Q 970.59 1152.30 964.48 1142.55
    A 1.61 1.61 0.0 0 0 963.68 1141.90
    Q 962.44 1141.45 961.22 1141.40
    Q 946.44 1140.83 933.28 1139.95
    C 912.49 1138.56 891.43 1134.55 870.64 1130.42
    Q 868.56 1130.00 867.59 1132.00
    Q 863.93 1139.52 861.88 1148.28
    Q 856.27 1172.23 855.51 1197.45
    C 855.04 1212.84 856.97 1227.14 861.04 1241.44
    C 862.45 1246.43 861.88 1250.63 859.05 1254.98
    C 854.63 1261.77 846.95 1260.79 840.74 1257.18
    Q 830.88 1251.45 814.09 1245.69
    Q 795.78 1239.41 774.83 1245.12
    Q 764.69 1247.88 751.94 1252.42
    Q 749.03 1253.45 746.04 1255.28
    C 741.82 1257.85 736.35 1257.29 732.96 1253.59
    C 730.14 1250.52 729.88 1246.55 730.80 1242.54
    Q 732.57 1234.83 727.61 1224.63
    C 725.57 1220.45 723.11 1217.62 719.76 1214.49
    Q 710.99 1206.30 700.86 1202.92
    Q 695.40 1201.11 690.42 1198.71
    C 686.23 1196.70 683.83 1190.54 685.30 1186.30
    Q 687.25 1180.66 693.65 1180.45
    Q 709.71 1179.94 725.99 1178.92
    Q 729.23 1178.72 732.30 1178.05
    Q 756.21 1172.86 778.78 1162.57
    Q 789.92 1157.50 799.34 1147.60
    Q 809.24 1137.21 815.57 1128.01
    Q 819.06 1122.96 819.25 1115.89
    Q 819.27 1115.39 818.90 1115.06
    Q 818.01 1114.27 816.89 1113.81
    C 811.05 1111.43 805.54 1108.62 799.76 1106.02
    Q 785.03 1099.41 770.98 1091.50
    C 766.43 1088.93 761.82 1085.24 757.10 1082.31
    C 699.01 1046.24 650.78 993.06 630.82 927.35
    Q 630.51 926.33 629.56 925.85
    C 590.78 906.24 588.75 864.85 607.44 830.31
    Q 618.95 809.04 637.88 791.26
    C 639.41 789.82 640.20 788.13 641.01 786.27
    Q 651.25 762.56 662.00 741.25
    C 662.42 740.42 662.54 739.34 662.33 738.45
    Q 660.72 731.79 659.78 725.68
    Q 656.27 702.88 672.61 689.21
    C 674.81 687.37 674.88 684.06 674.47 681.45
    C 672.49 668.67 670.48 657.67 676.90 645.58
    Q 682.95 634.20 692.80 626.36
    C 699.75 620.82 710.33 616.21 718.79 619.19
    Q 719.60 619.48 719.89 618.67
    C 726.74 599.57 731.91 580.21 731.81 560.12
    C 731.75 549.32 729.87 537.10 719.73 531.23
    C 710.07 525.65 698.72 524.89 687.63 525.44
    Q 680.00 525.82 671.10 528.28
    C 657.54 532.04 644.91 533.47 631.35 536.06
    Q 620.04 538.22 611.69 538.78
    Q 585.02 540.58 558.22 537.44
    C 550.94 536.59 543.48 534.84 536.07 533.73
    C 529.64 532.76 520.83 530.07 515.66 525.33
    Q 510.85 520.93 505.50 515.76
    Q 502.67 513.04 501.59 508.50
    C 500.00 501.80 501.13 493.45 504.39 487.65
    Q 512.27 473.61 528.96 470.01
    C 535.16 468.68 541.34 468.03 547.55 466.20
    Q 590.33 453.56 626.75 428.75
    Q 642.77 417.84 654.32 409.83
    C 655.12 409.28 656.48 407.95 657.19 406.99
    Q 669.25 390.44 685.69 379.17
    A 0.79 0.79 0.0 0 0 685.93 378.13
    C 679.50 366.65 678.65 353.10 687.87 343.60
    C 697.79 333.38 715.32 333.72 728.78 336.71
    A 0.97 0.96 9.6 0 0 729.94 335.89
    C 733.58 305.72 761.04 280.61 792.64 286.07
    Q 810.36 289.13 821.44 306.01
    A 2.10 2.07 74.7 0 0 823.06 306.95
    C 857.05 309.01 890.10 325.12 907.05 355.69
    C 926.57 390.89 918.86 432.69 897.46 465.51
    C 893.80 471.12 889.09 473.02 882.55 473.57
    Q 881.96 473.62 881.96 474.21
    C 881.96 475.61 882.71 476.91 883.01 478.27
    Q 887.65 499.37 889.03 520.34
    Z
    M 1066.51 139.81
    C 1047.18 129.54 1025.84 122.18 1004.10 116.91
    Q 946.81 103.03 890.23 109.54
    Q 879.26 110.80 869.82 112.90
    A 0.29 0.28 -22.7 0 0 869.64 113.33
    Q 869.76 113.52 869.99 113.54
    Q 878.59 114.58 886.77 116.00
    C 931.58 123.82 976.80 136.40 1018.68 154.57
    Q 1036.08 162.11 1051.22 172.12
    A 0.30 0.30 0.0 0 0 1051.66 172.00
    L 1066.85 140.85
    Q 1067.18 140.17 1066.51 139.81
    Z
    M 1118.7629 155.7725
    A 0.59 0.59 0.0 0 0 1118.4913 154.9836
    L 1090.5208 141.3415
    A 0.59 0.59 0.0 0 0 1089.7319 141.6132
    L 1066.5771 189.0875
    A 0.59 0.59 0.0 0 0 1066.8487 189.8764
    L 1094.8192 203.5185
    A 0.59 0.59 0.0 0 0 1095.6081 203.2468
    L 1118.7629 155.7725
    Z
    M 1275.08 314.50
    C 1267.34 299.08 1258.66 284.53 1248.37 270.63
    Q 1213.51 223.55 1165.55 191.66
    Q 1150.48 181.65 1134.29 174.03
    A 0.42 0.42 0.0 0 0 1133.75 174.22
    L 1117.93 205.51
    A 0.41 0.40 22.6 0 0 1118.17 206.07
    Q 1126.52 208.75 1133.86 212.17
    Q 1154.43 221.74 1176.99 236.40
    Q 1229.78 270.71 1274.64 314.90
    Q 1274.76 315.01 1274.92 315.00
    Q 1274.99 314.99 1275.03 314.94
    Q 1275.19 314.73 1275.08 314.50
    Z
    M 1064.86 213.01
    Q 1064.00 214.97 1063.14 216.73
    Q 995.90 353.24 926.07 493.84
    C 923.69 498.64 922.04 503.85 919.27 508.51
    Q 918.87 509.19 919.65 509.29
    Q 924.94 510.01 929.32 512.06
    A 1.00 0.99 25.8 0 0 930.63 511.61
    L 1077.27 219.06
    A 0.52 0.52 0.0 0 0 1077.03 218.36
    L 1065.55 212.76
    Q 1065.07 212.52 1064.86 213.01
    Z
    M 760.0011 361.5082
    A 31.64 26.45 126.7 0 0 800.1170 351.9472
    A 31.64 26.45 126.7 0 0 797.8189 310.7718
    A 31.64 26.45 126.7 0 0 757.7030 320.3328
    A 31.64 26.45 126.7 0 0 760.0011 361.5082
    Z
    M 871.73 383.10
    C 879.38 386.31 887.61 389.08 896.00 388.53
    A 0.54 0.54 0.0 0 0 896.50 387.89
    C 890.41 353.27 862.19 332.86 828.79 328.45
    Q 828.19 328.37 828.21 328.97
    Q 828.50 338.33 825.62 347.40
    Q 825.43 348.00 825.73 348.56
    Q 828.11 353.04 831.55 356.63
    C 842.28 367.81 856.84 376.86 871.73 383.10
    Z
    M 747.90 403.91
    C 757.83 408.44 768.90 412.06 779.19 412.04
    C 789.45 412.03 797.28 414.04 804.89 421.09
    C 818.09 433.32 836.49 443.09 854.63 448.83
    C 863.05 451.49 871.24 453.26 879.40 452.71
    Q 881.06 452.60 881.90 451.19
    Q 884.93 446.14 887.59 440.77
    A 0.49 0.49 0.0 0 0 887.17 440.06
    Q 882.93 439.87 878.72 438.85
    C 853.39 432.72 827.85 419.51 806.87 403.98
    Q 795.44 395.51 788.04 385.48
    Q 787.67 384.98 787.07 385.14
    C 764.34 391.27 741.87 380.88 733.06 359.06
    A 0.82 0.81 83.7 0 0 732.46 358.57
    C 725.21 357.31 718.28 355.35 710.73 355.80
    C 708.41 355.94 702.31 356.95 702.03 359.97
    C 701.37 367.05 710.24 377.41 715.56 382.40
    Q 729.65 395.61 747.90 403.91
    Z
    M 857.32 399.62
    Q 830.22 386.61 814.27 368.67
    Q 813.77 368.12 813.28 368.68
    Q 810.18 372.26 806.66 374.96
    A 0.50 0.50 0.0 0 0 806.59 375.69
    Q 810.46 380.00 814.88 383.64
    C 827.96 394.39 842.22 402.61 857.67 409.63
    C 868.12 414.36 879.15 418.52 889.93 419.47
    C 892.64 419.71 895.24 419.76 895.85 416.49
    Q 896.47 413.25 896.86 410.02
    A 0.51 0.51 0.0 0 0 896.32 409.45
    Q 890.98 409.86 885.48 408.90
    Q 871.57 406.47 857.32 399.62
    Z
    M 855.44 470.81
    C 835.26 465.41 815.66 456.01 799.46 443.58
    Q 794.00 439.39 789.27 434.54
    A 0.27 0.27 0.0 0 0 788.82 434.65
    C 786.51 442.77 778.81 447.91 770.71 445.19
    Q 760.23 441.68 759.85 430.61
    Q 759.84 430.27 759.51 430.18
    Q 725.33 420.64 699.60 396.01
    Q 699.25 395.68 698.85 395.94
    Q 688.28 402.74 679.23 413.21
    Q 676.54 416.32 677.20 419.78
    C 678.45 426.35 689.87 428.25 694.99 427.86
    C 702.51 427.30 711.95 425.73 719.33 427.42
    Q 724.15 428.53 726.40 433.04
    C 729.28 438.84 725.93 445.60 720.60 448.63
    Q 715.62 451.47 710.91 454.55
    C 700.93 461.10 692.48 470.84 688.78 482.22
    Q 686.46 489.34 689.75 493.79
    Q 697.58 504.37 708.23 505.44
    Q 711.02 505.72 713.45 506.34
    Q 728.03 510.05 737.70 516.92
    C 750.12 525.76 753.62 541.84 753.76 556.62
    C 753.98 580.75 747.59 604.33 739.99 627.55
    A 0.85 0.85 0.0 0 0 740.56 628.64
    Q 784.78 642.18 830.63 637.25
    A 2.21 2.21 0.0 0 0 832.37 636.04
    Q 848.93 602.70 866.18 567.80
    C 867.59 564.94 869.19 562.36 869.23 559.22
    Q 869.46 537.46 867.18 512.51
    Q 866.03 499.98 863.26 487.00
    Q 861.63 479.33 858.95 473.70
    Q 857.88 471.46 855.44 470.81
    Z
    M 672.30 505.88
    C 667.15 497.85 665.31 489.97 667.49 480.02
    C 669.95 468.74 676.57 457.76 684.68 449.06
    A 0.46 0.46 0.0 0 0 684.44 448.29
    C 674.15 446.19 664.99 441.44 659.61 432.60
    A 0.52 0.51 -33.0 0 0 658.88 432.45
    C 642.05 444.19 626.04 455.11 607.28 464.97
    Q 581.16 478.68 551.13 487.20
    Q 544.35 489.13 533.55 490.05
    C 526.19 490.68 521.35 494.39 523.48 502.52
    Q 524.12 504.99 526.33 506.23
    C 539.12 513.40 555.08 516.18 569.93 517.30
    Q 592.05 518.97 611.89 517.44
    Q 616.04 517.12 619.90 516.44
    Q 633.02 514.13 647.86 511.73
    C 656.09 510.40 664.04 508.28 672.09 506.39
    Q 672.55 506.28 672.30 505.88
    Z
    M 927.30 530.34
    Q 922.03 528.29 917.63 529.14
    C 906.85 531.20 905.31 542.00 908.17 551.03
    Q 912.08 563.34 922.97 571.09
    C 930.54 576.48 940.50 573.16 943.40 564.08
    C 944.68 560.09 943.55 555.84 942.09 551.97
    Q 939.45 544.98 936.41 539.07
    Q 933.08 532.58 927.30 530.34
    Z
    M 893.98 559.90
    L 873.73 600.70
    Q 872.88 602.43 874.12 600.96
    Q 884.64 588.50 897.31 576.37
    C 898.56 575.18 899.55 573.55 900.42 572.06
    A 1.60 1.59 -47.5 0 0 900.35 570.35
    Q 896.83 565.18 894.57 559.91
    Q 894.30 559.26 893.98 559.90
    Z
    M 913.93 592.73
    C 916.23 591.31 918.57 590.19 921.05 589.19
    Q 921.85 588.87 921.08 588.48
    L 917.66 586.77
    A 0.72 0.71 -58.9 0 0 916.75 587.00
    Q 914.97 589.55 913.52 592.34
    Q 913.02 593.29 913.93 592.73
    Z
    M 970.98 596.79
    C 943.26 598.66 917.27 612.35 895.66 630.16
    A 0.23 0.23 0.0 0 0 895.75 630.56
    C 919.83 636.47 942.84 636.90 968.57 633.78
    Q 977.97 632.64 986.72 630.31
    Q 987.23 630.17 987.11 629.66
    Q 983.94 615.67 977.34 603.61
    Q 975.58 600.39 973.19 597.70
    A 2.70 2.70 0.0 0 0 970.98 596.79
    Z
    M 703.52 749.81
    C 719.35 744.48 734.71 740.46 751.53 739.33
    Q 752.10 739.29 752.39 738.80
    Q 752.99 737.77 753.54 736.66
    C 759.82 724.07 775.88 719.52 789.17 721.48
    A 1.28 1.27 17.3 0 0 790.49 720.79
    L 820.71 659.65
    Q 821.00 659.07 820.35 659.11
    C 790.76 660.71 759.17 657.15 731.56 647.50
    Q 722.66 644.38 714.42 639.90
    C 711.81 638.47 708.22 640.94 706.19 642.51
    Q 699.28 647.87 695.11 655.98
    C 693.34 659.42 693.09 662.98 693.53 666.77
    C 695.07 679.87 698.88 694.41 687.09 704.14
    C 681.70 708.59 679.08 713.73 680.27 721.00
    Q 681.52 728.67 683.13 736.27
    Q 685.23 746.18 685.89 756.92
    A 0.56 0.56 0.0 0 0 686.69 757.39
    Q 695.30 753.28 703.53 750.12
    Q 703.61 750.09 703.55 750.05
    Q 703.52 750.02 703.48 749.99
    Q 703.35 749.86 703.52 749.81
    Z
    M 925.00 771.00
    Q 933.10 803.56 937.56 831.85
    C 939.38 843.38 940.47 855.90 941.76 867.74
    Q 942.12 871.07 940.78 881.30
    Q 940.61 882.68 941.98 882.85
    L 946.15 883.36
    A 1.37 1.36 6.4 0 0 947.68 882.15
    Q 949.04 869.08 948.39 857.23
    Q 944.67 789.02 922.81 722.85
    Q 916.05 702.38 905.35 681.12
    A 4.69 4.68 -4.4 0 0 902.62 678.79
    Q 899.25 677.71 895.89 676.63
    Q 893.55 675.88 894.53 678.13
    C 907.42 707.52 917.05 739.03 925.00 771.00
    Z
    M 832.34 926.65
    Q 832.49 926.76 832.62 926.89
    Q 832.87 927.13 833.08 926.85
    Q 851.66 903.50 878.43 891.47
    C 891.27 885.70 905.51 883.12 919.19 882.10
    A 0.76 0.76 0.0 0 0 919.88 881.43
    C 921.30 868.36 919.94 854.52 917.92 841.47
    Q 910.00 790.40 894.96 740.45
    C 889.27 721.55 882.66 701.35 875.11 684.80
    Q 873.95 682.27 871.56 682.97
    Q 870.34 683.33 869.15 685.00
    Q 862.82 693.78 860.33 698.65
    Q 847.85 723.10 835.76 747.50
    C 835.38 748.29 835.15 749.47 835.18 750.25
    Q 836.01 770.01 843.07 788.46
    C 843.44 789.42 844.20 790.47 845.05 791.07
    Q 865.88 805.79 872.12 830.31
    C 872.36 831.23 873.10 832.29 873.80 832.92
    Q 884.47 842.54 896.51 849.49
    Q 899.97 851.49 901.69 853.47
    C 906.43 858.94 904.26 867.68 897.22 869.83
    Q 892.43 871.30 887.30 868.41
    Q 880.25 864.44 873.45 859.51
    Q 872.94 859.15 872.85 859.76
    Q 870.51 875.50 859.61 888.76
    Q 843.19 908.73 817.38 912.59
    A 0.13 0.12 -25.6 0 0 817.30 912.80
    Q 824.41 920.43 832.34 926.65
    Z
    M 812.12 975.18
    C 801.55 970.00 792.17 961.87 783.83 953.64
    Q 766.33 936.37 751.32 917.40
    A 0.43 0.43 0.0 0 0 750.60 917.48
    Q 740.18 938.36 729.31 959.94
    C 725.79 966.92 718.75 967.95 711.97 965.45
    Q 703.79 962.45 693.41 957.24
    Q 686.51 953.78 684.28 950.31
    Q 680.15 943.86 684.26 935.50
    Q 700.43 902.68 716.33 870.66
    A 1.39 1.38 -48.5 0 0 716.25 869.29
    Q 698.67 842.74 684.60 814.91
    Q 682.25 810.26 679.64 802.99
    Q 679.44 802.43 678.87 802.28
    C 673.57 800.90 669.18 799.76 665.10 796.32
    Q 664.75 796.02 664.35 796.25
    Q 661.24 798.06 659.67 801.44
    Q 637.42 849.41 646.32 900.87
    C 654.78 949.80 683.78 994.34 720.25 1027.85
    C 779.85 1082.60 859.23 1113.35 940.11 1118.21
    Q 947.21 1118.64 954.83 1117.41
    Q 961.50 1116.34 978.61 1111.67
    Q 1021.75 1099.90 1057.09 1073.65
    C 1126.86 1021.81 1159.53 937.77 1159.11 851.71
    Q 1159.06 841.77 1158.56 830.22
    A 1.59 1.51 -64.3 0 0 1158.31 829.44
    C 1128.61 784.10 1085.03 749.30 1035.75 725.17
    Q 988.06 701.83 934.60 693.14
    Q 934.13 693.06 934.30 693.50
    Q 960.60 761.52 967.71 835.78
    Q 969.77 857.37 969.40 878.05
    Q 969.30 883.43 968.54 888.57
    A 0.53 0.52 16.1 0 0 968.86 889.14
    L 976.08 891.99
    A 0.79 0.77 33.1 0 0 976.92 891.82
    C 982.38 886.51 989.52 882.47 996.36 879.15
    C 1006.51 874.21 1016.78 877.98 1024.60 885.20
    Q 1031.25 891.35 1039.11 900.35
    Q 1043.88 905.81 1046.93 910.81
    C 1050.75 917.08 1048.61 923.68 1044.66 929.41
    Q 1040.90 934.89 1037.15 940.08
    C 1036.17 941.44 1034.94 942.61 1033.63 943.62
    Q 1033.18 943.96 1033.45 944.46
    C 1060.04 995.34 1042.26 1054.71 994.91 1084.93
    C 947.11 1115.44 882.02 1107.74 842.54 1066.83
    C 819.17 1042.61 807.42 1009.14 812.41 975.74
    A 0.53 0.53 0.0 0 0 812.12 975.18
    Z
    M 815.54 717.04
    L 810.67 727.36
    A 0.76 0.76 0.0 0 0 810.96 728.34
    L 813.82 730.08
    Q 814.34 730.40 814.42 729.79
    L 816.04 717.19
    Q 816.25 715.55 815.54 717.04
    Z
    M 778.85 766.88
    C 788.17 770.90 799.60 772.30 809.28 768.84
    Q 812.18 767.80 814.40 765.78
    A 2.57 2.56 -25.2 0 0 815.20 763.57
    Q 814.35 757.15 814.14 751.26
    Q 814.06 749.17 812.22 747.92
    C 803.18 741.78 791.04 737.51 779.80 738.57
    C 772.53 739.25 766.55 743.92 766.52 751.50
    C 766.50 758.80 772.48 764.13 778.85 766.88
    Z
    M 735.14 762.69
    Q 731.85 762.73 729.75 763.88
    Q 706.81 769.65 686.11 781.60
    Q 685.60 781.90 686.19 781.94
    C 697.29 782.79 709.46 779.76 719.84 775.92
    Q 736.77 769.67 752.75 760.75
    Q 753.51 760.32 752.64 760.36
    Q 743.89 760.79 735.14 762.69
    Z
    M 760.68 780.21
    C 750.42 785.82 740.84 790.49 729.74 794.59
    Q 729.22 794.78 729.50 795.25
    L 742.42 816.41
    Q 742.82 817.08 743.17 816.38
    L 760.98 780.50
    Q 761.29 779.88 760.68 780.21
    Z
    M 793.13 786.11
    A 0.34 0.34 0.0 0 0 792.90 785.62
    L 783.11 783.33
    A 0.34 0.34 0.0 0 0 782.73 783.51
    L 705.46 939.56
    A 0.34 0.34 0.0 0 0 705.62 940.02
    L 713.71 943.68
    A 0.34 0.34 0.0 0 0 714.16 943.52
    L 793.13 786.11
    Z
    M 798.13 822.87
    L 785.61 847.69
    L 777.22 864.32
    Q 776.97 864.81 777.29 865.25
    Q 786.68 878.24 796.71 889.75
    Q 798.08 891.33 800.19 891.55
    Q 824.08 894.05 840.04 877.99
    C 849.04 868.94 853.94 855.64 852.93 843.12
    Q 852.84 841.90 851.95 840.97
    Q 836.65 824.78 827.51 805.72
    A 3.15 3.13 -0.7 0 0 825.95 804.21
    Q 818.68 801.02 810.02 800.26
    A 0.79 0.78 15.8 0 0 809.24 800.69
    L 798.13 822.87
    Z
    M 732.02 838.58
    Q 732.07 838.45 731.99 838.33
    Q 719.30 820.07 709.10 801.18
    A 0.38 0.38 0.0 0 0 708.71 800.99
    L 702.27 802.16
    A 0.22 0.22 0.0 0 0 702.11 802.46
    Q 713.20 826.17 727.37 848.02
    A 0.08 0.08 0.0 0 0 727.50 848.01
    Q 730.94 841.29 732.02 838.58
    Z
    M 624.01 893.73
    Q 621.60 877.27 622.95 859.20
    Q 623.41 852.92 624.52 843.95
    Q 624.53 843.85 624.43 843.86
    Q 624.32 843.86 624.35 843.86
    Q 624.42 843.85 624.39 843.92
    C 616.52 859.92 613.18 878.82 623.25 894.02
    Q 624.28 895.57 624.01 893.73
    Z
    M 1179.51 871.69
    C 1175.08 965.41 1131.39 1054.02 1049.67 1103.77
    Q 1048.29 1104.61 1049.90 1104.69
    Q 1051.85 1104.78 1053.80 1104.11
    C 1092.40 1091.03 1127.36 1070.58 1153.26 1040.14
    C 1184.60 1003.30 1197.49 956.56 1189.88 908.66
    Q 1186.99 890.49 1179.98 871.61
    Q 1179.57 870.50 1179.51 871.69
    Z
    M 761.93 897.09
    Q 778.89 919.40 797.38 937.93
    Q 806.87 947.44 816.94 954.32
    A 0.80 0.79 28.7 0 0 818.12 953.98
    L 821.77 945.64
    Q 821.99 945.13 821.56 944.78
    C 800.92 927.77 783.37 907.36 766.65 886.15
    A 0.33 0.33 0.0 0 0 766.09 886.22
    Q 764.02 890.88 761.77 894.94
    Q 761.15 896.06 761.93 897.09
    Z
    M 997.76 902.72
    Q 996.68 903.32 997.70 904.03
    Q 1010.49 912.94 1020.90 925.51
    A 0.21 0.21 0.0 0 0 1021.23 925.50
    L 1025.94 918.59
    Q 1026.06 918.41 1025.93 918.25
    Q 1019.73 910.55 1012.36 903.11
    Q 1009.97 900.71 1007.20 898.91
    A 2.37 2.37 0.0 0 0 1004.75 898.83
    L 997.76 902.72
    Z
    M 966.79 910.68
    C 933.54 896.92 895.23 900.89 866.51 923.08
    Q 858.70 929.12 853.55 936.08
    Q 847.43 944.35 842.67 951.89
    Q 835.57 963.13 833.39 977.12
    Q 829.24 1003.77 840.30 1027.41
    C 867.78 1086.09 948.58 1100.86 996.30 1057.71
    Q 1017.98 1038.10 1023.41 1010.27
    C 1031.77 967.41 1005.87 926.84 966.79 910.68
    Z
    M 837.63 1232.29
    C 832.71 1204.68 835.15 1176.27 840.70 1148.89
    Q 843.10 1137.00 848.04 1125.52
    A 0.50 0.49 -69.9 0 0 847.73 1124.85
    L 840.52 1122.66
    Q 840.00 1122.50 839.88 1123.03
    Q 837.55 1133.12 830.81 1142.01
    C 821.68 1154.07 812.36 1165.05 800.55 1173.64
    Q 793.77 1178.58 782.72 1183.30
    Q 762.88 1191.79 741.39 1197.05
    Q 737.20 1198.07 733.12 1198.66
    A 0.24 0.24 0.0 0 0 733.00 1199.08
    C 737.27 1202.86 741.31 1207.09 744.05 1212.05
    Q 749.10 1221.16 751.10 1230.62
    A 0.54 0.53 73.6 0 0 751.81 1231.01
    Q 763.05 1226.86 774.12 1224.30
    Q 797.42 1218.89 818.75 1225.71
    Q 827.52 1228.51 837.16 1232.66
    A 0.34 0.34 0.0 0 0 837.63 1232.29
    Z
    M 987.56 1202.08
    C 983.50 1213.12 979.22 1223.50 972.23 1232.90
    C 967.86 1238.78 963.95 1244.88 958.44 1249.89
    Q 951.10 1256.56 943.93 1262.55
    C 936.13 1269.07 925.98 1273.42 916.62 1277.84
    Q 892.75 1289.12 866.55 1292.51
    A 0.36 0.36 0.0 0 0 866.27 1293.01
    Q 873.37 1309.41 872.70 1326.19
    Q 872.67 1326.96 873.37 1326.63
    C 884.44 1321.26 895.38 1317.90 907.86 1319.82
    Q 934.85 1323.97 950.68 1345.03
    A 1.75 1.74 -21.1 0 0 952.26 1345.73
    C 955.85 1345.40 959.13 1343.87 962.45 1342.53
    Q 978.72 1335.96 988.12 1320.44
    Q 989.37 1318.38 988.72 1316.12
    Q 984.62 1301.90 984.23 1285.49
    Q 983.52 1255.24 988.85 1227.68
    Q 994.03 1200.88 1001.53 1178.86
    Q 1007.88 1160.21 1019.06 1135.01
    Q 1019.28 1134.52 1018.76 1134.61
    L 988.70 1139.57
    Q 988.06 1139.67 988.26 1140.29
    C 990.74 1148.13 992.89 1155.71 993.43 1163.96
    Q 994.64 1182.77 987.56 1202.08
    Z"
  />
  <path fill="#9e9a98" d="
    M 1004.10 116.91
    C 1025.84 122.18 1047.18 129.54 1066.51 139.81
    Q 1067.18 140.17 1066.85 140.85
    L 1051.66 172.00
    A 0.30 0.30 0.0 0 1 1051.22 172.12
    Q 1036.08 162.11 1018.68 154.57
    C 976.80 136.40 931.58 123.82 886.77 116.00
    Q 878.59 114.58 869.99 113.54
    Q 869.76 113.52 869.64 113.33
    A 0.29 0.28 -22.7 0 1 869.82 112.90
    Q 879.26 110.80 890.23 109.54
    Q 946.81 103.03 1004.10 116.91
    Z"
  />
  <rect fill="#6b6b6b" x="-16.15" y="-27.00" transform="translate(1092.67,172.43) rotate(26.0)" width="32.30" height="54.00" rx="0.59"/>
  <path fill="#9e9a98" d="
    M 1248.37 270.63
    C 1258.66 284.53 1267.34 299.08 1275.08 314.50
    Q 1275.19 314.73 1275.03 314.94
    Q 1274.99 314.99 1274.92 315.00
    Q 1274.76 315.01 1274.64 314.90
    Q 1229.78 270.71 1176.99 236.40
    Q 1154.43 221.74 1133.86 212.17
    Q 1126.52 208.75 1118.17 206.07
    A 0.41 0.40 22.6 0 1 1117.93 205.51
    L 1133.75 174.22
    A 0.42 0.42 0.0 0 1 1134.29 174.03
    Q 1150.48 181.65 1165.55 191.66
    Q 1213.51 223.55 1248.37 270.63
    Z"
  />
  <path fill="#482f18" d="
    M 1064.86 213.01
    Q 1065.07 212.52 1065.55 212.76
    L 1077.03 218.36
    A 0.52 0.52 0.0 0 1 1077.27 219.06
    L 930.63 511.61
    A 1.00 0.99 25.8 0 1 929.32 512.06
    Q 924.94 510.01 919.65 509.29
    Q 918.87 509.19 919.27 508.51
    C 922.04 503.85 923.69 498.64 926.07 493.84
    Q 995.90 353.24 1063.14 216.73
    Q 1064.00 214.97 1064.86 213.01
    Z"
  />
  <ellipse fill="#eaddc3" cx="0.00" cy="0.00" transform="translate(778.91,336.14) rotate(126.7)" rx="31.64" ry="26.45"/>
  <path fill="#ffa332" d="
    M 871.73 383.10
    C 856.84 376.86 842.28 367.81 831.55 356.63
    Q 828.11 353.04 825.73 348.56
    Q 825.43 348.00 825.62 347.40
    Q 828.50 338.33 828.21 328.97
    Q 828.19 328.37 828.79 328.45
    C 862.19 332.86 890.41 353.27 896.50 387.89
    A 0.54 0.54 0.0 0 1 896.00 388.53
    C 887.61 389.08 879.38 386.31 871.73 383.10
    Z"
  />
  <path fill="#ffa332" d="
    M 747.90 403.91
    Q 729.65 395.61 715.56 382.40
    C 710.24 377.41 701.37 367.05 702.03 359.97
    C 702.31 356.95 708.41 355.94 710.73 355.80
    C 718.28 355.35 725.21 357.31 732.46 358.57
    A 0.82 0.81 83.7 0 1 733.06 359.06
    C 741.87 380.88 764.34 391.27 787.07 385.14
    Q 787.67 384.98 788.04 385.48
    Q 795.44 395.51 806.87 403.98
    C 827.85 419.51 853.39 432.72 878.72 438.85
    Q 882.93 439.87 887.17 440.06
    A 0.49 0.49 0.0 0 1 887.59 440.77
    Q 884.93 446.14 881.90 451.19
    Q 881.06 452.60 879.40 452.71
    C 871.24 453.26 863.05 451.49 854.63 448.83
    C 836.49 443.09 818.09 433.32 804.89 421.09
    C 797.28 414.04 789.45 412.03 779.19 412.04
    C 768.90 412.06 757.83 408.44 747.90 403.91
    Z"
  />
  <path fill="#6b6b6b" d="
    M 857.32 399.62
    Q 871.57 406.47 885.48 408.90
    Q 890.98 409.86 896.32 409.45
    A 0.51 0.51 0.0 0 1 896.86 410.02
    Q 896.47 413.25 895.85 416.49
    C 895.24 419.76 892.64 419.71 889.93 419.47
    C 879.15 418.52 868.12 414.36 857.67 409.63
    C 842.22 402.61 827.96 394.39 814.88 383.64
    Q 810.46 380.00 806.59 375.69
    A 0.50 0.50 0.0 0 1 806.66 374.96
    Q 810.18 372.26 813.28 368.68
    Q 813.77 368.12 814.27 368.67
    Q 830.22 386.61 857.32 399.62
    Z"
  />
  <path fill="#ffffff" d="
    M 799.46 443.58
    C 815.66 456.01 835.26 465.41 855.44 470.81
    Q 857.88 471.46 858.95 473.70
    Q 861.63 479.33 863.26 487.00
    Q 866.03 499.98 867.18 512.51
    Q 869.46 537.46 869.23 559.22
    C 869.19 562.36 867.59 564.94 866.18 567.80
    Q 848.93 602.70 832.37 636.04
    A 2.21 2.21 0.0 0 1 830.63 637.25
    Q 784.78 642.18 740.56 628.64
    A 0.85 0.85 0.0 0 1 739.99 627.55
    C 747.59 604.33 753.98 580.75 753.76 556.62
    C 753.62 541.84 750.12 525.76 737.70 516.92
    Q 728.03 510.05 713.45 506.34
    Q 711.02 505.72 708.23 505.44
    Q 697.58 504.37 689.75 493.79
    Q 686.46 489.34 688.78 482.22
    C 692.48 470.84 700.93 461.10 710.91 454.55
    Q 715.62 451.47 720.60 448.63
    C 725.93 445.60 729.28 438.84 726.40 433.04
    Q 724.15 428.53 719.33 427.42
    C 711.95 425.73 702.51 427.30 694.99 427.86
    C 689.87 428.25 678.45 426.35 677.20 419.78
    Q 676.54 416.32 679.23 413.21
    Q 688.28 402.74 698.85 395.94
    Q 699.25 395.68 699.60 396.01
    Q 725.33 420.64 759.51 430.18
    Q 759.84 430.27 759.85 430.61
    Q 760.23 441.68 770.71 445.19
    C 778.81 447.91 786.51 442.77 788.82 434.65
    A 0.27 0.27 0.0 0 1 789.27 434.54
    Q 794.00 439.39 799.46 443.58
    Z"
  />
  <path fill="#ffa332" d="
    M 667.49 480.02
    C 665.31 489.97 667.15 497.85 672.30 505.88
    Q 672.55 506.28 672.09 506.39
    C 664.04 508.28 656.09 510.40 647.86 511.73
    Q 633.02 514.13 619.90 516.44
    Q 616.04 517.12 611.89 517.44
    Q 592.05 518.97 569.93 517.30
    C 555.08 516.18 539.12 513.40 526.33 506.23
    Q 524.12 504.99 523.48 502.52
    C 521.35 494.39 526.19 490.68 533.55 490.05
    Q 544.35 489.13 551.13 487.20
    Q 581.16 478.68 607.28 464.97
    C 626.04 455.11 642.05 444.19 658.88 432.45
    A 0.52 0.51 -33.0 0 1 659.61 432.60
    C 664.99 441.44 674.15 446.19 684.44 448.29
    A 0.46 0.46 0.0 0 1 684.68 449.06
    C 676.57 457.76 669.95 468.74 667.49 480.02
    Z"
  />
  <path fill="#ffffff" d="
    M 927.30 530.34
    Q 933.08 532.58 936.41 539.07
    Q 939.45 544.98 942.09 551.97
    C 943.55 555.84 944.68 560.09 943.40 564.08
    C 940.50 573.16 930.54 576.48 922.97 571.09
    Q 912.08 563.34 908.17 551.03
    C 905.31 542.00 906.85 531.20 917.63 529.14
    Q 922.03 528.29 927.30 530.34
    Z"
  />
  <path fill="#482f18" d="
    M 893.98 559.90
    Q 894.30 559.26 894.57 559.91
    Q 896.83 565.18 900.35 570.35
    A 1.60 1.59 -47.5 0 1 900.42 572.06
    C 899.55 573.55 898.56 575.18 897.31 576.37
    Q 884.64 588.50 874.12 600.96
    Q 872.88 602.43 873.73 600.70
    L 893.98 559.90
    Z"
  />
  <path fill="#a8c574" d="
    M 921.05 589.19
    C 918.57 590.19 916.23 591.31 913.93 592.73
    Q 913.02 593.29 913.52 592.34
    Q 914.97 589.55 916.75 587.00
    A 0.72 0.71 -58.9 0 1 917.66 586.77
    L 921.08 588.48
    Q 921.85 588.87 921.05 589.19
    Z"
  />
  <path fill="#a8c574" d="
    M 895.66 630.16
    C 917.27 612.35 943.26 598.66 970.98 596.79
    A 2.70 2.70 0.0 0 1 973.19 597.70
    Q 975.58 600.39 977.34 603.61
    Q 983.94 615.67 987.11 629.66
    Q 987.23 630.17 986.72 630.31
    Q 977.97 632.64 968.57 633.78
    C 942.84 636.90 919.83 636.47 895.75 630.56
    A 0.23 0.23 0.0 0 1 895.66 630.16
    Z"
  />
  <path fill="#a8c574" d="
    M 703.48 749.99
    Q 703.52 750.02 703.55 750.05
    Q 703.61 750.09 703.53 750.12
    Q 695.30 753.28 686.69 757.39
    A 0.56 0.56 0.0 0 1 685.89 756.92
    Q 685.23 746.18 683.13 736.27
    Q 681.52 728.67 680.27 721.00
    C 679.08 713.73 681.70 708.59 687.09 704.14
    C 698.88 694.41 695.07 679.87 693.53 666.77
    C 693.09 662.98 693.34 659.42 695.11 655.98
    Q 699.28 647.87 706.19 642.51
    C 708.22 640.94 711.81 638.47 714.42 639.90
    Q 722.66 644.38 731.56 647.50
    C 759.17 657.15 790.76 660.71 820.35 659.11
    Q 821.00 659.07 820.71 659.65
    L 790.49 720.79
    A 1.28 1.27 17.3 0 1 789.17 721.48
    C 775.88 719.52 759.82 724.07 753.54 736.66
    Q 752.99 737.77 752.39 738.80
    Q 752.10 739.29 751.53 739.33
    C 734.71 740.46 719.35 744.48 703.52 749.81
    Q 703.35 749.86 703.48 749.99
    Z
    M 777.17 698.71
    C 784.19 695.62 796.20 689.99 792.62 680.04
    C 790.50 674.14 783.73 671.83 778.21 674.57
    C 774.23 676.55 770.42 679.14 766.31 680.80
    Q 736.26 692.94 706.70 691.01
    C 693.07 690.12 690.14 707.97 702.95 711.16
    Q 707.28 712.24 713.69 712.20
    Q 747.03 712.01 777.17 698.71
    Z"
  />
  <path fill="#000000" d="
    M 777.17 698.71
    Q 747.03 712.01 713.69 712.20
    Q 707.28 712.24 702.95 711.16
    C 690.14 707.97 693.07 690.12 706.70 691.01
    Q 736.26 692.94 766.31 680.80
    C 770.42 679.14 774.23 676.55 778.21 674.57
    C 783.73 671.83 790.50 674.14 792.62 680.04
    C 796.20 689.99 784.19 695.62 777.17 698.71
    Z"
  />
  <path fill="#372f2b" d="
    M 925.00 771.00
    C 917.05 739.03 907.42 707.52 894.53 678.13
    Q 893.55 675.88 895.89 676.63
    Q 899.25 677.71 902.62 678.79
    A 4.69 4.68 -4.4 0 1 905.35 681.12
    Q 916.05 702.38 922.81 722.85
    Q 944.67 789.02 948.39 857.23
    Q 949.04 869.08 947.68 882.15
    A 1.37 1.36 6.4 0 1 946.15 883.36
    L 941.98 882.85
    Q 940.61 882.68 940.78 881.30
    Q 942.12 871.07 941.76 867.74
    C 940.47 855.90 939.38 843.38 937.56 831.85
    Q 933.10 803.56 925.00 771.00
    Z"
  />
  <path fill="#eaddc3" d="
    M 832.34 926.65
    Q 824.41 920.43 817.30 912.80
    A 0.13 0.12 -25.6 0 1 817.38 912.59
    Q 843.19 908.73 859.61 888.76
    Q 870.51 875.50 872.85 859.76
    Q 872.94 859.15 873.45 859.51
    Q 880.25 864.44 887.30 868.41
    Q 892.43 871.30 897.22 869.83
    C 904.26 867.68 906.43 858.94 901.69 853.47
    Q 899.97 851.49 896.51 849.49
    Q 884.47 842.54 873.80 832.92
    C 873.10 832.29 872.36 831.23 872.12 830.31
    Q 865.88 805.79 845.05 791.07
    C 844.20 790.47 843.44 789.42 843.07 788.46
    Q 836.01 770.01 835.18 750.25
    C 835.15 749.47 835.38 748.29 835.76 747.50
    Q 847.85 723.10 860.33 698.65
    Q 862.82 693.78 869.15 685.00
    Q 870.34 683.33 871.56 682.97
    Q 873.95 682.27 875.11 684.80
    C 882.66 701.35 889.27 721.55 894.96 740.45
    Q 910.00 790.40 917.92 841.47
    C 919.94 854.52 921.30 868.36 919.88 881.43
    A 0.76 0.76 0.0 0 1 919.19 882.10
    C 905.51 883.12 891.27 885.70 878.43 891.47
    Q 851.66 903.50 833.08 926.85
    Q 832.87 927.13 832.62 926.89
    Q 832.49 926.76 832.34 926.65
    Z"
  />
  <path fill="#eaddc3" d="
    M 812.12 975.18
    A 0.53 0.53 0.0 0 1 812.41 975.74
    C 807.42 1009.14 819.17 1042.61 842.54 1066.83
    C 882.02 1107.74 947.11 1115.44 994.91 1084.93
    C 1042.26 1054.71 1060.04 995.34 1033.45 944.46
    Q 1033.18 943.96 1033.63 943.62
    C 1034.94 942.61 1036.17 941.44 1037.15 940.08
    Q 1040.90 934.89 1044.66 929.41
    C 1048.61 923.68 1050.75 917.08 1046.93 910.81
    Q 1043.88 905.81 1039.11 900.35
    Q 1031.25 891.35 1024.60 885.20
    C 1016.78 877.98 1006.51 874.21 996.36 879.15
    C 989.52 882.47 982.38 886.51 976.92 891.82
    A 0.79 0.77 33.1 0 1 976.08 891.99
    L 968.86 889.14
    A 0.53 0.52 16.1 0 1 968.54 888.57
    Q 969.30 883.43 969.40 878.05
    Q 969.77 857.37 967.71 835.78
    Q 960.60 761.52 934.30 693.50
    Q 934.13 693.06 934.60 693.14
    Q 988.06 701.83 1035.75 725.17
    C 1085.03 749.30 1128.61 784.10 1158.31 829.44
    A 1.59 1.51 -64.3 0 1 1158.56 830.22
    Q 1159.06 841.77 1159.11 851.71
    C 1159.53 937.77 1126.86 1021.81 1057.09 1073.65
    Q 1021.75 1099.90 978.61 1111.67
    Q 961.50 1116.34 954.83 1117.41
    Q 947.21 1118.64 940.11 1118.21
    C 859.23 1113.35 779.85 1082.60 720.25 1027.85
    C 683.78 994.34 654.78 949.80 646.32 900.87
    Q 637.42 849.41 659.67 801.44
    Q 661.24 798.06 664.35 796.25
    Q 664.75 796.02 665.10 796.32
    C 669.18 799.76 673.57 800.90 678.87 802.28
    Q 679.44 802.43 679.64 802.99
    Q 682.25 810.26 684.60 814.91
    Q 698.67 842.74 716.25 869.29
    A 1.39 1.38 -48.5 0 1 716.33 870.66
    Q 700.43 902.68 684.26 935.50
    Q 680.15 943.86 684.28 950.31
    Q 686.51 953.78 693.41 957.24
    Q 703.79 962.45 711.97 965.45
    C 718.75 967.95 725.79 966.92 729.31 959.94
    Q 740.18 938.36 750.60 917.48
    A 0.43 0.43 0.0 0 1 751.32 917.40
    Q 766.33 936.37 783.83 953.64
    C 792.17 961.87 801.55 970.00 812.12 975.18
    Z"
  />
  <path fill="#482f18" d="
    M 810.67 727.36
    L 815.54 717.04
    Q 816.25 715.55 816.04 717.19
    L 814.42 729.79
    Q 814.34 730.40 813.82 730.08
    L 810.96 728.34
    A 0.76 0.76 0.0 0 1 810.67 727.36
    Z"
  />
  <path fill="#ffffff" d="
    M 778.85 766.88
    C 772.48 764.13 766.50 758.80 766.52 751.50
    C 766.55 743.92 772.53 739.25 779.80 738.57
    C 791.04 737.51 803.18 741.78 812.22 747.92
    Q 814.06 749.17 814.14 751.26
    Q 814.35 757.15 815.20 763.57
    A 2.57 2.56 -25.2 0 1 814.40 765.78
    Q 812.18 767.80 809.28 768.84
    C 799.60 772.30 788.17 770.90 778.85 766.88
    Z"
  />
  <path fill="#a8c574" d="
    M 729.75 763.88
    L 735.14 762.69
    Q 743.89 760.79 752.64 760.36
    Q 753.51 760.32 752.75 760.75
    Q 736.77 769.67 719.84 775.92
    C 709.46 779.76 697.29 782.79 686.19 781.94
    Q 685.60 781.90 686.11 781.60
    Q 706.81 769.65 729.75 763.88
    Z"
  />
  <path fill="#372f2b" d="
    M 735.14 762.69
    L 729.75 763.88
    Q 731.85 762.73 735.14 762.69
    Z"
  />
  <path fill="#eaddc3" d="
    M 729.74 794.59
    C 740.84 790.49 750.42 785.82 760.68 780.21
    Q 761.29 779.88 760.98 780.50
    L 743.17 816.38
    Q 742.82 817.08 742.42 816.41
    L 729.50 795.25
    Q 729.22 794.78 729.74 794.59
    Z"
  />
  <path fill="#482f18" d="
    M 793.13 786.11
    L 714.16 943.52
    A 0.34 0.34 0.0 0 1 713.71 943.68
    L 705.62 940.02
    A 0.34 0.34 0.0 0 1 705.46 939.56
    L 782.73 783.51
    A 0.34 0.34 0.0 0 1 783.11 783.33
    L 792.90 785.62
    A 0.34 0.34 0.0 0 1 793.13 786.11
    Z"
  />
  <path fill="#ce6343" d="
    M 785.61 847.69
    C 786.58 853.09 785.20 859.30 788.18 864.51
    C 792.03 871.25 800.71 870.30 805.05 864.73
    Q 808.66 860.11 812.12 855.17
    Q 812.94 853.99 812.86 855.43
    Q 812.40 864.11 812.09 872.34
    Q 811.91 876.94 812.87 879.28
    C 815.33 885.26 822.76 886.52 827.50 882.21
    C 829.72 880.18 830.57 876.89 830.70 873.96
    Q 831.44 857.27 832.23 840.46
    Q 832.53 834.06 831.46 829.78
    C 829.53 822.02 820.97 819.56 814.86 824.46
    C 810.89 827.64 807.34 832.12 804.05 835.95
    Q 803.22 836.92 803.08 835.65
    Q 802.15 827.68 798.13 822.87
    L 809.24 800.69
    A 0.79 0.78 15.8 0 1 810.02 800.26
    Q 818.68 801.02 825.95 804.21
    A 3.15 3.13 -0.7 0 1 827.51 805.72
    Q 836.65 824.78 851.95 840.97
    Q 852.84 841.90 852.93 843.12
    C 853.94 855.64 849.04 868.94 840.04 877.99
    Q 824.08 894.05 800.19 891.55
    Q 798.08 891.33 796.71 889.75
    Q 786.68 878.24 777.29 865.25
    Q 776.97 864.81 777.22 864.32
    L 785.61 847.69
    Z"
  />
  <path fill="#372f2b" d="
    M 732.02 838.58
    Q 730.94 841.29 727.50 848.01
    A 0.08 0.08 0.0 0 1 727.37 848.02
    Q 713.20 826.17 702.11 802.46
    A 0.22 0.22 0.0 0 1 702.27 802.16
    L 708.71 800.99
    A 0.38 0.38 0.0 0 1 709.10 801.18
    Q 719.30 820.07 731.99 838.33
    Q 732.07 838.45 732.02 838.58
    Z"
  />
  <path fill="#a8c574" d="
    M 785.61 847.69
    L 798.13 822.87
    Q 802.15 827.68 803.08 835.65
    Q 803.22 836.92 804.05 835.95
    C 807.34 832.12 810.89 827.64 814.86 824.46
    C 820.97 819.56 829.53 822.02 831.46 829.78
    Q 832.53 834.06 832.23 840.46
    Q 831.44 857.27 830.70 873.96
    C 830.57 876.89 829.72 880.18 827.50 882.21
    C 822.76 886.52 815.33 885.26 812.87 879.28
    Q 811.91 876.94 812.09 872.34
    Q 812.40 864.11 812.86 855.43
    Q 812.94 853.99 812.12 855.17
    Q 808.66 860.11 805.05 864.73
    C 800.71 870.30 792.03 871.25 788.18 864.51
    C 785.20 859.30 786.58 853.09 785.61 847.69
    Z"
  />
  <path fill="#ffffff" d="
    M 1049.67 1103.77
    C 1131.39 1054.02 1175.08 965.41 1179.51 871.69
    Q 1179.57 870.50 1179.98 871.61
    Q 1186.99 890.49 1189.88 908.66
    C 1197.49 956.56 1184.60 1003.30 1153.26 1040.14
    C 1127.36 1070.58 1092.40 1091.03 1053.80 1104.11
    Q 1051.85 1104.78 1049.90 1104.69
    Q 1048.29 1104.61 1049.67 1103.77
    Z"
  />
  <path fill="#372f2b" d="
    M 761.93 897.09
    Q 761.15 896.06 761.77 894.94
    Q 764.02 890.88 766.09 886.22
    A 0.33 0.33 0.0 0 1 766.65 886.15
    C 783.37 907.36 800.92 927.77 821.56 944.78
    Q 821.99 945.13 821.77 945.64
    L 818.12 953.98
    A 0.80 0.79 28.7 0 1 816.94 954.32
    Q 806.87 947.44 797.38 937.93
    Q 778.89 919.40 761.93 897.09
    Z"
  />
  <path fill="#9e9a98" d="
    M 997.76 902.72
    L 1004.75 898.83
    A 2.37 2.37 0.0 0 1 1007.20 898.91
    Q 1009.97 900.71 1012.36 903.11
    Q 1019.73 910.55 1025.93 918.25
    Q 1026.06 918.41 1025.94 918.59
    L 1021.23 925.50
    A 0.21 0.21 0.0 0 1 1020.90 925.51
    Q 1010.49 912.94 997.70 904.03
    Q 996.68 903.32 997.76 902.72
    Z"
  />
  <path fill="#9e9a98" d="
    M 966.79 910.68
    C 1005.87 926.84 1031.77 967.41 1023.41 1010.27
    Q 1017.98 1038.10 996.30 1057.71
    C 948.58 1100.86 867.78 1086.09 840.30 1027.41
    Q 829.24 1003.77 833.39 977.12
    Q 835.57 963.13 842.67 951.89
    Q 847.43 944.35 853.55 936.08
    Q 858.70 929.12 866.51 923.08
    C 895.23 900.89 933.54 896.92 966.79 910.68
    Z"
  />
  <path fill="#ffa332" d="
    M 840.70 1148.89
    C 835.15 1176.27 832.71 1204.68 837.63 1232.29
    A 0.34 0.34 0.0 0 1 837.16 1232.66
    Q 827.52 1228.51 818.75 1225.71
    Q 797.42 1218.89 774.12 1224.30
    Q 763.05 1226.86 751.81 1231.01
    A 0.54 0.53 73.6 0 1 751.10 1230.62
    Q 749.10 1221.16 744.05 1212.05
    C 741.31 1207.09 737.27 1202.86 733.00 1199.08
    A 0.24 0.24 0.0 0 1 733.12 1198.66
    Q 737.20 1198.07 741.39 1197.05
    Q 762.88 1191.79 782.72 1183.30
    Q 793.77 1178.58 800.55 1173.64
    C 812.36 1165.05 821.68 1154.07 830.81 1142.01
    Q 837.55 1133.12 839.88 1123.03
    Q 840.00 1122.50 840.52 1122.66
    L 847.73 1124.85
    A 0.50 0.49 -69.9 0 1 848.04 1125.52
    Q 843.10 1137.00 840.70 1148.89
    Z"
  />
  <path fill="#ffa332" d="
    M 972.23 1232.90
    C 979.22 1223.50 983.50 1213.12 987.56 1202.08
    Q 994.64 1182.77 993.43 1163.96
    C 992.89 1155.71 990.74 1148.13 988.26 1140.29
    Q 988.06 1139.67 988.70 1139.57
    L 1018.76 1134.61
    Q 1019.28 1134.52 1019.06 1135.01
    Q 1007.88 1160.21 1001.53 1178.86
    Q 994.03 1200.88 988.85 1227.68
    Q 983.52 1255.24 984.23 1285.49
    Q 984.62 1301.90 988.72 1316.12
    Q 989.37 1318.38 988.12 1320.44
    Q 978.72 1335.96 962.45 1342.53
    C 959.13 1343.87 955.85 1345.40 952.26 1345.73
    A 1.75 1.74 -21.1 0 1 950.68 1345.03
    Q 934.85 1323.97 907.86 1319.82
    C 895.38 1317.90 884.44 1321.26 873.37 1326.63
    Q 872.67 1326.96 872.70 1326.19
    Q 873.37 1309.41 866.27 1293.01
    A 0.36 0.36 0.0 0 1 866.55 1292.51
    Q 892.75 1289.12 916.62 1277.84
    C 925.98 1273.42 936.13 1269.07 943.93 1262.55
    Q 951.10 1256.56 958.44 1249.89
    C 963.95 1244.88 967.86 1238.78 972.23 1232.90
    Z"
  />
</svg>
