<?xml version="1.0" encoding="UTF-8" standalone="no"?>
<!DOCTYPE svg PUBLIC "-//W3C//DTD SVG 1.1//EN" "http://www.w3.org/Graphics/SVG/1.1/DTD/svg11.dtd">
<svg xmlns="http://www.w3.org/2000/svg" version="1.1" viewBox="0.00 0.00 1448.00 1448.00">
<g stroke-width="2.00" fill="none" stroke-linecap="butt">
<path stroke="#652d67" vector-effect="non-scaling-stroke" d="
  M 635.78 600.05
  Q 633.27 600.19 632.31 602.20
  Q 631.70 603.46 632.10 605.82
  Q 633.10 611.75 634.39 617.48
  C 636.79 628.12 638.95 638.79 641.29 649.46
  Q 641.81 651.81 643.41 653.18
  Q 645.02 654.56 647.27 655.50"
/>
<path stroke="#7e4c80" vector-effect="non-scaling-stroke" d="
  M 647.27 655.50
  L 652.25 658.26
  Q 653.20 658.78 652.65 657.86
  C 649.38 652.37 652.52 647.47 656.62 642.97
  Q 666.79 631.81 672.28 626.28
  Q 674.01 624.54 677.76 622.61"
/>
<path stroke="#7f5d80" vector-effect="non-scaling-stroke" d="
  M 677.76 622.61
  Q 678.71 622.36 679.08 621.95
  Q 679.39 621.61 679.21 621.19
  C 676.71 615.27 679.22 610.62 683.07 606.18
  A 0.38 0.38 0.0 0 0 682.91 605.57
  Q 668.40 600.65 653.22 594.79
  C 651.31 594.05 648.44 593.79 646.73 594.74
  Q 641.95 597.41 635.78 600.05"
/>
<path stroke="#fda9ff" vector-effect="non-scaling-stroke" d="
  M 677.76 622.61
  Q 675.85 621.40 673.70 620.99
  Q 673.21 620.89 672.83 620.57
  C 671.49 619.43 670.59 617.68 669.18 616.65
  C 665.01 613.62 658.95 611.23 653.69 612.05
  Q 651.39 612.42 649.10 612.91"
/>
<path stroke="#e38ae6" vector-effect="non-scaling-stroke" d="
  M 649.10 612.91
  Q 646.88 608.92 644.44 607.30
  Q 638.51 603.36 635.78 600.05"
/>
<path stroke="#e379e6" vector-effect="non-scaling-stroke" d="
  M 649.10 612.91
  Q 650.11 617.65 649.73 621.25
  Q 647.95 638.27 647.27 655.50"
/>
<path stroke="#652d67" vector-effect="non-scaling-stroke" d="
  M 699.71 614.52
  Q 696.97 616.27 697.92 619.19
  A 1.91 1.90 80.9 0 0 699.73 620.51
  L 717.78 620.45"
/>
<path stroke="#7e4c80" vector-effect="non-scaling-stroke" d="
  M 717.78 620.45
  Q 720.50 620.46 728.50 620.22
  C 732.45 620.09 736.70 621.16 739.52 624.10
  Q 745.28 630.11 750.68 635.55
  Q 751.70 636.58 752.46 635.35
  Q 756.39 629.04 759.46 622.20
  C 760.49 619.90 760.60 617.22 760.78 614.73
  Q 760.92 612.85 761.98 610.62
  Q 762.93 608.62 763.81 606.74"
/>
<path stroke="#7f5d80" vector-effect="non-scaling-stroke" d="
  M 763.81 606.74
  Q 760.69 604.62 758.39 602.35
  C 757.05 601.04 755.09 599.65 753.50 599.71
  Q 744.95 600.04 715.19 602.37
  C 713.11 602.53 709.95 602.44 708.63 604.12
  Q 704.66 609.17 699.71 614.52"
/>
<path stroke="#fda9ff" vector-effect="non-scaling-stroke" d="
  M 763.81 606.74
  Q 762.87 609.22 760.70 608.95
  Q 760.15 608.88 759.63 609.10
  Q 753.98 611.52 748.35 614.66
  C 746.35 615.77 744.85 617.43 743.28 619.04
  Q 742.85 619.47 742.43 619.03
  C 738.43 614.87 731.45 614.89 726.18 615.76
  Q 724.84 615.98 722.54 617.31
  Q 718.99 619.37 714.33 618.68"
/>
<path stroke="#e38ae6" vector-effect="non-scaling-stroke" d="
  M 714.33 618.68
  Q 711.03 617.04 709.76 616.87
  Q 702.97 615.95 699.71 614.52"
/>
<path stroke="#e379e6" vector-effect="non-scaling-stroke" d="
  M 717.78 620.45
  Q 715.54 619.98 714.33 618.68"
/>
<path stroke="#7e4c80" vector-effect="non-scaling-stroke" d="
  M 858.63 627.94
  Q 860.08 631.60 861.59 635.18
  Q 863.51 639.73 863.45 641.96
  C 863.24 649.38 854.26 655.34 848.87 659.29
  Q 848.29 659.72 848.95 660.01
  L 861.98 665.76
  A 1.14 1.14 0.0 0 0 863.38 665.35
  Q 874.81 648.08 886.80 630.30
  Q 889.86 625.75 888.47 623.09"
/>
<path stroke="#7f5d80" vector-effect="non-scaling-stroke" d="
  M 888.47 623.09
  Q 884.91 619.30 881.73 616.01
  Q 880.26 614.47 878.12 614.34
  Q 866.18 613.59 854.66 612.63
  Q 852.69 612.47 850.54 611.99
  Q 849.64 611.79 850.38 612.34
  C 851.86 613.42 852.78 614.12 853.55 615.98
  Q 856.08 622.05 858.63 627.94"
/>
<path stroke="#fda9ff" vector-effect="non-scaling-stroke" d="
  M 888.47 623.09
  Q 886.22 623.23 884.41 624.00
  Q 881.13 625.38 881.11 625.39
  C 876.18 627.00 870.35 628.26 866.73 631.99
  A 1.44 1.43 -40.2 0 1 864.52 631.81
  Q 862.08 628.25 858.63 627.94"
/>
<path stroke="#652d67" vector-effect="non-scaling-stroke" d="
  M 783.05 617.78
  Q 777.60 618.59 778.81 624.73
  Q 779.18 626.61 779.59 627.48
  Q 779.81 627.94 780.32 627.96
  C 784.79 628.08 789.42 627.53 793.55 629.68"
/>
<path stroke="#7e4c80" vector-effect="non-scaling-stroke" d="
  M 793.55 629.68
  Q 797.85 633.60 799.26 638.51
  Q 801.89 647.68 803.99 655.86
  Q 804.20 656.71 805.00 656.35
  C 813.33 652.61 821.48 648.47 830.57 651.60
  A 2.12 2.11 -55.4 0 0 832.62 651.22
  Q 836.98 647.53 841.54 643.98
  C 845.15 641.17 842.54 638.26 841.30 635.31"
/>
<path stroke="#7f5d80" vector-effect="non-scaling-stroke" d="
  M 841.30 635.31
  C 840.09 632.22 839.18 628.95 835.74 627.63
  Q 816.69 620.33 798.92 612.92
  C 797.91 612.50 796.98 612.53 795.91 612.56
  Q 794.80 612.60 793.70 613.14
  Q 788.61 615.65 783.05 617.78"
/>
<path stroke="#fda9ff" vector-effect="non-scaling-stroke" d="
  M 841.30 635.31
  Q 841.20 636.68 841.44 637.08
  A 1.42 1.42 0.0 0 1 840.24 639.23
  Q 833.09 639.35 826.74 639.52
  Q 823.12 639.62 819.97 641.07
  Q 819.48 641.30 819.17 640.86
  C 817.94 639.11 816.99 637.13 815.30 635.79
  Q 807.83 629.84 798.63 630.77
  A 2.56 2.53 -21.7 0 1 796.37 629.81
  Q 795.08 628.14 792.71 626.98"
/>
<path stroke="#e38ae6" vector-effect="non-scaling-stroke" d="
  M 792.71 626.98
  Q 790.97 625.50 785.75 621.75
  Q 783.73 620.30 783.05 617.78"
/>
<path stroke="#e379e6" vector-effect="non-scaling-stroke" d="
  M 792.71 626.98
  L 793.55 629.68"
/>
<path stroke="#55422a" vector-effect="non-scaling-stroke" d="
  M 619.14 748.51
  C 612.91 770.55 602.13 791.80 592.19 813.40
  Q 586.47 825.84 582.57 839.22
  Q 579.46 849.89 579.54 858.05
  C 579.70 874.20 587.75 887.79 600.65 897.30
  Q 627.75 917.29 659.63 928.24
  Q 714.01 946.92 774.78 943.96
  Q 820.08 941.75 856.93 928.05
  C 858.09 927.62 859.02 926.86 859.41 925.64
  Q 861.08 920.45 865.96 916.71
  Q 882.73 903.87 898.97 890.96
  C 903.21 887.58 906.87 886.05 912.36 887.18
  Q 916.21 887.97 919.95 888.31
  Q 921.30 888.43 922.27 887.40
  C 941.26 867.21 948.90 841.12 938.54 814.57
  C 932.98 800.34 922.69 787.88 910.47 777.12
  C 905.45 772.70 900.77 766.87 898.65 760.55
  C 891.68 739.71 899.09 716.21 905.52 695.91
  Q 908.92 685.19 914.03 674.64
  C 917.74 666.97 918.29 659.30 912.26 652.82
  Q 911.73 652.24 911.81 653.02
  C 911.96 654.39 912.29 655.64 912.24 657.05
  Q 911.94 666.35 911.80 675.16
  Q 911.75 678.77 909.88 682.66
  C 907.67 687.26 902.76 689.13 898.08 690.31
  Q 891.75 691.89 885.37 693.15
  A 0.40 0.39 79.7 0 0 885.06 693.61
  Q 886.67 702.97 878.24 707.05
  Q 872.55 709.80 865.61 711.07
  Q 826.19 718.33 784.40 714.44
  C 744.86 710.75 707.13 703.40 670.35 689.26
  Q 663.37 686.57 656.11 683.74
  C 641.09 677.87 627.51 669.37 615.30 658.40
  Q 611.91 655.36 609.48 652.11
  C 603.14 643.64 610.73 632.86 620.83 635.41
  Q 621.45 635.57 621.30 634.94
  L 617.78 619.68
  A 0.90 0.90 0.0 0 0 616.53 619.06
  C 611.34 621.42 608.41 625.70 605.98 630.93
  Q 601.27 641.08 606.91 651.13
  Q 614.03 663.84 623.74 677.22
  C 638.51 697.59 649.58 720.13 657.03 744.01
  C 658.79 749.69 660.55 755.51 655.56 760.32
  C 651.82 763.91 646.07 764.09 641.97 760.98
  C 639.33 758.97 637.72 755.83 636.76 752.73
  Q 632.15 737.83 626.12 724.42
  Q 625.44 722.90 624.85 724.46
  Q 623.43 728.26 622.84 731.68
  Q 621.22 741.16 619.14 748.51"
/>
<path stroke="#652d67" vector-effect="non-scaling-stroke" d="
  M 673.03 651.84
  Q 669.19 654.02 671.65 658.06
  Q 675.38 664.16 676.93 666.86
  Q 678.51 669.58 681.48 670.62
  Q 689.25 673.35 696.86 675.79"
/>
<path stroke="#7e4c80" vector-effect="non-scaling-stroke" d="
  M 696.86 675.79
  Q 707.98 679.61 719.14 681.97
  Q 719.96 682.15 719.84 681.32
  Q 719.11 676.08 720.99 670.42
  Q 722.00 667.39 726.94 662.19
  Q 732.18 656.68 737.42 651.18
  Q 739.13 649.38 736.84 648.22"
/>
<path stroke="#7f5d80" vector-effect="non-scaling-stroke" d="
  M 736.84 648.22
  Q 734.21 645.46 731.39 642.83
  C 728.86 640.47 726.78 640.71 723.59 640.72
  Q 704.49 640.79 685.61 640.90
  C 684.11 640.91 682.96 641.64 681.99 642.73
  Q 677.98 647.24 673.03 651.84"
/>
<path stroke="#fda9ff" vector-effect="non-scaling-stroke" d="
  M 736.84 648.22
  L 736.48 648.56
  Q 736.21 648.81 735.88 648.96
  Q 730.02 651.69 723.87 654.18
  Q 719.84 655.82 716.97 658.64
  A 1.18 1.17 40.4 0 1 715.46 658.75
  C 713.52 657.34 711.51 655.87 709.09 655.41
  Q 703.40 654.34 698.09 655.34
  Q 696.35 655.66 693.93 656.92
  Q 691.88 657.99 689.84 658.77"
/>
<path stroke="#e38ae6" vector-effect="non-scaling-stroke" d="
  M 689.84 658.77
  Q 685.61 655.50 680.32 654.50
  Q 677.94 654.05 676.57 653.46
  Q 674.77 652.69 673.03 651.84"
/>
<path stroke="#e379e6" vector-effect="non-scaling-stroke" d="
  M 696.86 675.79
  Q 694.39 670.50 693.03 664.74
  Q 692.50 662.54 689.84 658.77"
/>
<path stroke="#652d67" vector-effect="non-scaling-stroke" d="
  M 738.37 679.53
  Q 737.75 682.05 738.14 684.71"
/>
<path stroke="#7f5d80" vector-effect="non-scaling-stroke" d="
  M 738.14 684.71
  Q 737.40 685.54 738.34 685.89
  Q 742.32 687.35 747.76 687.85"
/>
<path stroke="#7e4c80" vector-effect="non-scaling-stroke" d="
  M 747.76 687.85
  Q 766.34 691.07 786.53 693.00
  Q 788.17 693.15 787.90 691.53
  Q 786.66 684.03 785.76 676.31
  Q 785.04 670.18 788.02 665.01
  C 788.73 663.78 788.94 662.37 788.46 661.02
  Q 786.86 656.51 785.81 651.95
  C 785.43 650.33 784.60 647.69 782.92 646.99
  Q 781.76 646.51 780.90 646.83"
/>
<path stroke="#7f5d80" vector-effect="non-scaling-stroke" d="
  M 780.90 646.83
  C 777.78 646.81 770.52 646.10 768.47 648.23
  Q 754.17 663.05 739.53 677.52
  Q 739.12 677.93 738.37 679.53"
/>
<path stroke="#fda9ff" vector-effect="non-scaling-stroke" d="
  M 780.90 646.83
  Q 778.06 655.25 774.71 663.24
  Q 774.22 664.41 774.18 668.41
  Q 774.18 668.95 773.67 669.11
  C 771.75 669.72 769.50 669.76 767.72 670.69
  Q 758.75 675.42 756.17 684.60
  Q 755.89 685.63 754.99 686.19
  C 754.12 686.73 752.50 686.61 752.09 686.91
  Q 751.98 686.98 751.99 687.13
  Q 752.00 687.35 751.79 687.38
  L 747.76 687.85"
/>
<path stroke="#e38ae6" vector-effect="non-scaling-stroke" d="
  M 738.14 684.71
  Q 739.08 682.44 738.37 679.53"
/>
<path stroke="#652d67" vector-effect="non-scaling-stroke" d="
  M 883.76 664.52
  Q 881.27 668.18 878.79 671.58
  Q 876.92 674.15 878.57 676.53
  A 2.00 1.99 64.7 0 0 880.74 677.31
  L 891.38 674.29
  A 3.95 3.94 80.9 0 0 894.24 670.33
  L 893.51 653.46"
/>
<path stroke="#7f5d80" vector-effect="non-scaling-stroke" d="
  M 893.51 653.46
  L 892.99 652.63
  Q 892.45 651.78 891.88 652.61
  L 883.76 664.52"
/>
<path stroke="#e38ae6" vector-effect="non-scaling-stroke" d="
  M 893.51 653.46
  Q 891.82 660.62 892.90 667.38
  A 1.11 1.10 -80.5 0 1 891.29 668.53
  L 883.76 664.52"
/>
<path stroke="#7f5d80" vector-effect="non-scaling-stroke" d="
  M 819.95 694.18
  Q 822.71 694.43 825.34 694.16
  Q 827.96 693.89 830.23 693.74
  Q 846.55 692.61 862.65 689.51
  A 0.68 0.66 -0.8 0 0 863.18 688.98
  Q 863.29 688.36 862.56 688.04
  Q 860.14 687.00 857.74 685.94"
/>
<path stroke="#652d67" vector-effect="non-scaling-stroke" d="
  M 857.74 685.94
  Q 842.13 678.60 826.48 671.41
  C 823.77 670.16 821.93 669.06 819.38 670.12
  Q 813.38 672.60 805.80 675.10
  A 3.74 3.73 78.0 0 0 803.26 679.02
  L 804.73 693.32
  Q 804.82 694.21 805.72 694.21
  L 819.95 694.18"
/>
<path stroke="#e38ae6" vector-effect="non-scaling-stroke" d="
  M 857.74 685.94
  Q 855.36 685.73 853.26 684.58
  Q 850.43 683.03 847.55 681.97
  Q 845.80 681.33 844.50 680.52
  Q 843.15 679.68 841.52 679.15
  Q 838.11 678.07 834.91 676.49
  Q 832.24 675.19 829.68 674.04
  Q 827.05 672.87 824.44 671.66
  Q 823.69 671.31 822.93 670.88
  Q 821.71 670.20 820.48 670.81
  Q 814.40 673.81 808.53 675.15
  A 0.57 0.57 0.0 0 0 808.24 676.08
  Q 811.08 679.24 814.80 682.20
  Q 820.86 687.01 819.95 694.18"
/>
<path stroke="#7e4c80" vector-effect="non-scaling-stroke" d="
  M 970.75 897.62
  C 967.41 898.00 966.90 904.39 966.96 906.73
  A 2.40 2.37 -72.3 0 0 967.90 908.57
  C 970.79 910.76 972.85 913.16 974.85 916.53
  Q 982.25 928.98 990.22 941.47"
/>
<path stroke="#652d67" vector-effect="non-scaling-stroke" d="
  M 990.22 941.47
  L 996.87 952.30
  A 0.65 0.64 61.8 0 0 997.68 952.55
  C 1001.98 950.56 1006.60 949.40 1010.93 947.51
  C 1013.29 946.48 1018.84 944.87 1020.22 942.94
  Q 1021.46 941.18 1020.31 938.64"
/>
<path stroke="#7f5d80" vector-effect="non-scaling-stroke" d="
  M 1020.31 938.64
  Q 1019.33 932.53 1018.83 927.03
  C 1018.67 925.23 1018.07 923.23 1016.71 922.20
  Q 1003.47 912.22 989.28 901.44
  C 987.17 899.83 984.40 896.78 981.70 896.45
  Q 980.38 896.29 979.24 896.50
  Q 975.06 897.26 970.75 897.62"
/>
<path stroke="#e38ae6" vector-effect="non-scaling-stroke" d="
  M 1020.31 938.64
  Q 1017.18 938.80 1014.72 937.56
  Q 1008.34 934.36 1002.74 934.49"
/>
<path stroke="#fda9ff" vector-effect="non-scaling-stroke" d="
  M 1002.74 934.49
  C 1001.05 931.35 999.67 927.74 997.11 925.44
  C 992.74 921.52 989.34 919.14 983.17 919.05
  A 1.95 1.94 -6.8 0 1 981.31 917.59
  Q 979.79 911.70 975.47 905.37
  Q 973.64 902.71 972.41 899.38
  Q 972.17 898.76 972.22 898.18
  Q 972.25 897.68 971.75 897.66
  L 970.75 897.62"
/>
<path stroke="#e379e6" vector-effect="non-scaling-stroke" d="
  M 1002.74 934.49
  Q 998.91 935.53 996.72 937.19
  Q 992.74 940.21 990.22 941.47"
/>
<path stroke="#652d67" vector-effect="non-scaling-stroke" d="
  M 874.70 947.31
  Q 872.08 952.95 877.40 955.09
  Q 889.00 959.78 900.92 964.07
  Q 901.41 964.24 901.65 963.79
  L 906.73 954.12"
/>
<path stroke="#7e4c80" vector-effect="non-scaling-stroke" d="
  M 906.73 954.12
  Q 916.70 935.00 926.18 916.21
  C 928.00 912.59 927.42 907.21 922.13 907.67"
/>
<path stroke="#7f5d80" vector-effect="non-scaling-stroke" d="
  M 922.13 907.67
  C 917.63 906.86 913.08 905.87 910.25 908.00
  Q 894.27 920.07 878.14 932.36
  A 5.07 5.05 75.1 0 0 876.19 935.74
  L 874.70 947.31"
/>
<path stroke="#fda9ff" vector-effect="non-scaling-stroke" d="
  M 922.13 907.67
  Q 922.54 910.95 920.67 913.39
  Q 915.47 920.19 913.18 927.84
  A 1.50 1.50 0.0 0 1 912.02 928.89
  C 909.65 929.34 907.11 929.14 904.95 930.23
  Q 899.90 932.79 896.05 936.95
  C 894.59 938.53 893.92 940.63 893.39 942.68
  A 1.35 1.33 -88.8 0 1 892.40 943.64
  L 888.44 944.58"
/>
<path stroke="#e38ae6" vector-effect="non-scaling-stroke" d="
  M 888.44 944.58
  Q 882.60 946.44 876.65 948.59
  Q 875.84 948.88 875.35 948.73
  Q 874.46 948.45 874.70 947.31"
/>
<path stroke="#e379e6" vector-effect="non-scaling-stroke" d="
  M 906.73 954.12
  Q 904.28 952.05 898.49 947.76
  Q 893.95 944.40 888.44 944.58"
/>
<path stroke="#652d67" vector-effect="non-scaling-stroke" d="
  M 911.97 983.00
  Q 913.11 983.56 915.00 983.55
  Q 939.62 983.41 964.25 983.09
  Q 968.55 983.04 972.88 982.82
  Q 977.22 982.60 977.06 978.27"
/>
<path stroke="#7f5d80" vector-effect="non-scaling-stroke" d="
  M 977.06 978.27
  Q 978.02 972.66 979.67 967.34
  C 980.33 965.23 980.52 963.07 979.41 961.36
  Q 968.68 944.81 958.05 927.95
  C 957.29 926.75 956.04 925.27 954.88 924.86
  Q 951.61 923.73 945.67 922.80"
/>
<path stroke="#7e4c80" vector-effect="non-scaling-stroke" d="
  M 945.67 922.80
  C 942.66 921.71 941.11 923.70 939.90 926.05
  Q 926.54 951.99 913.64 976.46
  Q 912.17 979.24 911.25 981.71
  A 0.85 0.78 55.0 0 0 911.20 982.09
  Q 911.29 983.07 911.97 983.00"
/>
<path stroke="#fda9ff" vector-effect="non-scaling-stroke" d="
  M 945.67 922.80
  Q 945.82 923.95 945.69 925.61
  Q 945.57 927.23 945.92 928.63
  Q 947.30 934.20 947.88 940.04
  C 948.06 941.91 947.69 943.78 947.31 945.60
  A 0.82 0.81 -74.9 0 0 947.84 946.53
  Q 949.01 946.95 950.23 947.33
  C 954.93 948.79 957.92 953.72 960.02 957.89
  Q 961.85 961.50 961.41 964.13
  Q 960.94 966.98 961.10 967.80"
/>
<path stroke="#e379e6" vector-effect="non-scaling-stroke" d="
  M 961.10 967.80
  Q 956.63 968.22 954.46 968.89
  Q 934.74 975.01 917.28 980.30
  Q 915.48 980.85 913.73 981.82
  Q 913.32 982.06 913.09 982.47
  Q 912.80 983.01 911.97 983.00"
/>
<path stroke="#e38ae6" vector-effect="non-scaling-stroke" d="
  M 977.06 978.27
  Q 974.18 977.04 972.49 975.24
  Q 967.19 969.62 961.10 967.80"
/>
<path stroke="#652d67" vector-effect="non-scaling-stroke" d="
  M 1060.97 1002.01
  Q 1059.56 1006.76 1063.22 1007.99
  Q 1068.32 1009.70 1075.52 1011.35
  C 1085.16 1013.56 1093.39 1015.78 1102.37 1017.78
  Q 1103.12 1017.94 1113.06 1020.44
  Q 1118.43 1021.78 1123.92 1022.50"
/>
<path stroke="#7e4c80" vector-effect="non-scaling-stroke" d="
  M 1123.92 1022.50
  Q 1124.26 1020.29 1123.23 1016.26
  Q 1116.05 988.17 1108.81 960.12
  Q 1107.39 954.63 1103.24 956.03"
/>
<path stroke="#7f5d80" vector-effect="non-scaling-stroke" d="
  M 1103.24 956.03
  C 1099.86 955.85 1094.28 955.09 1092.00 957.27
  Q 1086.38 962.62 1064.51 984.09
  Q 1064.48 984.13 1063.01 985.44
  Q 1061.25 987.02 1061.24 988.50
  Q 1061.18 995.30 1060.97 1002.01"
/>
<path stroke="#fda9ff" vector-effect="non-scaling-stroke" d="
  M 1103.24 956.03
  Q 1103.17 960.63 1101.01 965.30
  Q 1098.44 970.85 1098.41 970.93
  Q 1097.40 973.96 1097.24 976.92
  A 1.86 1.86 0.0 0 1 1095.42 978.67
  Q 1090.24 978.75 1086.45 982.24
  C 1083.35 985.09 1080.08 988.20 1079.32 992.54
  Q 1079.06 993.99 1078.54 995.37
  Q 1078.41 995.74 1078.02 995.79
  Q 1077.86 995.82 1077.71 995.86
  Q 1076.83 996.12 1077.73 996.28
  L 1078.31 996.38"
/>
<path stroke="#e38ae6" vector-effect="non-scaling-stroke" d="
  M 1078.31 996.38
  Q 1074.60 996.32 1072.27 997.54
  Q 1067.27 1000.17 1062.26 1002.71
  A 1.27 1.27 0.0 0 1 1060.98 1002.64
  Q 1060.73 1002.48 1060.97 1002.01"
/>
<path stroke="#e379e6" vector-effect="non-scaling-stroke" d="
  M 1123.92 1022.50
  Q 1122.24 1021.66 1122.35 1021.23
  C 1121.51 1020.54 1120.71 1019.61 1119.80 1019.07
  Q 1103.82 1009.71 1087.05 999.95
  Q 1082.21 997.13 1078.31 996.38"
/>
<path stroke="#652d67" vector-effect="non-scaling-stroke" d="
  M 820.33 1079.15
  Q 821.47 1079.73 822.51 1079.47
  Q 842.39 1074.63 862.31 1069.97
  Q 872.72 1067.53 879.51 1065.30
  Q 883.55 1063.97 882.24 1060.10"
/>
<path stroke="#7f5d80" vector-effect="non-scaling-stroke" d="
  M 882.24 1060.10
  L 882.16 1046.83
  A 5.59 5.55 -68.3 0 0 880.46 1042.84
  Q 866.26 1029.08 851.13 1014.26
  C 849.22 1012.39 845.07 1012.89 841.19 1013.20"
/>
<path stroke="#7e4c80" vector-effect="non-scaling-stroke" d="
  M 841.19 1013.20
  Q 836.60 1012.01 834.87 1015.47
  Q 834.64 1015.93 833.33 1021.09
  Q 826.46 1048.05 819.57 1075.00
  Q 819.38 1075.72 819.01 1078.38
  Q 818.94 1078.89 819.29 1079.26
  Q 819.79 1079.79 820.33 1079.15"
/>
<path stroke="#fda9ff" vector-effect="non-scaling-stroke" d="
  M 841.19 1013.20
  Q 839.67 1012.71 839.49 1014.24
  C 839.36 1015.39 840.02 1017.60 840.61 1018.80
  Q 843.62 1024.91 845.39 1030.31
  Q 846.07 1032.36 845.90 1034.71
  A 0.83 0.83 0.0 0 0 846.68 1035.59
  Q 848.57 1035.71 850.39 1036.12
  C 855.39 1037.24 859.85 1042.23 862.71 1046.28
  Q 863.91 1047.99 864.28 1053.54"
/>
<path stroke="#e379e6" vector-effect="non-scaling-stroke" d="
  M 864.28 1053.54
  Q 860.33 1054.62 858.47 1055.73
  Q 841.44 1065.92 831.15 1071.64
  Q 824.74 1075.19 820.33 1079.15"
/>
<path stroke="#e38ae6" vector-effect="non-scaling-stroke" d="
  M 882.24 1060.10
  Q 877.57 1058.61 873.29 1055.97
  Q 869.22 1053.46 864.28 1053.54"
/>
</g>
<path fill="#000000" d="
  M 856.06 952.86
  Q 855.83 951.74 854.74 952.08
  C 799.70 969.26 739.92 970.61 683.97 958.05
  Q 658.75 952.38 635.26 942.33
  Q 614.34 933.37 592.40 918.23
  Q 584.47 912.76 579.69 908.20
  Q 555.04 884.66 558.07 850.41
  Q 558.76 842.61 562.07 831.30
  C 569.92 804.43 584.99 780.10 594.63 753.11
  C 602.22 731.87 603.95 709.39 602.63 686.77
  A 4.41 4.35 26.8 0 0 601.90 684.60
  Q 596.25 676.23 590.77 667.50
  C 582.72 654.65 578.94 641.55 583.92 627.04
  Q 587.22 617.43 592.79 610.14
  Q 600.30 600.32 613.38 597.14
  Q 613.83 597.04 613.92 596.59
  Q 615.21 590.21 620.19 587.64
  Q 631.59 581.75 642.47 576.43
  C 647.18 574.12 652.58 573.60 657.61 575.38
  Q 677.27 582.31 695.56 588.66
  A 2.72 2.71 -56.7 0 0 698.30 588.09
  C 702.24 584.44 706.01 583.07 711.52 582.64
  Q 733.93 580.90 754.49 579.10
  C 757.74 578.82 761.56 579.88 764.09 582.17
  Q 772.25 589.56 780.96 597.30
  A 2.32 2.32 0.0 0 0 783.56 597.62
  C 790.01 594.29 797.01 591.09 804.40 593.88
  Q 812.50 596.93 819.19 599.50
  Q 820.56 600.03 821.69 598.94
  C 826.09 594.69 831.12 591.61 837.21 591.73
  Q 840.41 591.79 843.41 591.97
  Q 863.25 593.14 882.88 594.12
  C 885.92 594.28 889.77 595.83 891.74 598.20
  Q 898.63 606.50 906.13 615.08
  C 908.57 617.86 909.65 621.76 908.46 625.30
  A 0.85 0.84 -71.2 0 0 908.99 626.38
  C 921.65 630.73 931.39 637.63 936.25 650.39
  C 940.67 661.98 938.92 673.07 933.84 684.15
  C 932.05 688.05 930.18 691.84 928.78 695.96
  Q 925.15 706.66 922.25 716.68
  C 919.56 725.96 917.30 736.50 918.02 746.25
  C 918.28 749.78 919.75 756.08 922.68 758.57
  C 937.58 771.20 950.05 785.75 957.79 803.32
  C 972.25 836.15 965.05 870.23 942.73 897.33
  C 940.98 899.46 942.37 903.09 945.08 903.58
  Q 947.51 904.03 949.71 904.49
  A 0.80 0.80 0.0 0 0 950.67 903.78
  C 951.39 895.65 951.73 881.43 962.51 879.97
  Q 973.40 878.49 984.38 876.73
  C 987.91 876.16 991.65 877.61 994.44 879.81
  Q 1011.46 893.23 1028.22 906.08
  C 1032.48 909.35 1035.35 913.36 1036.17 918.52
  Q 1037.13 924.58 1038.95 942.48
  Q 1039.33 946.24 1038.84 948.79
  C 1037.84 953.97 1032.62 957.31 1028.11 959.03
  Q 1014.98 964.03 999.68 969.42
  A 3.86 3.84 -3.4 0 0 997.21 972.19
  Q 995.04 981.63 992.48 990.68
  C 990.37 998.10 983.25 1000.07 976.43 1000.04
  Q 942.56 999.91 909.48 999.70
  Q 901.91 999.66 895.83 998.14
  Q 889.83 996.65 889.59 990.97
  C 889.41 986.84 891.57 983.13 893.51 979.67
  A 0.59 0.58 24.0 0 0 893.18 978.83
  Q 880.05 974.34 866.76 969.23
  C 860.31 966.75 855.17 962.83 855.56 954.90
  Q 855.59 954.24 855.87 953.64
  Q 856.11 953.11 856.06 952.86
  Z
  M 635.78 600.05
  Q 633.27 600.19 632.31 602.20
  Q 631.70 603.46 632.10 605.82
  Q 633.10 611.75 634.39 617.48
  C 636.79 628.12 638.95 638.79 641.29 649.46
  Q 641.81 651.81 643.41 653.18
  Q 645.02 654.56 647.27 655.50
  L 652.25 658.26
  Q 653.20 658.78 652.65 657.86
  C 649.38 652.37 652.52 647.47 656.62 642.97
  Q 666.79 631.81 672.28 626.28
  Q 674.01 624.54 677.76 622.61
  Q 678.71 622.36 679.08 621.95
  Q 679.39 621.61 679.21 621.19
  C 676.71 615.27 679.22 610.62 683.07 606.18
  A 0.38 0.38 0.0 0 0 682.91 605.57
  Q 668.40 600.65 653.22 594.79
  C 651.31 594.05 648.44 593.79 646.73 594.74
  Q 641.95 597.41 635.78 600.05
  Z
  M 699.71 614.52
  Q 696.97 616.27 697.92 619.19
  A 1.91 1.90 80.9 0 0 699.73 620.51
  L 717.78 620.45
  Q 720.50 620.46 728.50 620.22
  C 732.45 620.09 736.70 621.16 739.52 624.10
  Q 745.28 630.11 750.68 635.55
  Q 751.70 636.58 752.46 635.35
  Q 756.39 629.04 759.46 622.20
  C 760.49 619.90 760.60 617.22 760.78 614.73
  Q 760.92 612.85 761.98 610.62
  Q 762.93 608.62 763.81 606.74
  Q 760.69 604.62 758.39 602.35
  C 757.05 601.04 755.09 599.65 753.50 599.71
  Q 744.95 600.04 715.19 602.37
  C 713.11 602.53 709.95 602.44 708.63 604.12
  Q 704.66 609.17 699.71 614.52
  Z
  M 858.63 627.94
  Q 860.08 631.60 861.59 635.18
  Q 863.51 639.73 863.45 641.96
  C 863.24 649.38 854.26 655.34 848.87 659.29
  Q 848.29 659.72 848.95 660.01
  L 861.98 665.76
  A 1.14 1.14 0.0 0 0 863.38 665.35
  Q 874.81 648.08 886.80 630.30
  Q 889.86 625.75 888.47 623.09
  Q 884.91 619.30 881.73 616.01
  Q 880.26 614.47 878.12 614.34
  Q 866.18 613.59 854.66 612.63
  Q 852.69 612.47 850.54 611.99
  Q 849.64 611.79 850.38 612.34
  C 851.86 613.42 852.78 614.12 853.55 615.98
  Q 856.08 622.05 858.63 627.94
  Z
  M 783.05 617.78
  Q 777.60 618.59 778.81 624.73
  Q 779.18 626.61 779.59 627.48
  Q 779.81 627.94 780.32 627.96
  C 784.79 628.08 789.42 627.53 793.55 629.68
  Q 797.85 633.60 799.26 638.51
  Q 801.89 647.68 803.99 655.86
  Q 804.20 656.71 805.00 656.35
  C 813.33 652.61 821.48 648.47 830.57 651.60
  A 2.12 2.11 -55.4 0 0 832.62 651.22
  Q 836.98 647.53 841.54 643.98
  C 845.15 641.17 842.54 638.26 841.30 635.31
  C 840.09 632.22 839.18 628.95 835.74 627.63
  Q 816.69 620.33 798.92 612.92
  C 797.91 612.50 796.98 612.53 795.91 612.56
  Q 794.80 612.60 793.70 613.14
  Q 788.61 615.65 783.05 617.78
  Z
  M 619.14 748.51
  C 612.91 770.55 602.13 791.80 592.19 813.40
  Q 586.47 825.84 582.57 839.22
  Q 579.46 849.89 579.54 858.05
  C 579.70 874.20 587.75 887.79 600.65 897.30
  Q 627.75 917.29 659.63 928.24
  Q 714.01 946.92 774.78 943.96
  Q 820.08 941.75 856.93 928.05
  C 858.09 927.62 859.02 926.86 859.41 925.64
  Q 861.08 920.45 865.96 916.71
  Q 882.73 903.87 898.97 890.96
  C 903.21 887.58 906.87 886.05 912.36 887.18
  Q 916.21 887.97 919.95 888.31
  Q 921.30 888.43 922.27 887.40
  C 941.26 867.21 948.90 841.12 938.54 814.57
  C 932.98 800.34 922.69 787.88 910.47 777.12
  C 905.45 772.70 900.77 766.87 898.65 760.55
  C 891.68 739.71 899.09 716.21 905.52 695.91
  Q 908.92 685.19 914.03 674.64
  C 917.74 666.97 918.29 659.30 912.26 652.82
  Q 911.73 652.24 911.81 653.02
  C 911.96 654.39 912.29 655.64 912.24 657.05
  Q 911.94 666.35 911.80 675.16
  Q 911.75 678.77 909.88 682.66
  C 907.67 687.26 902.76 689.13 898.08 690.31
  Q 891.75 691.89 885.37 693.15
  A 0.40 0.39 79.7 0 0 885.06 693.61
  Q 886.67 702.97 878.24 707.05
  Q 872.55 709.80 865.61 711.07
  Q 826.19 718.33 784.40 714.44
  C 744.86 710.75 707.13 703.40 670.35 689.26
  Q 663.37 686.57 656.11 683.74
  C 641.09 677.87 627.51 669.37 615.30 658.40
  Q 611.91 655.36 609.48 652.11
  C 603.14 643.64 610.73 632.86 620.83 635.41
  Q 621.45 635.57 621.30 634.94
  L 617.78 619.68
  A 0.90 0.90 0.0 0 0 616.53 619.06
  C 611.34 621.42 608.41 625.70 605.98 630.93
  Q 601.27 641.08 606.91 651.13
  Q 614.03 663.84 623.74 677.22
  C 638.51 697.59 649.58 720.13 657.03 744.01
  C 658.79 749.69 660.55 755.51 655.56 760.32
  C 651.82 763.91 646.07 764.09 641.97 760.98
  C 639.33 758.97 637.72 755.83 636.76 752.73
  Q 632.15 737.83 626.12 724.42
  Q 625.44 722.90 624.85 724.46
  Q 623.43 728.26 622.84 731.68
  Q 621.22 741.16 619.14 748.51
  Z
  M 673.03 651.84
  Q 669.19 654.02 671.65 658.06
  Q 675.38 664.16 676.93 666.86
  Q 678.51 669.58 681.48 670.62
  Q 689.25 673.35 696.86 675.79
  Q 707.98 679.61 719.14 681.97
  Q 719.96 682.15 719.84 681.32
  Q 719.11 676.08 720.99 670.42
  Q 722.00 667.39 726.94 662.19
  Q 732.18 656.68 737.42 651.18
  Q 739.13 649.38 736.84 648.22
  Q 734.21 645.46 731.39 642.83
  C 728.86 640.47 726.78 640.71 723.59 640.72
  Q 704.49 640.79 685.61 640.90
  C 684.11 640.91 682.96 641.64 681.99 642.73
  Q 677.98 647.24 673.03 651.84
  Z
  M 738.37 679.53
  Q 737.75 682.05 738.14 684.71
  Q 737.40 685.54 738.34 685.89
  Q 742.32 687.35 747.76 687.85
  Q 766.34 691.07 786.53 693.00
  Q 788.17 693.15 787.90 691.53
  Q 786.66 684.03 785.76 676.31
  Q 785.04 670.18 788.02 665.01
  C 788.73 663.78 788.94 662.37 788.46 661.02
  Q 786.86 656.51 785.81 651.95
  C 785.43 650.33 784.60 647.69 782.92 646.99
  Q 781.76 646.51 780.90 646.83
  C 777.78 646.81 770.52 646.10 768.47 648.23
  Q 754.17 663.05 739.53 677.52
  Q 739.12 677.93 738.37 679.53
  Z
  M 883.76 664.52
  Q 881.27 668.18 878.79 671.58
  Q 876.92 674.15 878.57 676.53
  A 2.00 1.99 64.7 0 0 880.74 677.31
  L 891.38 674.29
  A 3.95 3.94 80.9 0 0 894.24 670.33
  L 893.51 653.46
  L 892.99 652.63
  Q 892.45 651.78 891.88 652.61
  L 883.76 664.52
  Z
  M 819.95 694.18
  Q 822.71 694.43 825.34 694.16
  Q 827.96 693.89 830.23 693.74
  Q 846.55 692.61 862.65 689.51
  A 0.68 0.66 -0.8 0 0 863.18 688.98
  Q 863.29 688.36 862.56 688.04
  Q 860.14 687.00 857.74 685.94
  Q 842.13 678.60 826.48 671.41
  C 823.77 670.16 821.93 669.06 819.38 670.12
  Q 813.38 672.60 805.80 675.10
  A 3.74 3.73 78.0 0 0 803.26 679.02
  L 804.73 693.32
  Q 804.82 694.21 805.72 694.21
  L 819.95 694.18
  Z
  M 970.75 897.62
  C 967.41 898.00 966.90 904.39 966.96 906.73
  A 2.40 2.37 -72.3 0 0 967.90 908.57
  C 970.79 910.76 972.85 913.16 974.85 916.53
  Q 982.25 928.98 990.22 941.47
  L 996.87 952.30
  A 0.65 0.64 61.8 0 0 997.68 952.55
  C 1001.98 950.56 1006.60 949.40 1010.93 947.51
  C 1013.29 946.48 1018.84 944.87 1020.22 942.94
  Q 1021.46 941.18 1020.31 938.64
  Q 1019.33 932.53 1018.83 927.03
  C 1018.67 925.23 1018.07 923.23 1016.71 922.20
  Q 1003.47 912.22 989.28 901.44
  C 987.17 899.83 984.40 896.78 981.70 896.45
  Q 980.38 896.29 979.24 896.50
  Q 975.06 897.26 970.75 897.62
  Z
  M 874.70 947.31
  Q 872.08 952.95 877.40 955.09
  Q 889.00 959.78 900.92 964.07
  Q 901.41 964.24 901.65 963.79
  L 906.73 954.12
  Q 916.70 935.00 926.18 916.21
  C 928.00 912.59 927.42 907.21 922.13 907.67
  C 917.63 906.86 913.08 905.87 910.25 908.00
  Q 894.27 920.07 878.14 932.36
  A 5.07 5.05 75.1 0 0 876.19 935.74
  L 874.70 947.31
  Z
  M 911.97 983.00
  Q 913.11 983.56 915.00 983.55
  Q 939.62 983.41 964.25 983.09
  Q 968.55 983.04 972.88 982.82
  Q 977.22 982.60 977.06 978.27
  Q 978.02 972.66 979.67 967.34
  C 980.33 965.23 980.52 963.07 979.41 961.36
  Q 968.68 944.81 958.05 927.95
  C 957.29 926.75 956.04 925.27 954.88 924.86
  Q 951.61 923.73 945.67 922.80
  C 942.66 921.71 941.11 923.70 939.90 926.05
  Q 926.54 951.99 913.64 976.46
  Q 912.17 979.24 911.25 981.71
  A 0.85 0.78 55.0 0 0 911.20 982.09
  Q 911.29 983.07 911.97 983.00
  Z"
/>
<path fill="#fdbaff" d="
  M 677.76 622.61
  Q 675.85 621.40 673.70 620.99
  Q 673.21 620.89 672.83 620.57
  C 671.49 619.43 670.59 617.68 669.18 616.65
  C 665.01 613.62 658.95 611.23 653.69 612.05
  Q 651.39 612.42 649.10 612.91
  Q 646.88 608.92 644.44 607.30
  Q 638.51 603.36 635.78 600.05
  Q 641.95 597.41 646.73 594.74
  C 648.44 593.79 651.31 594.05 653.22 594.79
  Q 668.40 600.65 682.91 605.57
  A 0.38 0.38 0.0 0 1 683.07 606.18
  C 679.22 610.62 676.71 615.27 679.21 621.19
  Q 679.39 621.61 679.08 621.95
  Q 678.71 622.36 677.76 622.61
  Z"
/>
<path fill="#c959cd" d="
  M 635.78 600.05
  Q 638.51 603.36 644.44 607.30
  Q 646.88 608.92 649.10 612.91
  Q 650.11 617.65 649.73 621.25
  Q 647.95 638.27 647.27 655.50
  Q 645.02 654.56 643.41 653.18
  Q 641.81 651.81 641.29 649.46
  C 638.95 638.79 636.79 628.12 634.39 617.48
  Q 633.10 611.75 632.10 605.82
  Q 631.70 603.46 632.31 602.20
  Q 633.27 600.19 635.78 600.05
  Z"
/>
<path fill="#fdbaff" d="
  M 763.81 606.74
  Q 762.87 609.22 760.70 608.95
  Q 760.15 608.88 759.63 609.10
  Q 753.98 611.52 748.35 614.66
  C 746.35 615.77 744.85 617.43 743.28 619.04
  Q 742.85 619.47 742.43 619.03
  C 738.43 614.87 731.45 614.89 726.18 615.76
  Q 724.84 615.98 722.54 617.31
  Q 718.99 619.37 714.33 618.68
  Q 711.03 617.04 709.76 616.87
  Q 702.97 615.95 699.71 614.52
  Q 704.66 609.17 708.63 604.12
  C 709.95 602.44 713.11 602.53 715.19 602.37
  Q 744.95 600.04 753.50 599.71
  C 755.09 599.65 757.05 601.04 758.39 602.35
  Q 760.69 604.62 763.81 606.74
  Z"
/>
<path fill="#fc98ff" d="
  M 763.81 606.74
  Q 762.93 608.62 761.98 610.62
  Q 760.92 612.85 760.78 614.73
  C 760.60 617.22 760.49 619.90 759.46 622.20
  Q 756.39 629.04 752.46 635.35
  Q 751.70 636.58 750.68 635.55
  Q 745.28 630.11 739.52 624.10
  C 736.70 621.16 732.45 620.09 728.50 620.22
  Q 720.50 620.46 717.78 620.45
  Q 715.54 619.98 714.33 618.68
  Q 718.99 619.37 722.54 617.31
  Q 724.84 615.98 726.18 615.76
  C 731.45 614.89 738.43 614.87 742.43 619.03
  Q 742.85 619.47 743.28 619.04
  C 744.85 617.43 746.35 615.77 748.35 614.66
  Q 753.98 611.52 759.63 609.10
  Q 760.15 608.88 760.70 608.95
  Q 762.87 609.22 763.81 606.74
  Z"
/>
<path fill="#fc98ff" d="
  M 677.76 622.61
  Q 674.01 624.54 672.28 626.28
  Q 666.79 631.81 656.62 642.97
  C 652.52 647.47 649.38 652.37 652.65 657.86
  Q 653.20 658.78 652.25 658.26
  L 647.27 655.50
  Q 647.95 638.27 649.73 621.25
  Q 650.11 617.65 649.10 612.91
  Q 651.39 612.42 653.69 612.05
  C 658.95 611.23 665.01 613.62 669.18 616.65
  C 670.59 617.68 671.49 619.43 672.83 620.57
  Q 673.21 620.89 673.70 620.99
  Q 675.85 621.40 677.76 622.61
  Z"
/>
<path fill="#fdbaff" d="
  M 888.47 623.09
  Q 886.22 623.23 884.41 624.00
  Q 881.13 625.38 881.11 625.39
  C 876.18 627.00 870.35 628.26 866.73 631.99
  A 1.44 1.43 -40.2 0 1 864.52 631.81
  Q 862.08 628.25 858.63 627.94
  Q 856.08 622.05 853.55 615.98
  C 852.78 614.12 851.86 613.42 850.38 612.34
  Q 849.64 611.79 850.54 611.99
  Q 852.69 612.47 854.66 612.63
  Q 866.18 613.59 878.12 614.34
  Q 880.26 614.47 881.73 616.01
  Q 884.91 619.30 888.47 623.09
  Z"
/>
<path fill="#fdbaff" d="
  M 841.30 635.31
  Q 841.20 636.68 841.44 637.08
  A 1.42 1.42 0.0 0 1 840.24 639.23
  Q 833.09 639.35 826.74 639.52
  Q 823.12 639.62 819.97 641.07
  Q 819.48 641.30 819.17 640.86
  C 817.94 639.11 816.99 637.13 815.30 635.79
  Q 807.83 629.84 798.63 630.77
  A 2.56 2.53 -21.7 0 1 796.37 629.81
  Q 795.08 628.14 792.71 626.98
  Q 790.97 625.50 785.75 621.75
  Q 783.73 620.30 783.05 617.78
  Q 788.61 615.65 793.70 613.14
  Q 794.80 612.60 795.91 612.56
  C 796.98 612.53 797.91 612.50 798.92 612.92
  Q 816.69 620.33 835.74 627.63
  C 839.18 628.95 840.09 632.22 841.30 635.31
  Z"
/>
<path fill="#c959cd" d="
  M 699.71 614.52
  Q 702.97 615.95 709.76 616.87
  Q 711.03 617.04 714.33 618.68
  Q 715.54 619.98 717.78 620.45
  L 699.73 620.51
  A 1.91 1.90 80.9 0 1 697.92 619.19
  Q 696.97 616.27 699.71 614.52
  Z"
/>
<path fill="#c959cd" d="
  M 783.05 617.78
  Q 783.73 620.30 785.75 621.75
  Q 790.97 625.50 792.71 626.98
  L 793.55 629.68
  C 789.42 627.53 784.79 628.08 780.32 627.96
  Q 779.81 627.94 779.59 627.48
  Q 779.18 626.61 778.81 624.73
  Q 777.60 618.59 783.05 617.78
  Z"
/>
<path fill="#a98354" d="
  M 592.19 813.40
  C 602.13 791.80 612.91 770.55 619.14 748.51
  Q 621.22 741.16 622.84 731.68
  Q 623.43 728.26 624.85 724.46
  Q 625.44 722.90 626.12 724.42
  Q 632.15 737.83 636.76 752.73
  C 637.72 755.83 639.33 758.97 641.97 760.98
  C 646.07 764.09 651.82 763.91 655.56 760.32
  C 660.55 755.51 658.79 749.69 657.03 744.01
  C 649.58 720.13 638.51 697.59 623.74 677.22
  Q 614.03 663.84 606.91 651.13
  Q 601.27 641.08 605.98 630.93
  C 608.41 625.70 611.34 621.42 616.53 619.06
  A 0.90 0.90 0.0 0 1 617.78 619.68
  L 621.30 634.94
  Q 621.45 635.57 620.83 635.41
  C 610.73 632.86 603.14 643.64 609.48 652.11
  Q 611.91 655.36 615.30 658.40
  C 627.51 669.37 641.09 677.87 656.11 683.74
  Q 663.37 686.57 670.35 689.26
  C 707.13 703.40 744.86 710.75 784.40 714.44
  Q 826.19 718.33 865.61 711.07
  Q 872.55 709.80 878.24 707.05
  Q 886.67 702.97 885.06 693.61
  A 0.40 0.39 79.7 0 1 885.37 693.15
  Q 891.75 691.89 898.08 690.31
  C 902.76 689.13 907.67 687.26 909.88 682.66
  Q 911.75 678.77 911.80 675.16
  Q 911.94 666.35 912.24 657.05
  C 912.29 655.64 911.96 654.39 911.81 653.02
  Q 911.73 652.24 912.26 652.82
  C 918.29 659.30 917.74 666.97 914.03 674.64
  Q 908.92 685.19 905.52 695.91
  C 899.09 716.21 891.68 739.71 898.65 760.55
  C 900.77 766.87 905.45 772.70 910.47 777.12
  C 922.69 787.88 932.98 800.34 938.54 814.57
  C 948.90 841.12 941.26 867.21 922.27 887.40
  Q 921.30 888.43 919.95 888.31
  Q 916.21 887.97 912.36 887.18
  C 906.87 886.05 903.21 887.58 898.97 890.96
  Q 882.73 903.87 865.96 916.71
  Q 861.08 920.45 859.41 925.64
  C 859.02 926.86 858.09 927.62 856.93 928.05
  Q 820.08 941.75 774.78 943.96
  Q 714.01 946.92 659.63 928.24
  Q 627.75 917.29 600.65 897.30
  C 587.75 887.79 579.70 874.20 579.54 858.05
  Q 579.46 849.89 582.57 839.22
  Q 586.47 825.84 592.19 813.40
  Z"
/>
<path fill="#fc98ff" d="
  M 888.47 623.09
  Q 889.86 625.75 886.80 630.30
  Q 874.81 648.08 863.38 665.35
  A 1.14 1.14 0.0 0 1 861.98 665.76
  L 848.95 660.01
  Q 848.29 659.72 848.87 659.29
  C 854.26 655.34 863.24 649.38 863.45 641.96
  Q 863.51 639.73 861.59 635.18
  Q 860.08 631.60 858.63 627.94
  Q 862.08 628.25 864.52 631.81
  A 1.44 1.43 -40.2 0 0 866.73 631.99
  C 870.35 628.26 876.18 627.00 881.11 625.39
  Q 881.13 625.38 884.41 624.00
  Q 886.22 623.23 888.47 623.09
  Z"
/>
<path fill="#fc98ff" d="
  M 792.71 626.98
  Q 795.08 628.14 796.37 629.81
  A 2.56 2.53 -21.7 0 0 798.63 630.77
  Q 807.83 629.84 815.30 635.79
  C 816.99 637.13 817.94 639.11 819.17 640.86
  Q 819.48 641.30 819.97 641.07
  Q 823.12 639.62 826.74 639.52
  Q 833.09 639.35 840.24 639.23
  A 1.42 1.42 0.0 0 0 841.44 637.08
  Q 841.20 636.68 841.30 635.31
  C 842.54 638.26 845.15 641.17 841.54 643.98
  Q 836.98 647.53 832.62 651.22
  A 2.12 2.11 -55.4 0 1 830.57 651.60
  C 821.48 648.47 813.33 652.61 805.00 656.35
  Q 804.20 656.71 803.99 655.86
  Q 801.89 647.68 799.26 638.51
  Q 797.85 633.60 793.55 629.68
  L 792.71 626.98
  Z"
/>
<path fill="#fdbaff" d="
  M 736.84 648.22
  L 736.48 648.56
  Q 736.21 648.81 735.88 648.96
  Q 730.02 651.69 723.87 654.18
  Q 719.84 655.82 716.97 658.64
  A 1.18 1.17 40.4 0 1 715.46 658.75
  C 713.52 657.34 711.51 655.87 709.09 655.41
  Q 703.40 654.34 698.09 655.34
  Q 696.35 655.66 693.93 656.92
  Q 691.88 657.99 689.84 658.77
  Q 685.61 655.50 680.32 654.50
  Q 677.94 654.05 676.57 653.46
  Q 674.77 652.69 673.03 651.84
  Q 677.98 647.24 681.99 642.73
  C 682.96 641.64 684.11 640.91 685.61 640.90
  Q 704.49 640.79 723.59 640.72
  C 726.78 640.71 728.86 640.47 731.39 642.83
  Q 734.21 645.46 736.84 648.22
  Z"
/>
<path fill="#fdbaff" d="
  M 780.90 646.83
  Q 778.06 655.25 774.71 663.24
  Q 774.22 664.41 774.18 668.41
  Q 774.18 668.95 773.67 669.11
  C 771.75 669.72 769.50 669.76 767.72 670.69
  Q 758.75 675.42 756.17 684.60
  Q 755.89 685.63 754.99 686.19
  C 754.12 686.73 752.50 686.61 752.09 686.91
  Q 751.98 686.98 751.99 687.13
  Q 752.00 687.35 751.79 687.38
  L 747.76 687.85
  Q 742.32 687.35 738.34 685.89
  Q 737.40 685.54 738.14 684.71
  Q 739.08 682.44 738.37 679.53
  Q 739.12 677.93 739.53 677.52
  Q 754.17 663.05 768.47 648.23
  C 770.52 646.10 777.78 646.81 780.90 646.83
  Z"
/>
<path fill="#fc98ff" d="
  M 780.90 646.83
  Q 781.76 646.51 782.92 646.99
  C 784.60 647.69 785.43 650.33 785.81 651.95
  Q 786.86 656.51 788.46 661.02
  C 788.94 662.37 788.73 663.78 788.02 665.01
  Q 785.04 670.18 785.76 676.31
  Q 786.66 684.03 787.90 691.53
  Q 788.17 693.15 786.53 693.00
  Q 766.34 691.07 747.76 687.85
  L 751.79 687.38
  Q 752.00 687.35 751.99 687.13
  Q 751.98 686.98 752.09 686.91
  C 752.50 686.61 754.12 686.73 754.99 686.19
  Q 755.89 685.63 756.17 684.60
  Q 758.75 675.42 767.72 670.69
  C 769.50 669.76 771.75 669.72 773.67 669.11
  Q 774.18 668.95 774.18 668.41
  Q 774.22 664.41 774.71 663.24
  Q 778.06 655.25 780.90 646.83
  Z"
/>
<path fill="#fc98ff" d="
  M 736.84 648.22
  Q 739.13 649.38 737.42 651.18
  Q 732.18 656.68 726.94 662.19
  Q 722.00 667.39 720.99 670.42
  Q 719.11 676.08 719.84 681.32
  Q 719.96 682.15 719.14 681.97
  Q 707.98 679.61 696.86 675.79
  Q 694.39 670.50 693.03 664.74
  Q 692.50 662.54 689.84 658.77
  Q 691.88 657.99 693.93 656.92
  Q 696.35 655.66 698.09 655.34
  Q 703.40 654.34 709.09 655.41
  C 711.51 655.87 713.52 657.34 715.46 658.75
  A 1.18 1.17 40.4 0 0 716.97 658.64
  Q 719.84 655.82 723.87 654.18
  Q 730.02 651.69 735.88 648.96
  Q 736.21 648.81 736.48 648.56
  L 736.84 648.22
  Z"
/>
<path fill="#c959cd" d="
  M 673.03 651.84
  Q 674.77 652.69 676.57 653.46
  Q 677.94 654.05 680.32 654.50
  Q 685.61 655.50 689.84 658.77
  Q 692.50 662.54 693.03 664.74
  Q 694.39 670.50 696.86 675.79
  Q 689.25 673.35 681.48 670.62
  Q 678.51 669.58 676.93 666.86
  Q 675.38 664.16 671.65 658.06
  Q 669.19 654.02 673.03 651.84
  Z"
/>
<path fill="#fdbaff" d="
  M 893.51 653.46
  Q 891.82 660.62 892.90 667.38
  A 1.11 1.10 -80.5 0 1 891.29 668.53
  L 883.76 664.52
  L 891.88 652.61
  Q 892.45 651.78 892.99 652.63
  L 893.51 653.46
  Z"
/>
<path fill="#c959cd" d="
  M 893.51 653.46
  L 894.24 670.33
  A 3.95 3.94 80.9 0 1 891.38 674.29
  L 880.74 677.31
  A 2.00 1.99 64.7 0 1 878.57 676.53
  Q 876.92 674.15 878.79 671.58
  Q 881.27 668.18 883.76 664.52
  L 891.29 668.53
  A 1.11 1.10 -80.5 0 0 892.90 667.38
  Q 891.82 660.62 893.51 653.46
  Z"
/>
<path fill="#c959cd" d="
  M 857.74 685.94
  Q 855.36 685.73 853.26 684.58
  Q 850.43 683.03 847.55 681.97
  Q 845.80 681.33 844.50 680.52
  Q 843.15 679.68 841.52 679.15
  Q 838.11 678.07 834.91 676.49
  Q 832.24 675.19 829.68 674.04
  Q 827.05 672.87 824.44 671.66
  Q 823.69 671.31 822.93 670.88
  Q 821.71 670.20 820.48 670.81
  Q 814.40 673.81 808.53 675.15
  A 0.57 0.57 0.0 0 0 808.24 676.08
  Q 811.08 679.24 814.80 682.20
  Q 820.86 687.01 819.95 694.18
  L 805.72 694.21
  Q 804.82 694.21 804.73 693.32
  L 803.26 679.02
  A 3.74 3.73 78.0 0 1 805.80 675.10
  Q 813.38 672.60 819.38 670.12
  C 821.93 669.06 823.77 670.16 826.48 671.41
  Q 842.13 678.60 857.74 685.94
  Z"
/>
<path fill="#fdbaff" d="
  M 857.74 685.94
  Q 860.14 687.00 862.56 688.04
  Q 863.29 688.36 863.18 688.98
  A 0.68 0.66 -0.8 0 1 862.65 689.51
  Q 846.55 692.61 830.23 693.74
  Q 827.96 693.89 825.34 694.16
  Q 822.71 694.43 819.95 694.18
  Q 820.86 687.01 814.80 682.20
  Q 811.08 679.24 808.24 676.08
  A 0.57 0.57 0.0 0 1 808.53 675.15
  Q 814.40 673.81 820.48 670.81
  Q 821.71 670.20 822.93 670.88
  Q 823.69 671.31 824.44 671.66
  Q 827.05 672.87 829.68 674.04
  Q 832.24 675.19 834.91 676.49
  Q 838.11 678.07 841.52 679.15
  Q 843.15 679.68 844.50 680.52
  Q 845.80 681.33 847.55 681.97
  Q 850.43 683.03 853.26 684.58
  Q 855.36 685.73 857.74 685.94
  Z"
/>
<path fill="#c959cd" d="
  M 738.37 679.53
  Q 739.08 682.44 738.14 684.71
  Q 737.75 682.05 738.37 679.53
  Z"
/>
<path fill="#fdbaff" d="
  M 1020.31 938.64
  Q 1017.18 938.80 1014.72 937.56
  Q 1008.34 934.36 1002.74 934.49
  C 1001.05 931.35 999.67 927.74 997.11 925.44
  C 992.74 921.52 989.34 919.14 983.17 919.05
  A 1.95 1.94 -6.8 0 1 981.31 917.59
  Q 979.79 911.70 975.47 905.37
  Q 973.64 902.71 972.41 899.38
  Q 972.17 898.76 972.22 898.18
  Q 972.25 897.68 971.75 897.66
  L 970.75 897.62
  Q 975.06 897.26 979.24 896.50
  Q 980.38 896.29 981.70 896.45
  C 984.40 896.78 987.17 899.83 989.28 901.44
  Q 1003.47 912.22 1016.71 922.20
  C 1018.07 923.23 1018.67 925.23 1018.83 927.03
  Q 1019.33 932.53 1020.31 938.64
  Z"
/>
<path fill="#fc98ff" d="
  M 970.75 897.62
  L 971.75 897.66
  Q 972.25 897.68 972.22 898.18
  Q 972.17 898.76 972.41 899.38
  Q 973.64 902.71 975.47 905.37
  Q 979.79 911.70 981.31 917.59
  A 1.95 1.94 -6.8 0 0 983.17 919.05
  C 989.34 919.14 992.74 921.52 997.11 925.44
  C 999.67 927.74 1001.05 931.35 1002.74 934.49
  Q 998.91 935.53 996.72 937.19
  Q 992.74 940.21 990.22 941.47
  Q 982.25 928.98 974.85 916.53
  C 972.85 913.16 970.79 910.76 967.90 908.57
  A 2.40 2.37 -72.3 0 1 966.96 906.73
  C 966.90 904.39 967.41 898.00 970.75 897.62
  Z"
/>
<path fill="#fdbaff" d="
  M 922.13 907.67
  Q 922.54 910.95 920.67 913.39
  Q 915.47 920.19 913.18 927.84
  A 1.50 1.50 0.0 0 1 912.02 928.89
  C 909.65 929.34 907.11 929.14 904.95 930.23
  Q 899.90 932.79 896.05 936.95
  C 894.59 938.53 893.92 940.63 893.39 942.68
  A 1.35 1.33 -88.8 0 1 892.40 943.64
  L 888.44 944.58
  Q 882.60 946.44 876.65 948.59
  Q 875.84 948.88 875.35 948.73
  Q 874.46 948.45 874.70 947.31
  L 876.19 935.74
  A 5.07 5.05 75.1 0 1 878.14 932.36
  Q 894.27 920.07 910.25 908.00
  C 913.08 905.87 917.63 906.86 922.13 907.67
  Z"
/>
<path fill="#fc98ff" d="
  M 922.13 907.67
  C 927.42 907.21 928.00 912.59 926.18 916.21
  Q 916.70 935.00 906.73 954.12
  Q 904.28 952.05 898.49 947.76
  Q 893.95 944.40 888.44 944.58
  L 892.40 943.64
  A 1.35 1.33 -88.8 0 0 893.39 942.68
  C 893.92 940.63 894.59 938.53 896.05 936.95
  Q 899.90 932.79 904.95 930.23
  C 907.11 929.14 909.65 929.34 912.02 928.89
  A 1.50 1.50 0.0 0 0 913.18 927.84
  Q 915.47 920.19 920.67 913.39
  Q 922.54 910.95 922.13 907.67
  Z"
/>
<path fill="#fc98ff" d="
  M 945.67 922.80
  Q 945.82 923.95 945.69 925.61
  Q 945.57 927.23 945.92 928.63
  Q 947.30 934.20 947.88 940.04
  C 948.06 941.91 947.69 943.78 947.31 945.60
  A 0.82 0.81 -74.9 0 0 947.84 946.53
  Q 949.01 946.95 950.23 947.33
  C 954.93 948.79 957.92 953.72 960.02 957.89
  Q 961.85 961.50 961.41 964.13
  Q 960.94 966.98 961.10 967.80
  Q 956.63 968.22 954.46 968.89
  Q 934.74 975.01 917.28 980.30
  Q 915.48 980.85 913.73 981.82
  Q 913.32 982.06 913.09 982.47
  Q 912.80 983.01 911.97 983.00
  Q 911.29 983.07 911.20 982.09
  A 0.85 0.78 55.0 0 1 911.25 981.71
  Q 912.17 979.24 913.64 976.46
  Q 926.54 951.99 939.90 926.05
  C 941.11 923.70 942.66 921.71 945.67 922.80
  Z"
/>
<path fill="#fdbaff" d="
  M 945.67 922.80
  Q 951.61 923.73 954.88 924.86
  C 956.04 925.27 957.29 926.75 958.05 927.95
  Q 968.68 944.81 979.41 961.36
  C 980.52 963.07 980.33 965.23 979.67 967.34
  Q 978.02 972.66 977.06 978.27
  Q 974.18 977.04 972.49 975.24
  Q 967.19 969.62 961.10 967.80
  Q 960.94 966.98 961.41 964.13
  Q 961.85 961.50 960.02 957.89
  C 957.92 953.72 954.93 948.79 950.23 947.33
  Q 949.01 946.95 947.84 946.53
  A 0.82 0.81 -74.9 0 1 947.31 945.60
  C 947.69 943.78 948.06 941.91 947.88 940.04
  Q 947.30 934.20 945.92 928.63
  Q 945.57 927.23 945.69 925.61
  Q 945.82 923.95 945.67 922.80
  Z"
/>
<path fill="#c959cd" d="
  M 1002.74 934.49
  Q 1008.34 934.36 1014.72 937.56
  Q 1017.18 938.80 1020.31 938.64
  Q 1021.46 941.18 1020.22 942.94
  C 1018.84 944.87 1013.29 946.48 1010.93 947.51
  C 1006.60 949.40 1001.98 950.56 997.68 952.55
  A 0.65 0.64 61.8 0 1 996.87 952.30
  L 990.22 941.47
  Q 992.74 940.21 996.72 937.19
  Q 998.91 935.53 1002.74 934.49
  Z"
/>
<path fill="#000000" d="
  M 1079.68 940.76
  C 1081.82 938.62 1085.41 936.71 1088.69 936.78
  Q 1101.48 937.07 1112.06 937.43
  C 1118.89 937.66 1122.18 944.81 1123.62 950.55
  Q 1134.05 991.95 1143.10 1027.75
  C 1144.49 1033.27 1143.44 1039.83 1136.50 1040.53
  C 1131.82 1040.99 1126.20 1039.99 1121.31 1038.88
  Q 1088.10 1031.36 1056.06 1023.93
  C 1048.34 1022.14 1043.02 1018.04 1042.89 1009.53
  Q 1042.72 997.54 1042.57 986.49
  C 1042.49 979.96 1044.92 975.38 1049.72 970.63
  Q 1064.99 955.51 1079.68 940.76
  Z
  M 1060.97 1002.01
  Q 1059.56 1006.76 1063.22 1007.99
  Q 1068.32 1009.70 1075.52 1011.35
  C 1085.16 1013.56 1093.39 1015.78 1102.37 1017.78
  Q 1103.12 1017.94 1113.06 1020.44
  Q 1118.43 1021.78 1123.92 1022.50
  Q 1124.26 1020.29 1123.23 1016.26
  Q 1116.05 988.17 1108.81 960.12
  Q 1107.39 954.63 1103.24 956.03
  C 1099.86 955.85 1094.28 955.09 1092.00 957.27
  Q 1086.38 962.62 1064.51 984.09
  Q 1064.48 984.13 1063.01 985.44
  Q 1061.25 987.02 1061.24 988.50
  Q 1061.18 995.30 1060.97 1002.01
  Z"
/>
<path fill="#c959cd" d="
  M 888.44 944.58
  Q 893.95 944.40 898.49 947.76
  Q 904.28 952.05 906.73 954.12
  L 901.65 963.79
  Q 901.41 964.24 900.92 964.07
  Q 889.00 959.78 877.40 955.09
  Q 872.08 952.95 874.70 947.31
  Q 874.46 948.45 875.35 948.73
  Q 875.84 948.88 876.65 948.59
  Q 882.60 946.44 888.44 944.58
  Z"
/>
<path fill="#fdbaff" d="
  M 1103.24 956.03
  Q 1103.17 960.63 1101.01 965.30
  Q 1098.44 970.85 1098.41 970.93
  Q 1097.40 973.96 1097.24 976.92
  A 1.86 1.86 0.0 0 1 1095.42 978.67
  Q 1090.24 978.75 1086.45 982.24
  C 1083.35 985.09 1080.08 988.20 1079.32 992.54
  Q 1079.06 993.99 1078.54 995.37
  Q 1078.41 995.74 1078.02 995.79
  Q 1077.86 995.82 1077.71 995.86
  Q 1076.83 996.12 1077.73 996.28
  L 1078.31 996.38
  Q 1074.60 996.32 1072.27 997.54
  Q 1067.27 1000.17 1062.26 1002.71
  A 1.27 1.27 0.0 0 1 1060.98 1002.64
  Q 1060.73 1002.48 1060.97 1002.01
  Q 1061.18 995.30 1061.24 988.50
  Q 1061.25 987.02 1063.01 985.44
  Q 1064.48 984.13 1064.51 984.09
  Q 1086.38 962.62 1092.00 957.27
  C 1094.28 955.09 1099.86 955.85 1103.24 956.03
  Z"
/>
<path fill="#fc98ff" d="
  M 1123.92 1022.50
  Q 1122.24 1021.66 1122.35 1021.23
  C 1121.51 1020.54 1120.71 1019.61 1119.80 1019.07
  Q 1103.82 1009.71 1087.05 999.95
  Q 1082.21 997.13 1078.31 996.38
  L 1077.73 996.28
  Q 1076.83 996.12 1077.71 995.86
  Q 1077.86 995.82 1078.02 995.79
  Q 1078.41 995.74 1078.54 995.37
  Q 1079.06 993.99 1079.32 992.54
  C 1080.08 988.20 1083.35 985.09 1086.45 982.24
  Q 1090.24 978.75 1095.42 978.67
  A 1.86 1.86 0.0 0 0 1097.24 976.92
  Q 1097.40 973.96 1098.41 970.93
  Q 1098.44 970.85 1101.01 965.30
  Q 1103.17 960.63 1103.24 956.03
  Q 1107.39 954.63 1108.81 960.12
  Q 1116.05 988.17 1123.23 1016.26
  Q 1124.26 1020.29 1123.92 1022.50
  Z"
/>
<path fill="#c959cd" d="
  M 961.10 967.80
  Q 967.19 969.62 972.49 975.24
  Q 974.18 977.04 977.06 978.27
  Q 977.22 982.60 972.88 982.82
  Q 968.55 983.04 964.25 983.09
  Q 939.62 983.41 915.00 983.55
  Q 913.11 983.56 911.97 983.00
  Q 912.80 983.01 913.09 982.47
  Q 913.32 982.06 913.73 981.82
  Q 915.48 980.85 917.28 980.30
  Q 934.74 975.01 954.46 968.89
  Q 956.63 968.22 961.10 967.80
  Z"
/>
<path fill="#000000" d="
  M 857.24 994.17
  C 860.11 995.27 862.59 996.87 864.69 999.00
  Q 879.15 1013.75 894.55 1028.90
  C 898.67 1032.94 900.66 1037.97 900.60 1043.64
  Q 900.49 1054.57 900.29 1066.71
  C 900.15 1075.59 894.64 1079.38 886.72 1081.22
  Q 853.27 1088.99 820.99 1096.27
  C 816.52 1097.28 810.08 1098.44 805.75 1097.59
  C 799.64 1096.39 798.81 1090.09 800.10 1084.97
  Q 810.23 1044.91 819.89 1006.66
  C 821.38 1000.75 825.00 994.72 831.93 994.55
  Q 843.15 994.28 856.06 993.96
  A 3.14 3.13 55.0 0 1 857.24 994.17
  Z
  M 820.33 1079.15
  Q 821.47 1079.73 822.51 1079.47
  Q 842.39 1074.63 862.31 1069.97
  Q 872.72 1067.53 879.51 1065.30
  Q 883.55 1063.97 882.24 1060.10
  L 882.16 1046.83
  A 5.59 5.55 -68.3 0 0 880.46 1042.84
  Q 866.26 1029.08 851.13 1014.26
  C 849.22 1012.39 845.07 1012.89 841.19 1013.20
  Q 836.60 1012.01 834.87 1015.47
  Q 834.64 1015.93 833.33 1021.09
  Q 826.46 1048.05 819.57 1075.00
  Q 819.38 1075.72 819.01 1078.38
  Q 818.94 1078.89 819.29 1079.26
  Q 819.79 1079.79 820.33 1079.15
  Z"
/>
<path fill="#c959cd" d="
  M 1078.31 996.38
  Q 1082.21 997.13 1087.05 999.95
  Q 1103.82 1009.71 1119.80 1019.07
  C 1120.71 1019.61 1121.51 1020.54 1122.35 1021.23
  Q 1122.24 1021.66 1123.92 1022.50
  Q 1118.43 1021.78 1113.06 1020.44
  Q 1103.12 1017.94 1102.37 1017.78
  C 1093.39 1015.78 1085.16 1013.56 1075.52 1011.35
  Q 1068.32 1009.70 1063.22 1007.99
  Q 1059.56 1006.76 1060.97 1002.01
  Q 1060.73 1002.48 1060.98 1002.64
  A 1.27 1.27 0.0 0 0 1062.26 1002.71
  Q 1067.27 1000.17 1072.27 997.54
  Q 1074.60 996.32 1078.31 996.38
  Z"
/>
<path fill="#fc98ff" d="
  M 841.19 1013.20
  Q 839.67 1012.71 839.49 1014.24
  C 839.36 1015.39 840.02 1017.60 840.61 1018.80
  Q 843.62 1024.91 845.39 1030.31
  Q 846.07 1032.36 845.90 1034.71
  A 0.83 0.83 0.0 0 0 846.68 1035.59
  Q 848.57 1035.71 850.39 1036.12
  C 855.39 1037.24 859.85 1042.23 862.71 1046.28
  Q 863.91 1047.99 864.28 1053.54
  Q 860.33 1054.62 858.47 1055.73
  Q 841.44 1065.92 831.15 1071.64
  Q 824.74 1075.19 820.33 1079.15
  Q 819.79 1079.79 819.29 1079.26
  Q 818.94 1078.89 819.01 1078.38
  Q 819.38 1075.72 819.57 1075.00
  Q 826.46 1048.05 833.33 1021.09
  Q 834.64 1015.93 834.87 1015.47
  Q 836.60 1012.01 841.19 1013.20
  Z"
/>
<path fill="#fdbaff" d="
  M 882.24 1060.10
  Q 877.57 1058.61 873.29 1055.97
  Q 869.22 1053.46 864.28 1053.54
  Q 863.91 1047.99 862.71 1046.28
  C 859.85 1042.23 855.39 1037.24 850.39 1036.12
  Q 848.57 1035.71 846.68 1035.59
  A 0.83 0.83 0.0 0 1 845.90 1034.71
  Q 846.07 1032.36 845.39 1030.31
  Q 843.62 1024.91 840.61 1018.80
  C 840.02 1017.60 839.36 1015.39 839.49 1014.24
  Q 839.67 1012.71 841.19 1013.20
  C 845.07 1012.89 849.22 1012.39 851.13 1014.26
  Q 866.26 1029.08 880.46 1042.84
  A 5.59 5.55 -68.3 0 1 882.16 1046.83
  L 882.24 1060.10
  Z"
/>
<path fill="#c959cd" d="
  M 864.28 1053.54
  Q 869.22 1053.46 873.29 1055.97
  Q 877.57 1058.61 882.24 1060.10
  Q 883.55 1063.97 879.51 1065.30
  Q 872.72 1067.53 862.31 1069.97
  Q 842.39 1074.63 822.51 1079.47
  Q 821.47 1079.73 820.33 1079.15
  Q 824.74 1075.19 831.15 1071.64
  Q 841.44 1065.92 858.47 1055.73
  Q 860.33 1054.62 864.28 1053.54
  Z"
/>
</svg>
