<svg width="40" height="37" viewBox="0 0 40 37" fill="none" xmlns="http://www.w3.org/2000/svg" xmlns:xlink="http://www.w3.org/1999/xlink">
<path d="M20.9516 3.80957H19.0469V5.71433H20.9516V3.80957Z" fill="black"/>
<path d="M22.8579 3.80957H20.9531V5.71433H22.8579V3.80957Z" fill="black"/>
<path d="M24.7622 3.80957H22.8574V5.71433H24.7622V3.80957Z" fill="black"/>
<path d="M26.6665 3.80957H24.7617V5.71433H26.6665V3.80957Z" fill="black"/>
<path d="M28.5708 3.80957H26.666V5.71433H28.5708V3.80957Z" fill="black"/>
<path d="M17.143 5.71436H15.2383V7.61912H17.143V5.71436Z" fill="black"/>
<path d="M19.0473 5.71436H17.1426V7.61912H19.0473V5.71436Z" fill="black"/>
<path d="M20.9516 5.71436H19.0469V7.61912H20.9516V5.71436Z" fill="white"/>
<path d="M22.8579 5.71436H20.9531V7.61912H22.8579V5.71436Z" fill="white"/>
<path d="M24.7622 5.71436H22.8574V7.61912H24.7622V5.71436Z" fill="white"/>
<path d="M26.6665 5.71436H24.7617V7.61912H26.6665V5.71436Z" fill="white"/>
<path d="M28.5708 5.71436H26.666V7.61912H28.5708V5.71436Z" fill="white"/>
<path d="M30.477 5.71436H28.5723V7.61912H30.477V5.71436Z" fill="black"/>
<path d="M32.3813 5.71436H30.4766V7.61912H32.3813V5.71436Z" fill="black"/>
<path d="M15.2387 7.61914H13.334V9.5239H15.2387V7.61914Z" fill="black"/>
<path d="M17.143 7.61914H15.2383V9.5239H17.143V7.61914Z" fill="white"/>
<path d="M19.0473 7.61914H17.1426V9.5239H19.0473V7.61914Z" fill="white"/>
<path d="M20.9516 7.61914H19.0469V9.5239H20.9516V7.61914Z" fill="white"/>
<path d="M22.8579 7.61914H20.9531V9.5239H22.8579V7.61914Z" fill="white"/>
<path d="M24.7622 7.61914H22.8574V9.5239H24.7622V7.61914Z" fill="white"/>
<path d="M26.6665 7.61914H24.7617V9.5239H26.6665V7.61914Z" fill="white"/>
<path d="M28.5708 7.61914H26.666V9.5239H28.5708V7.61914Z" fill="white"/>
<path d="M30.477 7.61914H28.5723V9.5239H30.477V7.61914Z" fill="white"/>
<path d="M32.3813 7.61914H30.4766V9.5239H32.3813V7.61914Z" fill="white"/>
<path d="M34.2856 7.61914H32.3809V9.5239H34.2856V7.61914Z" fill="black"/>
<path d="M13.3325 9.52393H11.4277V11.4287H13.3325V9.52393Z" fill="black"/>
<path d="M15.2387 9.52393H13.334V11.4287H15.2387V9.52393Z" fill="white"/>
<path d="M17.143 9.52393H15.2383V11.4287H17.143V9.52393Z" fill="white"/>
<path d="M19.0473 9.52393H17.1426V11.4287H19.0473V9.52393Z" fill="white"/>
<path d="M20.9516 9.52393H19.0469V11.4287H20.9516V9.52393Z" fill="white"/>
<path d="M22.8579 9.52393H20.9531V11.4287H22.8579V9.52393Z" fill="white"/>
<path d="M24.7622 9.52393H22.8574V11.4287H24.7622V9.52393Z" fill="white"/>
<path d="M26.6665 9.52393H24.7617V11.4287H26.6665V9.52393Z" fill="white"/>
<path d="M28.5708 9.52393H26.666V11.4287H28.5708V9.52393Z" fill="white"/>
<path d="M30.477 9.52393H28.5723V11.4287H30.477V9.52393Z" fill="white"/>
<path d="M32.3813 9.52393H30.4766V11.4287H32.3813V9.52393Z" fill="white"/>
<path d="M34.2856 9.52393H32.3809V11.4287H34.2856V9.52393Z" fill="white"/>
<path d="M36.1899 9.52393H34.2852V11.4287H36.1899V9.52393Z" fill="black"/>
<path d="M13.3325 11.4287H11.4277V13.3335H13.3325V11.4287Z" fill="black"/>
<path d="M15.2387 11.4287H13.334V13.3335H15.2387V11.4287Z" fill="white"/>
<path d="M17.143 11.4287H15.2383V13.3335H17.143V11.4287Z" fill="white"/>
<path d="M19.0473 11.4287H17.1426V13.3335H19.0473V11.4287Z" fill="white"/>
<path d="M20.9516 11.4287H19.0469V13.3335H20.9516V11.4287Z" fill="white"/>
<path d="M22.8579 11.4287H20.9531V13.3335H22.8579V11.4287Z" fill="white"/>
<path d="M24.7622 11.4287H22.8574V13.3335H24.7622V11.4287Z" fill="white"/>
<path d="M26.6665 11.4287H24.7617V13.3335H26.6665V11.4287Z" fill="white"/>
<path d="M28.5708 11.4287H26.666V13.3335H28.5708V11.4287Z" fill="white"/>
<path d="M30.477 11.4287H28.5723V13.3335H30.477V11.4287Z" fill="white"/>
<path d="M32.3813 11.4287H30.4766V13.3335H32.3813V11.4287Z" fill="white"/>
<path d="M34.2856 11.4287H32.3809V13.3335H34.2856V11.4287Z" fill="white"/>
<path d="M36.1899 11.4287H34.2852V13.3335H36.1899V11.4287Z" fill="black"/>
<path d="M11.4282 13.3335H9.52344V15.2383H11.4282V13.3335Z" fill="black"/>
<path d="M13.3325 13.3335H11.4277V15.2383H13.3325V13.3335Z" fill="white"/>
<path d="M15.2387 13.3335H13.334V15.2383H15.2387V13.3335Z" fill="white"/>
<path d="M17.143 13.3335H15.2383V15.2383H17.143V13.3335Z" fill="white"/>
<path d="M19.0473 13.3335H17.1426V15.2383H19.0473V13.3335Z" fill="white"/>
<path d="M20.9516 13.3335H19.0469V15.2383H20.9516V13.3335Z" fill="white"/>
<path d="M22.8579 13.3335H20.9531V15.2383H22.8579V13.3335Z" fill="white"/>
<path d="M24.7622 13.3335H22.8574V15.2383H24.7622V13.3335Z" fill="white"/>
<path d="M26.6665 13.3335H24.7617V15.2383H26.6665V13.3335Z" fill="white"/>
<path d="M28.5708 13.3335H26.666V15.2383H28.5708V13.3335Z" fill="white"/>
<path d="M32.3813 13.3335H30.4766V15.2383H32.3813V13.3335Z" fill="white"/>
<path d="M34.2856 13.3335H32.3809V15.2383H34.2856V13.3335Z" fill="white"/>
<path d="M36.1899 13.3335H34.2852V15.2383H36.1899V13.3335Z" fill="white"/>
<path d="M38.0962 13.3335H36.1914V15.2383H38.0962V13.3335Z" fill="black"/>
<path d="M11.4282 15.2383H9.52344V17.143H11.4282V15.2383Z" fill="black"/>
<path d="M13.3325 15.2383H11.4277V17.143H13.3325V15.2383Z" fill="white"/>
<path d="M15.2387 15.2383H13.334V17.143H15.2387V15.2383Z" fill="white"/>
<path d="M17.143 15.2383H15.2383V17.143H17.143V15.2383Z" fill="white"/>
<path d="M19.0473 15.2383H17.1426V17.143H19.0473V15.2383Z" fill="white"/>
<path d="M20.9516 15.2383H19.0469V17.143H20.9516V15.2383Z" fill="white"/>
<path d="M22.8579 15.2383H20.9531V17.143H22.8579V15.2383Z" fill="white"/>
<path d="M24.7622 15.2383H22.8574V17.143H24.7622V15.2383Z" fill="white"/>
<path d="M26.6665 15.2383H24.7617V17.143H26.6665V15.2383Z" fill="white"/>
<path d="M28.5708 15.2383H26.666V17.143H28.5708V15.2383Z" fill="white"/>
<path d="M30.477 15.2383H28.5723V17.143H30.477V15.2383Z" fill="white"/>
<path d="M32.3813 15.2383H30.4766V17.143H32.3813V15.2383Z" fill="white"/>
<path d="M34.2856 15.2383H32.3809V17.143H34.2856V15.2383Z" fill="white"/>
<path d="M36.1899 15.2383H34.2852V17.143H36.1899V15.2383Z" fill="white"/>
<path d="M38.0962 15.2383H36.1914V17.143H38.0962V15.2383Z" fill="black"/>
<path d="M11.4282 17.1431H9.52344V19.0478H11.4282V17.1431Z" fill="black"/>
<path d="M13.3325 17.1431H11.4277V19.0478H13.3325V17.1431Z" fill="white"/>
<path d="M15.2387 17.1431H13.334V19.0478H15.2387V17.1431Z" fill="white"/>
<path d="M17.143 17.1431H15.2383V19.0478H17.143V17.1431Z" fill="white"/>
<path d="M19.0473 17.1431H17.1426V19.0478H19.0473V17.1431Z" fill="white"/>
<path d="M20.9516 17.1431H19.0469V19.0478H20.9516V17.1431Z" fill="white"/>
<path d="M22.8579 17.1431H20.9531V19.0478H22.8579V17.1431Z" fill="white"/>
<path d="M24.7622 17.1431H22.8574V19.0478H24.7622V17.1431Z" fill="white"/>
<path d="M26.6665 17.1431H24.7617V19.0478H26.6665V17.1431Z" fill="white"/>
<path d="M28.5708 17.1431H26.666V19.0478H28.5708V17.1431Z" fill="white"/>
<path d="M30.477 17.1431H28.5723V19.0478H30.477V17.1431Z" fill="white"/>
<path d="M32.3813 17.1431H30.4766V19.0478H32.3813V17.1431Z" fill="white"/>
<path d="M34.2856 17.1431H32.3809V19.0478H34.2856V17.1431Z" fill="white"/>
<path d="M36.1899 17.1431H34.2852V19.0478H36.1899V17.1431Z" fill="white"/>
<path d="M38.0962 17.1431H36.1914V19.0478H38.0962V17.1431Z" fill="black"/>
<path d="M11.4282 19.0479H9.52344V20.9526H11.4282V19.0479Z" fill="black"/>
<path d="M13.3325 19.0479H11.4277V20.9526H13.3325V19.0479Z" fill="white"/>
<path d="M15.2387 19.0479H13.334V20.9526H15.2387V19.0479Z" fill="white"/>
<path d="M17.143 19.0479H15.2383V20.9526H17.143V19.0479Z" fill="white"/>
<path d="M19.0473 19.0479H17.1426V20.9526H19.0473V19.0479Z" fill="white"/>
<path d="M20.9516 19.0479H19.0469V20.9526H20.9516V19.0479Z" fill="white"/>
<path d="M22.8579 19.0479H20.9531V20.9526H22.8579V19.0479Z" fill="white"/>
<path d="M24.7622 19.0479H22.8574V20.9526H24.7622V19.0479Z" fill="white"/>
<path d="M26.6665 19.0479H24.7617V20.9526H26.6665V19.0479Z" fill="white"/>
<path d="M28.5708 19.0479H26.666V20.9526H28.5708V19.0479Z" fill="white"/>
<path d="M30.477 19.0479H28.5723V20.9526H30.477V19.0479Z" fill="white"/>
<path d="M32.3813 19.0479H30.4766V20.9526H32.3813V19.0479Z" fill="white"/>
<path d="M34.2856 19.0479H32.3809V20.9526H34.2856V19.0479Z" fill="white"/>
<path d="M36.1899 19.0479H34.2852V20.9526H36.1899V19.0479Z" fill="white"/>
<path d="M38.0962 19.0479H36.1914V20.9526H38.0962V19.0479Z" fill="black"/>
<path d="M11.4282 20.9521H9.52344V22.8569H11.4282V20.9521Z" fill="black"/>
<path d="M13.3325 20.9521H11.4277V22.8569H13.3325V20.9521Z" fill="white"/>
<path d="M15.2387 20.9521H13.334V22.8569H15.2387V20.9521Z" fill="white"/>
<path d="M17.143 20.9521H15.2383V22.8569H17.143V20.9521Z" fill="white"/>
<path d="M19.0473 20.9521H17.1426V22.8569H19.0473V20.9521Z" fill="white"/>
<path d="M20.9516 20.9521H19.0469V22.8569H20.9516V20.9521Z" fill="white"/>
<path d="M22.8579 20.9521H20.9531V22.8569H22.8579V20.9521Z" fill="white"/>
<path d="M24.7622 20.9521H22.8574V22.8569H24.7622V20.9521Z" fill="white"/>
<path d="M26.6665 20.9521H24.7617V22.8569H26.6665V20.9521Z" fill="white"/>
<path d="M28.5708 20.9521H26.666V22.8569H28.5708V20.9521Z" fill="white"/>
<path d="M30.477 20.9521H28.5723V22.8569H30.477V20.9521Z" fill="white"/>
<path d="M32.3813 20.9521H30.4766V22.8569H32.3813V20.9521Z" fill="white"/>
<path d="M34.2856 20.9521H32.3809V22.8569H34.2856V20.9521Z" fill="white"/>
<path d="M36.1899 20.9521H34.2852V22.8569H36.1899V20.9521Z" fill="white"/>
<path d="M38.0962 20.9521H36.1914V22.8569H38.0962V20.9521Z" fill="black"/>
<path d="M9.5239 22.8569H7.61914V24.7617H9.5239V22.8569Z" fill="black"/>
<path d="M11.4282 22.8569H9.52344V24.7617H11.4282V22.8569Z" fill="white"/>
<path d="M13.3325 22.8569H11.4277V24.7617H13.3325V22.8569Z" fill="white"/>
<path d="M15.2387 22.8569H13.334V24.7617H15.2387V22.8569Z" fill="white"/>
<path d="M17.143 22.8569H15.2383V24.7617H17.143V22.8569Z" fill="white"/>
<path d="M19.0473 22.8569H17.1426V24.7617H19.0473V22.8569Z" fill="white"/>
<path d="M20.9516 22.8569H19.0469V24.7617H20.9516V22.8569Z" fill="white"/>
<path d="M22.8579 22.8569H20.9531V24.7617H22.8579V22.8569Z" fill="white"/>
<path d="M24.7622 22.8569H22.8574V24.7617H24.7622V22.8569Z" fill="white"/>
<path d="M26.6665 22.8569H24.7617V24.7617H26.6665V22.8569Z" fill="white"/>
<path d="M28.5708 22.8569H26.666V24.7617H28.5708V22.8569Z" fill="white"/>
<path d="M30.477 22.8569H28.5723V24.7617H30.477V22.8569Z" fill="white"/>
<path d="M32.3813 22.8569H30.4766V24.7617H32.3813V22.8569Z" fill="white"/>
<path d="M34.2856 22.8569H32.3809V24.7617H34.2856V22.8569Z" fill="white"/>
<path d="M36.1899 22.8569H34.2852V24.7617H36.1899V22.8569Z" fill="black"/>
<path d="M7.61961 24.7617H5.71484V26.6665H7.61961V24.7617Z" fill="black"/>
<path d="M9.5239 24.7617H7.61914V26.6665H9.5239V24.7617Z" fill="white"/>
<path d="M11.4282 24.7617H9.52344V26.6665H11.4282V24.7617Z" fill="white"/>
<path d="M13.3325 24.7617H11.4277V26.6665H13.3325V24.7617Z" fill="white"/>
<path d="M15.2387 24.7617H13.334V26.6665H15.2387V24.7617Z" fill="white"/>
<path d="M17.143 24.7617H15.2383V26.6665H17.143V24.7617Z" fill="white"/>
<path d="M19.0473 24.7617H17.1426V26.6665H19.0473V24.7617Z" fill="white"/>
<path d="M20.9516 24.7617H19.0469V26.6665H20.9516V24.7617Z" fill="white"/>
<path d="M22.8579 24.7617H20.9531V26.6665H22.8579V24.7617Z" fill="white"/>
<path d="M24.7622 24.7617H22.8574V26.6665H24.7622V24.7617Z" fill="white"/>
<path d="M26.6665 24.7617H24.7617V26.6665H26.6665V24.7617Z" fill="white"/>
<path d="M28.5708 24.7617H26.666V26.6665H28.5708V24.7617Z" fill="white"/>
<path d="M30.477 24.7617H28.5723V26.6665H30.477V24.7617Z" fill="white"/>
<path d="M32.3813 24.7617H30.4766V26.6665H32.3813V24.7617Z" fill="white"/>
<path d="M34.2856 24.7617H32.3809V26.6665H34.2856V24.7617Z" fill="white"/>
<path d="M36.1899 24.7617H34.2852V26.6665H36.1899V24.7617Z" fill="black"/>
<path d="M5.71336 26.6665H3.80859V28.5713H5.71336V26.6665Z" fill="black"/>
<path d="M7.61961 26.6665H5.71484V28.5713H7.61961V26.6665Z" fill="white"/>
<path d="M9.5239 26.6665H7.61914V28.5713H9.5239V26.6665Z" fill="white"/>
<path d="M11.4282 26.6665H9.52344V28.5713H11.4282V26.6665Z" fill="white"/>
<path d="M13.3325 26.6665H11.4277V28.5713H13.3325V26.6665Z" fill="black"/>
<path d="M15.2387 26.6665H13.334V28.5713H15.2387V26.6665Z" fill="black"/>
<path d="M17.143 26.6665H15.2383V28.5713H17.143V26.6665Z" fill="white"/>
<path d="M19.0473 26.6665H17.1426V28.5713H19.0473V26.6665Z" fill="white"/>
<path d="M20.9516 26.6665H19.0469V28.5713H20.9516V26.6665Z" fill="white"/>
<path d="M22.8579 26.6665H20.9531V28.5713H22.8579V26.6665Z" fill="white"/>
<path d="M24.7622 26.6665H22.8574V28.5713H24.7622V26.6665Z" fill="white"/>
<path d="M26.6665 26.6665H24.7617V28.5713H26.6665V26.6665Z" fill="white"/>
<path d="M28.5708 26.6665H26.666V28.5713H28.5708V26.6665Z" fill="white"/>
<path d="M30.477 26.6665H28.5723V28.5713H30.477V26.6665Z" fill="white"/>
<path d="M32.3813 26.6665H30.4766V28.5713H32.3813V26.6665Z" fill="white"/>
<path d="M34.2856 26.6665H32.3809V28.5713H34.2856V26.6665Z" fill="black"/>
<path d="M5.71336 28.5713H3.80859V30.4761H5.71336V28.5713Z" fill="black"/>
<path d="M7.61961 28.5713H5.71484V30.4761H7.61961V28.5713Z" fill="black"/>
<path d="M9.5239 28.5713H7.61914V30.4761H9.5239V28.5713Z" fill="black"/>
<path d="M11.4282 28.5713H9.52344V30.4761H11.4282V28.5713Z" fill="black"/>
<path d="M17.143 28.5713H15.2383V30.4761H17.143V28.5713Z" fill="black"/>
<path d="M19.0473 28.5713H17.1426V30.4761H19.0473V28.5713Z" fill="black"/>
<path d="M20.9516 28.5713H19.0469V30.4761H20.9516V28.5713Z" fill="white"/>
<path d="M22.8579 28.5713H20.9531V30.4761H22.8579V28.5713Z" fill="white"/>
<path d="M24.7622 28.5713H22.8574V30.4761H24.7622V28.5713Z" fill="white"/>
<path d="M26.6665 28.5713H24.7617V30.4761H26.6665V28.5713Z" fill="white"/>
<path d="M28.5708 28.5713H26.666V30.4761H28.5708V28.5713Z" fill="white"/>
<path d="M30.477 28.5713H28.5723V30.4761H30.477V28.5713Z" fill="black"/>
<path d="M32.3813 28.5713H30.4766V30.4761H32.3813V28.5713Z" fill="black"/>
<path d="M20.9516 30.4761H19.0469V32.3808H20.9516V30.4761Z" fill="black"/>
<path d="M22.8579 30.4761H20.9531V32.3808H22.8579V30.4761Z" fill="black"/>
<path d="M24.7622 30.4761H22.8574V32.3808H24.7622V30.4761Z" fill="black"/>
<path d="M26.6665 30.4761H24.7617V32.3808H26.6665V30.4761Z" fill="black"/>
<path d="M28.5708 30.4761H26.666V32.3808H28.5708V30.4761Z" fill="black"/>
<rect x="14" y="7" width="20" height="20" fill="url(#pattern0)"/>
<defs>
<pattern id="pattern0" patternContentUnits="objectBoundingBox" width="1" height="1">
<use xlink:href="#image0_2110_3279" transform="scale(0.015625)"/>
</pattern>
</defs>
</svg>
