<svg xmlns="http://www.w3.org/2000/svg" width="179" height="59" viewBox="0 0 179 59" fill="none">
  <rect x="7.64844" width="163.702" height="2.26936" fill="#451B0B"/>
  <rect x="7.64844" y="56.7305" width="163.702" height="2.26936" fill="#451B0B"/>
  <rect x="171.352" y="2.27246" width="3.05984" height="2.26936" fill="#451B0B"/>
  <rect width="3.05984" height="2.26936" transform="matrix(-1 0 0 1 7.64844 2.27246)" fill="#451B0B"/>
  <rect x="174.414" y="4.54053" width="1.52992" height="2.26936" fill="#451B0B"/>
  <rect width="1.52992" height="2.26936" transform="matrix(-1 0 0 1 4.5918 4.54053)" fill="#451B0B"/>
  <rect x="175.941" y="6.80469" width="1.52992" height="2.26936" fill="#451B0B"/>
  <rect width="1.52992" height="2.26936" transform="matrix(-1 0 0 1 3.06445 6.80469)" fill="#451B0B"/>
  <rect x="177.471" y="9.07715" width="1.52992" height="40.8486" fill="#451B0B"/>
  <rect width="1.52992" height="40.8486" transform="matrix(-1 0 0 1 1.5293 9.07715)" fill="#451B0B"/>
  <rect x="175.941" y="49.9258" width="1.52992" height="2.26936" fill="#451B0B"/>
  <rect width="1.52992" height="2.26936" transform="matrix(-1 0 0 1 3.06445 49.9258)" fill="#451B0B"/>
  <rect x="174.414" y="52.1978" width="1.52992" height="2.26936" fill="#451B0B"/>
  <rect width="1.52992" height="2.26936" transform="matrix(-1 0 0 1 4.5918 52.1978)" fill="#451B0B"/>
  <rect x="171.352" y="54.4624" width="3.05984" height="2.26936" fill="#451B0B"/>
  <rect width="3.05984" height="2.26936" transform="matrix(-1 0 0 1 7.64844 54.4624)" fill="#451B0B"/>
  <rect x="7.64844" y="2.27246" width="163.702" height="54.4647" fill="#BC8C61"/>
  <rect x="171.352" y="4.54053" width="3.05984" height="49.926" fill="#BC8C61"/>
  <rect x="174.414" y="6.80469" width="1.52992" height="45.3873" fill="#BC8C61"/>
  <rect x="175.941" y="9.07715" width="1.52992" height="40.8486" fill="#BC8C61"/>
  <rect x="1.5293" y="9.07715" width="1.52992" height="40.8486" fill="#BC8C61"/>
  <rect x="3.06445" y="6.80469" width="1.52992" height="45.3873" fill="#BC8C61"/>
  <rect x="4.5918" y="4.54053" width="3.05984" height="49.926" fill="#BC8C61"/>
  <rect x="11.377" y="5.0332" width="155.968" height="1.86889" fill="#B47C57"/>
  <rect x="11.377" y="51.7549" width="155.968" height="1.86889" fill="#B47C57"/>
  <rect x="167.34" y="6.9043" width="2.91528" height="1.86889" fill="#B47C57"/>
  <rect width="2.91528" height="1.86889" transform="matrix(-1 0 0 1 11.377 6.9043)" fill="#B47C57"/>
  <rect x="170.258" y="8.76758" width="1.45764" height="1.86889" fill="#B47C57"/>
  <rect width="1.45764" height="1.86889" transform="matrix(-1 0 0 1 8.45703 8.76758)" fill="#B47C57"/>
  <rect x="171.713" y="10.6392" width="1.45764" height="1.86889" fill="#B47C57"/>
  <rect width="1.45764" height="1.86889" transform="matrix(-1 0 0 1 7.00586 10.6392)" fill="#B47C57"/>
  <rect x="173.172" y="12.5103" width="1.45764" height="33.64" fill="#B47C57"/>
  <rect width="1.45764" height="33.64" transform="matrix(-1 0 0 1 5.54492 12.5103)" fill="#B47C57"/>
  <rect x="171.713" y="46.1455" width="1.45764" height="1.86889" fill="#B47C57"/>
  <rect width="1.45764" height="1.86889" transform="matrix(-1 0 0 1 7.00586 46.1455)" fill="#B47C57"/>
  <rect x="170.258" y="48.0166" width="1.45764" height="1.86889" fill="#B47C57"/>
  <rect width="1.45764" height="1.86889" transform="matrix(-1 0 0 1 8.45703 48.0166)" fill="#B47C57"/>
  <rect x="167.34" y="49.8877" width="2.91528" height="1.86889" fill="#B47C57"/>
  <rect width="2.91528" height="1.86889" transform="matrix(-1 0 0 1 11.377 49.8877)" fill="#B47C57"/>
  <rect x="11.377" y="6.9043" width="155.968" height="44.8533" fill="#FCBD80"/>
  <rect x="167.34" y="8.76758" width="2.91528" height="41.1155" fill="#FCBD80"/>
  <rect x="170.258" y="10.6392" width="1.45764" height="37.3778" fill="#FCBD80"/>
  <rect x="171.713" y="12.5103" width="1.45764" height="33.64" fill="#FCBD80"/>
  <rect x="5.54492" y="12.5103" width="1.45764" height="33.64" fill="#FCBD80"/>
  <rect x="7.00586" y="10.6392" width="1.45764" height="37.3778" fill="#FCBD80"/>
  <rect x="8.45703" y="8.76758" width="2.91528" height="41.1155" fill="#FCBD80"/>
</svg>